<?xml version="1.0" standalone="no"?>
<!DOCTYPE svg PUBLIC "-//W3C//DTD SVG 1.1//EN" "http://www.w3.org/Graphics/SVG/1.1/DTD/svg11.dtd" >
<svg xmlns="http://www.w3.org/2000/svg" xmlns:xlink="http://www.w3.org/1999/xlink" version="1.1">
<metadata>
Created by FontForge 20170731 at Wed Sep 19 18:49:41 2018
 By Aleksey,,,
Copyright 2018 IBM Corp. All rights reserved.
</metadata>
<defs>
<font id="IBMPlexSerif-ExtraLightItalic" horiz-adv-x="0" >
  <font-face 
    font-family="IBM Plex Serif ExtraLight"
    font-weight="200"
    font-style="italic"
    font-stretch="normal"
    units-per-em="1000"
    panose-1="2 6 3 3 5 4 6 0 2 3"
    ascent="800"
    descent="-200"
    x-height="508"
    cap-height="698"
    bbox="-231 -220 1108 1090"
    underline-thickness="23"
    underline-position="-146"
    slope="-14"
    unicode-range="U+000D-FB02"
  />
<missing-glyph horiz-adv-x="424" 
d="M32 0v780h360v-780h-360zM55 23h314v734h-314v-734z" />
    <glyph glyph-name="fi" unicode="fi" horiz-adv-x="547" 
d="M-66 -212q-30 0 -46.5 12.5t-16.5 32.5q0 14 9.5 24t23.5 10t22 -9t8 -20q0 -20 -20 -32l1 -3h11q45 0 71 31.5t40 90.5l140 560h-99l6 23h99l18 77q22 88 78.5 131.5t135.5 43.5q49 0 78 -22.5t29 -53.5q0 -16 -9.5 -26t-23.5 -10t-22.5 8t-8.5 20q0 14 9.5 23t24.5 13
v3q-12 11 -30.5 18t-46.5 7q-61 0 -110 -38.5t-69 -119.5l-18 -74h228l40 8l-123 -493l18 -8l130 114l11 -11l-84 -83q-29 -29 -44 -38t-29 -9q-13 0 -23.5 7.5t-10.5 25.5q0 11 5 31l107 433h-232l-139 -562q-16 -63 -50 -99t-88 -36z" />
    <glyph glyph-name="fl" unicode="fl" horiz-adv-x="546" 
d="M-66 -212q-30 0 -46.5 12.5t-16.5 32.5q0 14 9.5 24t23.5 10t22 -9t8 -20q0 -20 -20 -32l1 -3h11q45 0 71 31.5t40 90.5l140 560h-99l6 23h99l19 80q22 88 77.5 130t135.5 42q27 0 53 -2.5t42 -8.5l34 11l-185 -737l18 -8l130 114l11 -11l-85 -83q-28 -29 -43 -38t-29 -9
q-13 0 -23.5 7.5t-10.5 25.5q0 11 5 31l170 680q-21 5 -42.5 6.5t-42.5 1.5q-65 0 -113 -37t-68 -118l-18 -77h121l-6 -23h-122l-139 -562q-16 -63 -50 -99t-88 -36z" />
    <glyph glyph-name=".notdef" horiz-adv-x="424" 
d="M32 0v780h360v-780h-360zM55 23h314v734h-314v-734z" />
    <glyph glyph-name=".null" 
 />
    <glyph glyph-name=".null" 
 />
    <glyph glyph-name="uni000D" unicode="&#xd;" horiz-adv-x="212" 
 />
    <glyph glyph-name="space" unicode=" " horiz-adv-x="212" 
 />
    <glyph glyph-name="exclam" unicode="!" horiz-adv-x="242" 
d="M60 -6q-16 0 -23.5 9t-7.5 21q0 5 1.5 10t3.5 9q4 10 13 16.5t23 6.5q16 0 23.5 -9t7.5 -21q0 -5 -1.5 -10t-3.5 -9q-4 -10 -13 -16.5t-23 -6.5zM146 432l66 266h36l-66 -266l-73 -254h-17z" />
    <glyph glyph-name="quotedbl" unicode="&#x22;" horiz-adv-x="351" 
d="M187 667l21 81h33l-21 -81l-52 -175h-17zM337 667l21 81h33l-21 -81l-52 -175h-17z" />
    <glyph glyph-name="numbersign" unicode="#" horiz-adv-x="671" 
d="M183 218h-134l5 23h138l90 216h-134l6 23h138l90 218h29l-90 -218h169l90 218h29l-90 -218h134l-5 -23h-138l-90 -216h134l-6 -23h-138l-90 -218h-29l90 218h-169l-90 -218h-29zM221 241h170l90 216h-170z" />
    <glyph glyph-name="dollar" unicode="$" horiz-adv-x="559" 
d="M201 0q-66 5 -107 32.5t-41 65.5q0 19 9.5 31t26.5 12q15 0 24 -9.5t9 -23.5q0 -16 -10.5 -27t-29.5 -14v-3q17 -17 48 -27.5t77 -13.5l82 331l-23 10q-57 23 -87 59t-30 94q0 41 16.5 74.5t46 57.5t69 37t84.5 13h10l21 81h25l-21 -83q60 -6 98.5 -32.5t38.5 -64.5
q0 -19 -9.5 -31t-26.5 -12q-14 0 -23.5 9.5t-9.5 23.5q0 16 10.5 27t29.5 14v3q-17 16 -44.5 27t-69.5 14l-73 -296l32 -13q67 -28 95 -65t28 -91q0 -43 -16 -81.5t-46.5 -67t-75.5 -45.5t-103 -17h-9l-20 -81h-25zM232 23h7q46 1 83.5 15t64.5 38t41.5 57t14.5 71
q0 54 -28.5 82.5t-81.5 50.5l-21 9zM298 388l72 287h-9q-44 0 -77 -13t-55.5 -34t-34 -48.5t-11.5 -56.5q0 -51 27 -81t75 -49z" />
    <glyph glyph-name="percent" unicode="%" horiz-adv-x="831" 
d="M214 345q21 0 42 8t39.5 27t34.5 49.5t28 75.5q6 23 10 49t4 46q0 48 -21.5 68.5t-52.5 20.5q-21 0 -42 -8t-39.5 -27t-34.5 -49.5t-28 -75.5q-6 -23 -10 -49t-4 -46q0 -48 21.5 -68.5t52.5 -20.5zM571 9q21 0 42 8t39.5 27t34.5 49.5t28 75.5q6 23 10 49t4 46
q0 48 -21.5 68.5t-52.5 20.5q-21 0 -42 -8t-39.5 -27t-34.5 -49.5t-28 -75.5q-6 -23 -10 -49t-4 -46q0 -48 21.5 -68.5t52.5 -20.5zM213 324q-45 0 -74 28t-29 90q0 52 13 100t38 85.5t59.5 60t78.5 22.5q45 0 74 -28t29 -90q0 -52 -13 -100t-38 -85.5t-60 -60t-78 -22.5z
M570 -12q-45 0 -74 28t-29 90q0 52 13 100t38 85.5t59.5 60t78.5 22.5q45 0 74 -28t29 -90q0 -52 -13 -100t-38 -85.5t-60 -60t-78 -22.5zM727 698h31l-617 -698h-31z" />
    <glyph glyph-name="ampersand" unicode="&#x26;" horiz-adv-x="626" 
d="M198 -12q-86 0 -127 39.5t-41 106.5q0 52 18.5 90.5t47 67t62 48.5t62.5 35l-8 14q-19 32 -29 60.5t-10 63.5q0 40 14 76t39 63t60.5 42.5t77.5 15.5q61 0 92.5 -27.5t31.5 -80.5q0 -35 -16 -65.5t-46 -58.5t-72 -54.5t-94 -53.5l147 -254q33 41 58.5 95t40.5 122h-82
l4 22h191l-4 -22h-82q-18 -78 -47 -137.5t-66 -101.5l17 -30q15 -26 38.5 -33.5t67.5 -7.5l-5 -23h-24q-41 0 -64.5 11t-42.5 43l-10 16q-45 -42 -95 -62t-104 -20zM249 388q36 18 68.5 38t58.5 42t44.5 44.5t26.5 46.5q7 22 7 43q0 40 -21.5 62.5t-69.5 22.5
q-59 0 -97.5 -34.5t-51.5 -86.5q-3 -12 -5 -24t-2 -24q0 -38 11.5 -68t30.5 -62zM201 13q107 0 184 79l-154 263q-24 -13 -49 -28t-47 -35t-38 -45t-22 -58l-5 -27.5t-3 -27.5q0 -33 10.5 -56t28.5 -37.5t42.5 -21t52.5 -6.5z" />
    <glyph glyph-name="quotesingle" unicode="'" horiz-adv-x="201" 
d="M187 667l21 81h33l-21 -81l-52 -175h-17z" />
    <glyph glyph-name="parenleft" unicode="(" horiz-adv-x="280" 
d="M157 -142q-20 21 -38.5 51t-32.5 68t-22.5 83t-8.5 95q0 41 5.5 81.5t15.5 81.5q18 70 49.5 135.5t72 122.5t88 105t97.5 83l21 -6q-44 -32 -87.5 -76.5t-81.5 -98.5t-68 -117t-48 -132l-11 -42q-11 -46 -16 -82t-5 -66q0 -86 24 -160.5t66 -119.5l-20 -6v0z" />
    <glyph glyph-name="parenright" unicode=")" horiz-adv-x="280" 
d="M-97 -136q44 32 87.5 76.5t81.5 98.5t68 117t48 132l11 42q11 46 16 82t5 66q0 86 -24 160.5t-66 119.5l20 6q20 -21 38.5 -51t32.5 -68t22.5 -83t8.5 -95q0 -41 -5.5 -81.5t-15.5 -81.5q-18 -70 -49.5 -135.5t-72 -122.5t-88 -105t-97.5 -83z" />
    <glyph glyph-name="asterisk" unicode="*" horiz-adv-x="432" 
d="M149 451l40 40l82 71l11 -9l-71 -82l-38 -40zM183 600l-43 15l15 29l43 -15l80 -38l-6 -12zM330 471l-29 83l12 6l46 -74l19 -39l-30 -15zM309 698l13 49h33l-12 -49l-33 -95h-15zM321 591l95 37l50 16l6 -30l-50 -15l-99 -22z" />
    <glyph glyph-name="plus" unicode="+" horiz-adv-x="550" 
d="M270 294h-218l6 24h219l57 227h28l-57 -227h218l-6 -24h-219l-57 -227h-28z" />
    <glyph glyph-name="comma" unicode="," horiz-adv-x="214" 
d="M-56 -144q42 32 69 68.5t38 70.5h-6q-13 0 -21.5 8t-8.5 20q0 16 11 30t31 14q16 0 24.5 -9.5t8.5 -24.5q0 -9 -3.5 -19t-8.5 -22q-8 -19 -20 -38.5t-27 -38t-32 -34t-33 -25.5h-22v0z" />
    <glyph glyph-name="hyphen" unicode="-" horiz-adv-x="351" 
d="M82 320h219l-7 -30h-219z" />
    <glyph glyph-name="period" unicode="." horiz-adv-x="214" 
d="M46 -6q-16 0 -23.5 9t-7.5 21q0 5 1.5 10t3.5 9q4 10 13 16.5t23 6.5q16 0 23.5 -9t7.5 -21q0 -5 -1.5 -10t-3.5 -9q-4 -10 -13 -16.5t-23 -6.5z" />
    <glyph glyph-name="slash" unicode="/" horiz-adv-x="324" 
d="M376 748h30l-460 -891h-30z" />
    <glyph glyph-name="zero" unicode="0" horiz-adv-x="550" 
d="M220 12q89 0 151 75.5t94 215.5q10 45 17 77t11 56t5.5 42.5t1.5 35.5q0 78 -30 125t-100 47q-89 0 -151 -75.5t-94 -215.5q-11 -45 -18 -77t-10.5 -56t-5 -42.5t-1.5 -35.5q0 -78 30 -125t100 -47zM218 -12q-82 0 -121.5 53t-39.5 154q0 47 7.5 103t23.5 113t41 111
t60 96t80.5 67t102.5 25q81 0 121 -53t40 -154q0 -46 -7.5 -102.5t-23.5 -113.5t-41 -111t-60 -96t-80.5 -67t-102.5 -25z" />
    <glyph glyph-name="one" unicode="1" horiz-adv-x="550" 
d="M54 23h155l159 641l-182 -88l-2 24l195 98h35l-168 -675h161l-5 -23h-353z" />
    <glyph glyph-name="two" unicode="2" horiz-adv-x="550" 
d="M20 28l290 259q59 52 97.5 100t53.5 106q8 30 11 44.5t3 25.5q0 60 -32.5 91t-104.5 31q-40 0 -73 -11t-56 -31v-4q31 -6 31 -35q0 -14 -9 -25t-26 -11q-15 0 -24.5 9.5t-9.5 26.5q0 20 15 39t39.5 34t55.5 24t63 9q88 0 128 -39t40 -108q0 -42 -14.5 -81t-39 -75.5
t-58.5 -71.5t-73 -69l-269 -233v-3h322l27 105h31l-34 -135h-390z" />
    <glyph glyph-name="three" unicode="3" horiz-adv-x="550" 
d="M200 -12q-37 0 -67 9t-51 23.5t-32.5 31t-11.5 31.5q0 20 11.5 32.5t28.5 12.5q16 0 23.5 -8.5t7.5 -21.5q0 -17 -12 -27t-28 -13l-1 -5q25 -23 59 -31.5t69 -8.5q75 0 128.5 37.5t70.5 102.5q4 17 8.5 39t4.5 39q0 31 -11 54t-30.5 38t-46 22.5t-56.5 7.5h-51l6 25h56
q69 0 120 32t65 89q5 17 9.5 38.5t4.5 39.5q0 49 -31.5 78.5t-100.5 29.5q-39 0 -75.5 -10.5t-59.5 -30.5l-1 -4q32 -6 32 -35q0 -14 -9 -25t-26 -11q-15 0 -24.5 9.5t-9.5 26.5q0 19 15.5 38t40.5 34t57 24t66 9q78 0 120.5 -37t42.5 -101q0 -43 -13.5 -78t-37.5 -61
t-57 -42.5t-72 -23.5l-1 -4q23 -3 44 -14t36.5 -28.5t25 -41.5t9.5 -54q0 -52 -18 -95.5t-50 -75t-77.5 -49t-99.5 -17.5z" />
    <glyph glyph-name="four" unicode="4" horiz-adv-x="550" 
d="M327 157h-314l6 26l431 515h47l-128 -515h87l-7 -26h-87l-39 -157h-35zM50 183h284l120 483h-2z" />
    <glyph glyph-name="five" unicode="5" horiz-adv-x="550" 
d="M209 -12q-35 0 -63.5 9t-48.5 23.5t-30.5 31t-10.5 31.5q0 20 11.5 32.5t28.5 12.5q16 0 23.5 -8.5t7.5 -21.5q0 -17 -12 -27t-28 -13l-1 -5q23 -21 54 -30.5t64 -9.5q79 0 134.5 44.5t75.5 124.5q4 16 8.5 37.5t4.5 40.5q0 72 -34.5 102.5t-90.5 30.5q-49 0 -85 -19.5
t-65 -55.5l-30 7l109 373h313l-7 -30h-289l-93 -324l4 -1q29 38 66.5 57t88.5 19q69 0 109.5 -39.5t40.5 -117.5q0 -53 -18 -102.5t-51 -87.5t-80.5 -61t-105.5 -23z" />
    <glyph glyph-name="six" unicode="6" horiz-adv-x="550" 
d="M221 -12q-74 0 -114.5 42.5t-40.5 124.5q0 47 12.5 101t36.5 109t60 108.5t83.5 99.5t106 81.5t128.5 55.5l6 -18q-69 -22 -129.5 -63.5t-108.5 -95t-82.5 -114t-52.5 -120.5l5 -1q31 58 75.5 89.5t113.5 31.5t109 -39t40 -118q0 -59 -19.5 -109t-53 -87t-78.5 -57.5
t-97 -20.5zM225 13q73 0 124 45.5t71 123.5q4 16 8 38.5t4 42.5q0 69 -32.5 100t-90.5 31q-73 0 -124 -45.5t-71 -123.5q-4 -16 -8 -38.5t-4 -42.5q0 -69 32.5 -100t90.5 -31z" />
    <glyph glyph-name="seven" unicode="7" horiz-adv-x="550" 
d="M546 668h-327l-39 -154h-31l46 184h389l-5 -25l-425 -673h-39z" />
    <glyph glyph-name="eight" unicode="8" horiz-adv-x="550" 
d="M219 -12q-84 0 -131 43t-47 114q0 44 15.5 82t42 66.5t62 47.5t75.5 25l1 4q-40 13 -63 46t-23 82q0 45 17.5 83.5t47.5 67t71.5 45t89.5 16.5q73 0 115 -38.5t42 -102.5q0 -39 -14 -73.5t-37 -61.5t-53.5 -44.5t-63.5 -23.5l-1 -5q46 -16 75 -51.5t29 -90.5
q0 -48 -18.5 -90t-52 -73.5t-79.5 -49.5t-100 -18zM222 12q78 0 131.5 42.5t70.5 113.5q5 20 7 32t2 25q0 59 -38.5 94t-105.5 35q-78 0 -131.5 -43t-70.5 -114q-5 -20 -7 -32t-2 -25q0 -59 38.5 -93.5t105.5 -34.5zM310 377q34 0 63.5 10.5t53 29.5t39 45t23.5 57
q5 18 7 30t2 24q0 53 -32 83.5t-92 30.5q-35 0 -64 -10.5t-52.5 -29.5t-39.5 -45t-23 -57q-5 -18 -7 -30t-2 -24q0 -53 32 -83.5t92 -30.5z" />
    <glyph glyph-name="nine" unicode="9" horiz-adv-x="550" 
d="M99 6q69 22 129.5 63.5t108.5 94.5t82.5 114t52.5 121l-5 1q-31 -58 -75.5 -89.5t-113.5 -31.5t-109 39t-40 118q0 59 19.5 109t53 87t78.5 57.5t97 20.5q74 0 114.5 -42.5t40.5 -124.5q0 -47 -12.5 -101t-36.5 -109t-60 -108.5t-83.5 -99.5t-106.5 -82t-128 -55z
M289 304q73 0 124 45.5t71 123.5q4 16 8 38.5t4 42.5q0 69 -32.5 100t-90.5 31q-73 0 -124 -45.5t-71 -123.5q-4 -16 -8 -38.5t-4 -42.5q0 -69 32.5 -100t90.5 -31z" />
    <glyph glyph-name="colon" unicode=":" horiz-adv-x="233" 
d="M55 -6q-16 0 -23.5 9t-7.5 21q0 5 1.5 10t3.5 9q4 10 13 16.5t23 6.5q16 0 23.5 -9t7.5 -21q0 -5 -1.5 -10t-3.5 -9q-4 -10 -13 -16.5t-23 -6.5zM167 442q-16 0 -23.5 9t-7.5 21q0 5 1.5 10t3.5 9q4 10 13 16.5t23 6.5q16 0 23.5 -9t7.5 -21q0 -5 -1.5 -10t-3.5 -9
q-4 -10 -13 -16.5t-23 -6.5z" />
    <glyph glyph-name="semicolon" unicode=";" horiz-adv-x="232" 
d="M-48 -144q42 32 69 68.5t38 70.5h-6q-13 0 -21.5 8t-8.5 20q0 16 11 30t31 14q16 0 24.5 -9.5t8.5 -24.5q0 -9 -3.5 -19t-8.5 -22q-8 -19 -20 -38.5t-27 -38t-32 -34t-33 -25.5h-22v0zM166 442q-16 0 -23.5 9t-7.5 21q0 5 1.5 10t3.5 9q4 10 13 16.5t23 6.5q16 0 23.5 -9
t7.5 -21q0 -5 -1.5 -10t-3.5 -9q-4 -10 -13 -16.5t-23 -6.5z" />
    <glyph glyph-name="less" unicode="&#x3c;" horiz-adv-x="550" 
d="M85 284l6 24l443 259l-9 -34l-407 -238l-1 -4l289 -237l-7 -27z" />
    <glyph glyph-name="equal" unicode="=" horiz-adv-x="550" 
d="M35 226h465l-6 -24h-465zM81 410h465l-6 -24h-465z" />
    <glyph glyph-name="greater" unicode="&#x3e;" horiz-adv-x="550" 
d="M46 61l407 238l1 4l-289 237l7 27l314 -257l-6 -24l-443 -259z" />
    <glyph glyph-name="question" unicode="?" horiz-adv-x="479" 
d="M197 353q88 7 145.5 49.5t74.5 102.5q7 24 10.5 42.5t3.5 32.5q0 52 -32.5 78.5t-87.5 26.5q-47 0 -79.5 -11.5t-56.5 -30.5v-4q31 -6 31 -35q0 -14 -9.5 -25t-26.5 -11q-16 0 -24.5 10.5t-8.5 24.5q0 20 15 39.5t39.5 34.5t57 24t68.5 9q77 0 114 -37.5t37 -93.5
q0 -48 -18 -90t-50.5 -74.5t-79 -54t-103.5 -27.5l-37 -150h-25zM126 -6q-16 0 -23.5 9t-7.5 21q0 5 1.5 10t3.5 9q4 10 13 16.5t23 6.5q16 0 23.5 -9t7.5 -21q0 -5 -1.5 -10t-3.5 -9q-4 -10 -13 -16.5t-23 -6.5z" />
    <glyph glyph-name="at" unicode="@" horiz-adv-x="837" 
d="M378 -121q-149 0 -230.5 78t-81.5 229q0 102 33.5 196.5t93.5 167.5t143 116.5t183 43.5q62 0 111 -18.5t83.5 -53.5t52.5 -86.5t18 -118.5q0 -62 -15.5 -127t-44 -117.5t-69 -86t-90.5 -33.5q-44 0 -61 27t-17 65q0 28 8 62l7 26h-6q-12 -30 -28.5 -62t-37.5 -58.5
t-46 -43t-53 -16.5q-39 0 -54 32t-15 82q0 52 14 109.5t40.5 105t65 78.5t88.5 31q31 0 53.5 -13.5t27.5 -44.5h5l21 46h15l-70 -282q-4 -16 -6.5 -29t-2.5 -26q0 -32 12.5 -50.5t39.5 -18.5q24 0 49.5 12.5t48.5 38.5t42.5 66.5t33.5 96.5q11 42 14.5 74t3.5 61
q0 118 -61 184.5t-177 66.5q-71 0 -135.5 -25t-117.5 -71.5t-92.5 -114t-60.5 -151.5q-8 -33 -13.5 -72t-5.5 -72q0 -137 74 -210t214 -73h156l-4 -14q-38 -3 -82.5 -5t-73.5 -2zM340 94q21 0 41.5 14.5t39.5 37t36 51t30.5 56t22.5 51t13 37.5l10 43q12 47 0 74t-57 27
q-37 0 -64.5 -18t-47.5 -47t-34 -66t-23 -74q-4 -15 -8.5 -45t-4.5 -59q0 -33 9 -57.5t37 -24.5z" />
    <glyph glyph-name="A" unicode="A" horiz-adv-x="648" 
d="M-40 23h55l399 675h43l62 -675h55l-5 -23h-186l5 23h94l-18 210h-293l-122 -210h94l-5 -23h-183zM185 257h277l-36 407h-3z" />
    <glyph glyph-name="B" unicode="B" horiz-adv-x="621" 
d="M-2 23h78l162 652h-78l5 23h285q73 0 109 -33t36 -96q0 -39 -12.5 -72.5t-34.5 -60t-52.5 -44t-67.5 -23.5v-4q58 -8 83 -42.5t25 -89.5q0 -48 -15.5 -90.5t-45 -74t-71.5 -50t-95 -18.5h-316zM113 24h188q69 0 118.5 35.5t65.5 99.5q5 17 9.5 39t4.5 41q0 54 -28 84.5
t-94 30.5h-182zM201 378h169q62 0 109.5 31.5t64.5 85.5q6 17 10 38.5t4 40.5q0 45 -25.5 72.5t-85.5 27.5h-172z" />
    <glyph glyph-name="C" unicode="C" horiz-adv-x="600" 
d="M284 -12q-98 0 -154 55t-56 174q0 50 9 106t27 111t46.5 105t67 88t88.5 60.5t112 22.5q59 0 100.5 -22t53.5 -64h3l19 74h31l-51 -205h-31l17 69q3 13 3 23q0 24 -11 42.5t-30.5 31.5t-45.5 19.5t-56 6.5q-53 0 -98.5 -20.5t-81.5 -58t-63 -90.5t-43 -119
q-10 -40 -15.5 -69.5t-8.5 -51t-4 -37t-1 -27.5q0 -197 179 -197q74 0 127 39t90 101l19 -10q-18 -32 -41 -60t-53 -50t-66.5 -34.5t-81.5 -12.5z" />
    <glyph glyph-name="D" unicode="D" horiz-adv-x="672" 
d="M-2 23h78l162 652h-78l5 23h249q103 0 163 -52.5t60 -167.5q0 -49 -8.5 -103.5t-27 -108t-47.5 -101.5t-69 -85t-92.5 -58.5t-117.5 -21.5h-282zM113 24h161q51 0 97.5 19t85.5 55t68 87.5t46 116.5q10 40 16 69t9 50.5t3.5 36t0.5 26.5q0 190 -189 190h-136z" />
    <glyph glyph-name="E" unicode="E" horiz-adv-x="584" 
d="M-2 23h78l162 652h-78l5 23h455l-38 -153h-31l32 129h-308l-74 -296h229l21 85h27l-48 -193h-27l21 84h-228l-83 -330h326l33 131h31l-39 -155h-471z" />
    <glyph glyph-name="F" unicode="F" horiz-adv-x="552" 
d="M-2 23h78l162 652h-78l5 23h447l-38 -153h-31l32 129h-300l-76 -308h229l21 85h27l-48 -193h-27l21 84h-230l-79 -319h98l-5 -23h-213z" />
    <glyph glyph-name="G" unicode="G" horiz-adv-x="685" 
d="M295 -12q-103 0 -162 55t-59 174q0 50 9 106t28.5 111t49 105t70 88t93.5 60.5t118 22.5q64 0 109.5 -23t57.5 -66h3l19 77h31l-51 -205h-31l17 69q3 13 3 23q0 24 -12.5 42.5t-34 31.5t-50 19.5t-61.5 6.5q-109 0 -192 -80t-119 -244q-11 -50 -15.5 -87.5t-4.5 -61.5
q0 -198 188 -198q39 0 73.5 12.5t62 34t46.5 49.5t27 60l32 130h-128l5 24h233l-6 -24h-69l-75 -300h-19l12 98h-4q-26 -47 -77 -78.5t-117 -31.5z" />
    <glyph glyph-name="H" unicode="H" horiz-adv-x="726" 
d="M-2 23h78l162 652h-78l5 23h193l-5 -23h-78l-74 -299h385l74 299h-78l5 23h193l-5 -23h-78l-162 -652h78l-5 -23h-193l5 23h78l82 329h-385l-82 -329h78l-5 -23h-193z" />
    <glyph glyph-name="I" unicode="I" horiz-adv-x="304" 
d="M-2 23h78l162 652h-78l5 23h193l-5 -23h-78l-162 -652h78l-5 -23h-193z" />
    <glyph glyph-name="J" unicode="J" horiz-adv-x="422" 
d="M95 -12q-50 0 -80 20t-30 52q0 17 9 27.5t26 10.5q16 0 24.5 -9t8.5 -23q0 -11 -6.5 -21t-22.5 -17v-3q8 -7 26 -11t40 -4q54 0 90 31t51 93l134 541h-98l5 23h213l-5 -23h-78l-136 -548q-17 -70 -61.5 -104.5t-109.5 -34.5z" />
    <glyph glyph-name="K" unicode="K" horiz-adv-x="648" 
d="M-2 23h78l162 652h-78l5 23h193l-5 -23h-78l-98 -392h3l136 128l282 264h-88l5 23h186l-5 -23h-62l-292 -272l166 -380h62l-6 -23h-188l5 23h88l-154 357l-148 -140l-54 -217h78l-5 -23h-193z" />
    <glyph glyph-name="L" unicode="L" horiz-adv-x="553" 
d="M-2 23h78l162 652h-78l5 23h193l-5 -23h-78l-162 -651h298l33 131h31l-39 -155h-443z" />
    <glyph glyph-name="M" unicode="M" horiz-adv-x="811" 
d="M-2 23h78l162 652h-78l5 23h126l116 -421h4l323 421h132l-5 -23h-78l-163 -652h78l-5 -23h-193l5 23h78l159 637h-4l-131 -169l-215 -283l-78 283l-47 167h-4l-158 -635h78l-5 -23h-185z" />
    <glyph glyph-name="N" unicode="N" horiz-adv-x="737" 
d="M-2 23h78l162 652h-78l5 23h125l233 -647h3l156 624h-78l5 23h186l-5 -23h-78l-169 -675h-38l-237 657h-4l-158 -634h78l-5 -23h-186z" />
    <glyph glyph-name="O" unicode="O" horiz-adv-x="679" 
d="M292 13q53 0 98 20.5t81.5 58t63.5 91t43 120.5q10 39 15.5 68t8.5 51t4 37.5t1 27.5q0 96 -45 147t-136 51q-53 0 -98 -20.5t-81.5 -58t-63.5 -91t-43 -120.5q-10 -39 -15.5 -68t-8.5 -51t-4 -37.5t-1 -27.5q0 -96 45 -147t136 -51zM289 -12q-105 0 -160 60t-55 172
q0 48 8.5 103t27 109.5t46.5 104.5t67.5 88.5t90.5 61.5t115 23q105 0 160 -60t55 -172q0 -48 -8.5 -103t-27 -109.5t-46.5 -104.5t-67.5 -88.5t-90.5 -61.5t-115 -23z" />
    <glyph glyph-name="P" unicode="P" horiz-adv-x="572" 
d="M-2 23h78l162 652h-78l5 23h291q74 0 110 -33t36 -96q0 -42 -13.5 -84.5t-41.5 -77t-71 -56t-103 -21.5h-183l-77 -307h98l-5 -23h-213zM196 354h177q66 0 114.5 36.5t64.5 101.5q5 17 9 39.5t4 41.5q0 46 -25.5 73.5t-84.5 27.5h-180z" />
    <glyph glyph-name="Q" unicode="Q" horiz-adv-x="679" 
d="M460 -173q-46 0 -69 11t-40 37l-78 113q-97 5 -148 64.5t-51 167.5q0 48 8.5 103t27 109.5t46.5 104.5t67.5 88.5t90.5 61.5t115 23q105 0 160 -60t55 -172q0 -46 -8 -99.5t-25 -106.5t-43.5 -102.5t-63.5 -88t-85 -63.5t-108 -29l74 -101q14 -20 34 -28.5t55 -8.5h12
l-6 -24h-20zM292 13q53 0 98 20.5t81.5 58t63.5 91t43 120.5q10 39 15.5 68t8.5 51t4 37.5t1 27.5q0 96 -45 147t-136 51q-53 0 -98 -20.5t-81.5 -58t-63.5 -91t-43 -120.5q-10 -39 -15.5 -68t-8.5 -51t-4 -37.5t-1 -27.5q0 -96 45 -147t136 -51z" />
    <glyph glyph-name="R" unicode="R" horiz-adv-x="627" 
d="M-2 23h78l162 652h-78l5 23h291q74 0 110 -33t36 -96q0 -43 -13.5 -84.5t-39.5 -74.5t-65.5 -54t-91.5 -24l68 -263q7 -23 21 -34.5t40 -11.5h30l-5 -23h-39q-38 0 -56.5 15t-28.5 52l-66 263h-166l-77 -307h78l-5 -23h-193zM196 354h177q66 0 114.5 36.5t64.5 101.5
q5 17 9 39.5t4 41.5q0 46 -25.5 73.5t-84.5 27.5h-180z" />
    <glyph glyph-name="S" unicode="S" horiz-adv-x="563" 
d="M235 -12q-29 0 -56.5 5.5t-50 16.5t-38 27t-21.5 37h-3l-19 -74h-31l53 213h31l-18 -73q-4 -16 -4 -28q0 -24 12 -42.5t33 -31t49.5 -19t61.5 -6.5q49 0 88.5 14t67.5 39t43 59t15 74q0 56 -29 85.5t-85 52.5l-67 27q-59 23 -90 61t-31 98q0 43 17.5 77.5t48 59
t71.5 37.5t88 13q28 0 54.5 -5.5t47.5 -16.5t36 -27t21 -37h3l19 74h31l-51 -203h-31l17 67q2 9 2.5 14.5t0.5 11.5q0 24 -11.5 42t-32 30.5t-48 18.5t-58.5 6q-47 0 -82 -13t-59 -34.5t-36 -49.5t-12 -59q0 -54 27.5 -84.5t80.5 -51.5l66 -26q69 -29 98.5 -67.5t29.5 -94.5
q0 -45 -17 -84.5t-49 -69t-78 -46.5t-105 -17z" />
    <glyph glyph-name="T" unicode="T" horiz-adv-x="607" 
d="M130 23h98l162 651h-215l-32 -129h-31l38 153h529l-38 -153h-31l32 129h-215l-162 -651h98l-5 -23h-233z" />
    <glyph glyph-name="U" unicode="U" horiz-adv-x="691" 
d="M288 -12q-89 0 -136 37.5t-47 115.5q0 26 6 56t15 65l102 413h-78l5 23h193l-5 -23h-78l-104 -418q-9 -37 -14.5 -66.5t-5.5 -55.5q0 -57 35.5 -89t113.5 -32q53 0 92.5 13.5t69 43t50.5 75.5t38 112l103 417h-78l5 23h186l-5 -23h-78l-104 -417q-19 -78 -44.5 -129.5
t-59.5 -83t-78 -44.5t-99 -13z" />
    <glyph glyph-name="V" unicode="V" horiz-adv-x="618" 
d="M177 675h-55l5 23h186l-5 -23h-94l25 -372l17 -264h3l149 264l212 372h-95l5 23h182l-5 -23h-55l-385 -675h-42z" />
    <glyph glyph-name="W" unicode="W" horiz-adv-x="862" 
d="M172 675h-55l5 23h184l-5 -23h-94l-6 -632h3l313 655h47l-3 -655h3l298 632h-94l5 23h181l-5 -23h-55l-323 -675h-43l3 658h-3l-316 -658h-44z" />
    <glyph glyph-name="X" unicode="X" horiz-adv-x="609" 
d="M-43 23h60l294 333l-122 319h-60l5 23h182l-5 -23h-85l112 -295h3l263 295h-85l5 23h179l-5 -23h-60l-288 -321l126 -331h60l-5 -23h-182l5 23h85l-115 306h-4l-269 -306h85l-5 -23h-179z" />
    <glyph glyph-name="Y" unicode="Y" horiz-adv-x="596" 
d="M128 23h95l64 262l-106 390h-55l5 23h187l-5 -23h-95l97 -361h2l276 361h-95l5 23h183l-5 -23h-55l-302 -390l-64 -262h95l-5 -23h-227z" />
    <glyph glyph-name="Z" unicode="Z" horiz-adv-x="588" 
d="M-1 24l570 650h-367l-32 -129h-31l38 153h440l-5 -24l-571 -650h396l33 131h31l-39 -155h-469z" />
    <glyph glyph-name="bracketleft" unicode="[" horiz-adv-x="274" 
d="M216 760h138l-5 -23h-106l-212 -852h106l-5 -23h-140z" />
    <glyph glyph-name="backslash" unicode="\" horiz-adv-x="324" 
d="M168 748h27l12 -891h-27z" />
    <glyph glyph-name="bracketright" unicode="]" horiz-adv-x="274" 
d="M-48 -115h106l212 852h-106l5 23h140l-224 -898h-138z" />
    <glyph glyph-name="asciicircum" unicode="^" horiz-adv-x="550" 
d="M63 335l302 363h30l125 -368l-24 -10l-119 351h-3l-290 -351z" />
    <glyph glyph-name="underscore" unicode="_" horiz-adv-x="537" 
d="M-65 -120h481l-6 -24h-481z" />
    <glyph glyph-name="grave" unicode="`" horiz-adv-x="600" 
d="M222 739l32 16l75 -160l-14 -8z" />
    <glyph glyph-name="a" unicode="a" horiz-adv-x="514" 
d="M139 -12q-27 0 -44.5 10.5t-28 28.5t-15 42.5t-4.5 51.5q0 66 16.5 136.5t49 129t81 96t111.5 37.5q36 0 61 -16t35 -58h5l27 62h19l-122 -485l18 -8l130 114l11 -11l-84 -83q-29 -29 -43.5 -38t-28.5 -9t-24.5 7.5t-10.5 24.5q0 13 5 33l40 157l-5 2q-15 -35 -35 -74.5
t-44.5 -72.5t-54.5 -55t-65 -22zM148 17q18 0 40.5 11t43.5 36q24 27 46 62.5t41 73.5t33.5 74.5t22.5 65.5l5 21q18 68 -1 101t-68 33q-38 0 -70.5 -16.5t-58.5 -46.5t-45.5 -72t-32.5 -93q-11 -43 -15.5 -80t-4.5 -66q0 -22 2.5 -41t9.5 -33t19.5 -22t32.5 -8z" />
    <glyph glyph-name="b" unicode="b" horiz-adv-x="492" 
d="M186 -12q-36 0 -61.5 16t-34.5 58h-5l-27 -62h-19l180 721h-86l4 17l126 17l-115 -457l5 -2q15 35 35 74.5t44.5 72.5t54 55t65.5 22q27 0 44.5 -10.5t28 -28.5t15 -42.5t4.5 -51.5q0 -66 -16.5 -136.5t-49.5 -129t-81 -96t-111 -37.5zM180 13q38 0 70.5 16.5t58.5 46.5
t45.5 72t32.5 93q11 43 15.5 80t4.5 66q0 22 -2.5 41t-9.5 33t-19.5 22t-32.5 8q-18 0 -40.5 -11t-43.5 -36q-24 -27 -46 -62.5t-41 -73.5t-33.5 -74.5t-22.5 -65.5l-5 -21q-18 -68 1 -101t68 -33z" />
    <glyph glyph-name="c" unicode="c" horiz-adv-x="402" 
d="M156 -12q-57 0 -83 35t-26 107q0 36 6 79t18 86t31 84t45.5 72t60.5 50t77 19q48 0 76.5 -23t28.5 -55q0 -18 -10 -29t-26 -11q-14 0 -22 8.5t-8 21.5q0 14 10.5 25t30.5 13v4q-11 11 -30.5 17.5t-48.5 6.5q-57 0 -107.5 -55.5t-76.5 -174.5q-2 -8 -5 -22.5t-6 -33.5
t-5 -40.5t-2 -43.5t3.5 -42.5t12 -36t24 -25t39.5 -9.5q46 0 90 40t83 113l16 -8q-47 -93 -95 -132.5t-101 -39.5z" />
    <glyph glyph-name="d" unicode="d" horiz-adv-x="517" 
d="M139 -12q-27 0 -44.5 10.5t-28 28.5t-15 42.5t-4.5 51.5q0 66 16.5 136.5t49 129t81 96t111.5 37.5q36 0 60.5 -16t32.5 -54h5l67 271h-86l4 17l126 17l-184 -732l18 -8l130 114l11 -11l-84 -83q-29 -29 -43.5 -38t-28.5 -9t-24.5 7.5t-10.5 24.5q0 13 5 33l40 157l-5 2
q-15 -35 -35 -74.5t-44.5 -72.5t-54.5 -55t-65 -22zM148 17q18 0 40.5 11t43.5 36q24 27 46 62.5t41 73.5t33.5 74.5t22.5 65.5l5 21q18 68 -1 101t-68 33q-38 0 -70.5 -16.5t-58.5 -46.5t-45.5 -72t-32.5 -93q-11 -43 -15.5 -80t-4.5 -66q0 -22 2.5 -41t9.5 -33t19.5 -22
t32.5 -8z" />
    <glyph glyph-name="e" unicode="e" horiz-adv-x="429" 
d="M157 -12q-58 0 -84 35.5t-26 108.5q0 35 6 78t19 86t32.5 83.5t47 71.5t63 50t79.5 19q20 0 39 -4.5t34 -15.5t24.5 -28.5t9.5 -44.5q0 -33 -16.5 -60t-52.5 -48t-93 -35.5t-138 -21.5q-7 -31 -12 -64.5t-5 -68.5q0 -23 3.5 -43.5t12.5 -36t24.5 -25t39.5 -9.5
q48 0 96.5 39t88.5 114l16 -8q-24 -47 -49 -80t-51 -53.5t-53 -29.5t-55 -9zM105 278q62 7 110.5 18t82.5 28.5t51.5 42t17.5 57.5q0 28 -16 51t-59 23q-59 0 -110 -53.5t-77 -166.5z" />
    <glyph glyph-name="f" unicode="f" horiz-adv-x="285" 
d="M-66 -212q-30 0 -46.5 12.5t-16.5 32.5q0 14 9.5 24t23.5 10t22 -9t8 -20q0 -9 -5 -18t-15 -14l1 -3h12q44 0 70 31.5t40 90.5l140 560h-99l6 23h99l28 117q16 62 54 98.5t96 36.5q30 0 46.5 -12.5t16.5 -32.5q0 -14 -9.5 -24t-23.5 -10t-22 9t-8 20q0 9 5 18t15 14l-1 3
h-12q-48 0 -78 -33t-44 -89l-28 -115h123l-6 -23h-124l-139 -562q-16 -63 -50 -99t-88 -36z" />
    <glyph glyph-name="g" unicode="g" horiz-adv-x="459" 
d="M136 -212q-86 0 -133 28.5t-47 79.5q0 31 17 54.5t44 41t60 29.5t65 20l2 5l-9 3q-31 11 -51.5 27.5t-20.5 43.5q0 20 9 34t22.5 23t29.5 14t30 8v3q-30 15 -44.5 45t-14.5 71q0 43 14.5 80t40 64t60 42.5t73.5 15.5q56 0 87 -37l17 45q15 46 49 46q15 0 23.5 -8t8.5 -21
q0 -14 -9 -23t-23 -9q-10 0 -17.5 7t-8.5 20h-3l-28 -68q11 -15 16.5 -35.5t5.5 -44.5q0 -43 -15 -80t-40.5 -64t-59.5 -42.5t-73 -15.5q-20 0 -35 4q-9 -1 -23 -4.5t-27.5 -11.5t-23 -20t-9.5 -30q0 -15 12.5 -26t45.5 -24l113 -43q47 -18 75 -41t28 -66q0 -38 -20.5 -64.5
t-54 -43.5t-75 -24.5t-83.5 -7.5zM219 211q24 0 46 9.5t40 26t31.5 38.5t19.5 46q7 27 8.5 43.5t1.5 22.5q0 48 -20.5 75t-68.5 27q-24 0 -46.5 -9.5t-40.5 -26t-31 -38.5t-19 -46q-7 -27 -8.5 -43.5t-1.5 -22.5q0 -48 20.5 -75t68.5 -27zM140 -192q29 0 63 5.5t63 19
t48.5 35.5t19.5 56q0 35 -23.5 52t-57.5 29l-87 33q-35 -10 -66.5 -23t-55.5 -30t-38.5 -38.5t-14.5 -47.5q0 -23 11.5 -40t32 -28.5t47.5 -17t58 -5.5z" />
    <glyph glyph-name="h" unicode="h" horiz-adv-x="528" 
d="M345 -12q-14 0 -24.5 7.5t-10.5 24.5q0 13 5 33l98 369q5 20 5 30q0 39 -41 39q-48 0 -103 -53q-24 -23 -48.5 -55t-46 -68.5t-38.5 -75t-26 -74.5l-41 -165h-35l180 721h-86l4 17l126 17l-118 -467l6 -1q17 34 41 74.5t54 76t65 59t76 23.5q36 0 51 -17.5t15 -45.5
q0 -16 -6 -40l-105 -394l18 -8l130 114l11 -11l-84 -83q-29 -29 -43.5 -38t-28.5 -9z" />
    <glyph glyph-name="i" unicode="i" horiz-adv-x="278" 
d="M97 -12q-14 0 -24.5 7.5t-10.5 24.5q0 13 5 33l106 429h-86l4 17l126 17l-123 -493l18 -8l130 114l11 -11l-84 -83q-29 -29 -43.5 -38t-28.5 -9zM238 662q-14 0 -21 8t-7 18t4 18t12 13.5t20 5.5q14 0 21 -8t7 -18t-4 -18t-12 -13.5t-20 -5.5z" />
    <glyph glyph-name="j" unicode="j" horiz-adv-x="252" 
d="M-66 -212q-30 0 -46.5 12.5t-16.5 32.5q0 14 9.5 24t23.5 10t22 -9t8 -20q0 -9 -5.5 -18t-14.5 -14l1 -4h11q43 0 68 32t39 91l139 557h-86l4 17l126 17l-148 -594q-16 -63 -49.5 -98.5t-84.5 -35.5zM237 662q-14 0 -21 8t-7 18t4 18t12 13.5t20 5.5q14 0 21 -8t7 -18
t-4 -18t-12 -13.5t-20 -5.5z" />
    <glyph glyph-name="k" unicode="k" horiz-adv-x="503" 
d="M322 -12q-11 0 -18.5 5.5t-14.5 20.5l-92 206q54 27 95.5 57t69.5 60t42 59t14 54q0 41 -42 41q-47 0 -102 -53q-24 -23 -48.5 -55t-46 -68.5t-38.5 -75t-26 -74.5l-41 -165h-35l180 721h-86l4 17l126 17l-118 -467l6 -1q18 34 42 75t53.5 76t65 58.5t75.5 23.5
q35 0 50.5 -17t15.5 -47q0 -39 -24 -76.5t-58.5 -68.5t-72 -55t-64.5 -36l91 -199h16l123 108l11 -11l-84 -83q-28 -29 -42 -38t-27 -9z" />
    <glyph glyph-name="l" unicode="l" horiz-adv-x="268" 
d="M83 -12q-14 0 -24.5 7.5t-10.5 24.5q0 13 5 33l167 668h-86l4 17l126 17l-184 -732l18 -8l130 114l11 -11l-84 -83q-29 -29 -43.5 -38t-28.5 -9z" />
    <glyph glyph-name="m" unicode="m" horiz-adv-x="810" 
d="M627 -12q-14 0 -24.5 7.5t-10.5 24.5q0 13 5 33l98 369q5 20 5 30q0 39 -41 39q-48 0 -103 -53q-24 -23 -48.5 -55t-46 -68.5t-38.5 -75t-26 -74.5l-41 -165h-35l105 420q5 20 5 32q0 39 -40 39q-47 0 -103 -53q-24 -23 -48.5 -55t-46 -68.5t-38.5 -75t-26 -74.5
l-41 -165h-35l120 482h-86l4 17l126 17l-58 -228l6 -1q16 33 40 73.5t54 76t65.5 59.5t76.5 24q35 0 49.5 -18.5t14.5 -47.5q0 -20 -6 -41l-32 -125l6 -1q16 32 40 72.5t54 76t65.5 60t76.5 24.5q36 0 51 -17.5t15 -45.5q0 -18 -6 -40l-105 -394l18 -8l130 114l11 -11
l-84 -83q-29 -29 -43.5 -38t-28.5 -9z" />
    <glyph glyph-name="n" unicode="n" horiz-adv-x="542" 
d="M359 -12q-14 0 -24.5 7.5t-10.5 24.5q0 13 5 33l98 369q5 20 5 30q0 39 -41 39q-48 0 -103 -53q-24 -23 -48.5 -55t-46 -68.5t-38.5 -75t-26 -74.5l-41 -165h-35l120 482h-86l4 17l126 17l-58 -228l6 -1q17 34 41 74.5t54 76t65 59t76 23.5q36 0 51 -17.5t15 -45.5
q0 -18 -6 -40l-105 -394l18 -8l130 114l11 -11l-84 -83q-29 -29 -43.5 -38t-28.5 -9z" />
    <glyph glyph-name="o" unicode="o" horiz-adv-x="469" 
d="M180 11q36 0 66 19t53.5 50.5t40.5 73t28 87.5q6 25 9.5 43t6 32t3 25.5t0.5 22.5q0 30 -5 54.5t-16 42t-30 27t-47 9.5q-36 0 -66 -19t-53.5 -50.5t-40.5 -73t-28 -87.5q-12 -50 -15.5 -75.5t-3.5 -47.5q0 -30 5 -54.5t16 -42t30 -27t47 -9.5zM179 -12q-71 0 -101.5 45
t-30.5 120q0 66 18 131.5t50 118t77 85t98 32.5q71 0 101.5 -45t30.5 -120q0 -66 -18 -131.5t-50.5 -118t-77 -85t-97.5 -32.5z" />
    <glyph glyph-name="p" unicode="p" horiz-adv-x="506" 
d="M-64 -177h72l165 659h-86l4 17l126 17l-56 -218l6 -2q15 35 34.5 74.5t44.5 72.5t54.5 55t65.5 22q27 0 44.5 -10.5t28 -28.5t15 -42.5t4.5 -51.5q0 -66 -16.5 -136.5t-49.5 -129t-81 -96t-111 -37.5q-35 0 -60 15t-34 56h-5l-58 -236h98l-6 -23h-205zM194 13
q38 0 70.5 16.5t58.5 46.5t45.5 72t32.5 93q11 43 15.5 80t4.5 66q0 22 -2.5 41t-9.5 33t-19.5 22t-32.5 8q-18 0 -40.5 -11t-43.5 -36q-24 -27 -46 -62.5t-41 -73.5t-33.5 -74.5t-22.5 -65.5l-5 -21q-18 -68 1 -101t68 -33z" />
    <glyph glyph-name="q" unicode="q" horiz-adv-x="492" 
d="M147 -177h98l98 387l-5 2q-15 -35 -35 -74.5t-44.5 -72.5t-54.5 -55t-65 -22q-27 0 -44.5 10.5t-28 28.5t-15 42.5t-4.5 51.5q0 66 16.5 136.5t49 129t81 96t111.5 37.5q36 0 61 -16t35 -58h5l27 62h19l-172 -685h72l-5 -23h-205zM148 17q18 0 40.5 11t43.5 36
q24 27 46 62.5t41 73.5t33.5 74.5t22.5 65.5l5 21q18 68 -1 101t-68 33q-38 0 -70.5 -16.5t-58.5 -46.5t-45.5 -72t-32.5 -93q-11 -43 -15.5 -80t-4.5 -66q0 -22 2.5 -41t9.5 -33t19.5 -22t32.5 -8z" />
    <glyph glyph-name="r" unicode="r" horiz-adv-x="388" 
d="M173 482h-86l4 17l126 17l-55 -216l6 -1q15 34 34 73t42.5 72t52 54.5t62.5 21.5q27 0 41.5 -12.5t14.5 -30.5q0 -17 -9.5 -27.5t-25.5 -10.5q-14 0 -22 9t-8 20q0 10 6 18.5t14 13.5l-2 4h-11q-21 0 -44 -18.5t-51 -53.5q-15 -18 -34.5 -50t-39 -70.5t-36 -79
t-25.5 -76.5l-39 -156h-35z" />
    <glyph glyph-name="s" unicode="s" horiz-adv-x="353" 
d="M95 -12q-42 0 -64 13.5t-22 36.5q0 14 9 23.5t24 9.5q14 0 22 -8t8 -21q0 -10 -6 -18t-14 -13l1 -4q5 -2 13 -3t17 -1q22 0 48.5 5.5t49.5 19t38 37t15 58.5q0 18 -3.5 32.5t-12 29t-22.5 30t-34 36.5q-31 31 -48 58t-17 66q0 35 13 62t35.5 45.5t52.5 28t64 9.5
q41 0 63 -13.5t22 -36.5q0 -14 -9 -23.5t-24 -9.5q-14 0 -22 8.5t-8 20.5q0 10 6 18.5t14 13.5l-1 4q-9 3 -27 3q-23 0 -48.5 -5.5t-47 -19t-35.5 -37t-14 -58.5q0 -18 3.5 -32.5t12 -28.5t22 -30t34.5 -37q32 -33 48.5 -60t16.5 -64q0 -35 -14 -61.5t-37.5 -45.5t-55 -28.5
t-66.5 -9.5z" />
    <glyph glyph-name="t" unicode="t" horiz-adv-x="324" 
d="M90 -12q-14 0 -24.5 7.5t-10.5 25.5q0 11 5 31l108 433h-82l6 23h37q26 0 39 8t21 29l38 105h18l-36 -142h138l-6 -23h-138l-115 -462l18 -8l159 105l10 -11l-116 -86q-29 -23 -42.5 -29t-26.5 -6z" />
    <glyph glyph-name="u" unicode="u" horiz-adv-x="537" 
d="M128 -12q-36 0 -51 18t-15 45q0 17 6 40l105 391h-86l4 17l126 17l-115 -430q-5 -18 -5 -30q0 -39 41 -39q47 0 103 53q24 23 48 55t46 68.5t39 75t26 74.5l41 165h35l-122 -485l18 -8l130 114l11 -11l-84 -83q-29 -29 -44 -38t-28 -9q-14 0 -24.5 7.5t-10.5 24.5
q0 6 2 16t4 19l42 165l-6 1q-17 -34 -41 -74.5t-54 -76t-65.5 -59t-75.5 -23.5z" />
    <glyph glyph-name="v" unicode="v" horiz-adv-x="441" 
d="M94 485h-45l6 23h150l-6 -23h-70l34 -444h5l253 444h-70l6 23h144l-6 -23h-45l-282 -485h-33z" />
    <glyph glyph-name="w" unicode="w" horiz-adv-x="651" 
d="M107 485h-45l6 23h147l-6 -23h-70l-3 -443h5l222 466h35l-4 -466h5l217 443h-70l6 23h143l-6 -23h-45l-245 -485h-34l3 464h-5l-219 -464h-37v485z" />
    <glyph glyph-name="x" unicode="x" horiz-adv-x="531" 
d="M40 -12q-27 0 -43 12t-16 32q0 17 10 27t24 10t22.5 -9t8.5 -20q0 -12 -6 -20.5t-14 -11.5l1 -3h10q45 1 99 59t114 188l-48 235h-19l-120 -103l-10 10l81 79q14 14 24 23t17.5 14.5t14 7.5t12.5 2q12 0 21 -6t12 -20l38 -208h5q8 17 18.5 38.5t23 44t27.5 45t32 41.5
q25 29 52.5 47t59.5 18q27 0 43 -12t16 -32q0 -17 -10 -27t-24 -10t-22.5 9t-8.5 20q0 12 6 20.5t14 11.5l-1 3h-10q-45 -2 -99 -59.5t-114 -187.5l48 -235h19l120 103l10 -10l-81 -79q-14 -14 -24 -23.5t-17.5 -14.5t-14 -7t-12.5 -2q-12 0 -21 6t-12 20l-38 208h-5
q-8 -17 -18.5 -38.5t-23 -44t-27.5 -45t-32 -41.5q-25 -29 -52.5 -47t-59.5 -18z" />
    <glyph glyph-name="y" unicode="y" horiz-adv-x="442" 
d="M-51 -212q-28 0 -44.5 12.5t-16.5 32.5q0 15 9 25.5t25 10.5t24 -8.5t8 -22.5q0 -21 -21 -31l2 -3h8q49 0 86 30.5t72 92.5l35 62l-42 496h-45l6 23h150l-6 -23h-70l35 -447h6l253 447h-70l6 23h144l-6 -23h-45l-332 -572q-38 -66 -79 -95.5t-92 -29.5z" />
    <glyph glyph-name="z" unicode="z" horiz-adv-x="465" 
d="M324 -12q-14 0 -41 4.5t-64 12t-82.5 18.5t-96.5 23l-12 -46h-25l11 42q4 17 11.5 26t18.5 20l360 354l-244 48l-16 -8l-41 -136l-15 3l31 133q5 20 16 29t34 9q26 0 92.5 -17t156.5 -41l12 46h25l-11 -42q-4 -17 -11.5 -26t-18.5 -20l-361 -354l280 -48l16 8l41 136
l15 -3l-31 -133q-5 -20 -16 -29t-34 -9z" />
    <glyph glyph-name="braceleft" unicode="{" horiz-adv-x="304" 
d="M63 -138q-30 0 -30 22q0 5 2 15l76 303q2 8 3 14.5t1 12.5q0 31 -21.5 45t-57.5 14l12 45q46 0 76 20t42 68l77 309q7 30 42 30h96l-5 -23h-98l-78 -313q-13 -51 -46 -77.5t-82 -28.5l-4 -14q35 -4 57 -25t22 -55q0 -7 -1 -13.5t-3 -14.5l-78 -311h98l-5 -23h-95v0z" />
    <glyph glyph-name="bar" unicode="|" horiz-adv-x="322" 
d="M273 760h27l-224 -898h-27z" />
    <glyph glyph-name="braceright" unicode="}" horiz-adv-x="304" 
d="M-45 -115h98l78 313q13 51 46 77.5t82 28.5l4 14q-35 4 -57 25t-22 55q0 7 1 13.5t3 14.5l78 311h-98l5 23h95q30 0 30 -22q0 -5 -2 -15l-76 -303q-2 -8 -3 -14.5t-1 -12.5q0 -31 21.5 -45t57.5 -14l-12 -45q-46 0 -76 -20t-42 -68l-77 -309q-4 -15 -13.5 -22.5
t-28.5 -7.5h-96z" />
    <glyph glyph-name="asciitilde" unicode="~" horiz-adv-x="550" 
d="M404 254q-13 0 -25 2t-26.5 6.5t-32 12t-40.5 18.5q-22 10 -37.5 17t-28 11.5t-23.5 6t-24 1.5q-27 0 -49.5 -8.5t-48.5 -31.5l-13 18q26 25 52.5 36.5t60.5 11.5q13 0 25 -2t26.5 -6.5t32 -12t40.5 -18.5q22 -11 37.5 -17.5t28 -11t23.5 -6t24 -1.5q27 0 49.5 8.5
t48.5 31.5l13 -18q-26 -25 -52.5 -36.5t-60.5 -11.5z" />
    <glyph glyph-name="uni00A0" unicode="&#xa0;" horiz-adv-x="212" 
 />
    <glyph glyph-name="exclamdown" unicode="&#xa1;" horiz-adv-x="242" 
d="M170 442q-16 0 -23.5 9t-7.5 21q0 5 1.5 10t3.5 9q4 10 13 16.5t23 6.5q16 0 23.5 -9t7.5 -21q0 -5 -1.5 -10t-3.5 -9q-4 -10 -13 -16.5t-23 -6.5zM58 76l73 254h17l-54 -254l-66 -266h-36z" />
    <glyph glyph-name="cent" unicode="&#xa2;" horiz-adv-x="408" 
d="M143 -12q-51 4 -73.5 39.5t-22.5 102.5q0 35 5.5 77.5t17.5 85.5t30.5 83t44 71.5t58 51t73.5 21.5l26 102h25l-26 -102q42 -3 68 -25.5t26 -52.5q0 -18 -10.5 -29t-25.5 -11q-14 0 -22 8.5t-8 21.5q0 14 10.5 25t30.5 13v4q-23 21 -75 24l-121 -482q45 3 86 43t79 109
l16 -8q-45 -88 -90.5 -128.5t-96.5 -43.5l-26 -102h-25zM271 497q-54 -7 -99 -63t-70 -166q-2 -8 -5 -22.5t-6 -33.5t-5 -40.5t-2 -43.5q0 -20 2.5 -39t10 -34.5t20.5 -25.5t34 -12z" />
    <glyph glyph-name="sterling" unicode="&#xa3;" horiz-adv-x="542" 
d="M8 34q30 18 57 41.5t47.5 55t32.5 70.5t12 87v24h-91l5 24h85q-2 35 -5.5 70.5t-3.5 67.5q0 49 14 92t41.5 75t69.5 50.5t99 18.5q33 0 62 -8t50.5 -21.5t33.5 -31.5t12 -39q0 -19 -10 -31t-27 -12q-14 0 -23 9.5t-9 23.5q0 16 10.5 27t28.5 14l1 3q-19 18 -51 29.5
t-79 11.5q-50 0 -85 -17t-57.5 -45.5t-33 -66t-10.5 -77.5q0 -30 3 -68t5 -75h192l-6 -24h-185v-17q-1 -94 -43.5 -158t-116.5 -106v-3h355l31 125h32l-38 -153h-414z" />
    <glyph glyph-name="currency" unicode="&#xa4;" horiz-adv-x="579" 
d="M353 570q41 0 72 -15t49 -44l127 109l17 -21l-130 -112q11 -30 11 -64q0 -63 -20.5 -120.5t-57.5 -99.5l73 -111l-22 -17l-72 108q-29 -26 -63 -40.5t-75 -14.5t-72 15t-49 44l-127 -109l-17 21l130 112q-11 30 -11 64q0 63 20.5 120.5t57.5 99.5l-73 111l22 17l72 -108
q29 26 63 40.5t75 14.5zM351 548q-35 0 -64.5 -13t-53 -35t-40 -51.5t-25.5 -63.5q-11 -46 -16 -72.5t-5 -46.5q0 -51 30.5 -83.5t86.5 -32.5q34 0 64 13t53.5 35t40 51.5t25.5 63.5q11 46 16 72.5t5 46.5q0 51 -30.5 83.5t-86.5 32.5z" />
    <glyph glyph-name="yen" unicode="&#xa5;" horiz-adv-x="594" 
d="M128 23h95l35 142h-169l6 23h168l33 133h-168l5 23h158l-107 331h-55l5 23h187l-5 -23h-95l102 -323h3l263 323h-95l5 23h183l-5 -23h-55l-272 -331h156l-5 -23h-168l-33 -133h168l-5 -23h-168l-35 -142h95l-5 -23h-227z" />
    <glyph glyph-name="brokenbar" unicode="&#xa6;" horiz-adv-x="322" 
d="M139 221h27l-89 -359h-27zM274 760h27l-90 -359h-27z" />
    <glyph glyph-name="section" unicode="&#xa7;" horiz-adv-x="512" 
d="M157 -154q-49 0 -80 19t-31 51q0 17 10.5 27t24.5 10q13 0 22 -7.5t9 -21.5t-10.5 -23.5t-24.5 -12.5v-4q21 -18 73 -18q63 0 103.5 34.5t40.5 91.5q0 33 -16.5 56.5t-43.5 50.5l-66 67q-32 31 -57 65.5t-25 78.5q0 57 39 96t104 54v6q-18 22 -27 44t-9 49q0 34 13.5 62
t37 48t54 30.5t65.5 10.5q49 0 80 -19t31 -51q0 -17 -10.5 -27t-24.5 -10q-13 0 -22 7.5t-9 21.5t10.5 23.5t24.5 12.5v4q-21 18 -73 18q-63 0 -103.5 -34.5t-40.5 -91.5q0 -33 16.5 -56.5t43.5 -50.5l66 -67q16 -16 31 -32t26 -33.5t18 -37t7 -41.5q0 -57 -39 -96t-104 -54
v-6q18 -22 27 -44t9 -49q0 -35 -13.5 -62.5t-37 -47.5t-54.5 -30.5t-65 -10.5zM121 315q0 -41 21 -69.5t46 -52.5l67 -66l21 -21q58 17 90.5 50.5t32.5 84.5q0 21 -5.5 37.5t-15 31t-21.5 27.5t-25 26l-67 66l-21 21q-58 -17 -90.5 -50.5t-32.5 -84.5z" />
    <glyph glyph-name="dieresis" unicode="&#xa8;" horiz-adv-x="600" 
d="M237 637q-14 0 -20 7.5t-6 17.5q0 4 0.5 7.5t2.5 8.5q4 8 11 13.5t19 5.5q14 0 20 -7.5t6 -17.5q0 -4 -0.5 -7.5t-2.5 -8.5q-4 -8 -11 -13.5t-19 -5.5zM418 637q-14 0 -20 7.5t-6 17.5q0 4 0.5 7.5t2.5 8.5q4 8 11 13.5t19 5.5q14 0 20 -7.5t6 -17.5q0 -4 -0.5 -7.5
t-2.5 -8.5q-4 -8 -11 -13.5t-19 -5.5z" />
    <glyph glyph-name="copyright" unicode="&#xa9;" horiz-adv-x="743" 
d="M329 151q-78 0 -78 106q0 39 10.5 88.5t33 93t58.5 73.5t86 30q37 0 57.5 -18t20.5 -41q0 -14 -8.5 -22.5t-20.5 -8.5q-11 0 -17.5 6t-6.5 17t8.5 19t23.5 10v3q-9 8 -21.5 12.5t-32.5 4.5q-48 0 -85.5 -38t-58.5 -126q-10 -41 -13 -63t-3 -43q0 -16 2.5 -30.5t8.5 -25.5
t16.5 -17.5t27.5 -6.5q32 0 68 27.5t66 81.5l10 -6q-36 -70 -74.5 -98t-77.5 -28zM322 9q65 0 120.5 24t100 67.5t76 104.5t48.5 135q10 41 13 68.5t3 44.5q0 110 -57.5 173t-166.5 63q-65 0 -120.5 -24t-100 -67.5t-76 -104.5t-48.5 -135q-10 -41 -13 -68.5t-3 -44.5
q0 -110 57.5 -173t166.5 -63zM318 -12q-60 0 -106 18.5t-77 52.5t-47 82t-16 107q0 49 11 102.5t32.5 105t54 97.5t76 81t98 55.5t119.5 20.5q60 0 106 -18.5t77 -52.5t47 -82t16 -107q0 -49 -11 -102.5t-32.5 -105t-54 -97.5t-76 -81t-98 -55.5t-119.5 -20.5z" />
    <glyph glyph-name="ordfeminine" unicode="&#xaa;" horiz-adv-x="363" 
d="M144 352q-30 0 -44 17.5t-14 40.5q0 53 56.5 89t161.5 46l8 35q3 11 6 25.5t3 25.5q0 56 -67 56q-21 0 -39.5 -4t-33.5 -14v-3q18 -5 18 -23q0 -24 -25 -24q-10 0 -16.5 5.5t-6.5 17.5q0 22 29.5 42t79.5 20q46 0 68 -19.5t22 -52.5q0 -14 -3 -26.5t-6 -23.5l-53 -206
l9 -5l90 81l7 -8l-67 -69q-14 -14 -23 -18.5t-18 -4.5q-24 0 -24 20q0 4 1 10t4 16l20 69h-5q-9 -20 -23.5 -40.5t-32.5 -37t-39 -27t-43 -10.5zM152 371q22 0 46.5 16t45.5 39.5t35.5 49t18.5 44.5l2 9q-92 -11 -139 -42t-47 -75q0 -17 9 -29t29 -12z" />
    <glyph glyph-name="guillemotleft" unicode="&#xab;" horiz-adv-x="458" 
d="M52 280l5 24l223 179l8 -16l-198 -180l108 -174l-13 -12zM235 280l5 24l223 179l8 -16l-198 -180l108 -174l-13 -12z" />
    <glyph glyph-name="logicalnot" unicode="&#xac;" horiz-adv-x="550" 
d="M475 294h-423l6 24h451l-55 -219h-28z" />
    <glyph glyph-name="uni00AD" unicode="&#xad;" horiz-adv-x="351" 
d="M82 320h219l-7 -30h-219z" />
    <glyph glyph-name="registered" unicode="&#xae;" horiz-adv-x="462" 
d="M181 411h23l46 186h-23l3 13h92q26 0 39.5 -12t13.5 -31q0 -29 -17.5 -48t-50.5 -24l21 -67q6 -17 27 -17h6l-3 -13h-16q-15 0 -22.5 6.5t-12.5 21.5l-21 69h-40l-22 -84h26l-3 -13h-69zM257 315q29 0 60 10t58 30.5t48.5 52.5t32.5 77q5 19 7 38t2 30q0 36 -11.5 62
t-31 43.5t-46 26t-55.5 8.5t-60 -10t-58 -30.5t-48.5 -52.5t-32.5 -77q-5 -19 -7 -38t-2 -30q0 -36 11.5 -62t31 -43.5t46 -26t55.5 -8.5zM255 298q-36 0 -66 10.5t-51.5 30.5t-34 50.5t-12.5 69.5q0 50 16.5 95.5t47 80t73.5 55t95 20.5q36 0 66 -10.5t51.5 -30.5t34 -50.5
t12.5 -69.5q0 -50 -16.5 -95.5t-47 -80t-73.5 -55t-95 -20.5zM249 509h49q19 0 32 9.5t18 26.5q2 10 3.5 15.5t1.5 8.5q0 11 -8.5 18.5t-26.5 7.5h-48z" />
    <glyph glyph-name="macron" unicode="&#xaf;" horiz-adv-x="600" 
d="M205 681h258l-6 -26h-258z" />
    <glyph glyph-name="degree" unicode="&#xb0;" horiz-adv-x="460" 
d="M279 372q-30 0 -56 10.5t-45 30t-30 47t-11 60.5q0 40 13 74.5t37 60t57 40.5t73 15q30 0 56 -10.5t45 -30t30 -47t11 -60.5q0 -40 -13.5 -74.5t-37.5 -60t-57 -40.5t-72 -15zM283 396q33 0 60.5 13t47 35.5t30.5 53t11 65.5q-1 57 -34 90t-85 33q-33 0 -60.5 -13
t-47 -35.5t-30.5 -53t-11 -65.5q0 -57 33 -90t86 -33z" />
    <glyph glyph-name="plusminus" unicode="&#xb1;" horiz-adv-x="550" 
d="M287 364h-218l6 24h219l57 227h28l-57 -227h218l-6 -24h-219l-57 -227h-28zM-15 24h465l-6 -24h-465z" />
    <glyph glyph-name="twosuperior" unicode="&#xb2;" horiz-adv-x="339" 
d="M69 356l150 112q45 34 70.5 63t34.5 59q5 18 5 36q0 58 -78 58q-24 0 -45.5 -5t-38.5 -16v-3q23 -7 23 -27q0 -13 -8 -20.5t-19 -7.5q-12 0 -19.5 7t-7.5 20q0 12 9 25t24.5 23.5t38 17t49.5 6.5q50 0 76.5 -21t26.5 -56q0 -48 -34 -90.5t-92 -83.5l-138 -96l-1 -3h197
l16 63h24l-21 -87h-249z" />
    <glyph glyph-name="threesuperior" unicode="&#xb3;" horiz-adv-x="342" 
d="M182 324q-51 0 -78.5 20.5t-27.5 43.5q0 15 8.5 25t22.5 10q11 0 18 -6.5t7 -17.5t-8.5 -20t-22.5 -12l-1 -2q15 -12 36 -16.5t41 -4.5t40 4.5t36.5 14.5t28 24.5t16.5 35.5q2 7 3 16t1 16q0 26 -21 41t-63 15h-37l5 20h35q51 0 77 19t35 52q2 5 3 11.5t1 13.5
q0 57 -78 57q-51 0 -84 -21v-3q22 -7 22 -27q0 -12 -7.5 -20t-19.5 -8t-19.5 7.5t-7.5 20.5q0 12 9 25t25 23t38.5 16.5t49.5 6.5q49 0 75.5 -20t26.5 -55q0 -24 -8.5 -42.5t-22 -32t-31 -21.5t-34.5 -11l-1 -3q27 -5 44.5 -22t17.5 -44q0 -29 -12 -53t-32.5 -41t-48 -26
t-57.5 -9z" />
    <glyph glyph-name="acute" unicode="&#xb4;" horiz-adv-x="600" 
d="M298 596l122 159l28 -17l-137 -151z" />
    <glyph glyph-name="mu" unicode="&#xb5;" horiz-adv-x="536" 
d="M173 482h-86l4 17l126 17l-113 -423q-3 -11 -5 -20t-2 -16q0 -40 41 -40q48 0 103 53q24 23 48 55t46 68.5t39 75t26 74.5l41 165h35l-122 -485l18 -8l130 114l11 -11l-84 -83q-29 -29 -44 -38t-28 -9q-14 0 -24.5 7.5t-10.5 24.5q0 6 2 16t4 19l42 165l-6 1
q-17 -34 -41 -74.5t-53.5 -76t-65 -59t-74.5 -23.5q-26 0 -39 12.5t-17 36.5h-4l-11 -104l-33 -133h-35z" />
    <glyph glyph-name="paragraph" unicode="&#xb6;" horiz-adv-x="559" 
d="M183 -152q-57 0 -94 25.5t-37 66.5q0 19 10 30t25 11t22.5 -8t7.5 -21q0 -15 -9.5 -25.5t-29.5 -12.5l-1 -4q32 -41 107 -41h5l114 455q-39 0 -71.5 10t-56.5 29t-37.5 46.5t-13.5 63.5q0 50 19 91.5t54.5 71t85 46t110.5 16.5h220l-5 -23h-79l-163 -654
q-21 -86 -65 -129.5t-118 -43.5zM215 -128q92 18 126 149l163 654h-89z" />
    <glyph glyph-name="periodcentered" unicode="&#xb7;" horiz-adv-x="226" 
d="M120 269q-16 0 -23.5 9t-7.5 21q0 5 1.5 10t3.5 9q4 10 13 16.5t23 6.5q16 0 23.5 -9t7.5 -21q0 -5 -1.5 -10t-3.5 -9q-4 -10 -13 -16.5t-23 -6.5z" />
    <glyph glyph-name="cedilla" unicode="&#xb8;" horiz-adv-x="600" 
d="M259 -203q-29 0 -47 11t-24 24l11 11q8 -12 24 -19t36 -7q18 0 32 6t23.5 15.5t14 20.5t4.5 21q0 18 -12 26.5t-40 10.5l-32 1l42 86h22l-36 -74l1 -3q8 2 16 3t16 1q24 0 39 -13.5t15 -34.5q0 -17 -8 -32.5t-22.5 -27.5t-33.5 -19t-41 -7z" />
    <glyph glyph-name="onesuperior" unicode="&#xb9;" horiz-adv-x="351" 
d="M82 351h118l79 318l-136 -55l-5 18l154 66h24l-86 -347h106l-5 -21h-254z" />
    <glyph glyph-name="ordmasculine" unicode="&#xba;" horiz-adv-x="360" 
d="M212 369q25 0 47 10.5t39 28t29.5 41t19.5 50.5q9 37 12.5 58t3.5 36q0 42 -20.5 68t-60.5 26q-25 0 -47 -10.5t-39 -28t-29.5 -41t-19.5 -50.5q-9 -37 -12.5 -58t-3.5 -36q0 -42 20.5 -68t60.5 -26zM211 352q-54 0 -80 31.5t-26 89.5q0 44 13 85.5t36.5 74t56 52
t72.5 19.5q54 0 80 -31.5t26 -89.5q0 -44 -13 -86t-36.5 -74t-56 -51.5t-72.5 -19.5z" />
    <glyph glyph-name="guillemotright" unicode="&#xbb;" horiz-adv-x="458" 
d="M7 117l198 180l-108 174l13 12l133 -179l-5 -24l-223 -179zM190 117l198 180l-108 174l13 12l133 -179l-5 -24l-223 -179z" />
    <glyph glyph-name="onequarter" unicode="&#xbc;" horiz-adv-x="835" 
d="M82 351h118l79 318l-136 -55l-5 18l154 66h24l-86 -347h106l-5 -21h-254zM754 698h30l-589 -698h-30zM666 85h-194l5 23l257 260h32l-65 -261h62l-6 -22h-62l-21 -85h-29zM501 107h171l56 225h-4z" />
    <glyph glyph-name="onehalf" unicode="&#xbd;" horiz-adv-x="860" 
d="M82 351h118l79 318l-136 -55l-5 18l154 66h24l-86 -347h106l-5 -21h-254zM754 698h30l-589 -698h-30zM507 26l150 112q45 34 70.5 63t34.5 59q5 18 5 36q0 58 -78 58q-24 0 -45.5 -5t-38.5 -16v-3q23 -7 23 -27q0 -13 -8 -20.5t-19 -7.5q-12 0 -19.5 7t-7.5 20q0 12 9 25
t24.5 23.5t38 17t49.5 6.5q50 0 76.5 -21t26.5 -56q0 -48 -34 -90.5t-92 -83.5l-138 -96l-1 -3h197l16 63h24l-21 -87h-249z" />
    <glyph glyph-name="threequarters" unicode="&#xbe;" horiz-adv-x="786" 
d="M182 324q-51 0 -78.5 20.5t-27.5 43.5q0 15 8.5 25t22.5 10q11 0 18 -6.5t7 -17.5t-8.5 -20t-22.5 -12l-1 -2q15 -12 36 -16.5t41 -4.5t40 4.5t36.5 14.5t28 24.5t16.5 35.5q2 7 3 16t1 16q0 26 -21 41t-63 15h-37l5 20h35q51 0 77 19t35 52q2 5 3 11.5t1 13.5
q0 57 -78 57q-51 0 -84 -21v-3q22 -7 22 -27q0 -12 -7.5 -20t-19.5 -8t-19.5 7.5t-7.5 20.5q0 12 9 25t25 23t38.5 16.5t49.5 6.5q49 0 75.5 -20t26.5 -55q0 -24 -8.5 -42.5t-22 -32t-31 -21.5t-34.5 -11l-1 -3q27 -5 44.5 -22t17.5 -44q0 -29 -12 -53t-32.5 -41t-48 -26
t-57.5 -9zM705 698h30l-589 -698h-30zM617 85h-194l5 23l257 260h32l-65 -261h62l-6 -22h-62l-21 -85h-29zM452 107h171l56 225h-4z" />
    <glyph glyph-name="questiondown" unicode="&#xbf;" horiz-adv-x="479" 
d="M158 -202q-77 0 -114 37.5t-37 93.5q0 48 18 90t50.5 74.5t79 54t103.5 27.5l37 150h25l-42 -170q-88 -7 -145.5 -49.5t-74.5 -102.5q-7 -24 -10.5 -42.5t-3.5 -32.5q0 -52 32.5 -78.5t87.5 -26.5q47 0 79.5 11.5t56.5 30.5v4q-31 6 -31 35q0 14 9.5 25t26.5 11
q16 0 24.5 -10.5t8.5 -24.5q0 -20 -15 -39.5t-39.5 -34.5t-57 -24t-68.5 -9zM339 442q-16 0 -23.5 9t-7.5 21q0 5 1.5 10t3.5 9q4 10 13 16.5t23 6.5q16 0 23.5 -9t7.5 -21q0 -5 -1.5 -10t-3.5 -9q-4 -10 -13 -16.5t-23 -6.5z" />
    <glyph glyph-name="Agrave" unicode="&#xc0;" horiz-adv-x="648" 
d="M-40 23h55l399 675h43l62 -675h55l-5 -23h-186l5 23h94l-18 210h-293l-122 -210h94l-5 -23h-183zM185 257h277l-36 407h-3zM359 919l32 16l75 -160l-14 -8z" />
    <glyph glyph-name="Aacute" unicode="&#xc1;" horiz-adv-x="648" 
d="M-40 23h55l399 675h43l62 -675h55l-5 -23h-186l5 23h94l-18 210h-293l-122 -210h94l-5 -23h-183zM185 257h277l-36 407h-3zM437 776l122 159l28 -17l-137 -151z" />
    <glyph glyph-name="Acircumflex" unicode="&#xc2;" horiz-adv-x="648" 
d="M-40 23h55l399 675h43l62 -675h55l-5 -23h-186l5 23h94l-18 210h-293l-122 -210h94l-5 -23h-183zM185 257h277l-36 407h-3zM322 789l151 136h32l91 -138l-14 -8l-97 116l-151 -116z" />
    <glyph glyph-name="Atilde" unicode="&#xc3;" horiz-adv-x="648" 
d="M-40 23h55l399 675h43l62 -675h55l-5 -23h-186l5 23h94l-18 210h-293l-122 -210h94l-5 -23h-183zM185 257h277l-36 407h-3zM536 803q-20 0 -36 7t-38 23q-20 14 -34.5 20t-28.5 6q-33 0 -70 -31l-10 11q22 20 42.5 33t42.5 13q20 0 36 -7t38 -23q20 -14 34.5 -20t28.5 -6
q33 0 70 31l10 -11q-22 -20 -42.5 -33t-42.5 -13z" />
    <glyph glyph-name="Adieresis" unicode="&#xc4;" horiz-adv-x="648" 
d="M-40 23h55l399 675h43l62 -675h55l-5 -23h-186l5 23h94l-18 210h-293l-122 -210h94l-5 -23h-183zM185 257h277l-36 407h-3zM378 813q-14 0 -20 7.5t-6 17.5q0 4 0.5 7.5t2.5 8.5q4 8 11 13.5t19 5.5q14 0 20 -7.5t6 -17.5q0 -4 -0.5 -7.5t-2.5 -8.5q-4 -8 -11 -13.5
t-19 -5.5zM559 813q-14 0 -20 7.5t-6 17.5q0 4 0.5 7.5t2.5 8.5q4 8 11 13.5t19 5.5q14 0 20 -7.5t6 -17.5q0 -4 -0.5 -7.5t-2.5 -8.5q-4 -8 -11 -13.5t-19 -5.5z" />
    <glyph glyph-name="Aring" unicode="&#xc5;" horiz-adv-x="648" 
d="M-40 23h55l399 675h43l62 -675h55l-5 -23h-186l5 23h94l-18 210h-293l-122 -210h94l-5 -23h-183zM185 257h277l-36 407h-3zM461 784q29 0 51 18.5t29 46.5q5 23 5 35q0 23 -15.5 37t-41.5 14q-29 0 -51 -18.5t-29 -46.5q-5 -23 -5 -35q0 -23 15.5 -37t41.5 -14zM458 764
q-36 0 -58 20.5t-22 52.5q0 24 8.5 45.5t23.5 37.5t36 25.5t46 9.5q36 0 58 -20.5t22 -52.5q0 -24 -8.5 -45.5t-23.5 -37.5t-36 -25.5t-46 -9.5z" />
    <glyph glyph-name="AE" unicode="&#xc6;" horiz-adv-x="909" 
d="M-47 23h55l515 652h-92l6 23h508l-38 -153h-31l32 129h-308l-74 -296h229l21 85h27l-48 -193h-27l21 84h-228l-83 -330h326l33 131h31l-39 -155h-471l5 23h78l52 210h-246l-166 -210h94l-5 -23h-182zM225 257h234l104 418h-8z" />
    <glyph glyph-name="Ccedilla" unicode="&#xc7;" horiz-adv-x="600" 
d="M245 -203q-29 0 -47 11t-24 24l11 11q8 -12 24 -19t36 -7q18 0 32 6t23.5 15.5t14 20.5t4.5 21q0 18 -12 26.5t-40 10.5l-32 1l34 70q-91 4 -143 59t-52 170q0 50 9 106t27 111t46.5 105t67 88t88.5 60.5t112 22.5q59 0 100.5 -22t53.5 -64h3l19 74h31l-51 -205h-31
l17 69q3 13 3 23q0 24 -11 42.5t-30.5 31.5t-45.5 19.5t-56 6.5q-53 0 -98.5 -20.5t-81.5 -58t-63 -90.5t-43 -119q-10 -40 -15.5 -69.5t-8.5 -51t-4 -37t-1 -27.5q0 -197 179 -197q74 0 127 39t90 101l19 -10q-17 -31 -40 -59t-52 -49.5t-64.5 -34.5t-78.5 -14l-28 -58
l1 -3q8 2 16 3t16 1q24 0 39 -13.5t15 -34.5q0 -17 -8 -32.5t-22.5 -27.5t-33.5 -19t-41 -7z" />
    <glyph glyph-name="Egrave" unicode="&#xc8;" horiz-adv-x="584" 
d="M-2 23h78l162 652h-78l5 23h455l-38 -153h-31l32 129h-308l-74 -296h229l21 85h27l-48 -193h-27l21 84h-228l-83 -330h326l33 131h31l-39 -155h-471zM328 919l32 16l75 -160l-14 -8z" />
    <glyph glyph-name="Eacute" unicode="&#xc9;" horiz-adv-x="584" 
d="M-2 23h78l162 652h-78l5 23h455l-38 -153h-31l32 129h-308l-74 -296h229l21 85h27l-48 -193h-27l21 84h-228l-83 -330h326l33 131h31l-39 -155h-471zM406 776l122 159l28 -17l-137 -151z" />
    <glyph glyph-name="Ecircumflex" unicode="&#xca;" horiz-adv-x="584" 
d="M-2 23h78l162 652h-78l5 23h455l-38 -153h-31l32 129h-308l-74 -296h229l21 85h27l-48 -193h-27l21 84h-228l-83 -330h326l33 131h31l-39 -155h-471zM291 789l151 136h32l91 -138l-14 -8l-97 116l-151 -116z" />
    <glyph glyph-name="Edieresis" unicode="&#xcb;" horiz-adv-x="584" 
d="M-2 23h78l162 652h-78l5 23h455l-38 -153h-31l32 129h-308l-74 -296h229l21 85h27l-48 -193h-27l21 84h-228l-83 -330h326l33 131h31l-39 -155h-471zM347 813q-14 0 -20 7.5t-6 17.5q0 4 0.5 7.5t2.5 8.5q4 8 11 13.5t19 5.5q14 0 20 -7.5t6 -17.5q0 -4 -0.5 -7.5
t-2.5 -8.5q-4 -8 -11 -13.5t-19 -5.5zM528 813q-14 0 -20 7.5t-6 17.5q0 4 0.5 7.5t2.5 8.5q4 8 11 13.5t19 5.5q14 0 20 -7.5t6 -17.5q0 -4 -0.5 -7.5t-2.5 -8.5q-4 -8 -11 -13.5t-19 -5.5z" />
    <glyph glyph-name="Igrave" unicode="&#xcc;" horiz-adv-x="304" 
d="M-2 23h78l162 652h-78l5 23h193l-5 -23h-78l-162 -652h78l-5 -23h-193zM187 919l32 16l75 -160l-14 -8z" />
    <glyph glyph-name="Iacute" unicode="&#xcd;" horiz-adv-x="304" 
d="M-2 23h78l162 652h-78l5 23h193l-5 -23h-78l-162 -652h78l-5 -23h-193zM265 776l122 159l28 -17l-137 -151z" />
    <glyph glyph-name="Icircumflex" unicode="&#xce;" horiz-adv-x="304" 
d="M-2 23h78l162 652h-78l5 23h193l-5 -23h-78l-162 -652h78l-5 -23h-193zM150 789l151 136h32l91 -138l-14 -8l-97 116l-151 -116z" />
    <glyph glyph-name="Idieresis" unicode="&#xcf;" horiz-adv-x="304" 
d="M-2 23h78l162 652h-78l5 23h193l-5 -23h-78l-162 -652h78l-5 -23h-193zM206 813q-14 0 -20 7.5t-6 17.5q0 4 0.5 7.5t2.5 8.5q4 8 11 13.5t19 5.5q14 0 20 -7.5t6 -17.5q0 -4 -0.5 -7.5t-2.5 -8.5q-4 -8 -11 -13.5t-19 -5.5zM387 813q-14 0 -20 7.5t-6 17.5q0 4 0.5 7.5
t2.5 8.5q4 8 11 13.5t19 5.5q14 0 20 -7.5t6 -17.5q0 -4 -0.5 -7.5t-2.5 -8.5q-4 -8 -11 -13.5t-19 -5.5z" />
    <glyph glyph-name="Eth" unicode="&#xd0;" horiz-adv-x="672" 
d="M-2 23h78l79 316h-93l5 23h93l78 313h-78l5 23h249q103 0 163 -52.5t60 -167.5q0 -49 -8.5 -103.5t-27 -108t-47.5 -101.5t-69 -85t-92.5 -58.5t-117.5 -21.5h-282zM113 24h161q51 0 97.5 19t85.5 55t68 87.5t46 116.5q10 40 16 69t9 50.5t3.5 36t0.5 26.5
q0 190 -189 190h-136l-78 -312h157l-5 -23h-157z" />
    <glyph glyph-name="Ntilde" unicode="&#xd1;" horiz-adv-x="737" 
d="M-2 23h78l162 652h-78l5 23h125l233 -647h3l156 624h-78l5 23h186l-5 -23h-78l-169 -675h-38l-237 657h-4l-158 -634h78l-5 -23h-186zM580 803q-20 0 -36 7t-38 23q-20 14 -34.5 20t-28.5 6q-33 0 -70 -31l-10 11q22 20 42.5 33t42.5 13q20 0 36 -7t38 -23
q20 -14 34.5 -20t28.5 -6q33 0 70 31l10 -11q-22 -20 -42.5 -33t-42.5 -13z" />
    <glyph glyph-name="Ograve" unicode="&#xd2;" horiz-adv-x="679" 
d="M292 13q53 0 98 20.5t81.5 58t63.5 91t43 120.5q10 39 15.5 68t8.5 51t4 37.5t1 27.5q0 96 -45 147t-136 51q-53 0 -98 -20.5t-81.5 -58t-63.5 -91t-43 -120.5q-10 -39 -15.5 -68t-8.5 -51t-4 -37.5t-1 -27.5q0 -96 45 -147t136 -51zM289 -12q-105 0 -160 60t-55 172
q0 48 8.5 103t27 109.5t46.5 104.5t67.5 88.5t90.5 61.5t115 23q105 0 160 -60t55 -172q0 -48 -8.5 -103t-27 -109.5t-46.5 -104.5t-67.5 -88.5t-90.5 -61.5t-115 -23zM360 919l32 16l75 -160l-14 -8z" />
    <glyph glyph-name="Oacute" unicode="&#xd3;" horiz-adv-x="679" 
d="M292 13q53 0 98 20.5t81.5 58t63.5 91t43 120.5q10 39 15.5 68t8.5 51t4 37.5t1 27.5q0 96 -45 147t-136 51q-53 0 -98 -20.5t-81.5 -58t-63.5 -91t-43 -120.5q-10 -39 -15.5 -68t-8.5 -51t-4 -37.5t-1 -27.5q0 -96 45 -147t136 -51zM289 -12q-105 0 -160 60t-55 172
q0 48 8.5 103t27 109.5t46.5 104.5t67.5 88.5t90.5 61.5t115 23q105 0 160 -60t55 -172q0 -48 -8.5 -103t-27 -109.5t-46.5 -104.5t-67.5 -88.5t-90.5 -61.5t-115 -23zM438 776l122 159l28 -17l-137 -151z" />
    <glyph glyph-name="Ocircumflex" unicode="&#xd4;" horiz-adv-x="679" 
d="M292 13q53 0 98 20.5t81.5 58t63.5 91t43 120.5q10 39 15.5 68t8.5 51t4 37.5t1 27.5q0 96 -45 147t-136 51q-53 0 -98 -20.5t-81.5 -58t-63.5 -91t-43 -120.5q-10 -39 -15.5 -68t-8.5 -51t-4 -37.5t-1 -27.5q0 -96 45 -147t136 -51zM289 -12q-105 0 -160 60t-55 172
q0 48 8.5 103t27 109.5t46.5 104.5t67.5 88.5t90.5 61.5t115 23q105 0 160 -60t55 -172q0 -48 -8.5 -103t-27 -109.5t-46.5 -104.5t-67.5 -88.5t-90.5 -61.5t-115 -23zM323 789l151 136h32l91 -138l-14 -8l-97 116l-151 -116z" />
    <glyph glyph-name="Otilde" unicode="&#xd5;" horiz-adv-x="679" 
d="M292 13q53 0 98 20.5t81.5 58t63.5 91t43 120.5q10 39 15.5 68t8.5 51t4 37.5t1 27.5q0 96 -45 147t-136 51q-53 0 -98 -20.5t-81.5 -58t-63.5 -91t-43 -120.5q-10 -39 -15.5 -68t-8.5 -51t-4 -37.5t-1 -27.5q0 -96 45 -147t136 -51zM289 -12q-105 0 -160 60t-55 172
q0 48 8.5 103t27 109.5t46.5 104.5t67.5 88.5t90.5 61.5t115 23q105 0 160 -60t55 -172q0 -48 -8.5 -103t-27 -109.5t-46.5 -104.5t-67.5 -88.5t-90.5 -61.5t-115 -23zM537 803q-20 0 -36 7t-38 23q-20 14 -34.5 20t-28.5 6q-33 0 -70 -31l-10 11q22 20 42.5 33t42.5 13
q20 0 36 -7t38 -23q20 -14 34.5 -20t28.5 -6q33 0 70 31l10 -11q-22 -20 -42.5 -33t-42.5 -13z" />
    <glyph glyph-name="Odieresis" unicode="&#xd6;" horiz-adv-x="679" 
d="M292 13q53 0 98 20.5t81.5 58t63.5 91t43 120.5q10 39 15.5 68t8.5 51t4 37.5t1 27.5q0 96 -45 147t-136 51q-53 0 -98 -20.5t-81.5 -58t-63.5 -91t-43 -120.5q-10 -39 -15.5 -68t-8.5 -51t-4 -37.5t-1 -27.5q0 -96 45 -147t136 -51zM289 -12q-105 0 -160 60t-55 172
q0 48 8.5 103t27 109.5t46.5 104.5t67.5 88.5t90.5 61.5t115 23q105 0 160 -60t55 -172q0 -48 -8.5 -103t-27 -109.5t-46.5 -104.5t-67.5 -88.5t-90.5 -61.5t-115 -23zM379 813q-14 0 -20 7.5t-6 17.5q0 4 0.5 7.5t2.5 8.5q4 8 11 13.5t19 5.5q14 0 20 -7.5t6 -17.5
q0 -4 -0.5 -7.5t-2.5 -8.5q-4 -8 -11 -13.5t-19 -5.5zM560 813q-14 0 -20 7.5t-6 17.5q0 4 0.5 7.5t2.5 8.5q4 8 11 13.5t19 5.5q14 0 20 -7.5t6 -17.5q0 -4 -0.5 -7.5t-2.5 -8.5q-4 -8 -11 -13.5t-19 -5.5z" />
    <glyph glyph-name="multiply" unicode="&#xd7;" horiz-adv-x="550" 
d="M50 125l222 181l-130 181l20 15l130 -180l218 180l17 -17l-222 -182l130 -180l-21 -15l-129 179l-218 -179z" />
    <glyph glyph-name="Oslash" unicode="&#xd8;" horiz-adv-x="679" 
d="M29 -19l80 95q-35 56 -35 144q0 48 8.5 103t27 109.5t46.5 104.5t67.5 88.5t90.5 61.5t115 23q110 0 166 -67l77 91l18 -16l-80 -97q34 -57 34 -143q0 -48 -8.5 -103t-27 -109.5t-46.5 -104.5t-67.5 -88.5t-90.5 -61.5t-115 -23q-110 0 -165 67l-78 -89zM426 685
q-53 0 -98 -20.5t-81.5 -58t-63.5 -91t-43 -120.5q-10 -39 -15.5 -68t-8.5 -51t-4 -37.5t-1 -27.5q0 -64 21 -109l441 517q-45 66 -147 66zM292 13q53 0 98 20.5t81.5 58t63.5 91t43 120.5q10 39 15.5 68t8.5 51t4 37.5t1 27.5q0 65 -21 109l-441 -517q45 -66 147 -66z" />
    <glyph glyph-name="Ugrave" unicode="&#xd9;" horiz-adv-x="691" 
d="M288 -12q-89 0 -136 37.5t-47 115.5q0 26 6 56t15 65l102 413h-78l5 23h193l-5 -23h-78l-104 -418q-9 -37 -14.5 -66.5t-5.5 -55.5q0 -57 35.5 -89t113.5 -32q53 0 92.5 13.5t69 43t50.5 75.5t38 112l103 417h-78l5 23h186l-5 -23h-78l-104 -417q-19 -78 -44.5 -129.5
t-59.5 -83t-78 -44.5t-99 -13zM384 919l32 16l75 -160l-14 -8z" />
    <glyph glyph-name="Uacute" unicode="&#xda;" horiz-adv-x="691" 
d="M288 -12q-89 0 -136 37.5t-47 115.5q0 26 6 56t15 65l102 413h-78l5 23h193l-5 -23h-78l-104 -418q-9 -37 -14.5 -66.5t-5.5 -55.5q0 -57 35.5 -89t113.5 -32q53 0 92.5 13.5t69 43t50.5 75.5t38 112l103 417h-78l5 23h186l-5 -23h-78l-104 -417q-19 -78 -44.5 -129.5
t-59.5 -83t-78 -44.5t-99 -13zM462 776l122 159l28 -17l-137 -151z" />
    <glyph glyph-name="Ucircumflex" unicode="&#xdb;" horiz-adv-x="691" 
d="M288 -12q-89 0 -136 37.5t-47 115.5q0 26 6 56t15 65l102 413h-78l5 23h193l-5 -23h-78l-104 -418q-9 -37 -14.5 -66.5t-5.5 -55.5q0 -57 35.5 -89t113.5 -32q53 0 92.5 13.5t69 43t50.5 75.5t38 112l103 417h-78l5 23h186l-5 -23h-78l-104 -417q-19 -78 -44.5 -129.5
t-59.5 -83t-78 -44.5t-99 -13zM347 789l151 136h32l91 -138l-14 -8l-97 116l-151 -116z" />
    <glyph glyph-name="Udieresis" unicode="&#xdc;" horiz-adv-x="691" 
d="M288 -12q-89 0 -136 37.5t-47 115.5q0 26 6 56t15 65l102 413h-78l5 23h193l-5 -23h-78l-104 -418q-9 -37 -14.5 -66.5t-5.5 -55.5q0 -57 35.5 -89t113.5 -32q53 0 92.5 13.5t69 43t50.5 75.5t38 112l103 417h-78l5 23h186l-5 -23h-78l-104 -417q-19 -78 -44.5 -129.5
t-59.5 -83t-78 -44.5t-99 -13zM403 813q-14 0 -20 7.5t-6 17.5q0 4 0.5 7.5t2.5 8.5q4 8 11 13.5t19 5.5q14 0 20 -7.5t6 -17.5q0 -4 -0.5 -7.5t-2.5 -8.5q-4 -8 -11 -13.5t-19 -5.5zM584 813q-14 0 -20 7.5t-6 17.5q0 4 0.5 7.5t2.5 8.5q4 8 11 13.5t19 5.5q14 0 20 -7.5
t6 -17.5q0 -4 -0.5 -7.5t-2.5 -8.5q-4 -8 -11 -13.5t-19 -5.5z" />
    <glyph glyph-name="Yacute" unicode="&#xdd;" horiz-adv-x="596" 
d="M128 23h95l64 262l-106 390h-55l5 23h187l-5 -23h-95l97 -361h2l276 361h-95l5 23h183l-5 -23h-55l-302 -390l-64 -262h95l-5 -23h-227zM414 776l122 159l28 -17l-137 -151z" />
    <glyph glyph-name="Thorn" unicode="&#xde;" horiz-adv-x="569" 
d="M-2 23h78l162 652h-78l5 23h193l-5 -23h-78l-35 -141h176q74 0 109.5 -33t35.5 -96q0 -42 -13.5 -84.5t-41.5 -77t-71 -56t-102 -21.5h-184l-36 -143h78l-5 -23h-193zM155 190h177q66 0 114.5 36.5t64.5 101.5q5 17 9 39.5t4 41.5q0 47 -25 74t-85 27h-180z" />
    <glyph glyph-name="germandbls" unicode="&#xdf;" horiz-adv-x="548" 
d="M-66 -212q-30 0 -46.5 12.5t-16.5 32.5q0 14 9.5 24t23.5 10t22 -9t8 -20q0 -20 -20 -32l1 -3h11q45 0 71 31.5t40 90.5l140 560h-99l6 23h99l19 80q20 81 74.5 126.5t129.5 45.5q69 0 106 -36.5t37 -100.5q0 -14 -3 -33.5t-8 -40.5l-13 -52h-25q-29 0 -56 -7t-49 -21
t-35 -35.5t-13 -50.5q0 -18 3.5 -32t12 -27.5t22 -29.5t34.5 -37q32 -33 48.5 -60t16.5 -64q0 -35 -14 -61.5t-37.5 -45.5t-55 -28.5t-66.5 -9.5q-42 0 -64 13.5t-22 36.5q0 14 9 23.5t24 9.5q14 0 22 -8t8 -21q0 -10 -6 -18t-14 -13l1 -4q5 -2 13 -3t17 -1q22 0 48.5 5.5
t49.5 19t38 37t15 58.5q0 18 -3.5 32.5t-12 29t-22.5 30t-34 36.5q-31 31 -48 58t-17 66q0 34 15 59.5t40.5 43t58.5 27t70 9.5l9 38q5 21 8 39t3 35q0 57 -29.5 84t-81.5 27q-61 0 -105.5 -36.5t-62.5 -108.5l-166 -669q-16 -63 -50 -99t-88 -36z" />
    <glyph glyph-name="agrave" unicode="&#xe0;" horiz-adv-x="514" 
d="M139 -12q-27 0 -44.5 10.5t-28 28.5t-15 42.5t-4.5 51.5q0 66 16.5 136.5t49 129t81 96t111.5 37.5q36 0 61 -16t35 -58h5l27 62h19l-122 -485l18 -8l130 114l11 -11l-84 -83q-29 -29 -43.5 -38t-28.5 -9t-24.5 7.5t-10.5 24.5q0 13 5 33l40 157l-5 2q-15 -35 -35 -74.5
t-44.5 -72.5t-54.5 -55t-65 -22zM148 17q18 0 40.5 11t43.5 36q24 27 46 62.5t41 73.5t33.5 74.5t22.5 65.5l5 21q18 68 -1 101t-68 33q-38 0 -70.5 -16.5t-58.5 -46.5t-45.5 -72t-32.5 -93q-11 -43 -15.5 -80t-4.5 -66q0 -22 2.5 -41t9.5 -33t19.5 -22t32.5 -8zM233 739
l32 16l75 -160l-14 -8z" />
    <glyph glyph-name="aacute" unicode="&#xe1;" horiz-adv-x="514" 
d="M139 -12q-27 0 -44.5 10.5t-28 28.5t-15 42.5t-4.5 51.5q0 66 16.5 136.5t49 129t81 96t111.5 37.5q36 0 61 -16t35 -58h5l27 62h19l-122 -485l18 -8l130 114l11 -11l-84 -83q-29 -29 -43.5 -38t-28.5 -9t-24.5 7.5t-10.5 24.5q0 13 5 33l40 157l-5 2q-15 -35 -35 -74.5
t-44.5 -72.5t-54.5 -55t-65 -22zM148 17q18 0 40.5 11t43.5 36q24 27 46 62.5t41 73.5t33.5 74.5t22.5 65.5l5 21q18 68 -1 101t-68 33q-38 0 -70.5 -16.5t-58.5 -46.5t-45.5 -72t-32.5 -93q-11 -43 -15.5 -80t-4.5 -66q0 -22 2.5 -41t9.5 -33t19.5 -22t32.5 -8zM309 596
l122 159l28 -17l-137 -151z" />
    <glyph glyph-name="acircumflex" unicode="&#xe2;" horiz-adv-x="514" 
d="M139 -12q-27 0 -44.5 10.5t-28 28.5t-15 42.5t-4.5 51.5q0 66 16.5 136.5t49 129t81 96t111.5 37.5q36 0 61 -16t35 -58h5l27 62h19l-122 -485l18 -8l130 114l11 -11l-84 -83q-29 -29 -43.5 -38t-28.5 -9t-24.5 7.5t-10.5 24.5q0 13 5 33l40 157l-5 2q-15 -35 -35 -74.5
t-44.5 -72.5t-54.5 -55t-65 -22zM148 17q18 0 40.5 11t43.5 36q24 27 46 62.5t41 73.5t33.5 74.5t22.5 65.5l5 21q18 68 -1 101t-68 33q-38 0 -70.5 -16.5t-58.5 -46.5t-45.5 -72t-32.5 -93q-11 -43 -15.5 -80t-4.5 -66q0 -22 2.5 -41t9.5 -33t19.5 -22t32.5 -8zM193 611
l151 136h32l91 -138l-14 -8l-97 116l-151 -116z" />
    <glyph glyph-name="atilde" unicode="&#xe3;" horiz-adv-x="514" 
d="M139 -12q-27 0 -44.5 10.5t-28 28.5t-15 42.5t-4.5 51.5q0 66 16.5 136.5t49 129t81 96t111.5 37.5q36 0 61 -16t35 -58h5l27 62h19l-122 -485l18 -8l130 114l11 -11l-84 -83q-29 -29 -43.5 -38t-28.5 -9t-24.5 7.5t-10.5 24.5q0 13 5 33l40 157l-5 2q-15 -35 -35 -74.5
t-44.5 -72.5t-54.5 -55t-65 -22zM148 17q18 0 40.5 11t43.5 36q24 27 46 62.5t41 73.5t33.5 74.5t22.5 65.5l5 21q18 68 -1 101t-68 33q-38 0 -70.5 -16.5t-58.5 -46.5t-45.5 -72t-32.5 -93q-11 -43 -15.5 -80t-4.5 -66q0 -22 2.5 -41t9.5 -33t19.5 -22t32.5 -8zM406 626
q-20 0 -36 7t-38 23q-20 14 -34.5 20t-28.5 6q-33 0 -70 -31l-10 11q22 20 42.5 33t42.5 13q20 0 36 -7t38 -23q20 -14 34.5 -20t28.5 -6q33 0 70 31l10 -11q-22 -20 -42.5 -33t-42.5 -13z" />
    <glyph glyph-name="adieresis" unicode="&#xe4;" horiz-adv-x="514" 
d="M139 -12q-27 0 -44.5 10.5t-28 28.5t-15 42.5t-4.5 51.5q0 66 16.5 136.5t49 129t81 96t111.5 37.5q36 0 61 -16t35 -58h5l27 62h19l-122 -485l18 -8l130 114l11 -11l-84 -83q-29 -29 -43.5 -38t-28.5 -9t-24.5 7.5t-10.5 24.5q0 13 5 33l40 157l-5 2q-15 -35 -35 -74.5
t-44.5 -72.5t-54.5 -55t-65 -22zM148 17q18 0 40.5 11t43.5 36q24 27 46 62.5t41 73.5t33.5 74.5t22.5 65.5l5 21q18 68 -1 101t-68 33q-38 0 -70.5 -16.5t-58.5 -46.5t-45.5 -72t-32.5 -93q-11 -43 -15.5 -80t-4.5 -66q0 -22 2.5 -41t9.5 -33t19.5 -22t32.5 -8zM248 637
q-14 0 -20 7.5t-6 17.5q0 4 0.5 7.5t2.5 8.5q4 8 11 13.5t19 5.5q14 0 20 -7.5t6 -17.5q0 -4 -0.5 -7.5t-2.5 -8.5q-4 -8 -11 -13.5t-19 -5.5zM429 637q-14 0 -20 7.5t-6 17.5q0 4 0.5 7.5t2.5 8.5q4 8 11 13.5t19 5.5q14 0 20 -7.5t6 -17.5q0 -4 -0.5 -7.5t-2.5 -8.5
q-4 -8 -11 -13.5t-19 -5.5z" />
    <glyph glyph-name="aring" unicode="&#xe5;" horiz-adv-x="514" 
d="M139 -12q-27 0 -44.5 10.5t-28 28.5t-15 42.5t-4.5 51.5q0 66 16.5 136.5t49 129t81 96t111.5 37.5q36 0 61 -16t35 -58h5l27 62h19l-122 -485l18 -8l130 114l11 -11l-84 -83q-29 -29 -43.5 -38t-28.5 -9t-24.5 7.5t-10.5 24.5q0 13 5 33l40 157l-5 2q-15 -35 -35 -74.5
t-44.5 -72.5t-54.5 -55t-65 -22zM148 17q18 0 40.5 11t43.5 36q24 27 46 62.5t41 73.5t33.5 74.5t22.5 65.5l5 21q18 68 -1 101t-68 33q-38 0 -70.5 -16.5t-58.5 -46.5t-45.5 -72t-32.5 -93q-11 -43 -15.5 -80t-4.5 -66q0 -22 2.5 -41t9.5 -33t19.5 -22t32.5 -8zM334 614
q29 0 51 18.5t29 46.5q5 23 5 35q0 23 -15.5 37t-41.5 14q-29 0 -51 -18.5t-29 -46.5q-5 -23 -5 -35q0 -23 15.5 -37t41.5 -14zM331 594q-36 0 -58 20.5t-22 52.5q0 24 8.5 45.5t23.5 37.5t36 25.5t46 9.5q36 0 58 -20.5t22 -52.5q0 -24 -8.5 -45.5t-23.5 -37.5t-36 -25.5
t-46 -9.5z" />
    <glyph glyph-name="ae" unicode="&#xe6;" horiz-adv-x="686" 
d="M116 -12q-46 0 -67 27t-21 65q0 37 18.5 69.5t55.5 58t93 43t131 24.5q1 4 2.5 8.5t3.5 12.5t5.5 21t8.5 34q4 17 7 32.5t3 31.5q0 83 -91 83q-29 0 -57 -7.5t-48 -24.5v-4q11 -3 18.5 -11.5t7.5 -22.5q0 -15 -9.5 -24t-23.5 -9t-23 8t-9 25t12.5 33.5t33.5 29.5t48 21
t56 8q54 0 82 -24t30 -69v-11t-2 -13h5q26 51 69.5 84t94.5 33q20 0 39.5 -4.5t34.5 -15.5t24.5 -28.5t9.5 -44.5q0 -33 -16 -60t-52 -48t-93 -35.5t-139 -21.5q-4 -17 -10.5 -54t-6.5 -79q0 -23 3 -43.5t12 -36t24.5 -25t40.5 -9.5q48 0 96.5 39t88.5 114l16 -8
q-48 -94 -100 -133t-109 -39q-58 0 -81 35.5t-23 102.5q0 8 0.5 17.5t1.5 18.5h-5q-12 -29 -31.5 -59.5t-44.5 -56t-54 -42t-60 -16.5zM126 14q32 0 63.5 25t58 61t45.5 76.5t27 70.5l3 12q-69 -8 -118.5 -25.5t-81 -41.5t-46 -52t-14.5 -57t14 -49t49 -20zM362 278
q125 14 193.5 46.5t68.5 99.5q0 14 -3.5 27t-12.5 23.5t-23.5 17t-35.5 6.5q-60 0 -110.5 -54t-76.5 -166z" />
    <glyph glyph-name="ccedilla" unicode="&#xe7;" horiz-adv-x="402" 
d="M117 -203q-29 0 -47 11t-24 24l11 11q8 -12 24 -19t36 -7q18 0 32 6t23.5 15.5t14 20.5t4.5 21q0 18 -12 26.5t-40 10.5l-32 1l34 71q-49 4 -71.5 39t-22.5 102q0 36 6 79t18 86t31 84t45.5 72t60.5 50t77 19q48 0 76.5 -23t28.5 -55q0 -18 -10 -29t-26 -11
q-14 0 -22 8.5t-8 21.5q0 14 10.5 25t30.5 13v4q-11 11 -30.5 17.5t-48.5 6.5q-57 0 -107.5 -55.5t-76.5 -174.5q-2 -8 -5 -22.5t-6 -33.5t-5 -40.5t-2 -43.5t3.5 -42.5t12 -36t24 -25t39.5 -9.5q46 0 90 40t83 113l16 -8q-46 -90 -92 -130t-97 -42l-28 -58l1 -3q8 2 16 3
t16 1q24 0 39 -13.5t15 -34.5q0 -17 -8 -32.5t-22.5 -27.5t-33.5 -19t-41 -7z" />
    <glyph glyph-name="egrave" unicode="&#xe8;" horiz-adv-x="429" 
d="M157 -12q-58 0 -84 35.5t-26 108.5q0 35 6 78t19 86t32.5 83.5t47 71.5t63 50t79.5 19q20 0 39 -4.5t34 -15.5t24.5 -28.5t9.5 -44.5q0 -33 -16.5 -60t-52.5 -48t-93 -35.5t-138 -21.5q-7 -31 -12 -64.5t-5 -68.5q0 -23 3.5 -43.5t12.5 -36t24.5 -25t39.5 -9.5
q48 0 96.5 39t88.5 114l16 -8q-24 -47 -49 -80t-51 -53.5t-53 -29.5t-55 -9zM105 278q62 7 110.5 18t82.5 28.5t51.5 42t17.5 57.5q0 28 -16 51t-59 23q-59 0 -110 -53.5t-77 -166.5zM217 739l32 16l75 -160l-14 -8z" />
    <glyph glyph-name="eacute" unicode="&#xe9;" horiz-adv-x="429" 
d="M157 -12q-58 0 -84 35.5t-26 108.5q0 35 6 78t19 86t32.5 83.5t47 71.5t63 50t79.5 19q20 0 39 -4.5t34 -15.5t24.5 -28.5t9.5 -44.5q0 -33 -16.5 -60t-52.5 -48t-93 -35.5t-138 -21.5q-7 -31 -12 -64.5t-5 -68.5q0 -23 3.5 -43.5t12.5 -36t24.5 -25t39.5 -9.5
q48 0 96.5 39t88.5 114l16 -8q-24 -47 -49 -80t-51 -53.5t-53 -29.5t-55 -9zM105 278q62 7 110.5 18t82.5 28.5t51.5 42t17.5 57.5q0 28 -16 51t-59 23q-59 0 -110 -53.5t-77 -166.5zM293 596l122 159l28 -17l-137 -151z" />
    <glyph glyph-name="ecircumflex" unicode="&#xea;" horiz-adv-x="429" 
d="M157 -12q-58 0 -84 35.5t-26 108.5q0 35 6 78t19 86t32.5 83.5t47 71.5t63 50t79.5 19q20 0 39 -4.5t34 -15.5t24.5 -28.5t9.5 -44.5q0 -33 -16.5 -60t-52.5 -48t-93 -35.5t-138 -21.5q-7 -31 -12 -64.5t-5 -68.5q0 -23 3.5 -43.5t12.5 -36t24.5 -25t39.5 -9.5
q48 0 96.5 39t88.5 114l16 -8q-24 -47 -49 -80t-51 -53.5t-53 -29.5t-55 -9zM105 278q62 7 110.5 18t82.5 28.5t51.5 42t17.5 57.5q0 28 -16 51t-59 23q-59 0 -110 -53.5t-77 -166.5zM177 611l151 136h32l91 -138l-14 -8l-97 116l-151 -116z" />
    <glyph glyph-name="edieresis" unicode="&#xeb;" horiz-adv-x="429" 
d="M157 -12q-58 0 -84 35.5t-26 108.5q0 35 6 78t19 86t32.5 83.5t47 71.5t63 50t79.5 19q20 0 39 -4.5t34 -15.5t24.5 -28.5t9.5 -44.5q0 -33 -16.5 -60t-52.5 -48t-93 -35.5t-138 -21.5q-7 -31 -12 -64.5t-5 -68.5q0 -23 3.5 -43.5t12.5 -36t24.5 -25t39.5 -9.5
q48 0 96.5 39t88.5 114l16 -8q-24 -47 -49 -80t-51 -53.5t-53 -29.5t-55 -9zM105 278q62 7 110.5 18t82.5 28.5t51.5 42t17.5 57.5q0 28 -16 51t-59 23q-59 0 -110 -53.5t-77 -166.5zM232 637q-14 0 -20 7.5t-6 17.5q0 4 0.5 7.5t2.5 8.5q4 8 11 13.5t19 5.5q14 0 20 -7.5
t6 -17.5q0 -4 -0.5 -7.5t-2.5 -8.5q-4 -8 -11 -13.5t-19 -5.5zM413 637q-14 0 -20 7.5t-6 17.5q0 4 0.5 7.5t2.5 8.5q4 8 11 13.5t19 5.5q14 0 20 -7.5t6 -17.5q0 -4 -0.5 -7.5t-2.5 -8.5q-4 -8 -11 -13.5t-19 -5.5z" />
    <glyph glyph-name="igrave" unicode="&#xec;" horiz-adv-x="278" 
d="M97 -12q-14 0 -24.5 7.5t-10.5 24.5q0 13 5 33l106 429h-86l4 17l126 17l-123 -493l18 -8l130 114l11 -11l-84 -83q-29 -29 -43.5 -38t-28.5 -9zM115 739l32 16l75 -160l-14 -8z" />
    <glyph glyph-name="iacute" unicode="&#xed;" horiz-adv-x="278" 
d="M97 -12q-14 0 -24.5 7.5t-10.5 24.5q0 13 5 33l106 429h-86l4 17l126 17l-123 -493l18 -8l130 114l11 -11l-84 -83q-29 -29 -43.5 -38t-28.5 -9zM191 596l122 159l28 -17l-137 -151z" />
    <glyph glyph-name="icircumflex" unicode="&#xee;" horiz-adv-x="278" 
d="M97 -12q-14 0 -24.5 7.5t-10.5 24.5q0 13 5 33l106 429h-86l4 17l126 17l-123 -493l18 -8l130 114l11 -11l-84 -83q-29 -29 -43.5 -38t-28.5 -9zM75 611l151 136h32l91 -138l-14 -8l-97 116l-151 -116z" />
    <glyph glyph-name="idieresis" unicode="&#xef;" horiz-adv-x="278" 
d="M97 -12q-14 0 -24.5 7.5t-10.5 24.5q0 13 5 33l106 429h-86l4 17l126 17l-123 -493l18 -8l130 114l11 -11l-84 -83q-29 -29 -43.5 -38t-28.5 -9zM130 637q-14 0 -20 7.5t-6 17.5q0 4 0.5 7.5t2.5 8.5q4 8 11 13.5t19 5.5q14 0 20 -7.5t6 -17.5q0 -4 -0.5 -7.5t-2.5 -8.5
q-4 -8 -11 -13.5t-19 -5.5zM311 637q-14 0 -20 7.5t-6 17.5q0 4 0.5 7.5t2.5 8.5q4 8 11 13.5t19 5.5q14 0 20 -7.5t6 -17.5q0 -4 -0.5 -7.5t-2.5 -8.5q-4 -8 -11 -13.5t-19 -5.5z" />
    <glyph glyph-name="eth" unicode="&#xf0;" horiz-adv-x="502" 
d="M186 -12q-71 0 -104 47t-33 122q0 54 16.5 116.5t49 116.5t81 89.5t113.5 35.5q43 0 70 -22t35 -62l5 1q-5 55 -29 114t-61 109l-108 -76l-13 19l107 75q-19 23 -40 43t-42 32h38q15 -11 33 -27t32 -33l102 72l13 -19l-100 -71q45 -58 73 -132.5t28 -155.5
q0 -45 -7.5 -91.5t-22.5 -90.5t-37.5 -82.5t-52 -67.5t-66 -45.5t-80.5 -16.5zM188 11q41 0 74.5 18.5t59 50t44 72.5t29.5 86q6 24 9.5 41t5.5 30.5t2.5 24.5t0.5 22q0 30 -5.5 55t-17.5 43.5t-32 28.5t-49 10q-41 0 -74.5 -18.5t-59 -50t-44 -72.5t-29.5 -86
q-12 -47 -15 -71.5t-3 -46.5q0 -30 5.5 -55t17.5 -43.5t32 -28.5t49 -10z" />
    <glyph glyph-name="ntilde" unicode="&#xf1;" horiz-adv-x="542" 
d="M359 -12q-14 0 -24.5 7.5t-10.5 24.5q0 13 5 33l98 369q5 20 5 30q0 39 -41 39q-48 0 -103 -53q-24 -23 -48.5 -55t-46 -68.5t-38.5 -75t-26 -74.5l-41 -165h-35l120 482h-86l4 17l126 17l-58 -228l6 -1q17 34 41 74.5t54 76t65 59t76 23.5q36 0 51 -17.5t15 -45.5
q0 -18 -6 -40l-105 -394l18 -8l130 114l11 -11l-84 -83q-29 -29 -43.5 -38t-28.5 -9zM440 626q-20 0 -36 7t-38 23q-20 14 -34.5 20t-28.5 6q-33 0 -70 -31l-10 11q22 20 42.5 33t42.5 13q20 0 36 -7t38 -23q20 -14 34.5 -20t28.5 -6q33 0 70 31l10 -11q-22 -20 -42.5 -33
t-42.5 -13z" />
    <glyph glyph-name="ograve" unicode="&#xf2;" horiz-adv-x="469" 
d="M180 11q36 0 66 19t53.5 50.5t40.5 73t28 87.5q6 25 9.5 43t6 32t3 25.5t0.5 22.5q0 30 -5 54.5t-16 42t-30 27t-47 9.5q-36 0 -66 -19t-53.5 -50.5t-40.5 -73t-28 -87.5q-12 -50 -15.5 -75.5t-3.5 -47.5q0 -30 5 -54.5t16 -42t30 -27t47 -9.5zM179 -12q-71 0 -101.5 45
t-30.5 120q0 66 18 131.5t50 118t77 85t98 32.5q71 0 101.5 -45t30.5 -120q0 -66 -18 -131.5t-50.5 -118t-77 -85t-97.5 -32.5zM216 739l32 16l75 -160l-14 -8z" />
    <glyph glyph-name="oacute" unicode="&#xf3;" horiz-adv-x="469" 
d="M180 11q36 0 66 19t53.5 50.5t40.5 73t28 87.5q6 25 9.5 43t6 32t3 25.5t0.5 22.5q0 30 -5 54.5t-16 42t-30 27t-47 9.5q-36 0 -66 -19t-53.5 -50.5t-40.5 -73t-28 -87.5q-12 -50 -15.5 -75.5t-3.5 -47.5q0 -30 5 -54.5t16 -42t30 -27t47 -9.5zM179 -12q-71 0 -101.5 45
t-30.5 120q0 66 18 131.5t50 118t77 85t98 32.5q71 0 101.5 -45t30.5 -120q0 -66 -18 -131.5t-50.5 -118t-77 -85t-97.5 -32.5zM292 596l122 159l28 -17l-137 -151z" />
    <glyph glyph-name="ocircumflex" unicode="&#xf4;" horiz-adv-x="469" 
d="M180 11q36 0 66 19t53.5 50.5t40.5 73t28 87.5q6 25 9.5 43t6 32t3 25.5t0.5 22.5q0 30 -5 54.5t-16 42t-30 27t-47 9.5q-36 0 -66 -19t-53.5 -50.5t-40.5 -73t-28 -87.5q-12 -50 -15.5 -75.5t-3.5 -47.5q0 -30 5 -54.5t16 -42t30 -27t47 -9.5zM179 -12q-71 0 -101.5 45
t-30.5 120q0 66 18 131.5t50 118t77 85t98 32.5q71 0 101.5 -45t30.5 -120q0 -66 -18 -131.5t-50.5 -118t-77 -85t-97.5 -32.5zM176 611l151 136h32l91 -138l-14 -8l-97 116l-151 -116z" />
    <glyph glyph-name="otilde" unicode="&#xf5;" horiz-adv-x="469" 
d="M180 11q36 0 66 19t53.5 50.5t40.5 73t28 87.5q6 25 9.5 43t6 32t3 25.5t0.5 22.5q0 30 -5 54.5t-16 42t-30 27t-47 9.5q-36 0 -66 -19t-53.5 -50.5t-40.5 -73t-28 -87.5q-12 -50 -15.5 -75.5t-3.5 -47.5q0 -30 5 -54.5t16 -42t30 -27t47 -9.5zM179 -12q-71 0 -101.5 45
t-30.5 120q0 66 18 131.5t50 118t77 85t98 32.5q71 0 101.5 -45t30.5 -120q0 -66 -18 -131.5t-50.5 -118t-77 -85t-97.5 -32.5zM389 626q-20 0 -36 7t-38 23q-20 14 -34.5 20t-28.5 6q-33 0 -70 -31l-10 11q22 20 42.5 33t42.5 13q20 0 36 -7t38 -23q20 -14 34.5 -20
t28.5 -6q33 0 70 31l10 -11q-22 -20 -42.5 -33t-42.5 -13z" />
    <glyph glyph-name="odieresis" unicode="&#xf6;" horiz-adv-x="469" 
d="M180 11q36 0 66 19t53.5 50.5t40.5 73t28 87.5q6 25 9.5 43t6 32t3 25.5t0.5 22.5q0 30 -5 54.5t-16 42t-30 27t-47 9.5q-36 0 -66 -19t-53.5 -50.5t-40.5 -73t-28 -87.5q-12 -50 -15.5 -75.5t-3.5 -47.5q0 -30 5 -54.5t16 -42t30 -27t47 -9.5zM179 -12q-71 0 -101.5 45
t-30.5 120q0 66 18 131.5t50 118t77 85t98 32.5q71 0 101.5 -45t30.5 -120q0 -66 -18 -131.5t-50.5 -118t-77 -85t-97.5 -32.5zM231 637q-14 0 -20 7.5t-6 17.5q0 4 0.5 7.5t2.5 8.5q4 8 11 13.5t19 5.5q14 0 20 -7.5t6 -17.5q0 -4 -0.5 -7.5t-2.5 -8.5q-4 -8 -11 -13.5
t-19 -5.5zM412 637q-14 0 -20 7.5t-6 17.5q0 4 0.5 7.5t2.5 8.5q4 8 11 13.5t19 5.5q14 0 20 -7.5t6 -17.5q0 -4 -0.5 -7.5t-2.5 -8.5q-4 -8 -11 -13.5t-19 -5.5z" />
    <glyph glyph-name="divide" unicode="&#xf7;" horiz-adv-x="550" 
d="M235 80q-14 0 -22.5 8.5t-8.5 20.5q0 11 7 22q10 18 33 18q14 0 22.5 -8.5t8.5 -20.5q0 -11 -7 -22q-11 -18 -33 -18zM331 462q-14 0 -22.5 8.5t-8.5 20.5q0 11 7 22q10 18 33 18q14 0 22.5 -8.5t8.5 -20.5q0 -11 -7 -22q-11 -18 -33 -18zM58 318h465l-6 -24h-465z" />
    <glyph glyph-name="oslash" unicode="&#xf8;" horiz-adv-x="469" 
d="M-8 -16l69 81q-14 35 -14 88q0 66 18 131.5t50 118t77 85t98 32.5q39 0 65.5 -14.5t42.5 -40.5l61 74l17 -15l-68 -80q8 -19 11 -41t3 -48q0 -66 -18 -131.5t-50.5 -118t-77 -85t-97.5 -32.5q-39 0 -65.5 14.5t-42.5 40.5l-62 -74zM289 497q-36 0 -66 -19t-53.5 -50.5
t-40.5 -73t-28 -87.5q-12 -50 -15.5 -75.5t-3.5 -47.5q0 -14 1 -27t3 -24l290 346q-10 27 -30.5 42.5t-56.5 15.5zM180 11q36 0 66 19t53.5 50.5t40.5 73t28 87.5q6 25 9.5 43t6 32t3 25.5t0.5 22.5q0 31 -4 51l-291 -345q10 -28 31 -43.5t57 -15.5z" />
    <glyph glyph-name="ugrave" unicode="&#xf9;" horiz-adv-x="537" 
d="M128 -12q-36 0 -51 18t-15 45q0 17 6 40l105 391h-86l4 17l126 17l-115 -430q-5 -18 -5 -30q0 -39 41 -39q47 0 103 53q24 23 48 55t46 68.5t39 75t26 74.5l41 165h35l-122 -485l18 -8l130 114l11 -11l-84 -83q-29 -29 -44 -38t-28 -9q-14 0 -24.5 7.5t-10.5 24.5
q0 6 2 16t4 19l42 165l-6 1q-17 -34 -41 -74.5t-54 -76t-65.5 -59t-75.5 -23.5zM252 739l32 16l75 -160l-14 -8z" />
    <glyph glyph-name="uacute" unicode="&#xfa;" horiz-adv-x="537" 
d="M128 -12q-36 0 -51 18t-15 45q0 17 6 40l105 391h-86l4 17l126 17l-115 -430q-5 -18 -5 -30q0 -39 41 -39q47 0 103 53q24 23 48 55t46 68.5t39 75t26 74.5l41 165h35l-122 -485l18 -8l130 114l11 -11l-84 -83q-29 -29 -44 -38t-28 -9q-14 0 -24.5 7.5t-10.5 24.5
q0 6 2 16t4 19l42 165l-6 1q-17 -34 -41 -74.5t-54 -76t-65.5 -59t-75.5 -23.5zM328 596l122 159l28 -17l-137 -151z" />
    <glyph glyph-name="ucircumflex" unicode="&#xfb;" horiz-adv-x="537" 
d="M128 -12q-36 0 -51 18t-15 45q0 17 6 40l105 391h-86l4 17l126 17l-115 -430q-5 -18 -5 -30q0 -39 41 -39q47 0 103 53q24 23 48 55t46 68.5t39 75t26 74.5l41 165h35l-122 -485l18 -8l130 114l11 -11l-84 -83q-29 -29 -44 -38t-28 -9q-14 0 -24.5 7.5t-10.5 24.5
q0 6 2 16t4 19l42 165l-6 1q-17 -34 -41 -74.5t-54 -76t-65.5 -59t-75.5 -23.5zM212 611l151 136h32l91 -138l-14 -8l-97 116l-151 -116z" />
    <glyph glyph-name="udieresis" unicode="&#xfc;" horiz-adv-x="537" 
d="M128 -12q-36 0 -51 18t-15 45q0 17 6 40l105 391h-86l4 17l126 17l-115 -430q-5 -18 -5 -30q0 -39 41 -39q47 0 103 53q24 23 48 55t46 68.5t39 75t26 74.5l41 165h35l-122 -485l18 -8l130 114l11 -11l-84 -83q-29 -29 -44 -38t-28 -9q-14 0 -24.5 7.5t-10.5 24.5
q0 6 2 16t4 19l42 165l-6 1q-17 -34 -41 -74.5t-54 -76t-65.5 -59t-75.5 -23.5zM267 637q-14 0 -20 7.5t-6 17.5q0 4 0.5 7.5t2.5 8.5q4 8 11 13.5t19 5.5q14 0 20 -7.5t6 -17.5q0 -4 -0.5 -7.5t-2.5 -8.5q-4 -8 -11 -13.5t-19 -5.5zM448 637q-14 0 -20 7.5t-6 17.5
q0 4 0.5 7.5t2.5 8.5q4 8 11 13.5t19 5.5q14 0 20 -7.5t6 -17.5q0 -4 -0.5 -7.5t-2.5 -8.5q-4 -8 -11 -13.5t-19 -5.5z" />
    <glyph glyph-name="yacute" unicode="&#xfd;" horiz-adv-x="442" 
d="M-51 -212q-28 0 -44.5 12.5t-16.5 32.5q0 15 9 25.5t25 10.5t24 -8.5t8 -22.5q0 -21 -21 -31l2 -3h8q49 0 86 30.5t72 92.5l35 62l-42 496h-45l6 23h150l-6 -23h-70l35 -447h6l253 447h-70l6 23h144l-6 -23h-45l-332 -572q-38 -66 -79 -95.5t-92 -29.5zM289 596l122 159
l28 -17l-137 -151z" />
    <glyph glyph-name="thorn" unicode="&#xfe;" horiz-adv-x="492" 
d="M-79 -177h73l225 898h-86l3 17l127 17l-116 -457l6 -2q15 35 34.5 74.5t44.5 72.5t54.5 55t65.5 22q27 0 44.5 -10.5t28 -28.5t15 -42.5t4.5 -51.5q0 -66 -16.5 -136.5t-49.5 -129t-81 -96t-111 -37.5q-35 0 -60 15t-34 56h-5l-58 -236h97l-5 -23h-205zM180 13
q38 0 70.5 16.5t58.5 46.5t45.5 72t32.5 93q11 43 15.5 80t4.5 66q0 22 -2.5 41t-9.5 33t-19.5 22t-32.5 8q-18 0 -40.5 -11t-43.5 -36q-24 -27 -46 -62.5t-41 -73.5t-33.5 -74.5t-22.5 -65.5l-5 -21q-18 -68 1 -101t68 -33z" />
    <glyph glyph-name="ydieresis" unicode="&#xff;" horiz-adv-x="442" 
d="M-51 -212q-28 0 -44.5 12.5t-16.5 32.5q0 15 9 25.5t25 10.5t24 -8.5t8 -22.5q0 -21 -21 -31l2 -3h8q49 0 86 30.5t72 92.5l35 62l-42 496h-45l6 23h150l-6 -23h-70l35 -447h6l253 447h-70l6 23h144l-6 -23h-45l-332 -572q-38 -66 -79 -95.5t-92 -29.5zM228 637
q-14 0 -20 7.5t-6 17.5q0 4 0.5 7.5t2.5 8.5q4 8 11 13.5t19 5.5q14 0 20 -7.5t6 -17.5q0 -4 -0.5 -7.5t-2.5 -8.5q-4 -8 -11 -13.5t-19 -5.5zM409 637q-14 0 -20 7.5t-6 17.5q0 4 0.5 7.5t2.5 8.5q4 8 11 13.5t19 5.5q14 0 20 -7.5t6 -17.5q0 -4 -0.5 -7.5t-2.5 -8.5
q-4 -8 -11 -13.5t-19 -5.5z" />
    <glyph glyph-name="Amacron" unicode="&#x100;" horiz-adv-x="648" 
d="M-40 23h55l399 675h43l62 -675h55l-5 -23h-186l5 23h94l-18 210h-293l-122 -210h94l-5 -23h-183zM185 257h277l-36 407h-3zM346 859h258l-6 -26h-258z" />
    <glyph glyph-name="amacron" unicode="&#x101;" horiz-adv-x="514" 
d="M139 -12q-27 0 -44.5 10.5t-28 28.5t-15 42.5t-4.5 51.5q0 66 16.5 136.5t49 129t81 96t111.5 37.5q36 0 61 -16t35 -58h5l27 62h19l-122 -485l18 -8l130 114l11 -11l-84 -83q-29 -29 -43.5 -38t-28.5 -9t-24.5 7.5t-10.5 24.5q0 13 5 33l40 157l-5 2q-15 -35 -35 -74.5
t-44.5 -72.5t-54.5 -55t-65 -22zM148 17q18 0 40.5 11t43.5 36q24 27 46 62.5t41 73.5t33.5 74.5t22.5 65.5l5 21q18 68 -1 101t-68 33q-38 0 -70.5 -16.5t-58.5 -46.5t-45.5 -72t-32.5 -93q-11 -43 -15.5 -80t-4.5 -66q0 -22 2.5 -41t9.5 -33t19.5 -22t32.5 -8zM216 681
h258l-6 -26h-258z" />
    <glyph glyph-name="Abreve" unicode="&#x102;" horiz-adv-x="648" 
d="M-40 23h55l399 675h43l62 -675h55l-5 -23h-186l5 23h94l-18 210h-293l-122 -210h94l-5 -23h-183zM185 257h277l-36 407h-3zM457 777q-26 0 -43.5 9t-28.5 25.5t-18 39t-13 49.5l15 6l9 -30q14 -42 31.5 -56.5t51.5 -14.5t60 15t58 57l23 29l14 -7q-19 -27 -36 -49.5
t-35.5 -38.5t-39.5 -25t-48 -9z" />
    <glyph glyph-name="abreve" unicode="&#x103;" horiz-adv-x="514" 
d="M139 -12q-27 0 -44.5 10.5t-28 28.5t-15 42.5t-4.5 51.5q0 66 16.5 136.5t49 129t81 96t111.5 37.5q36 0 61 -16t35 -58h5l27 62h19l-122 -485l18 -8l130 114l11 -11l-84 -83q-29 -29 -43.5 -38t-28.5 -9t-24.5 7.5t-10.5 24.5q0 13 5 33l40 157l-5 2q-15 -35 -35 -74.5
t-44.5 -72.5t-54.5 -55t-65 -22zM148 17q18 0 40.5 11t43.5 36q24 27 46 62.5t41 73.5t33.5 74.5t22.5 65.5l5 21q18 68 -1 101t-68 33q-38 0 -70.5 -16.5t-58.5 -46.5t-45.5 -72t-32.5 -93q-11 -43 -15.5 -80t-4.5 -66q0 -22 2.5 -41t9.5 -33t19.5 -22t32.5 -8zM327 600
q-26 0 -43.5 9t-28.5 25.5t-18 39t-13 49.5l15 6l9 -30q14 -42 31.5 -56.5t51.5 -14.5t60 15t58 57l23 29l14 -7q-19 -27 -36 -49.5t-35.5 -38.5t-39.5 -25t-48 -9z" />
    <glyph glyph-name="Aogonek" unicode="&#x104;" horiz-adv-x="648" 
d="M477 -203q-29 0 -47 14.5t-18 43.5q0 42 34.5 75.5t94.5 65.5l-1 4h-157l5 23h94l-18 210h-293l-122 -210h94l-5 -23h-183l5 23h55l399 675h43l62 -675h55l-5 -23q-60 -35 -93 -69t-33 -71q0 -21 11.5 -31t31.5 -10t33.5 8.5t24.5 17.5l11 -11q-14 -14 -33 -25.5
t-45 -11.5zM185 257h277l-36 407h-3z" />
    <glyph glyph-name="aogonek" unicode="&#x105;" horiz-adv-x="514" 
d="M301 -203q-29 0 -47 14.5t-18 43.5q0 18 8.5 35.5t23.5 34.5t34.5 33t41.5 33l-2 4q-12 -7 -22 -7q-11 0 -17 7.5t-6 18.5q0 16 6 39l40 157l-5 2q-15 -35 -35 -74.5t-44.5 -72.5t-54.5 -55t-65 -22q-27 0 -44.5 10.5t-28 28.5t-15 42.5t-4.5 51.5q0 66 16.5 136.5
t49 129t81 96t111.5 37.5q36 0 61 -16t35 -58h5l27 62h19l-122 -485l18 -8l130 114l11 -11l-114 -112q-52 -49 -80 -81t-28 -65q0 -21 11.5 -31t31.5 -10t33.5 8.5t24.5 17.5l11 -11q-14 -14 -33 -25.5t-45 -11.5zM148 17q18 0 40.5 11t43.5 36q24 27 46 62.5t41 73.5
t33.5 74.5t22.5 65.5l5 21q18 68 -1 101t-68 33q-38 0 -70.5 -16.5t-58.5 -46.5t-45.5 -72t-32.5 -93q-11 -43 -15.5 -80t-4.5 -66q0 -22 2.5 -41t9.5 -33t19.5 -22t32.5 -8z" />
    <glyph glyph-name="Cacute" unicode="&#x106;" horiz-adv-x="600" 
d="M284 -12q-98 0 -154 55t-56 174q0 50 9 106t27 111t46.5 105t67 88t88.5 60.5t112 22.5q59 0 100.5 -22t53.5 -64h3l19 74h31l-51 -205h-31l17 69q3 13 3 23q0 24 -11 42.5t-30.5 31.5t-45.5 19.5t-56 6.5q-53 0 -98.5 -20.5t-81.5 -58t-63 -90.5t-43 -119
q-10 -40 -15.5 -69.5t-8.5 -51t-4 -37t-1 -27.5q0 -197 179 -197q74 0 127 39t90 101l19 -10q-18 -32 -41 -60t-53 -50t-66.5 -34.5t-81.5 -12.5zM424 776l122 159l28 -17l-137 -151z" />
    <glyph glyph-name="cacute" unicode="&#x107;" horiz-adv-x="402" 
d="M156 -12q-57 0 -83 35t-26 107q0 36 6 79t18 86t31 84t45.5 72t60.5 50t77 19q48 0 76.5 -23t28.5 -55q0 -18 -10 -29t-26 -11q-14 0 -22 8.5t-8 21.5q0 14 10.5 25t30.5 13v4q-11 11 -30.5 17.5t-48.5 6.5q-57 0 -107.5 -55.5t-76.5 -174.5q-2 -8 -5 -22.5t-6 -33.5
t-5 -40.5t-2 -43.5t3.5 -42.5t12 -36t24 -25t39.5 -9.5q46 0 90 40t83 113l16 -8q-47 -93 -95 -132.5t-101 -39.5zM286 596l122 159l28 -17l-137 -151z" />
    <glyph glyph-name="Ccircumflex" unicode="&#x108;" horiz-adv-x="600" 
d="M284 -12q-98 0 -154 55t-56 174q0 50 9 106t27 111t46.5 105t67 88t88.5 60.5t112 22.5q59 0 100.5 -22t53.5 -64h3l19 74h31l-51 -205h-31l17 69q3 13 3 23q0 24 -11 42.5t-30.5 31.5t-45.5 19.5t-56 6.5q-53 0 -98.5 -20.5t-81.5 -58t-63 -90.5t-43 -119
q-10 -40 -15.5 -69.5t-8.5 -51t-4 -37t-1 -27.5q0 -197 179 -197q74 0 127 39t90 101l19 -10q-18 -32 -41 -60t-53 -50t-66.5 -34.5t-81.5 -12.5zM309 789l151 136h32l91 -138l-14 -8l-97 116l-151 -116z" />
    <glyph glyph-name="ccircumflex" unicode="&#x109;" horiz-adv-x="402" 
d="M156 -12q-57 0 -83 35t-26 107q0 36 6 79t18 86t31 84t45.5 72t60.5 50t77 19q48 0 76.5 -23t28.5 -55q0 -18 -10 -29t-26 -11q-14 0 -22 8.5t-8 21.5q0 14 10.5 25t30.5 13v4q-11 11 -30.5 17.5t-48.5 6.5q-57 0 -107.5 -55.5t-76.5 -174.5q-2 -8 -5 -22.5t-6 -33.5
t-5 -40.5t-2 -43.5t3.5 -42.5t12 -36t24 -25t39.5 -9.5q46 0 90 40t83 113l16 -8q-47 -93 -95 -132.5t-101 -39.5zM170 611l151 136h32l91 -138l-14 -8l-97 116l-151 -116z" />
    <glyph glyph-name="Cdotaccent" unicode="&#x10a;" horiz-adv-x="600" 
d="M284 -12q-98 0 -154 55t-56 174q0 50 9 106t27 111t46.5 105t67 88t88.5 60.5t112 22.5q59 0 100.5 -22t53.5 -64h3l19 74h31l-51 -205h-31l17 69q3 13 3 23q0 24 -11 42.5t-30.5 31.5t-45.5 19.5t-56 6.5q-53 0 -98.5 -20.5t-81.5 -58t-63 -90.5t-43 -119
q-10 -40 -15.5 -69.5t-8.5 -51t-4 -37t-1 -27.5q0 -197 179 -197q74 0 127 39t90 101l19 -10q-18 -32 -41 -60t-53 -50t-66.5 -34.5t-81.5 -12.5zM455 815q-14 0 -20 8t-6 18q0 9 3 15q4 8 11 13.5t19 5.5q14 0 20 -8t6 -18q0 -9 -3 -15q-4 -8 -11 -13.5t-19 -5.5z" />
    <glyph glyph-name="cdotaccent" unicode="&#x10b;" horiz-adv-x="402" 
d="M156 -12q-57 0 -83 35t-26 107q0 36 6 79t18 86t31 84t45.5 72t60.5 50t77 19q48 0 76.5 -23t28.5 -55q0 -18 -10 -29t-26 -11q-14 0 -22 8.5t-8 21.5q0 14 10.5 25t30.5 13v4q-11 11 -30.5 17.5t-48.5 6.5q-57 0 -107.5 -55.5t-76.5 -174.5q-2 -8 -5 -22.5t-6 -33.5
t-5 -40.5t-2 -43.5t3.5 -42.5t12 -36t24 -25t39.5 -9.5q46 0 90 40t83 113l16 -8q-47 -93 -95 -132.5t-101 -39.5zM315 637q-14 0 -20 8t-6 18q0 9 3 15q4 8 11 13.5t19 5.5q14 0 20 -8t6 -18q0 -9 -3 -15q-4 -8 -11 -13.5t-19 -5.5z" />
    <glyph glyph-name="Ccaron" unicode="&#x10c;" horiz-adv-x="600" 
d="M284 -12q-98 0 -154 55t-56 174q0 50 9 106t27 111t46.5 105t67 88t88.5 60.5t112 22.5q59 0 100.5 -22t53.5 -64h3l19 74h31l-51 -205h-31l17 69q3 13 3 23q0 24 -11 42.5t-30.5 31.5t-45.5 19.5t-56 6.5q-53 0 -98.5 -20.5t-81.5 -58t-63 -90.5t-43 -119
q-10 -40 -15.5 -69.5t-8.5 -51t-4 -37t-1 -27.5q0 -197 179 -197q74 0 127 39t90 101l19 -10q-18 -32 -41 -60t-53 -50t-66.5 -34.5t-81.5 -12.5zM338 920l14 8l97 -116l151 116l12 -10l-151 -136h-32z" />
    <glyph glyph-name="ccaron" unicode="&#x10d;" horiz-adv-x="402" 
d="M156 -12q-57 0 -83 35t-26 107q0 36 6 79t18 86t31 84t45.5 72t60.5 50t77 19q48 0 76.5 -23t28.5 -55q0 -18 -10 -29t-26 -11q-14 0 -22 8.5t-8 21.5q0 14 10.5 25t30.5 13v4q-11 11 -30.5 17.5t-48.5 6.5q-57 0 -107.5 -55.5t-76.5 -174.5q-2 -8 -5 -22.5t-6 -33.5
t-5 -40.5t-2 -43.5t3.5 -42.5t12 -36t24 -25t39.5 -9.5q46 0 90 40t83 113l16 -8q-47 -93 -95 -132.5t-101 -39.5zM198 742l14 8l97 -116l151 116l12 -10l-151 -136h-32z" />
    <glyph glyph-name="Dcaron" unicode="&#x10e;" horiz-adv-x="672" 
d="M-2 23h78l162 652h-78l5 23h249q103 0 163 -52.5t60 -167.5q0 -49 -8.5 -103.5t-27 -108t-47.5 -101.5t-69 -85t-92.5 -58.5t-117.5 -21.5h-282zM113 24h161q51 0 97.5 19t85.5 55t68 87.5t46 116.5q10 40 16 69t9 50.5t3.5 36t0.5 26.5q0 190 -189 190h-136zM300 920
l14 8l97 -116l151 116l12 -10l-151 -136h-32z" />
    <glyph glyph-name="dcaron" unicode="&#x10f;" horiz-adv-x="517" 
d="M139 -12q-27 0 -44.5 10.5t-28 28.5t-15 42.5t-4.5 51.5q0 66 16.5 136.5t49 129t81 96t111.5 37.5q36 0 60.5 -16t32.5 -54h5l67 271h-86l4 17l126 17l-184 -732l18 -8l130 114l11 -11l-84 -83q-29 -29 -43.5 -38t-28.5 -9t-24.5 7.5t-10.5 24.5q0 13 5 33l40 157l-5 2
q-15 -35 -35 -74.5t-44.5 -72.5t-54.5 -55t-65 -22zM148 17q18 0 40.5 11t43.5 36q24 27 46 62.5t41 73.5t33.5 74.5t22.5 65.5l5 21q18 68 -1 101t-68 33q-38 0 -70.5 -16.5t-58.5 -46.5t-45.5 -72t-32.5 -93q-11 -43 -15.5 -80t-4.5 -66q0 -22 2.5 -41t9.5 -33t19.5 -22
t32.5 -8zM583 748h39l-79 -178h-16z" />
    <glyph glyph-name="Dcroat" unicode="&#x110;" horiz-adv-x="672" 
d="M-2 23h78l79 316h-93l5 23h93l78 313h-78l5 23h249q103 0 163 -52.5t60 -167.5q0 -49 -8.5 -103.5t-27 -108t-47.5 -101.5t-69 -85t-92.5 -58.5t-117.5 -21.5h-282zM113 24h161q51 0 97.5 19t85.5 55t68 87.5t46 116.5q10 40 16 69t9 50.5t3.5 36t0.5 26.5
q0 190 -189 190h-136l-78 -312h157l-5 -23h-157z" />
    <glyph glyph-name="dcroat" unicode="&#x111;" horiz-adv-x="517" 
d="M139 -12q-27 0 -44.5 10.5t-28 28.5t-15 42.5t-4.5 51.5q0 66 16.5 136.5t49 129t81 96t111.5 37.5q36 0 60.5 -16t32.5 -54h5l44 178h-175l5 23h176l24 98l37 6l-26 -104h81l-6 -23h-81l-152 -605l18 -8l130 114l11 -11l-84 -83q-29 -29 -43.5 -38t-28.5 -9t-24.5 7.5
t-10.5 24.5q0 13 5 33l40 157l-5 2q-15 -35 -35 -74.5t-44.5 -72.5t-54.5 -55t-65 -22zM148 17q18 0 40.5 11t43.5 36q24 27 46 62.5t41 73.5t33.5 74.5t22.5 65.5l5 21q18 68 -1 101t-68 33q-38 0 -70.5 -16.5t-58.5 -46.5t-45.5 -72t-32.5 -93q-11 -43 -15.5 -80t-4.5 -66
q0 -22 2.5 -41t9.5 -33t19.5 -22t32.5 -8z" />
    <glyph glyph-name="Emacron" unicode="&#x112;" horiz-adv-x="584" 
d="M-2 23h78l162 652h-78l5 23h455l-38 -153h-31l32 129h-308l-74 -296h229l21 85h27l-48 -193h-27l21 84h-228l-83 -330h326l33 131h31l-39 -155h-471zM315 859h258l-6 -26h-258z" />
    <glyph glyph-name="emacron" unicode="&#x113;" horiz-adv-x="429" 
d="M157 -12q-58 0 -84 35.5t-26 108.5q0 35 6 78t19 86t32.5 83.5t47 71.5t63 50t79.5 19q20 0 39 -4.5t34 -15.5t24.5 -28.5t9.5 -44.5q0 -33 -16.5 -60t-52.5 -48t-93 -35.5t-138 -21.5q-7 -31 -12 -64.5t-5 -68.5q0 -23 3.5 -43.5t12.5 -36t24.5 -25t39.5 -9.5
q48 0 96.5 39t88.5 114l16 -8q-24 -47 -49 -80t-51 -53.5t-53 -29.5t-55 -9zM105 278q62 7 110.5 18t82.5 28.5t51.5 42t17.5 57.5q0 28 -16 51t-59 23q-59 0 -110 -53.5t-77 -166.5zM200 681h258l-6 -26h-258z" />
    <glyph glyph-name="Ebreve" unicode="&#x114;" horiz-adv-x="584" 
d="M-2 23h78l162 652h-78l5 23h455l-38 -153h-31l32 129h-308l-74 -296h229l21 85h27l-48 -193h-27l21 84h-228l-83 -330h326l33 131h31l-39 -155h-471zM426 777q-26 0 -43.5 9t-28.5 25.5t-18 39t-13 49.5l15 6l9 -30q14 -42 31.5 -56.5t51.5 -14.5t60 15t58 57l23 29
l14 -7q-19 -27 -36 -49.5t-35.5 -38.5t-39.5 -25t-48 -9z" />
    <glyph glyph-name="ebreve" unicode="&#x115;" horiz-adv-x="429" 
d="M157 -12q-58 0 -84 35.5t-26 108.5q0 35 6 78t19 86t32.5 83.5t47 71.5t63 50t79.5 19q20 0 39 -4.5t34 -15.5t24.5 -28.5t9.5 -44.5q0 -33 -16.5 -60t-52.5 -48t-93 -35.5t-138 -21.5q-7 -31 -12 -64.5t-5 -68.5q0 -23 3.5 -43.5t12.5 -36t24.5 -25t39.5 -9.5
q48 0 96.5 39t88.5 114l16 -8q-24 -47 -49 -80t-51 -53.5t-53 -29.5t-55 -9zM105 278q62 7 110.5 18t82.5 28.5t51.5 42t17.5 57.5q0 28 -16 51t-59 23q-59 0 -110 -53.5t-77 -166.5zM311 600q-26 0 -43.5 9t-28.5 25.5t-18 39t-13 49.5l15 6l9 -30q14 -42 31.5 -56.5
t51.5 -14.5t60 15t58 57l23 29l14 -7q-19 -27 -36 -49.5t-35.5 -38.5t-39.5 -25t-48 -9z" />
    <glyph glyph-name="Edotaccent" unicode="&#x116;" horiz-adv-x="584" 
d="M-2 23h78l162 652h-78l5 23h455l-38 -153h-31l32 129h-308l-74 -296h229l21 85h27l-48 -193h-27l21 84h-228l-83 -330h326l33 131h31l-39 -155h-471zM437 815q-14 0 -20 8t-6 18q0 9 3 15q4 8 11 13.5t19 5.5q14 0 20 -8t6 -18q0 -9 -3 -15q-4 -8 -11 -13.5t-19 -5.5z
" />
    <glyph glyph-name="edotaccent" unicode="&#x117;" horiz-adv-x="429" 
d="M157 -12q-58 0 -84 35.5t-26 108.5q0 35 6 78t19 86t32.5 83.5t47 71.5t63 50t79.5 19q20 0 39 -4.5t34 -15.5t24.5 -28.5t9.5 -44.5q0 -33 -16.5 -60t-52.5 -48t-93 -35.5t-138 -21.5q-7 -31 -12 -64.5t-5 -68.5q0 -23 3.5 -43.5t12.5 -36t24.5 -25t39.5 -9.5
q48 0 96.5 39t88.5 114l16 -8q-24 -47 -49 -80t-51 -53.5t-53 -29.5t-55 -9zM105 278q62 7 110.5 18t82.5 28.5t51.5 42t17.5 57.5q0 28 -16 51t-59 23q-59 0 -110 -53.5t-77 -166.5zM322 637q-14 0 -20 8t-6 18q0 9 3 15q4 8 11 13.5t19 5.5q14 0 20 -8t6 -18q0 -9 -3 -15
q-4 -8 -11 -13.5t-19 -5.5z" />
    <glyph glyph-name="Eogonek" unicode="&#x118;" horiz-adv-x="584" 
d="M371 -203q-29 0 -47 14.5t-18 43.5q0 42 35 75.5t95 65.5l-1 4h-442l5 23h78l162 652h-78l5 23h455l-38 -153h-31l32 129h-308l-74 -296h229l21 85h27l-48 -193h-27l21 84h-228l-83 -330h326l33 131h31l-39 -155q-60 -35 -93.5 -69t-33.5 -71q0 -21 11.5 -31t31.5 -10
t33.5 8.5t24.5 17.5l11 -11q-14 -14 -33 -25.5t-45 -11.5z" />
    <glyph glyph-name="eogonek" unicode="&#x119;" horiz-adv-x="429" 
d="M163 -203q-29 0 -47 14.5t-18 43.5q0 42 32 75.5t84 65.5v3q-25 -11 -57 -11q-58 0 -84 35.5t-26 108.5q0 35 6 78t19 86t32.5 83.5t47 71.5t63 50t79.5 19q20 0 39 -4.5t34 -15.5t24.5 -28.5t9.5 -44.5q0 -33 -16.5 -60t-52.5 -48t-93 -35.5t-138 -21.5q-5 -20 -11 -56
t-6 -77q0 -23 3.5 -43.5t12.5 -36t24.5 -25t39.5 -9.5q48 0 96.5 39t88.5 114l16 -8q-23 -44 -44 -73t-44 -50q-27 -24 -53.5 -46.5t-47.5 -44t-34 -43t-13 -43.5q0 -21 11.5 -31t31.5 -10t33.5 8.5t24.5 17.5l11 -11q-14 -14 -33 -25.5t-45 -11.5zM105 278q62 7 110.5 18
t82.5 28.5t51.5 42t17.5 57.5q0 28 -16 51t-59 23q-59 0 -110 -53.5t-77 -166.5z" />
    <glyph glyph-name="Ecaron" unicode="&#x11a;" horiz-adv-x="584" 
d="M-2 23h78l162 652h-78l5 23h455l-38 -153h-31l32 129h-308l-74 -296h229l21 85h27l-48 -193h-27l21 84h-228l-83 -330h326l33 131h31l-39 -155h-471zM320 920l14 8l97 -116l151 116l12 -10l-151 -136h-32z" />
    <glyph glyph-name="ecaron" unicode="&#x11b;" horiz-adv-x="429" 
d="M157 -12q-58 0 -84 35.5t-26 108.5q0 35 6 78t19 86t32.5 83.5t47 71.5t63 50t79.5 19q20 0 39 -4.5t34 -15.5t24.5 -28.5t9.5 -44.5q0 -33 -16.5 -60t-52.5 -48t-93 -35.5t-138 -21.5q-7 -31 -12 -64.5t-5 -68.5q0 -23 3.5 -43.5t12.5 -36t24.5 -25t39.5 -9.5
q48 0 96.5 39t88.5 114l16 -8q-24 -47 -49 -80t-51 -53.5t-53 -29.5t-55 -9zM105 278q62 7 110.5 18t82.5 28.5t51.5 42t17.5 57.5q0 28 -16 51t-59 23q-59 0 -110 -53.5t-77 -166.5zM205 742l14 8l97 -116l151 116l12 -10l-151 -136h-32z" />
    <glyph glyph-name="Gcircumflex" unicode="&#x11c;" horiz-adv-x="685" 
d="M295 -12q-103 0 -162 55t-59 174q0 50 9 106t28.5 111t49 105t70 88t93.5 60.5t118 22.5q64 0 109.5 -23t57.5 -66h3l19 77h31l-51 -205h-31l17 69q3 13 3 23q0 24 -12.5 42.5t-34 31.5t-50 19.5t-61.5 6.5q-109 0 -192 -80t-119 -244q-11 -50 -15.5 -87.5t-4.5 -61.5
q0 -198 188 -198q39 0 73.5 12.5t62 34t46.5 49.5t27 60l32 130h-128l5 24h233l-6 -24h-69l-75 -300h-19l12 98h-4q-26 -47 -77 -78.5t-117 -31.5zM327 789l151 136h32l91 -138l-14 -8l-97 116l-151 -116z" />
    <glyph glyph-name="gcircumflex" unicode="&#x11d;" horiz-adv-x="459" 
d="M136 -212q-86 0 -133 28.5t-47 79.5q0 31 17 54.5t44 41t60 29.5t65 20l2 5l-9 3q-31 11 -51.5 27.5t-20.5 43.5q0 20 9 34t22.5 23t29.5 14t30 8v3q-30 15 -44.5 45t-14.5 71q0 43 14.5 80t40 64t60 42.5t73.5 15.5q32 0 56 -12h139l-5 -24h-57l-45 2l-1 -2
q31 -34 31 -92q0 -43 -15 -80t-40.5 -64t-59.5 -42.5t-73 -15.5q-20 0 -35 4q-9 -1 -23 -4.5t-27.5 -11.5t-23 -20t-9.5 -30q0 -15 12.5 -26t45.5 -24l113 -43q47 -18 75 -41t28 -66q0 -38 -20.5 -64.5t-54 -43.5t-75 -24.5t-83.5 -7.5zM219 211q24 0 46 9.5t40 26
t31.5 38.5t19.5 46q7 27 8.5 43.5t1.5 22.5q0 48 -20.5 75t-68.5 27q-24 0 -46.5 -9.5t-40.5 -26t-31 -38.5t-19 -46q-7 -27 -8.5 -43.5t-1.5 -22.5q0 -48 20.5 -75t68.5 -27zM140 -192q29 0 63 5.5t63 19t48.5 35.5t19.5 56q0 35 -23.5 52t-57.5 29l-87 33
q-35 -10 -66.5 -23t-55.5 -30t-38.5 -38.5t-14.5 -47.5q0 -23 11.5 -40t32 -28.5t47.5 -17t58 -5.5zM166 611l151 136h32l91 -138l-14 -8l-97 116l-151 -116z" />
    <glyph glyph-name="Gbreve" unicode="&#x11e;" horiz-adv-x="685" 
d="M295 -12q-103 0 -162 55t-59 174q0 50 9 106t28.5 111t49 105t70 88t93.5 60.5t118 22.5q64 0 109.5 -23t57.5 -66h3l19 77h31l-51 -205h-31l17 69q3 13 3 23q0 24 -12.5 42.5t-34 31.5t-50 19.5t-61.5 6.5q-109 0 -192 -80t-119 -244q-11 -50 -15.5 -87.5t-4.5 -61.5
q0 -198 188 -198q39 0 73.5 12.5t62 34t46.5 49.5t27 60l32 130h-128l5 24h233l-6 -24h-69l-75 -300h-19l12 98h-4q-26 -47 -77 -78.5t-117 -31.5zM462 777q-26 0 -43.5 9t-28.5 25.5t-18 39t-13 49.5l15 6l9 -30q14 -42 31.5 -56.5t51.5 -14.5t60 15t58 57l23 29l14 -7
q-19 -27 -36 -49.5t-35.5 -38.5t-39.5 -25t-48 -9z" />
    <glyph glyph-name="gbreve" unicode="&#x11f;" horiz-adv-x="459" 
d="M136 -212q-86 0 -133 28.5t-47 79.5q0 31 17 54.5t44 41t60 29.5t65 20l2 5l-9 3q-31 11 -51.5 27.5t-20.5 43.5q0 20 9 34t22.5 23t29.5 14t30 8v3q-30 15 -44.5 45t-14.5 71q0 43 14.5 80t40 64t60 42.5t73.5 15.5q32 0 56 -12h139l-5 -24h-57l-45 2l-1 -2
q31 -34 31 -92q0 -43 -15 -80t-40.5 -64t-59.5 -42.5t-73 -15.5q-20 0 -35 4q-9 -1 -23 -4.5t-27.5 -11.5t-23 -20t-9.5 -30q0 -15 12.5 -26t45.5 -24l113 -43q47 -18 75 -41t28 -66q0 -38 -20.5 -64.5t-54 -43.5t-75 -24.5t-83.5 -7.5zM219 211q24 0 46 9.5t40 26
t31.5 38.5t19.5 46q7 27 8.5 43.5t1.5 22.5q0 48 -20.5 75t-68.5 27q-24 0 -46.5 -9.5t-40.5 -26t-31 -38.5t-19 -46q-7 -27 -8.5 -43.5t-1.5 -22.5q0 -48 20.5 -75t68.5 -27zM140 -192q29 0 63 5.5t63 19t48.5 35.5t19.5 56q0 35 -23.5 52t-57.5 29l-87 33
q-35 -10 -66.5 -23t-55.5 -30t-38.5 -38.5t-14.5 -47.5q0 -23 11.5 -40t32 -28.5t47.5 -17t58 -5.5zM300 600q-26 0 -43.5 9t-28.5 25.5t-18 39t-13 49.5l15 6l9 -30q14 -42 31.5 -56.5t51.5 -14.5t60 15t58 57l23 29l14 -7q-19 -27 -36 -49.5t-35.5 -38.5t-39.5 -25t-48 -9
z" />
    <glyph glyph-name="Gdotaccent" unicode="&#x120;" horiz-adv-x="685" 
d="M295 -12q-103 0 -162 55t-59 174q0 50 9 106t28.5 111t49 105t70 88t93.5 60.5t118 22.5q64 0 109.5 -23t57.5 -66h3l19 77h31l-51 -205h-31l17 69q3 13 3 23q0 24 -12.5 42.5t-34 31.5t-50 19.5t-61.5 6.5q-109 0 -192 -80t-119 -244q-11 -50 -15.5 -87.5t-4.5 -61.5
q0 -198 188 -198q39 0 73.5 12.5t62 34t46.5 49.5t27 60l32 130h-128l5 24h233l-6 -24h-69l-75 -300h-19l12 98h-4q-26 -47 -77 -78.5t-117 -31.5zM473 815q-14 0 -20 8t-6 18q0 9 3 15q4 8 11 13.5t19 5.5q14 0 20 -8t6 -18q0 -9 -3 -15q-4 -8 -11 -13.5t-19 -5.5z" />
    <glyph glyph-name="gdotaccent" unicode="&#x121;" horiz-adv-x="459" 
d="M311 637q-14 0 -20 8t-6 18q0 9 3 15q4 8 11 13.5t19 5.5q14 0 20 -8t6 -18q0 -9 -3 -15q-4 -8 -11 -13.5t-19 -5.5zM136 -212q-86 0 -133 28.5t-47 79.5q0 31 17 54.5t44 41t60 29.5t65 20l2 5l-9 3q-31 11 -51.5 27.5t-20.5 43.5q0 20 9 34t22.5 23t29.5 14t30 8v3
q-30 15 -44.5 45t-14.5 71q0 43 14.5 80t40 64t60 42.5t73.5 15.5q32 0 56 -12h139l-5 -24h-57l-45 2l-1 -2q31 -34 31 -92q0 -43 -15 -80t-40.5 -64t-59.5 -42.5t-73 -15.5q-20 0 -35 4q-9 -1 -23 -4.5t-27.5 -11.5t-23 -20t-9.5 -30q0 -15 12.5 -26t45.5 -24l113 -43
q47 -18 75 -41t28 -66q0 -38 -20.5 -64.5t-54 -43.5t-75 -24.5t-83.5 -7.5zM219 211q24 0 46 9.5t40 26t31.5 38.5t19.5 46q7 27 8.5 43.5t1.5 22.5q0 48 -20.5 75t-68.5 27q-24 0 -46.5 -9.5t-40.5 -26t-31 -38.5t-19 -46q-7 -27 -8.5 -43.5t-1.5 -22.5q0 -48 20.5 -75
t68.5 -27zM140 -192q29 0 63 5.5t63 19t48.5 35.5t19.5 56q0 35 -23.5 52t-57.5 29l-87 33q-35 -10 -66.5 -23t-55.5 -30t-38.5 -38.5t-14.5 -47.5q0 -23 11.5 -40t32 -28.5t47.5 -17t58 -5.5z" />
    <glyph glyph-name="Gcommaaccent" unicode="&#x122;" horiz-adv-x="685" 
d="M295 -12q-103 0 -162 55t-59 174q0 50 9 106t28.5 111t49 105t70 88t93.5 60.5t118 22.5q64 0 109.5 -23t57.5 -66h3l19 77h31l-51 -205h-31l17 69q3 13 3 23q0 24 -12.5 42.5t-34 31.5t-50 19.5t-61.5 6.5q-109 0 -192 -80t-119 -244q-11 -50 -15.5 -87.5t-4.5 -61.5
q0 -198 188 -198q39 0 73.5 12.5t62 34t46.5 49.5t27 60l32 130h-128l5 24h233l-6 -24h-69l-75 -300h-19l12 98h-4q-26 -47 -77 -78.5t-117 -31.5zM213 -220q23 23 38.5 47.5t23.5 47.5h-6q-11 0 -18 6.5t-7 17.5q0 15 10 25t24 10t21 -7.5t7 -19.5q0 -13 -10 -35
q-10 -24 -27.5 -48.5t-37.5 -43.5h-18v0z" />
    <glyph glyph-name="gcommaaccent" unicode="&#x123;" horiz-adv-x="459" 
d="M301 598q-14 0 -21 7.5t-7 19.5q0 13 10 35q10 24 27.5 48.5t37.5 43.5h18q-23 -23 -38.5 -47.5t-23.5 -47.5h6q11 0 18 -6.5t7 -17.5q0 -15 -10 -25t-24 -10zM136 -212q-86 0 -133 28.5t-47 79.5q0 31 17 54.5t44 41t60 29.5t65 20l2 5l-9 3q-31 11 -51.5 27.5
t-20.5 43.5q0 20 9 34t22.5 23t29.5 14t30 8v3q-30 15 -44.5 45t-14.5 71q0 43 14.5 80t40 64t60 42.5t73.5 15.5q32 0 56 -12h139l-5 -24h-57l-45 2l-1 -2q31 -34 31 -92q0 -43 -15 -80t-40.5 -64t-59.5 -42.5t-73 -15.5q-20 0 -35 4q-9 -1 -23 -4.5t-27.5 -11.5t-23 -20
t-9.5 -30q0 -15 12.5 -26t45.5 -24l113 -43q47 -18 75 -41t28 -66q0 -38 -20.5 -64.5t-54 -43.5t-75 -24.5t-83.5 -7.5zM219 211q24 0 46 9.5t40 26t31.5 38.5t19.5 46q7 27 8.5 43.5t1.5 22.5q0 48 -20.5 75t-68.5 27q-24 0 -46.5 -9.5t-40.5 -26t-31 -38.5t-19 -46
q-7 -27 -8.5 -43.5t-1.5 -22.5q0 -48 20.5 -75t68.5 -27zM140 -192q29 0 63 5.5t63 19t48.5 35.5t19.5 56q0 35 -23.5 52t-57.5 29l-87 33q-35 -10 -66.5 -23t-55.5 -30t-38.5 -38.5t-14.5 -47.5q0 -23 11.5 -40t32 -28.5t47.5 -17t58 -5.5z" />
    <glyph glyph-name="Hcircumflex" unicode="&#x124;" horiz-adv-x="726" 
d="M-2 23h78l162 652h-78l5 23h193l-5 -23h-78l-74 -299h385l74 299h-78l5 23h193l-5 -23h-78l-162 -652h78l-5 -23h-193l5 23h78l82 329h-385l-82 -329h78l-5 -23h-193zM363 789l151 136h32l91 -138l-14 -8l-97 116l-151 -116z" />
    <glyph glyph-name="hcircumflex" unicode="&#x125;" horiz-adv-x="528" 
d="M345 -12q-14 0 -24.5 7.5t-10.5 24.5q0 13 5 33l98 369q5 20 5 30q0 39 -41 39q-48 0 -103 -53q-24 -23 -48.5 -55t-46 -68.5t-38.5 -75t-26 -74.5l-41 -165h-35l180 721h-86l4 17l126 17l-118 -467l6 -1q17 34 41 74.5t54 76t65 59t76 23.5q36 0 51 -17.5t15 -45.5
q0 -16 -6 -40l-105 -394l18 -8l130 114l11 -11l-84 -83q-29 -29 -43.5 -38t-28.5 -9zM118 789l151 136h32l91 -138l-14 -8l-97 116l-151 -116z" />
    <glyph glyph-name="Hbar" unicode="&#x126;" horiz-adv-x="726" 
d="M-2 23h78l126 507h-89l5 23h90l30 122h-78l5 23h193l-5 -23h-78l-30 -122h385l30 122h-78l5 23h193l-5 -23h-78l-30 -122h87l-5 -23h-88l-126 -507h78l-5 -23h-193l5 23h78l82 329h-385l-82 -329h78l-5 -23h-193zM201 376h385l38 154h-385z" />
    <glyph glyph-name="hbar" unicode="&#x127;" horiz-adv-x="528" 
d="M345 -12q-14 0 -24.5 7.5t-10.5 24.5q0 13 5 33l98 369q5 20 5 30q0 39 -41 39q-48 0 -103 -53q-24 -23 -48.5 -55t-46 -68.5t-38.5 -75t-26 -74.5l-41 -165h-35l157 628h-81l6 23h81l25 98l36 6l-26 -104h175l-5 -23h-176l-86 -340l6 -1q17 34 41 74.5t54 76t65 59
t76 23.5q36 0 51 -17.5t15 -45.5q0 -16 -6 -40l-105 -394l18 -8l130 114l11 -11l-84 -83q-29 -29 -43.5 -38t-28.5 -9z" />
    <glyph glyph-name="Itilde" unicode="&#x128;" horiz-adv-x="304" 
d="M-2 23h78l162 652h-78l5 23h193l-5 -23h-78l-162 -652h78l-5 -23h-193zM364 803q-20 0 -36 7t-38 23q-20 14 -34.5 20t-28.5 6q-33 0 -70 -31l-10 11q22 20 42.5 33t42.5 13q20 0 36 -7t38 -23q20 -14 34.5 -20t28.5 -6q33 0 70 31l10 -11q-22 -20 -42.5 -33t-42.5 -13z
" />
    <glyph glyph-name="itilde" unicode="&#x129;" horiz-adv-x="278" 
d="M97 -12q-14 0 -24.5 7.5t-10.5 24.5q0 13 5 33l106 429h-86l4 17l126 17l-123 -493l18 -8l130 114l11 -11l-84 -83q-29 -29 -43.5 -38t-28.5 -9zM288 626q-20 0 -36 7t-38 23q-20 14 -34.5 20t-28.5 6q-33 0 -70 -31l-10 11q22 20 42.5 33t42.5 13q20 0 36 -7t38 -23
q20 -14 34.5 -20t28.5 -6q33 0 70 31l10 -11q-22 -20 -42.5 -33t-42.5 -13z" />
    <glyph glyph-name="Imacron" unicode="&#x12a;" horiz-adv-x="304" 
d="M-2 23h78l162 652h-78l5 23h193l-5 -23h-78l-162 -652h78l-5 -23h-193zM174 859h258l-6 -26h-258z" />
    <glyph glyph-name="imacron" unicode="&#x12b;" horiz-adv-x="278" 
d="M97 -12q-14 0 -24.5 7.5t-10.5 24.5q0 13 5 33l106 429h-86l4 17l126 17l-123 -493l18 -8l130 114l11 -11l-84 -83q-29 -29 -43.5 -38t-28.5 -9zM98 681h258l-6 -26h-258z" />
    <glyph glyph-name="Ibreve" unicode="&#x12c;" horiz-adv-x="304" 
d="M-2 23h78l162 652h-78l5 23h193l-5 -23h-78l-162 -652h78l-5 -23h-193zM285 777q-26 0 -43.5 9t-28.5 25.5t-18 39t-13 49.5l15 6l9 -30q14 -42 31.5 -56.5t51.5 -14.5t60 15t58 57l23 29l14 -7q-19 -27 -36 -49.5t-35.5 -38.5t-39.5 -25t-48 -9z" />
    <glyph glyph-name="ibreve" unicode="&#x12d;" horiz-adv-x="278" 
d="M97 -12q-14 0 -24.5 7.5t-10.5 24.5q0 13 5 33l106 429h-86l4 17l126 17l-123 -493l18 -8l130 114l11 -11l-84 -83q-29 -29 -43.5 -38t-28.5 -9zM209 600q-26 0 -43.5 9t-28.5 25.5t-18 39t-13 49.5l15 6l9 -30q14 -42 31.5 -56.5t51.5 -14.5t60 15t58 57l23 29l14 -7
q-19 -27 -36 -49.5t-35.5 -38.5t-39.5 -25t-48 -9z" />
    <glyph glyph-name="Iogonek" unicode="&#x12e;" horiz-adv-x="304" 
d="M93 -203q-29 0 -47 14.5t-18 43.5q0 42 35 75.5t95 65.5l-1 4h-164l5 23h78l162 652h-78l5 23h193l-5 -23h-78l-162 -652h78l-5 -23q-60 -35 -93.5 -69t-33.5 -71q0 -21 11.5 -31t31.5 -10t33.5 8.5t24.5 17.5l11 -11q-14 -14 -33 -25.5t-45 -11.5z" />
    <glyph glyph-name="iogonek" unicode="&#x12f;" horiz-adv-x="278" 
d="M65 -203q-29 0 -47 14.5t-18 43.5q0 18 8.5 35.5t23.5 34.5t34.5 33t41.5 33l-2 4q-12 -7 -22 -7q-11 0 -17 7.5t-6 18.5q0 16 6 39l106 429h-86l4 17l126 17l-123 -493l18 -8l130 114l11 -11l-114 -112q-52 -49 -80 -81t-28 -65q0 -21 11.5 -31t31.5 -10t33.5 8.5
t24.5 17.5l11 -11q-14 -14 -33 -25.5t-45 -11.5zM237 662q-14 0 -21 8t-7 18t5 18q7 19 31 19q14 0 21 -7.5t7 -17.5t-5 -19q-3 -8 -11 -13.5t-20 -5.5z" />
    <glyph glyph-name="Idotaccent" unicode="&#x130;" horiz-adv-x="304" 
d="M-2 23h78l162 652h-78l5 23h193l-5 -23h-78l-162 -652h78l-5 -23h-193zM296 815q-14 0 -20 8t-6 18q0 9 3 15q4 8 11 13.5t19 5.5q14 0 20 -8t6 -18q0 -9 -3 -15q-4 -8 -11 -13.5t-19 -5.5z" />
    <glyph glyph-name="dotlessi" unicode="&#x131;" horiz-adv-x="278" 
d="M97 -12q-14 0 -24.5 7.5t-10.5 24.5q0 13 5 33l106 429h-86l4 17l126 17l-123 -493l18 -8l130 114l11 -11l-84 -83q-29 -29 -43.5 -38t-28.5 -9z" />
    <glyph glyph-name="IJ" unicode="&#x132;" horiz-adv-x="725" 
d="M-2 23h78l162 652h-78l5 23h193l-5 -23h-78l-162 -652h78l-5 -23h-193zM398 -12q-50 0 -80 20t-30 52q0 17 9 27.5t26 10.5q16 0 24.5 -9t8.5 -23q0 -11 -6.5 -21t-22.5 -17v-3q8 -7 26 -11t40 -4q54 0 90 31t51 93l134 541h-98l5 23h213l-5 -23h-78l-136 -548
q-17 -70 -61.5 -104.5t-109.5 -34.5z" />
    <glyph glyph-name="ij" unicode="&#x133;" horiz-adv-x="530" 
d="M97 -12q-14 0 -24.5 7.5t-10.5 24.5q0 13 5 33l106 429h-86l4 17l126 17l-123 -493l18 -8l130 114l11 -11l-84 -83q-29 -29 -43.5 -38t-28.5 -9zM238 662q-14 0 -21 8t-7 18t4 18t12 13.5t20 5.5q14 0 21 -8t7 -18t-4 -18t-12 -13.5t-20 -5.5zM212 -212q-30 0 -46.5 12.5
t-16.5 32.5q0 14 9.5 24t23.5 10t22 -9t8 -20q0 -9 -5.5 -18t-14.5 -14l1 -4h11q43 0 68 32t39 91l139 557h-86l4 17l126 17l-148 -594q-16 -63 -49.5 -98.5t-84.5 -35.5zM515 662q-14 0 -21 8t-7 18t4 18t12 13.5t20 5.5q14 0 21 -8t7 -18t-4 -18t-12 -13.5t-20 -5.5z" />
    <glyph glyph-name="Jcircumflex" unicode="&#x134;" horiz-adv-x="422" 
d="M95 -12q-50 0 -80 20t-30 52q0 17 9 27.5t26 10.5q16 0 24.5 -9t8.5 -23q0 -11 -6.5 -21t-22.5 -17v-3q8 -7 26 -11t40 -4q54 0 90 31t51 93l134 541h-98l5 23h213l-5 -23h-78l-136 -548q-17 -70 -61.5 -104.5t-109.5 -34.5zM266 789l151 136h32l91 -138l-14 -8l-97 116
l-151 -116z" />
    <glyph glyph-name="jcircumflex" unicode="&#x135;" horiz-adv-x="252" 
d="M-66 -212q-30 0 -46.5 12.5t-16.5 32.5q0 14 9.5 24t23.5 10t22 -9t8 -20q0 -9 -5.5 -18t-14.5 -14l1 -4h11q43 0 68 32t39 91l139 557h-86l3 17l127 17l-148 -594q-16 -63 -49.5 -98.5t-84.5 -35.5zM74 611l151 136h32l91 -138l-14 -8l-97 116l-151 -116z" />
    <glyph glyph-name="Kcommaaccent" unicode="&#x136;" horiz-adv-x="648" 
d="M-2 23h78l162 652h-78l5 23h193l-5 -23h-78l-98 -392h3l136 128l282 264h-88l5 23h186l-5 -23h-62l-292 -272l166 -380h62l-6 -23h-188l5 23h88l-154 357l-148 -140l-54 -217h78l-5 -23h-193zM200 -220q23 23 38.5 47.5t23.5 47.5h-6q-11 0 -18 6.5t-7 17.5q0 15 10 25
t24 10t21 -7.5t7 -19.5q0 -13 -10 -35q-10 -24 -27.5 -48.5t-37.5 -43.5h-18v0z" />
    <glyph glyph-name="kcommaaccent" unicode="&#x137;" horiz-adv-x="503" 
d="M322 -12q-11 0 -18.5 5.5t-14.5 20.5l-92 206q54 27 95.5 57t69.5 60t42 59t14 54q0 41 -42 41q-47 0 -102 -53q-24 -23 -48.5 -55t-46 -68.5t-38.5 -75t-26 -74.5l-41 -165h-35l180 721h-86l4 17l126 17l-118 -467l6 -1q18 34 42 75t53.5 76t65 58.5t75.5 23.5
q35 0 50.5 -17t15.5 -47q0 -39 -24 -76.5t-58.5 -68.5t-72 -55t-64.5 -36l91 -199h16l123 108l11 -11l-84 -83q-28 -29 -42 -38t-27 -9zM95 -220q23 23 38.5 47.5t23.5 47.5h-6q-11 0 -18 6.5t-7 17.5q0 15 10 25t24 10t21 -7.5t7 -19.5q0 -13 -10 -35q-10 -24 -27.5 -48.5
t-37.5 -43.5h-18v0z" />
    <glyph glyph-name="kgreenlandic" unicode="&#x138;" horiz-adv-x="515" 
d="M333 -12q-11 0 -19.5 5.5t-13.5 20.5l-88 246l-78 -77l-46 -183h-35l120 482h-86l4 17l126 17l-75 -298h3l79 80l189 187h-79l5 23h173l-6 -23h-62l-205 -201l96 -263h16l123 108l11 -11l-84 -83q-28 -28 -41.5 -37.5t-26.5 -9.5z" />
    <glyph glyph-name="Lacute" unicode="&#x139;" horiz-adv-x="553" 
d="M-2 23h78l162 652h-78l5 23h193l-5 -23h-78l-162 -651h298l33 131h31l-39 -155h-443zM267 776l122 159l28 -17l-137 -151z" />
    <glyph glyph-name="lacute" unicode="&#x13a;" horiz-adv-x="268" 
d="M83 -12q-14 0 -24.5 7.5t-10.5 24.5q0 13 5 33l167 668h-86l4 17l126 17l-184 -732l18 -8l130 114l11 -11l-84 -83q-29 -29 -43.5 -38t-28.5 -9zM246 817l122 159l28 -17l-137 -151z" />
    <glyph glyph-name="Lcommaaccent" unicode="&#x13b;" horiz-adv-x="553" 
d="M-2 23h78l162 652h-78l5 23h193l-5 -23h-78l-162 -651h298l33 131h31l-39 -155h-443zM165 -220q23 23 38.5 47.5t23.5 47.5h-6q-11 0 -18 6.5t-7 17.5q0 15 10 25t24 10t21 -7.5t7 -19.5q0 -13 -10 -35q-10 -24 -27.5 -48.5t-37.5 -43.5h-18v0z" />
    <glyph glyph-name="lcommaaccent" unicode="&#x13c;" horiz-adv-x="268" 
d="M83 -12q-14 0 -24.5 7.5t-10.5 24.5q0 13 5 33l167 668h-86l4 17l126 17l-184 -732l18 -8l130 114l11 -11l-84 -83q-29 -29 -43.5 -38t-28.5 -9zM-3 -220q23 23 38.5 47.5t23.5 47.5h-6q-11 0 -18 6.5t-7 17.5q0 15 10 25t24 10t21 -7.5t7 -19.5q0 -13 -10 -35
q-10 -24 -27.5 -48.5t-37.5 -43.5h-18v0z" />
    <glyph glyph-name="Lcaron" unicode="&#x13d;" horiz-adv-x="553" 
d="M-2 23h78l162 652h-78l5 23h193l-5 -23h-78l-162 -651h298l33 131h31l-39 -155h-443zM441 731h39l-79 -178h-16z" />
    <glyph glyph-name="lcaron" unicode="&#x13e;" horiz-adv-x="268" 
d="M83 -12q-14 0 -24.5 7.5t-10.5 24.5q0 13 5 33l167 668h-86l4 17l126 17l-184 -732l18 -8l130 114l11 -11l-84 -83q-29 -29 -43.5 -38t-28.5 -9zM333 748h39l-79 -178h-16z" />
    <glyph glyph-name="Ldot" unicode="&#x13f;" horiz-adv-x="553" 
d="M-2 23h78l162 652h-78l5 23h193l-5 -23h-78l-162 -651h298l33 131h31l-39 -155h-443zM354 277q-14 0 -20 8t-6 18q0 9 3 15q4 8 11 13.5t19 5.5q14 0 20 -8t6 -18q0 -9 -3 -15q-4 -8 -11 -13.5t-19 -5.5z" />
    <glyph glyph-name="ldot" unicode="&#x140;" horiz-adv-x="310" 
d="M83 -12q-14 0 -24.5 7.5t-10.5 24.5q0 13 5 33l167 668h-86l4 17l126 17l-184 -732l18 -8l130 114l11 -11l-84 -83q-29 -29 -43.5 -38t-28.5 -9zM267 242q-14 0 -20 8t-6 18q0 9 3 15q4 8 11 13.5t19 5.5q14 0 20 -8t6 -18q0 -9 -3 -15q-4 -8 -11 -13.5t-19 -5.5z" />
    <glyph glyph-name="Lslash" unicode="&#x141;" horiz-adv-x="553" 
d="M-2 23h78l68 274l-99 -32l8 27l98 32l87 351h-78l5 23h193l-5 -23h-78l-84 -338l161 52l-8 -27l-160 -52l-71 -286h298l33 131h31l-39 -155h-443z" />
    <glyph glyph-name="lslash" unicode="&#x142;" horiz-adv-x="268" 
d="M83 -12q-14 0 -24.5 7.5t-10.5 24.5q0 13 5 33l74 296l-82 -27l3 25l85 28l87 346h-86l3 17l127 17l-92 -368l87 29l-3 -25l-91 -30l-85 -338l18 -8l130 114l11 -11l-84 -83q-29 -29 -43.5 -38t-28.5 -9z" />
    <glyph glyph-name="Nacute" unicode="&#x143;" horiz-adv-x="737" 
d="M-2 23h78l162 652h-78l5 23h125l233 -647h3l156 624h-78l5 23h186l-5 -23h-78l-169 -675h-38l-237 657h-4l-158 -634h78l-5 -23h-186zM481 776l122 159l28 -17l-137 -151z" />
    <glyph glyph-name="nacute" unicode="&#x144;" horiz-adv-x="542" 
d="M359 -12q-14 0 -24.5 7.5t-10.5 24.5q0 13 5 33l98 369q5 20 5 30q0 39 -41 39q-48 0 -103 -53q-24 -23 -48.5 -55t-46 -68.5t-38.5 -75t-26 -74.5l-41 -165h-35l120 482h-86l4 17l126 17l-58 -228l6 -1q17 34 41 74.5t54 76t65 59t76 23.5q36 0 51 -17.5t15 -45.5
q0 -18 -6 -40l-105 -394l18 -8l130 114l11 -11l-84 -83q-29 -29 -43.5 -38t-28.5 -9zM343 596l122 159l28 -17l-137 -151z" />
    <glyph glyph-name="Ncommaaccent" unicode="&#x145;" horiz-adv-x="737" 
d="M-2 23h78l162 652h-78l5 23h125l233 -647h3l156 624h-78l5 23h186l-5 -23h-78l-169 -675h-38l-237 657h-4l-158 -634h78l-5 -23h-186zM234 -220q23 23 38.5 47.5t23.5 47.5h-6q-11 0 -18 6.5t-7 17.5q0 15 10 25t24 10t21 -7.5t7 -19.5q0 -13 -10 -35
q-10 -24 -27.5 -48.5t-37.5 -43.5h-18v0z" />
    <glyph glyph-name="ncommaaccent" unicode="&#x146;" horiz-adv-x="542" 
d="M359 -12q-14 0 -24.5 7.5t-10.5 24.5q0 13 5 33l98 369q5 20 5 30q0 39 -41 39q-48 0 -103 -53q-24 -23 -48.5 -55t-46 -68.5t-38.5 -75t-26 -74.5l-41 -165h-35l120 482h-86l4 17l126 17l-58 -228l6 -1q17 34 41 74.5t54 76t65 59t76 23.5q36 0 51 -17.5t15 -45.5
q0 -18 -6 -40l-105 -394l18 -8l130 114l11 -11l-84 -83q-29 -29 -43.5 -38t-28.5 -9zM127 -220q23 23 38.5 47.5t23.5 47.5h-6q-11 0 -18 6.5t-7 17.5q0 15 10 25t24 10t21 -7.5t7 -19.5q0 -13 -10 -35q-10 -24 -27.5 -48.5t-37.5 -43.5h-18v0z" />
    <glyph glyph-name="Ncaron" unicode="&#x147;" horiz-adv-x="737" 
d="M-2 23h78l162 652h-78l5 23h125l233 -647h3l156 624h-78l5 23h186l-5 -23h-78l-169 -675h-38l-237 657h-4l-158 -634h78l-5 -23h-186zM395 920l14 8l97 -116l151 116l12 -10l-151 -136h-32z" />
    <glyph glyph-name="ncaron" unicode="&#x148;" horiz-adv-x="542" 
d="M359 -12q-14 0 -24.5 7.5t-10.5 24.5q0 13 5 33l98 369q5 20 5 30q0 39 -41 39q-48 0 -103 -53q-24 -23 -48.5 -55t-46 -68.5t-38.5 -75t-26 -74.5l-41 -165h-35l120 482h-86l4 17l126 17l-58 -228l6 -1q17 34 41 74.5t54 76t65 59t76 23.5q36 0 51 -17.5t15 -45.5
q0 -18 -6 -40l-105 -394l18 -8l130 114l11 -11l-84 -83q-29 -29 -43.5 -38t-28.5 -9zM255 742l14 8l97 -116l151 116l12 -10l-151 -136h-32z" />
    <glyph glyph-name="napostrophe" unicode="&#x149;" horiz-adv-x="785" 
d="M122 537q42 32 69 68.5t38 70.5h-6q-13 0 -21.5 8t-8.5 20q0 16 11 30t31 14q16 0 24.5 -9.5t8.5 -24.5q0 -9 -3.5 -19t-8.5 -22q-8 -19 -20 -38.5t-27 -38t-32 -34t-33 -25.5h-22v0zM602 -12q-14 0 -24.5 7.5t-10.5 24.5q0 13 5 33l98 369q5 20 5 30q0 39 -41 39
q-48 0 -103 -53q-24 -23 -48.5 -55t-46 -68.5t-38.5 -75t-26 -74.5l-41 -165h-35l120 482h-86l4 17l126 17l-58 -228l6 -1q17 34 41 74.5t54 76t65 59t76 23.5q36 0 51 -17.5t15 -45.5q0 -18 -6 -40l-105 -394l18 -8l130 114l11 -11l-84 -83q-29 -29 -43.5 -38t-28.5 -9z
" />
    <glyph glyph-name="Eng" unicode="&#x14a;" horiz-adv-x="737" 
d="M392 -212q-29 0 -45.5 12.5t-16.5 32.5q0 14 9 24t23 10q15 0 23 -9t8 -20q0 -9 -5 -18t-15 -14l1 -4h11q44 0 69.5 32t39.5 91l16 67l-242 665h-4l-158 -634h78l-5 -23h-186l5 23h78l162 652h-78l5 23h125l234 -640h4l154 617h-78l5 23h186l-5 -23h-78l-189 -752
q-16 -64 -46.5 -99.5t-84.5 -35.5z" />
    <glyph glyph-name="eng" unicode="&#x14b;" horiz-adv-x="519" 
d="M196 -212q-30 0 -46.5 12.5t-16.5 32.5q0 14 9.5 24t23.5 10t22 -9t8 -20q0 -9 -5.5 -18t-14.5 -14l1 -4h11q43 0 67 32t40 91l132 497q5 20 5 30q0 39 -41 39q-47 0 -103 -53q-24 -23 -48.5 -55t-46 -68.5t-38.5 -75t-26 -74.5l-41 -165h-35l120 482h-86l4 17l126 17
l-58 -228l6 -1q17 34 41 74.5t54 76t65 59t76 23.5q36 0 51 -17.5t15 -45.5q0 -16 -6 -40l-131 -495q-17 -63 -50 -98.5t-84 -35.5z" />
    <glyph glyph-name="Omacron" unicode="&#x14c;" horiz-adv-x="679" 
d="M292 13q53 0 98 20.5t81.5 58t63.5 91t43 120.5q10 39 15.5 68t8.5 51t4 37.5t1 27.5q0 96 -45 147t-136 51q-53 0 -98 -20.5t-81.5 -58t-63.5 -91t-43 -120.5q-10 -39 -15.5 -68t-8.5 -51t-4 -37.5t-1 -27.5q0 -96 45 -147t136 -51zM289 -12q-105 0 -160 60t-55 172
q0 48 8.5 103t27 109.5t46.5 104.5t67.5 88.5t90.5 61.5t115 23q105 0 160 -60t55 -172q0 -48 -8.5 -103t-27 -109.5t-46.5 -104.5t-67.5 -88.5t-90.5 -61.5t-115 -23zM347 859h258l-6 -26h-258z" />
    <glyph glyph-name="omacron" unicode="&#x14d;" horiz-adv-x="469" 
d="M180 11q36 0 66 19t53.5 50.5t40.5 73t28 87.5q6 25 9.5 43t6 32t3 25.5t0.5 22.5q0 30 -5 54.5t-16 42t-30 27t-47 9.5q-36 0 -66 -19t-53.5 -50.5t-40.5 -73t-28 -87.5q-12 -50 -15.5 -75.5t-3.5 -47.5q0 -30 5 -54.5t16 -42t30 -27t47 -9.5zM179 -12q-71 0 -101.5 45
t-30.5 120q0 66 18 131.5t50 118t77 85t98 32.5q71 0 101.5 -45t30.5 -120q0 -66 -18 -131.5t-50.5 -118t-77 -85t-97.5 -32.5zM199 681h258l-6 -26h-258z" />
    <glyph glyph-name="Obreve" unicode="&#x14e;" horiz-adv-x="679" 
d="M292 13q53 0 98 20.5t81.5 58t63.5 91t43 120.5q10 39 15.5 68t8.5 51t4 37.5t1 27.5q0 96 -45 147t-136 51q-53 0 -98 -20.5t-81.5 -58t-63.5 -91t-43 -120.5q-10 -39 -15.5 -68t-8.5 -51t-4 -37.5t-1 -27.5q0 -96 45 -147t136 -51zM289 -12q-105 0 -160 60t-55 172
q0 48 8.5 103t27 109.5t46.5 104.5t67.5 88.5t90.5 61.5t115 23q105 0 160 -60t55 -172q0 -48 -8.5 -103t-27 -109.5t-46.5 -104.5t-67.5 -88.5t-90.5 -61.5t-115 -23zM458 777q-26 0 -43.5 9t-28.5 25.5t-18 39t-13 49.5l15 6l9 -30q14 -42 31.5 -56.5t51.5 -14.5t60 15
t58 57l23 29l14 -7q-19 -27 -36 -49.5t-35.5 -38.5t-39.5 -25t-48 -9z" />
    <glyph glyph-name="obreve" unicode="&#x14f;" horiz-adv-x="469" 
d="M180 11q36 0 66 19t53.5 50.5t40.5 73t28 87.5q6 25 9.5 43t6 32t3 25.5t0.5 22.5q0 30 -5 54.5t-16 42t-30 27t-47 9.5q-36 0 -66 -19t-53.5 -50.5t-40.5 -73t-28 -87.5q-12 -50 -15.5 -75.5t-3.5 -47.5q0 -30 5 -54.5t16 -42t30 -27t47 -9.5zM179 -12q-71 0 -101.5 45
t-30.5 120q0 66 18 131.5t50 118t77 85t98 32.5q71 0 101.5 -45t30.5 -120q0 -66 -18 -131.5t-50.5 -118t-77 -85t-97.5 -32.5zM310 600q-26 0 -43.5 9t-28.5 25.5t-18 39t-13 49.5l15 6l9 -30q14 -42 31.5 -56.5t51.5 -14.5t60 15t58 57l23 29l14 -7q-19 -27 -36 -49.5
t-35.5 -38.5t-39.5 -25t-48 -9z" />
    <glyph glyph-name="Ohungarumlaut" unicode="&#x150;" horiz-adv-x="679" 
d="M292 13q53 0 98 20.5t81.5 58t63.5 91t43 120.5q10 39 15.5 68t8.5 51t4 37.5t1 27.5q0 96 -45 147t-136 51q-53 0 -98 -20.5t-81.5 -58t-63.5 -91t-43 -120.5q-10 -39 -15.5 -68t-8.5 -51t-4 -37.5t-1 -27.5q0 -96 45 -147t136 -51zM289 -12q-105 0 -160 60t-55 172
q0 48 8.5 103t27 109.5t46.5 104.5t67.5 88.5t90.5 61.5t115 23q105 0 160 -60t55 -172q0 -48 -8.5 -103t-27 -109.5t-46.5 -104.5t-67.5 -88.5t-90.5 -61.5t-115 -23zM361 776l122 159l28 -17l-137 -151zM519 776l122 159l28 -17l-137 -151z" />
    <glyph glyph-name="ohungarumlaut" unicode="&#x151;" horiz-adv-x="469" 
d="M180 11q36 0 66 19t53.5 50.5t40.5 73t28 87.5q6 25 9.5 43t6 32t3 25.5t0.5 22.5q0 30 -5 54.5t-16 42t-30 27t-47 9.5q-36 0 -66 -19t-53.5 -50.5t-40.5 -73t-28 -87.5q-12 -50 -15.5 -75.5t-3.5 -47.5q0 -30 5 -54.5t16 -42t30 -27t47 -9.5zM179 -12q-71 0 -101.5 45
t-30.5 120q0 66 18 131.5t50 118t77 85t98 32.5q71 0 101.5 -45t30.5 -120q0 -66 -18 -131.5t-50.5 -118t-77 -85t-97.5 -32.5zM218 596l122 159l28 -17l-137 -151zM376 596l122 159l28 -17l-137 -151z" />
    <glyph glyph-name="OE" unicode="&#x152;" horiz-adv-x="935" 
d="M296 -12q-111 0 -166.5 60.5t-55.5 171.5q0 44 7.5 98t25.5 108.5t46.5 105.5t70.5 90.5t98.5 63.5t129.5 24q28 0 65.5 -3.5t65.5 -8.5h388l-38 -153h-31l32 129h-308l-74 -296h229l21 85h27l-48 -193h-27l21 84h-228l-83 -330h326l33 131h31l-39 -155h-401
q-25 -6 -58.5 -9t-59.5 -3zM298 13q30 0 67.5 5t63.5 16l158 632q-11 4 -28 7.5t-35.5 6t-38 4t-36.5 1.5q-61 0 -111 -20.5t-89 -58.5t-66.5 -91.5t-42.5 -119.5q-9 -39 -15 -68t-9 -51t-4 -37.5t-1 -27.5q0 -94 45 -146t142 -52z" />
    <glyph glyph-name="oe" unicode="&#x153;" horiz-adv-x="736" 
d="M179 -12q-70 0 -101 45t-31 120q0 66 18 131.5t50 118t76.5 85t97.5 32.5q63 0 94.5 -39.5t30.5 -109.5h5q27 66 73 107.5t109 41.5q20 0 39 -4.5t34 -15.5t24.5 -28.5t9.5 -44.5q0 -33 -16 -60t-52 -48t-93 -35.5t-139 -21.5q-4 -18 -10.5 -55t-6.5 -78q0 -23 3.5 -43.5
t12.5 -36t24.5 -25t40.5 -9.5q48 0 96 39.5t88 113.5l16 -8q-48 -94 -99.5 -133t-108.5 -39t-81.5 36t-23.5 109h-4q-29 -69 -75.5 -107t-100.5 -38zM180 11q36 0 66 19t53.5 50.5t40.5 73t28 87.5q6 25 9.5 43t6 32t3 25.5t0.5 22.5q0 30 -5 54.5t-16 42t-30 27t-47 9.5
q-36 0 -66 -19t-53.5 -50.5t-40.5 -73t-28 -87.5q-12 -50 -15.5 -75.5t-3.5 -47.5q0 -30 5 -54.5t16 -42t30 -27t47 -9.5zM412 278q62 7 110.5 18t82.5 28.5t51.5 42t17.5 57.5q0 28 -16 51t-59 23q-29 0 -57 -13t-52.5 -40t-44.5 -68.5t-33 -98.5z" />
    <glyph glyph-name="Racute" unicode="&#x154;" horiz-adv-x="627" 
d="M-2 23h78l162 652h-78l5 23h291q74 0 110 -33t36 -96q0 -43 -13.5 -84.5t-39.5 -74.5t-65.5 -54t-91.5 -24l68 -263q7 -23 21 -34.5t40 -11.5h30l-5 -23h-39q-38 0 -56.5 15t-28.5 52l-66 263h-166l-77 -307h78l-5 -23h-193zM196 354h177q66 0 114.5 36.5t64.5 101.5
q5 17 9 39.5t4 41.5q0 46 -25.5 73.5t-84.5 27.5h-180zM390 776l122 159l28 -17l-137 -151z" />
    <glyph glyph-name="racute" unicode="&#x155;" horiz-adv-x="388" 
d="M173 482h-86l4 17l126 17l-55 -216l6 -1q15 34 34 73t42.5 72t52 54.5t62.5 21.5q27 0 41.5 -12.5t14.5 -30.5q0 -17 -9.5 -27.5t-25.5 -10.5q-14 0 -22 9t-8 20q0 10 6 18.5t14 13.5l-2 4h-11q-21 0 -44 -18.5t-51 -53.5q-15 -18 -34.5 -50t-39 -70.5t-36 -79
t-25.5 -76.5l-39 -156h-35zM268 596l122 159l28 -17l-137 -151z" />
    <glyph glyph-name="Rcommaaccent" unicode="&#x156;" horiz-adv-x="627" 
d="M-2 23h78l162 652h-78l5 23h291q74 0 110 -33t36 -96q0 -43 -13.5 -84.5t-39.5 -74.5t-65.5 -54t-91.5 -24l68 -263q7 -23 21 -34.5t40 -11.5h30l-5 -23h-39q-38 0 -56.5 15t-28.5 52l-66 263h-166l-77 -307h78l-5 -23h-193zM196 354h177q66 0 114.5 36.5t64.5 101.5
q5 17 9 39.5t4 41.5q0 46 -25.5 73.5t-84.5 27.5h-180zM205 -220q23 23 38.5 47.5t23.5 47.5h-6q-11 0 -18 6.5t-7 17.5q0 15 10 25t24 10t21 -7.5t7 -19.5q0 -13 -10 -35q-10 -24 -27.5 -48.5t-37.5 -43.5h-18v0z" />
    <glyph glyph-name="rcommaaccent" unicode="&#x157;" horiz-adv-x="388" 
d="M173 482h-86l4 17l126 17l-55 -216l6 -1q15 34 34 73t42.5 72t52 54.5t62.5 21.5q27 0 41.5 -12.5t14.5 -30.5q0 -17 -9.5 -27.5t-25.5 -10.5q-14 0 -22 9t-8 20q0 10 6 18.5t14 13.5l-2 4h-11q-21 0 -44 -18.5t-51 -53.5q-15 -18 -34.5 -50t-39 -70.5t-36 -79
t-25.5 -76.5l-39 -156h-35zM-11 -220q23 23 38.5 47.5t23.5 47.5h-6q-11 0 -18 6.5t-7 17.5q0 15 10 25t24 10t21 -7.5t7 -19.5q0 -13 -10 -35q-10 -24 -27.5 -48.5t-37.5 -43.5h-18v0z" />
    <glyph glyph-name="Rcaron" unicode="&#x158;" horiz-adv-x="627" 
d="M-2 23h78l162 652h-78l5 23h291q74 0 110 -33t36 -96q0 -43 -13.5 -84.5t-39.5 -74.5t-65.5 -54t-91.5 -24l68 -263q7 -23 21 -34.5t40 -11.5h30l-5 -23h-39q-38 0 -56.5 15t-28.5 52l-66 263h-166l-77 -307h78l-5 -23h-193zM196 354h177q66 0 114.5 36.5t64.5 101.5
q5 17 9 39.5t4 41.5q0 46 -25.5 73.5t-84.5 27.5h-180zM304 920l14 8l97 -116l151 116l12 -10l-151 -136h-32z" />
    <glyph glyph-name="rcaron" unicode="&#x159;" horiz-adv-x="388" 
d="M173 482h-86l4 17l126 17l-55 -216l6 -1q15 34 34 73t42.5 72t52 54.5t62.5 21.5q27 0 41.5 -12.5t14.5 -30.5q0 -17 -9.5 -27.5t-25.5 -10.5q-14 0 -22 9t-8 20q0 10 6 18.5t14 13.5l-2 4h-11q-21 0 -44 -18.5t-51 -53.5q-15 -18 -34.5 -50t-39 -70.5t-36 -79
t-25.5 -76.5l-39 -156h-35zM180 742l14 8l97 -116l151 116l12 -10l-151 -136h-32z" />
    <glyph glyph-name="Sacute" unicode="&#x15a;" horiz-adv-x="563" 
d="M235 -12q-29 0 -56.5 5.5t-50 16.5t-38 27t-21.5 37h-3l-19 -74h-31l53 213h31l-18 -73q-4 -16 -4 -28q0 -24 12 -42.5t33 -31t49.5 -19t61.5 -6.5q49 0 88.5 14t67.5 39t43 59t15 74q0 56 -29 85.5t-85 52.5l-67 27q-59 23 -90 61t-31 98q0 43 17.5 77.5t48 59
t71.5 37.5t88 13q28 0 54.5 -5.5t47.5 -16.5t36 -27t21 -37h3l19 74h31l-51 -203h-31l17 67q2 9 2.5 14.5t0.5 11.5q0 24 -11.5 42t-32 30.5t-48 18.5t-58.5 6q-47 0 -82 -13t-59 -34.5t-36 -49.5t-12 -59q0 -54 27.5 -84.5t80.5 -51.5l66 -26q69 -29 98.5 -67.5t29.5 -94.5
q0 -45 -17 -84.5t-49 -69t-78 -46.5t-105 -17zM372 776l122 159l28 -17l-137 -151z" />
    <glyph glyph-name="sacute" unicode="&#x15b;" horiz-adv-x="353" 
d="M95 -12q-42 0 -64 13.5t-22 36.5q0 14 9 23.5t24 9.5q14 0 22 -8t8 -21q0 -10 -6 -18t-14 -13l1 -4q5 -2 13 -3t17 -1q22 0 48.5 5.5t49.5 19t38 37t15 58.5q0 18 -3.5 32.5t-12 29t-22.5 30t-34 36.5q-31 31 -48 58t-17 66q0 35 13 62t35.5 45.5t52.5 28t64 9.5
q41 0 63 -13.5t22 -36.5q0 -14 -9 -23.5t-24 -9.5q-14 0 -22 8.5t-8 20.5q0 10 6 18.5t14 13.5l-1 4q-9 3 -27 3q-23 0 -48.5 -5.5t-47 -19t-35.5 -37t-14 -58.5q0 -18 3.5 -32.5t12 -28.5t22 -30t34.5 -37q32 -33 48.5 -60t16.5 -64q0 -35 -14 -61.5t-37.5 -45.5t-55 -28.5
t-66.5 -9.5zM247 596l122 159l28 -17l-137 -151z" />
    <glyph glyph-name="Scircumflex" unicode="&#x15c;" horiz-adv-x="563" 
d="M235 -12q-29 0 -56.5 5.5t-50 16.5t-38 27t-21.5 37h-3l-19 -74h-31l53 213h31l-18 -73q-4 -16 -4 -28q0 -24 12 -42.5t33 -31t49.5 -19t61.5 -6.5q49 0 88.5 14t67.5 39t43 59t15 74q0 56 -29 85.5t-85 52.5l-67 27q-59 23 -90 61t-31 98q0 43 17.5 77.5t48 59
t71.5 37.5t88 13q28 0 54.5 -5.5t47.5 -16.5t36 -27t21 -37h3l19 74h31l-51 -203h-31l17 67q2 9 2.5 14.5t0.5 11.5q0 24 -11.5 42t-32 30.5t-48 18.5t-58.5 6q-47 0 -82 -13t-59 -34.5t-36 -49.5t-12 -59q0 -54 27.5 -84.5t80.5 -51.5l66 -26q69 -29 98.5 -67.5t29.5 -94.5
q0 -45 -17 -84.5t-49 -69t-78 -46.5t-105 -17zM257 789l151 136h32l91 -138l-14 -8l-97 116l-151 -116z" />
    <glyph glyph-name="scircumflex" unicode="&#x15d;" horiz-adv-x="353" 
d="M95 -12q-42 0 -64 13.5t-22 36.5q0 14 9 23.5t24 9.5q14 0 22 -8t8 -21q0 -10 -6 -18t-14 -13l1 -4q5 -2 13 -3t17 -1q22 0 48.5 5.5t49.5 19t38 37t15 58.5q0 18 -3.5 32.5t-12 29t-22.5 30t-34 36.5q-31 31 -48 58t-17 66q0 35 13 62t35.5 45.5t52.5 28t64 9.5
q41 0 63 -13.5t22 -36.5q0 -14 -9 -23.5t-24 -9.5q-14 0 -22 8.5t-8 20.5q0 10 6 18.5t14 13.5l-1 4q-9 3 -27 3q-23 0 -48.5 -5.5t-47 -19t-35.5 -37t-14 -58.5q0 -18 3.5 -32.5t12 -28.5t22 -30t34.5 -37q32 -33 48.5 -60t16.5 -64q0 -35 -14 -61.5t-37.5 -45.5t-55 -28.5
t-66.5 -9.5zM131 611l151 136h32l91 -138l-14 -8l-97 116l-151 -116z" />
    <glyph glyph-name="Scedilla" unicode="&#x15e;" horiz-adv-x="563" 
d="M195 -203q-29 0 -47 11t-24 24l11 11q8 -12 24 -19t36 -7q18 0 32 6t23.5 15.5t14 20.5t4.5 21q0 18 -12 26.5t-40 10.5l-32 1l34 70q-54 3 -96.5 25t-53.5 61h-3l-19 -74h-31l53 213h31l-18 -73q-4 -16 -4 -28q0 -24 12 -42.5t33 -31t49.5 -19t61.5 -6.5q49 0 88.5 14
t67.5 39t43 59t15 74q0 56 -29 85.5t-85 52.5l-67 27q-59 23 -90 61t-31 98q0 43 17.5 77.5t48 59t71.5 37.5t88 13q28 0 54.5 -5.5t47.5 -16.5t36 -27t21 -37h3l19 74h31l-51 -203h-31l17 67q2 9 2.5 14.5t0.5 11.5q0 24 -11.5 42t-32 30.5t-48 18.5t-58.5 6q-47 0 -82 -13
t-59 -34.5t-36 -49.5t-12 -59q0 -54 27.5 -84.5t80.5 -51.5l66 -26q69 -29 98.5 -67.5t29.5 -94.5q0 -45 -16.5 -84.5t-48 -69t-76.5 -46.5t-102 -17l-28 -58l1 -3q8 2 16 3t16 1q24 0 39 -13.5t15 -34.5q0 -17 -8 -32.5t-22.5 -27.5t-33.5 -19t-41 -7z" />
    <glyph glyph-name="scedilla" unicode="&#x15f;" horiz-adv-x="353" 
d="M65 -203q-29 0 -47 11t-24 24l11 11q8 -12 24 -19t36 -7q18 0 32 6t23.5 15.5t14 20.5t4.5 21q0 18 -12 26.5t-40 10.5l-32 1l34 70q-38 1 -59 14t-21 36q0 14 9 23.5t24 9.5q14 0 22 -8t8 -21q0 -10 -6 -18t-14 -13l1 -4q5 -2 13 -3t17 -1q22 0 48.5 5.5t49.5 19t38 37
t15 58.5q0 18 -3.5 32.5t-12 29t-22.5 30t-34 36.5q-31 31 -48 58t-17 66q0 35 13 62t35.5 45.5t52.5 28t64 9.5q41 0 63 -13.5t22 -36.5q0 -14 -9 -23.5t-24 -9.5q-14 0 -22 8.5t-8 20.5q0 10 6 18.5t14 13.5l-1 4q-9 3 -27 3q-23 0 -48.5 -5.5t-47 -19t-35.5 -37
t-14 -58.5q0 -18 3.5 -32.5t12 -28.5t22 -30t34.5 -37q32 -33 48.5 -60t16.5 -64q0 -33 -12.5 -58.5t-33.5 -44t-49.5 -29t-61.5 -12.5l-28 -59l1 -3q8 2 16 3t16 1q24 0 39 -13.5t15 -34.5q0 -17 -8 -32.5t-22.5 -27.5t-33.5 -19t-41 -7z" />
    <glyph glyph-name="Scaron" unicode="&#x160;" horiz-adv-x="563" 
d="M235 -12q-29 0 -56.5 5.5t-50 16.5t-38 27t-21.5 37h-3l-19 -74h-31l53 213h31l-18 -73q-4 -16 -4 -28q0 -24 12 -42.5t33 -31t49.5 -19t61.5 -6.5q49 0 88.5 14t67.5 39t43 59t15 74q0 56 -29 85.5t-85 52.5l-67 27q-59 23 -90 61t-31 98q0 43 17.5 77.5t48 59
t71.5 37.5t88 13q28 0 54.5 -5.5t47.5 -16.5t36 -27t21 -37h3l19 74h31l-51 -203h-31l17 67q2 9 2.5 14.5t0.5 11.5q0 24 -11.5 42t-32 30.5t-48 18.5t-58.5 6q-47 0 -82 -13t-59 -34.5t-36 -49.5t-12 -59q0 -54 27.5 -84.5t80.5 -51.5l66 -26q69 -29 98.5 -67.5t29.5 -94.5
q0 -45 -17 -84.5t-49 -69t-78 -46.5t-105 -17zM286 920l14 8l97 -116l151 116l12 -10l-151 -136h-32z" />
    <glyph glyph-name="scaron" unicode="&#x161;" horiz-adv-x="353" 
d="M95 -12q-42 0 -64 13.5t-22 36.5q0 14 9 23.5t24 9.5q14 0 22 -8t8 -21q0 -10 -6 -18t-14 -13l1 -4q5 -2 13 -3t17 -1q22 0 48.5 5.5t49.5 19t38 37t15 58.5q0 18 -3.5 32.5t-12 29t-22.5 30t-34 36.5q-31 31 -48 58t-17 66q0 35 13 62t35.5 45.5t52.5 28t64 9.5
q41 0 63 -13.5t22 -36.5q0 -14 -9 -23.5t-24 -9.5q-14 0 -22 8.5t-8 20.5q0 10 6 18.5t14 13.5l-1 4q-9 3 -27 3q-23 0 -48.5 -5.5t-47 -19t-35.5 -37t-14 -58.5q0 -18 3.5 -32.5t12 -28.5t22 -30t34.5 -37q32 -33 48.5 -60t16.5 -64q0 -35 -14 -61.5t-37.5 -45.5t-55 -28.5
t-66.5 -9.5zM159 742l14 8l97 -116l151 116l12 -10l-151 -136h-32z" />
    <glyph glyph-name="uni0162" unicode="&#x162;" horiz-adv-x="607" 
d="M130 23h98l162 651h-215l-32 -129h-31l38 153h529l-38 -153h-31l32 129h-215l-162 -651h98l-5 -23h-233zM158 -220q23 23 38.5 47.5t23.5 47.5h-6q-11 0 -18 6.5t-7 17.5q0 15 10 25t24 10t21 -7.5t7 -19.5q0 -13 -10 -35q-10 -24 -27.5 -48.5t-37.5 -43.5h-18v0z" />
    <glyph glyph-name="uni0163" unicode="&#x163;" horiz-adv-x="324" 
d="M90 -12q-14 0 -24.5 7.5t-10.5 25.5q0 11 5 31l108 433h-82l6 23h37q26 0 39 8t21 29l38 105h18l-36 -142h138l-6 -23h-138l-115 -462l18 -8l159 105l10 -11l-116 -86q-29 -23 -42.5 -29t-26.5 -6zM12 -220q23 23 38.5 47.5t23.5 47.5h-6q-11 0 -18 6.5t-7 17.5
q0 15 10 25t24 10t21 -7.5t7 -19.5q0 -13 -10 -35q-10 -24 -27.5 -48.5t-37.5 -43.5h-18v0z" />
    <glyph glyph-name="Tcaron" unicode="&#x164;" horiz-adv-x="607" 
d="M130 23h98l162 651h-215l-32 -129h-31l38 153h529l-38 -153h-31l32 129h-215l-162 -651h98l-5 -23h-233zM330 920l14 8l97 -116l151 116l12 -10l-151 -136h-32z" />
    <glyph glyph-name="tcaron" unicode="&#x165;" horiz-adv-x="324" 
d="M90 -12q-14 0 -24.5 7.5t-10.5 25.5q0 11 5 31l108 433h-82l6 23h37q26 0 39 8t21 29l38 105h18l-36 -142h138l-6 -23h-138l-115 -462l18 -8l159 105l10 -11l-116 -86q-29 -23 -42.5 -29t-26.5 -6zM340 748h39l-79 -178h-16z" />
    <glyph glyph-name="Tbar" unicode="&#x166;" horiz-adv-x="607" 
d="M130 23h98l80 321h-160l6 23h160l76 307h-215l-32 -129h-31l38 153h529l-38 -153h-31l32 129h-215l-76 -307h159l-5 -23h-160l-80 -321h98l-5 -23h-233z" />
    <glyph glyph-name="tbar" unicode="&#x167;" horiz-adv-x="324" 
d="M90 -12q-14 0 -24.5 7.5t-10.5 25.5q0 11 5 31l56 225h-53l6 22h53l46 186h-82l6 23h37q26 0 39 8t21 29l38 105h18l-36 -142h138l-6 -23h-138l-46 -186h107l-5 -22h-108l-63 -254l18 -8l159 105l10 -11l-116 -86q-29 -23 -42.5 -29t-26.5 -6z" />
    <glyph glyph-name="Utilde" unicode="&#x168;" horiz-adv-x="691" 
d="M288 -12q-89 0 -136 37.5t-47 115.5q0 26 6 56t15 65l102 413h-78l5 23h193l-5 -23h-78l-104 -418q-9 -37 -14.5 -66.5t-5.5 -55.5q0 -57 35.5 -89t113.5 -32q53 0 92.5 13.5t69 43t50.5 75.5t38 112l103 417h-78l5 23h186l-5 -23h-78l-104 -417q-19 -78 -44.5 -129.5
t-59.5 -83t-78 -44.5t-99 -13zM561 803q-20 0 -36 7t-38 23q-20 14 -34.5 20t-28.5 6q-33 0 -70 -31l-10 11q22 20 42.5 33t42.5 13q20 0 36 -7t38 -23q20 -14 34.5 -20t28.5 -6q33 0 70 31l10 -11q-22 -20 -42.5 -33t-42.5 -13z" />
    <glyph glyph-name="utilde" unicode="&#x169;" horiz-adv-x="537" 
d="M128 -12q-36 0 -51 18t-15 45q0 17 6 40l105 391h-86l4 17l126 17l-115 -430q-5 -18 -5 -30q0 -39 41 -39q47 0 103 53q24 23 48 55t46 68.5t39 75t26 74.5l41 165h35l-122 -485l18 -8l130 114l11 -11l-84 -83q-29 -29 -44 -38t-28 -9q-14 0 -24.5 7.5t-10.5 24.5
q0 6 2 16t4 19l42 165l-6 1q-17 -34 -41 -74.5t-54 -76t-65.5 -59t-75.5 -23.5zM425 626q-20 0 -36 7t-38 23q-20 14 -34.5 20t-28.5 6q-33 0 -70 -31l-10 11q22 20 42.5 33t42.5 13q20 0 36 -7t38 -23q20 -14 34.5 -20t28.5 -6q33 0 70 31l10 -11q-22 -20 -42.5 -33
t-42.5 -13z" />
    <glyph glyph-name="Umacron" unicode="&#x16a;" horiz-adv-x="691" 
d="M288 -12q-89 0 -136 37.5t-47 115.5q0 26 6 56t15 65l102 413h-78l5 23h193l-5 -23h-78l-104 -418q-9 -37 -14.5 -66.5t-5.5 -55.5q0 -57 35.5 -89t113.5 -32q53 0 92.5 13.5t69 43t50.5 75.5t38 112l103 417h-78l5 23h186l-5 -23h-78l-104 -417q-19 -78 -44.5 -129.5
t-59.5 -83t-78 -44.5t-99 -13zM371 859h258l-6 -26h-258z" />
    <glyph glyph-name="umacron" unicode="&#x16b;" horiz-adv-x="537" 
d="M128 -12q-36 0 -51 18t-15 45q0 17 6 40l105 391h-86l4 17l126 17l-115 -430q-5 -18 -5 -30q0 -39 41 -39q47 0 103 53q24 23 48 55t46 68.5t39 75t26 74.5l41 165h35l-122 -485l18 -8l130 114l11 -11l-84 -83q-29 -29 -44 -38t-28 -9q-14 0 -24.5 7.5t-10.5 24.5
q0 6 2 16t4 19l42 165l-6 1q-17 -34 -41 -74.5t-54 -76t-65.5 -59t-75.5 -23.5zM235 681h258l-6 -26h-258z" />
    <glyph glyph-name="Ubreve" unicode="&#x16c;" horiz-adv-x="691" 
d="M288 -12q-89 0 -136 37.5t-47 115.5q0 26 6 56t15 65l102 413h-78l5 23h193l-5 -23h-78l-104 -418q-9 -37 -14.5 -66.5t-5.5 -55.5q0 -57 35.5 -89t113.5 -32q53 0 92.5 13.5t69 43t50.5 75.5t38 112l103 417h-78l5 23h186l-5 -23h-78l-104 -417q-19 -78 -44.5 -129.5
t-59.5 -83t-78 -44.5t-99 -13zM482 777q-26 0 -43.5 9t-28.5 25.5t-18 39t-13 49.5l15 6l9 -30q14 -42 31.5 -56.5t51.5 -14.5t60 15t58 57l23 29l14 -7q-19 -27 -36 -49.5t-35.5 -38.5t-39.5 -25t-48 -9z" />
    <glyph glyph-name="ubreve" unicode="&#x16d;" horiz-adv-x="537" 
d="M128 -12q-36 0 -51 18t-15 45q0 17 6 40l105 391h-86l4 17l126 17l-115 -430q-5 -18 -5 -30q0 -39 41 -39q47 0 103 53q24 23 48 55t46 68.5t39 75t26 74.5l41 165h35l-122 -485l18 -8l130 114l11 -11l-84 -83q-29 -29 -44 -38t-28 -9q-14 0 -24.5 7.5t-10.5 24.5
q0 6 2 16t4 19l42 165l-6 1q-17 -34 -41 -74.5t-54 -76t-65.5 -59t-75.5 -23.5zM346 600q-26 0 -43.5 9t-28.5 25.5t-18 39t-13 49.5l15 6l9 -30q14 -42 31.5 -56.5t51.5 -14.5t60 15t58 57l23 29l14 -7q-19 -27 -36 -49.5t-35.5 -38.5t-39.5 -25t-48 -9z" />
    <glyph glyph-name="Uring" unicode="&#x16e;" horiz-adv-x="691" 
d="M288 -12q-89 0 -136 37.5t-47 115.5q0 26 6 56t15 65l102 413h-78l5 23h193l-5 -23h-78l-104 -418q-9 -37 -14.5 -66.5t-5.5 -55.5q0 -57 35.5 -89t113.5 -32q53 0 92.5 13.5t69 43t50.5 75.5t38 112l103 417h-78l5 23h186l-5 -23h-78l-104 -417q-19 -78 -44.5 -129.5
t-59.5 -83t-78 -44.5t-99 -13zM486 784q29 0 51 18.5t29 46.5q5 23 5 35q0 23 -15.5 37t-41.5 14q-29 0 -51 -18.5t-29 -46.5q-5 -23 -5 -35q0 -23 15.5 -37t41.5 -14zM483 764q-36 0 -58 20.5t-22 52.5q0 24 8.5 45.5t23.5 37.5t36 25.5t46 9.5q36 0 58 -20.5t22 -52.5
q0 -24 -8.5 -45.5t-23.5 -37.5t-36 -25.5t-46 -9.5z" />
    <glyph glyph-name="uring" unicode="&#x16f;" horiz-adv-x="537" 
d="M128 -12q-36 0 -51 18t-15 45q0 17 6 40l105 391h-86l4 17l126 17l-115 -430q-5 -18 -5 -30q0 -39 41 -39q47 0 103 53q24 23 48 55t46 68.5t39 75t26 74.5l41 165h35l-122 -485l18 -8l130 114l11 -11l-84 -83q-29 -29 -44 -38t-28 -9q-14 0 -24.5 7.5t-10.5 24.5
q0 6 2 16t4 19l42 165l-6 1q-17 -34 -41 -74.5t-54 -76t-65.5 -59t-75.5 -23.5zM353 614q29 0 51 18.5t29 46.5q5 23 5 35q0 23 -15.5 37t-41.5 14q-29 0 -51 -18.5t-29 -46.5q-5 -23 -5 -35q0 -23 15.5 -37t41.5 -14zM350 594q-36 0 -58 20.5t-22 52.5q0 24 8.5 45.5
t23.5 37.5t36 25.5t46 9.5q36 0 58 -20.5t22 -52.5q0 -24 -8.5 -45.5t-23.5 -37.5t-36 -25.5t-46 -9.5z" />
    <glyph glyph-name="Uhungarumlaut" unicode="&#x170;" horiz-adv-x="691" 
d="M288 -12q-89 0 -136 37.5t-47 115.5q0 26 6 56t15 65l102 413h-78l5 23h193l-5 -23h-78l-104 -418q-9 -37 -14.5 -66.5t-5.5 -55.5q0 -57 35.5 -89t113.5 -32q53 0 92.5 13.5t69 43t50.5 75.5t38 112l103 417h-78l5 23h186l-5 -23h-78l-104 -417q-19 -78 -44.5 -129.5
t-59.5 -83t-78 -44.5t-99 -13zM385 776l122 159l28 -17l-137 -151zM543 776l122 159l28 -17l-137 -151z" />
    <glyph glyph-name="uhungarumlaut" unicode="&#x171;" horiz-adv-x="537" 
d="M128 -12q-36 0 -51 18t-15 45q0 17 6 40l105 391h-86l4 17l126 17l-115 -430q-5 -18 -5 -30q0 -39 41 -39q47 0 103 53q24 23 48 55t46 68.5t39 75t26 74.5l41 165h35l-122 -485l18 -8l130 114l11 -11l-84 -83q-29 -29 -44 -38t-28 -9q-14 0 -24.5 7.5t-10.5 24.5
q0 6 2 16t4 19l42 165l-6 1q-17 -34 -41 -74.5t-54 -76t-65.5 -59t-75.5 -23.5zM254 596l122 159l28 -17l-137 -151zM412 596l122 159l28 -17l-137 -151z" />
    <glyph glyph-name="Uogonek" unicode="&#x172;" horiz-adv-x="691" 
d="M300 -203q-29 0 -47 14.5t-18 43.5q0 42 34.5 75.5t87.5 60.5l-1 3q-32 -6 -68 -6q-89 0 -136 37.5t-47 115.5q0 26 6 56t15 65l102 413h-78l5 23h193l-5 -23h-78l-104 -418q-9 -37 -14.5 -66.5t-5.5 -55.5q0 -57 35.5 -89t113.5 -32q53 0 92.5 13.5t69 43t50.5 75.5
t38 112l103 417h-78l5 23h186l-5 -23h-78l-104 -417q-23 -97 -56.5 -153t-81.5 -84q-38 -22 -69.5 -40.5t-55.5 -42.5q-17 -17 -28.5 -37t-11.5 -41t11.5 -31t31.5 -10t33.5 8.5t24.5 17.5l11 -11q-14 -14 -33 -25.5t-45 -11.5z" />
    <glyph glyph-name="uogonek" unicode="&#x173;" horiz-adv-x="537" 
d="M325 -203q-29 0 -47 14.5t-18 43.5q0 18 8.5 35.5t23.5 34.5t34.5 33t41.5 33l-2 4q-12 -7 -22 -7q-11 0 -17 7.5t-6 18.5q0 16 6 39l43 167l-6 1q-17 -34 -41 -74.5t-54 -76t-65.5 -59t-75.5 -23.5q-36 0 -51 18t-15 45q0 17 6 40l105 391h-86l4 17l126 17l-115 -430
q-2 -10 -3.5 -17t-1.5 -13q0 -39 41 -39q47 0 103 53q24 23 48 55t46 68.5t39 75t26 74.5l41 165h35l-122 -485l18 -8l130 114l11 -11l-114 -112q-52 -49 -80 -81t-28 -65q0 -21 11.5 -31t31.5 -10t33.5 8.5t24.5 17.5l11 -11q-14 -14 -33 -25.5t-45 -11.5z" />
    <glyph glyph-name="Wcircumflex" unicode="&#x174;" horiz-adv-x="862" 
d="M172 675h-55l5 23h184l-5 -23h-94l-6 -632h3l313 655h47l-3 -655h3l298 632h-94l5 23h181l-5 -23h-55l-323 -675h-43l3 658h-3l-316 -658h-44zM428 789l151 136h32l91 -138l-14 -8l-97 116l-151 -116z" />
    <glyph glyph-name="wcircumflex" unicode="&#x175;" horiz-adv-x="651" 
d="M107 485h-45l6 23h147l-6 -23h-70l-3 -443h5l222 466h35l-4 -466h5l217 443h-70l6 23h143l-6 -23h-45l-245 -485h-34l3 464h-5l-219 -464h-37v485zM268 611l151 136h32l91 -138l-14 -8l-97 116l-151 -116z" />
    <glyph glyph-name="Ycircumflex" unicode="&#x176;" horiz-adv-x="596" 
d="M128 23h95l64 262l-106 390h-55l5 23h187l-5 -23h-95l97 -361h2l276 361h-95l5 23h183l-5 -23h-55l-302 -390l-64 -262h95l-5 -23h-227zM299 789l151 136h32l91 -138l-14 -8l-97 116l-151 -116z" />
    <glyph glyph-name="ycircumflex" unicode="&#x177;" horiz-adv-x="442" 
d="M-51 -212q-28 0 -44.5 12.5t-16.5 32.5q0 15 9 25.5t25 10.5t24 -8.5t8 -22.5q0 -21 -21 -31l2 -3h8q49 0 86 30.5t72 92.5l35 62l-42 496h-45l6 23h150l-6 -23h-70l35 -447h6l253 447h-70l6 23h144l-6 -23h-45l-332 -572q-38 -66 -79 -95.5t-92 -29.5zM173 611l151 136
h32l91 -138l-14 -8l-97 116l-151 -116z" />
    <glyph glyph-name="Ydieresis" unicode="&#x178;" horiz-adv-x="596" 
d="M128 23h95l64 262l-106 390h-55l5 23h187l-5 -23h-95l97 -361h2l276 361h-95l5 23h183l-5 -23h-55l-302 -390l-64 -262h95l-5 -23h-227zM355 813q-14 0 -20 7.5t-6 17.5q0 4 0.5 7.5t2.5 8.5q4 8 11 13.5t19 5.5q14 0 20 -7.5t6 -17.5q0 -4 -0.5 -7.5t-2.5 -8.5
q-4 -8 -11 -13.5t-19 -5.5zM536 813q-14 0 -20 7.5t-6 17.5q0 4 0.5 7.5t2.5 8.5q4 8 11 13.5t19 5.5q14 0 20 -7.5t6 -17.5q0 -4 -0.5 -7.5t-2.5 -8.5q-4 -8 -11 -13.5t-19 -5.5z" />
    <glyph glyph-name="Zacute" unicode="&#x179;" horiz-adv-x="588" 
d="M-1 24l570 650h-367l-32 -129h-31l38 153h440l-5 -24l-571 -650h396l33 131h31l-39 -155h-469zM390 776l122 159l28 -17l-137 -151z" />
    <glyph glyph-name="zacute" unicode="&#x17a;" horiz-adv-x="465" 
d="M324 -12q-14 0 -41 4.5t-64 12t-82.5 18.5t-96.5 23l-12 -46h-25l11 42q4 17 11.5 26t18.5 20l360 354l-244 48l-16 -8l-41 -136l-15 3l31 133q5 20 16 29t34 9q26 0 92.5 -17t156.5 -41l12 46h25l-11 -42q-4 -17 -11.5 -26t-18.5 -20l-361 -354l280 -48l16 8l41 136
l15 -3l-31 -133q-5 -20 -16 -29t-34 -9zM297 596l122 159l28 -17l-137 -151z" />
    <glyph glyph-name="Zdotaccent" unicode="&#x17b;" horiz-adv-x="588" 
d="M-1 24l570 650h-367l-32 -129h-31l38 153h440l-5 -24l-571 -650h396l33 131h31l-39 -155h-469zM421 815q-14 0 -20 8t-6 18q0 9 3 15q4 8 11 13.5t19 5.5q14 0 20 -8t6 -18q0 -9 -3 -15q-4 -8 -11 -13.5t-19 -5.5z" />
    <glyph glyph-name="zdotaccent" unicode="&#x17c;" horiz-adv-x="465" 
d="M324 -12q-14 0 -41 4.5t-64 12t-82.5 18.5t-96.5 23l-12 -46h-25l11 42q4 17 11.5 26t18.5 20l360 354l-244 48l-16 -8l-41 -136l-15 3l31 133q5 20 16 29t34 9q26 0 92.5 -17t156.5 -41l12 46h25l-11 -42q-4 -17 -11.5 -26t-18.5 -20l-361 -354l280 -48l16 8l41 136
l15 -3l-31 -133q-5 -20 -16 -29t-34 -9zM326 637q-14 0 -20 8t-6 18q0 9 3 15q4 8 11 13.5t19 5.5q14 0 20 -8t6 -18q0 -9 -3 -15q-4 -8 -11 -13.5t-19 -5.5z" />
    <glyph glyph-name="Zcaron" unicode="&#x17d;" horiz-adv-x="588" 
d="M-1 24l570 650h-367l-32 -129h-31l38 153h440l-5 -24l-571 -650h396l33 131h31l-39 -155h-469zM304 920l14 8l97 -116l151 116l12 -10l-151 -136h-32z" />
    <glyph glyph-name="zcaron" unicode="&#x17e;" horiz-adv-x="465" 
d="M324 -12q-14 0 -41 4.5t-64 12t-82.5 18.5t-96.5 23l-12 -46h-25l11 42q4 17 11.5 26t18.5 20l360 354l-244 48l-16 -8l-41 -136l-15 3l31 133q5 20 16 29t34 9q26 0 92.5 -17t156.5 -41l12 46h25l-11 -42q-4 -17 -11.5 -26t-18.5 -20l-361 -354l280 -48l16 8l41 136
l15 -3l-31 -133q-5 -20 -16 -29t-34 -9zM209 742l14 8l97 -116l151 116l12 -10l-151 -136h-32z" />
    <glyph glyph-name="uni018F" unicode="&#x18f;" horiz-adv-x="679" 
d="M289 -12q-106 0 -160.5 60t-54.5 166q0 59 14 124h498l6 28q8 35 11 65.5t3 51.5q0 97 -46.5 148.5t-138.5 51.5q-85 0 -152.5 -47t-107.5 -132l-20 9q19 40 46.5 75.5t63 62.5t79.5 43t97 16q105 0 160.5 -60t55.5 -172q0 -48 -8.5 -103t-26.5 -109.5t-46.5 -104.5
t-67.5 -88.5t-90 -61.5t-115 -23zM289 13q105 0 181.5 78.5t108.5 222.5h-457l-5 -25q-4 -23 -5 -43t-1 -36q0 -96 45 -146.5t133 -50.5z" />
    <glyph glyph-name="florin" unicode="&#x192;" horiz-adv-x="444" 
d="M-30 -146q-34 0 -53.5 13t-19.5 33q0 14 9.5 24.5t24.5 10.5q14 0 22 -8.5t8 -19.5q0 -9 -6 -18.5t-16 -14.5l1 -4q9 -1 14 -1h11q53 0 83.5 32.5t52.5 96.5l108 311h-161l7 23h161l84 240q23 68 62.5 103t101.5 35q34 0 53.5 -13t19.5 -33q0 -14 -9.5 -24.5t-24.5 -10.5
q-14 0 -22 8.5t-8 19.5q0 9 6 18.5t16 14.5l-1 4q-9 1 -14 1h-11q-53 0 -83.5 -32.5t-52.5 -96.5l-81 -234h196l-7 -23h-197l-110 -317q-23 -68 -62.5 -103t-101.5 -35z" />
    <glyph glyph-name="Ohorn" unicode="&#x1a0;" horiz-adv-x="679" 
d="M289 -12q-105 0 -160 60t-55 172q0 48 8.5 103t27 109.5t46.5 104.5t67.5 88.5t90.5 61.5t115 23q45 0 83 -12h111l28 112h32l-24 -99q-5 -16 -14.5 -24.5t-29.5 -8.5h-60q89 -57 89 -200q0 -48 -8.5 -103t-27 -109.5t-46.5 -104.5t-67.5 -88.5t-90.5 -61.5t-115 -23z
M292 13q53 0 98 20.5t81.5 58t63.5 91t43 120.5q10 39 15.5 68t8.5 51t4 37.5t1 27.5q0 96 -45 147t-136 51q-53 0 -98 -20.5t-81.5 -58t-63.5 -91t-43 -120.5q-10 -39 -15.5 -68t-8.5 -51t-4 -37.5t-1 -27.5q0 -96 45 -147t136 -51z" />
    <glyph glyph-name="ohorn" unicode="&#x1a1;" horiz-adv-x="469" 
d="M179 -12q-71 0 -101.5 45t-30.5 120q0 66 18 131.5t50 118t77 85t98 32.5q35 0 61 -12h79l28 111h32l-24 -98q-5 -16 -14.5 -24.5t-28.5 -8.5h-43q22 -22 32 -55.5t10 -77.5q0 -66 -18 -131.5t-50.5 -118t-77 -85t-97.5 -32.5zM180 11q36 0 66 19t53.5 50.5t40.5 73
t28 87.5q6 25 9.5 43t6 32t3 25.5t0.5 22.5q0 30 -5 54.5t-16 42t-30 27t-47 9.5q-36 0 -66 -19t-53.5 -50.5t-40.5 -73t-28 -87.5q-12 -50 -15.5 -75.5t-3.5 -47.5q0 -30 5 -54.5t16 -42t30 -27t47 -9.5z" />
    <glyph glyph-name="Uhorn" unicode="&#x1af;" horiz-adv-x="691" 
d="M288 -12q-89 0 -136 37.5t-47 115.5q0 26 6 56t15 65l102 413h-78l5 23h193l-5 -23h-78l-104 -418q-9 -37 -14.5 -66.5t-5.5 -55.5q0 -57 35.5 -89t113.5 -32q53 0 92.5 13.5t69 43t50.5 75.5t38 112l103 417h-78l5 23h166l28 112h32l-24 -99q-5 -16 -14.5 -24.5
t-28.5 -8.5h-55l-105 -420q-20 -78 -45.5 -129.5t-59 -83t-77.5 -44.5t-99 -13z" />
    <glyph glyph-name="uhorn" unicode="&#x1b0;" horiz-adv-x="537" 
d="M128 -12q-36 0 -51 18t-15 45q0 17 6 40l105 391h-86l4 17l126 17l-115 -430q-5 -18 -5 -30q0 -39 41 -39q47 0 103 53q24 23 48 55t46 68.5t39 75t26 74.5l41 165h83l28 111h32l-24 -98q-4 -16 -14 -24.5t-30 -8.5h-45l-117 -465l18 -8l130 114l11 -11l-84 -83
q-29 -29 -44 -38t-28 -9q-14 0 -24.5 7.5t-10.5 24.5q0 6 2 16t4 19l42 165l-6 1q-17 -34 -41 -74.5t-54 -76t-65.5 -59t-75.5 -23.5z" />
    <glyph glyph-name="Aringacute" unicode="&#x1fa;" horiz-adv-x="648" 
d="M-40 23h55l399 675h43l62 -675h55l-5 -23h-186l5 23h94l-18 210h-293l-122 -210h94l-5 -23h-183zM185 257h277l-36 407h-3zM460 782q29 0 51 18.5t29 46.5q5 23 5 35q0 23 -15.5 37t-41.5 14q-29 0 -51 -18.5t-29 -46.5q-5 -23 -5 -35q0 -23 15.5 -37t41.5 -14zM457 762
q-36 0 -58 20.5t-22 52.5q0 24 8.5 45.5t23.5 37.5t36 25.5t46 9.5q36 0 58 -20.5t22 -52.5q0 -24 -8.5 -45.5t-23.5 -37.5t-36 -25.5t-46 -9.5zM477 982l99 108l25 -18l-112 -98z" />
    <glyph glyph-name="aringacute" unicode="&#x1fb;" horiz-adv-x="514" 
d="M139 -12q-27 0 -44.5 10.5t-28 28.5t-15 42.5t-4.5 51.5q0 66 16.5 136.5t49 129t81 96t111.5 37.5q36 0 61 -16t35 -58h5l27 62h19l-122 -485l18 -8l130 114l11 -11l-84 -83q-29 -29 -43.5 -38t-28.5 -9t-24.5 7.5t-10.5 24.5q0 13 5 33l40 157l-5 2q-15 -35 -35 -74.5
t-44.5 -72.5t-54.5 -55t-65 -22zM148 17q18 0 40.5 11t43.5 36q24 27 46 62.5t41 73.5t33.5 74.5t22.5 65.5l5 21q18 68 -1 101t-68 33q-38 0 -70.5 -16.5t-58.5 -46.5t-45.5 -72t-32.5 -93q-11 -43 -15.5 -80t-4.5 -66q0 -22 2.5 -41t9.5 -33t19.5 -22t32.5 -8zM334 611
q29 0 51 18.5t29 46.5q5 23 5 35q0 23 -15.5 37t-41.5 14q-29 0 -51 -18.5t-29 -46.5q-5 -23 -5 -35q0 -23 15.5 -37t41.5 -14zM331 591q-36 0 -58 20.5t-22 52.5q0 24 8.5 45.5t23.5 37.5t36 25.5t46 9.5q36 0 58 -20.5t22 -52.5q0 -24 -8.5 -45.5t-23.5 -37.5t-36 -25.5
t-46 -9.5zM351 811l99 108l25 -18l-112 -98z" />
    <glyph glyph-name="AEacute" unicode="&#x1fc;" horiz-adv-x="909" 
d="M-47 23h55l515 652h-92l6 23h508l-38 -153h-31l32 129h-308l-74 -296h229l21 85h27l-48 -193h-27l21 84h-228l-83 -330h326l33 131h31l-39 -155h-471l5 23h78l52 210h-246l-166 -210h94l-5 -23h-182zM225 257h234l104 418h-8zM666 776l122 159l28 -17l-137 -151z" />
    <glyph glyph-name="aeacute" unicode="&#x1fd;" horiz-adv-x="686" 
d="M116 -12q-46 0 -67 27t-21 65q0 37 18.5 69.5t55.5 58t93 43t131 24.5q1 4 2.5 8.5t3.5 12.5t5.5 21t8.5 34q4 17 7 32.5t3 31.5q0 83 -91 83q-29 0 -57 -7.5t-48 -24.5v-4q11 -3 18.5 -11.5t7.5 -22.5q0 -15 -9.5 -24t-23.5 -9t-23 8t-9 25t12.5 33.5t33.5 29.5t48 21
t56 8q54 0 82 -24t30 -69v-11t-2 -13h5q26 51 69.5 84t94.5 33q20 0 39.5 -4.5t34.5 -15.5t24.5 -28.5t9.5 -44.5q0 -33 -16 -60t-52 -48t-93 -35.5t-139 -21.5q-4 -17 -10.5 -54t-6.5 -79q0 -23 3 -43.5t12 -36t24.5 -25t40.5 -9.5q48 0 96.5 39t88.5 114l16 -8
q-48 -94 -100 -133t-109 -39q-58 0 -81 35.5t-23 102.5q0 8 0.5 17.5t1.5 18.5h-5q-12 -29 -31.5 -59.5t-44.5 -56t-54 -42t-60 -16.5zM126 14q32 0 63.5 25t58 61t45.5 76.5t27 70.5l3 12q-69 -8 -118.5 -25.5t-81 -41.5t-46 -52t-14.5 -57t14 -49t49 -20zM362 278
q125 14 193.5 46.5t68.5 99.5q0 14 -3.5 27t-12.5 23.5t-23.5 17t-35.5 6.5q-60 0 -110.5 -54t-76.5 -166zM409 596l122 159l28 -17l-137 -151z" />
    <glyph glyph-name="Oslashacute" unicode="&#x1fe;" horiz-adv-x="679" 
d="M29 -19l80 95q-35 56 -35 144q0 48 8.5 103t27 109.5t46.5 104.5t67.5 88.5t90.5 61.5t115 23q110 0 166 -67l77 91l18 -16l-80 -97q34 -57 34 -143q0 -48 -8.5 -103t-27 -109.5t-46.5 -104.5t-67.5 -88.5t-90.5 -61.5t-115 -23q-110 0 -165 67l-78 -89zM426 685
q-53 0 -98 -20.5t-81.5 -58t-63.5 -91t-43 -120.5q-10 -39 -15.5 -68t-8.5 -51t-4 -37.5t-1 -27.5q0 -64 21 -109l441 517q-45 66 -147 66zM292 13q53 0 98 20.5t81.5 58t63.5 91t43 120.5q10 39 15.5 68t8.5 51t4 37.5t1 27.5q0 65 -21 109l-441 -517q45 -66 147 -66z
M438 776l122 159l28 -17l-137 -151z" />
    <glyph glyph-name="oslashacute" unicode="&#x1ff;" horiz-adv-x="469" 
d="M-8 -16l69 81q-14 35 -14 88q0 66 18 131.5t50 118t77 85t98 32.5q39 0 65.5 -14.5t42.5 -40.5l61 74l17 -15l-68 -80q8 -19 11 -41t3 -48q0 -66 -18 -131.5t-50.5 -118t-77 -85t-97.5 -32.5q-39 0 -65.5 14.5t-42.5 40.5l-62 -74zM289 497q-36 0 -66 -19t-53.5 -50.5
t-40.5 -73t-28 -87.5q-12 -50 -15.5 -75.5t-3.5 -47.5q0 -14 1 -27t3 -24l290 346q-10 27 -30.5 42.5t-56.5 15.5zM180 11q36 0 66 19t53.5 50.5t40.5 73t28 87.5q6 25 9.5 43t6 32t3 25.5t0.5 22.5q0 31 -4 51l-291 -345q10 -28 31 -43.5t57 -15.5zM293 596l122 159l28 -17
l-137 -151z" />
    <glyph glyph-name="Scommaaccent" unicode="&#x218;" horiz-adv-x="563" 
d="M235 -12q-29 0 -56.5 5.5t-50 16.5t-38 27t-21.5 37h-3l-19 -74h-31l53 213h31l-18 -73q-4 -16 -4 -28q0 -24 12 -42.5t33 -31t49.5 -19t61.5 -6.5q49 0 88.5 14t67.5 39t43 59t15 74q0 56 -29 85.5t-85 52.5l-67 27q-59 23 -90 61t-31 98q0 43 17.5 77.5t48 59
t71.5 37.5t88 13q28 0 54.5 -5.5t47.5 -16.5t36 -27t21 -37h3l19 74h31l-51 -203h-31l17 67q2 9 2.5 14.5t0.5 11.5q0 24 -11.5 42t-32 30.5t-48 18.5t-58.5 6q-47 0 -82 -13t-59 -34.5t-36 -49.5t-12 -59q0 -54 27.5 -84.5t80.5 -51.5l66 -26q69 -29 98.5 -67.5t29.5 -94.5
q0 -45 -17 -84.5t-49 -69t-78 -46.5t-105 -17zM154 -220q23 23 38.5 47.5t23.5 47.5h-6q-11 0 -18 6.5t-7 17.5q0 15 10 25t24 10t21 -7.5t7 -19.5q0 -13 -10 -35q-10 -24 -27.5 -48.5t-37.5 -43.5h-18v0z" />
    <glyph glyph-name="scommaaccent" unicode="&#x219;" horiz-adv-x="353" 
d="M95 -12q-42 0 -64 13.5t-22 36.5q0 14 9 23.5t24 9.5q14 0 22 -8t8 -21q0 -10 -6 -18t-14 -13l1 -4q5 -2 13 -3t17 -1q22 0 48.5 5.5t49.5 19t38 37t15 58.5q0 18 -3.5 32.5t-12 29t-22.5 30t-34 36.5q-31 31 -48 58t-17 66q0 35 13 62t35.5 45.5t52.5 28t64 9.5
q41 0 63 -13.5t22 -36.5q0 -14 -9 -23.5t-24 -9.5q-14 0 -22 8.5t-8 20.5q0 10 6 18.5t14 13.5l-1 4q-9 3 -27 3q-23 0 -48.5 -5.5t-47 -19t-35.5 -37t-14 -58.5q0 -18 3.5 -32.5t12 -28.5t22 -30t34.5 -37q32 -33 48.5 -60t16.5 -64q0 -35 -14 -61.5t-37.5 -45.5t-55 -28.5
t-66.5 -9.5zM24 -220q23 23 38.5 47.5t23.5 47.5h-6q-11 0 -18 6.5t-7 17.5q0 15 10 25t24 10t21 -7.5t7 -19.5q0 -13 -10 -35q-10 -24 -27.5 -48.5t-37.5 -43.5h-18v0z" />
    <glyph glyph-name="uni021A" unicode="&#x21a;" horiz-adv-x="607" 
d="M130 23h98l162 651h-215l-32 -129h-31l38 153h529l-38 -153h-31l32 129h-215l-162 -651h98l-5 -23h-233zM158 -220q23 23 38.5 47.5t23.5 47.5h-6q-11 0 -18 6.5t-7 17.5q0 15 10 25t24 10t21 -7.5t7 -19.5q0 -13 -10 -35q-10 -24 -27.5 -48.5t-37.5 -43.5h-18v0z" />
    <glyph glyph-name="uni021B" unicode="&#x21b;" horiz-adv-x="324" 
d="M90 -12q-14 0 -24.5 7.5t-10.5 25.5q0 11 5 31l108 433h-82l6 23h37q26 0 39 8t21 29l38 105h18l-36 -142h138l-6 -23h-138l-115 -462l18 -8l159 105l10 -11l-116 -86q-29 -23 -42.5 -29t-26.5 -6zM12 -220q23 23 38.5 47.5t23.5 47.5h-6q-11 0 -18 6.5t-7 17.5
q0 15 10 25t24 10t21 -7.5t7 -19.5q0 -13 -10 -35q-10 -24 -27.5 -48.5t-37.5 -43.5h-18v0z" />
    <glyph glyph-name="uni0237" unicode="&#x237;" horiz-adv-x="252" 
d="M-66 -212q-30 0 -46.5 12.5t-16.5 32.5q0 14 9.5 24t23.5 10t22 -9t8 -20q0 -9 -5.5 -18t-14.5 -14l1 -4h11q43 0 68 32t39 91l139 557h-86l3 17l127 17l-148 -594q-16 -63 -49.5 -98.5t-84.5 -35.5z" />
    <glyph glyph-name="uni0259" unicode="&#x259;" horiz-adv-x="429" 
d="M150 -12q-20 0 -39 4.5t-34 15.5t-24.5 28.5t-9.5 44.5q0 33 16.5 60t52.5 48t93 35.5t138 21.5q7 31 12 64.5t5 68.5q0 22 -3.5 43t-12.5 36.5t-24.5 25t-39.5 9.5q-48 0 -96.5 -39t-88.5 -114l-16 8q49 94 100.5 133t107.5 39q58 0 84 -35.5t26 -108.5q0 -35 -6 -78
t-19 -86t-32.5 -83.5t-47 -71.5t-63 -50t-79.5 -19zM152 10q59 0 110 53.5t77 166.5q-62 -7 -110.5 -18t-82.5 -28.5t-51.5 -42t-17.5 -57.5q0 -14 3.5 -27t12 -23.5t23 -17t36.5 -6.5z" />
    <glyph glyph-name="uni02BB" unicode="&#x2bb;" horiz-adv-x="600" 
d="M317 598q-14 0 -21 7.5t-7 19.5q0 13 10 35q10 24 27.5 48.5t37.5 43.5h18q-23 -23 -38.5 -47.5t-23.5 -47.5h6q11 0 18 -6.5t7 -17.5q0 -15 -10 -25t-24 -10z" />
    <glyph glyph-name="uni02BC" unicode="&#x2bc;" horiz-adv-x="600" 
d="M333 748h39l-79 -178h-16z" />
    <glyph glyph-name="circumflex" unicode="&#x2c6;" horiz-adv-x="600" 
d="M182 611l151 136h32l91 -138l-14 -8l-97 116l-151 -116z" />
    <glyph glyph-name="caron" unicode="&#x2c7;" horiz-adv-x="600" 
d="M210 742l14 8l97 -116l151 116l12 -10l-151 -136h-32z" />
    <glyph glyph-name="breve" unicode="&#x2d8;" horiz-adv-x="600" 
d="M316 600q-26 0 -43.5 9t-28.5 25.5t-18 39t-13 49.5l15 6l9 -30q14 -42 31.5 -56.5t51.5 -14.5t60 15t58 57l23 29l14 -7q-19 -27 -36 -49.5t-35.5 -38.5t-39.5 -25t-48 -9z" />
    <glyph glyph-name="dotaccent" unicode="&#x2d9;" horiz-adv-x="600" 
d="M327 637q-14 0 -20 8t-6 18q0 9 3 15q4 8 11 13.5t19 5.5q14 0 20 -8t6 -18q0 -9 -3 -15q-4 -8 -11 -13.5t-19 -5.5z" />
    <glyph glyph-name="ring" unicode="&#x2da;" horiz-adv-x="600" 
d="M323 614q29 0 51 18.5t29 46.5q5 23 5 35q0 23 -15.5 37t-41.5 14q-29 0 -51 -18.5t-29 -46.5q-5 -23 -5 -35q0 -23 15.5 -37t41.5 -14zM320 594q-36 0 -58 20.5t-22 52.5q0 24 8.5 45.5t23.5 37.5t36 25.5t46 9.5q36 0 58 -20.5t22 -52.5q0 -24 -8.5 -45.5t-23.5 -37.5
t-36 -25.5t-46 -9.5z" />
    <glyph glyph-name="ogonek" unicode="&#x2db;" horiz-adv-x="600" 
d="M207 -203q-29 0 -47 14.5t-18 43.5q0 42 35 75.5t95 65.5l-3 17l29 4l2 -17q-60 -35 -93.5 -69t-33.5 -71q0 -21 11.5 -31t31.5 -10t33.5 8.5t24.5 17.5l11 -11q-14 -14 -33 -25.5t-45 -11.5z" />
    <glyph glyph-name="tilde" unicode="&#x2dc;" horiz-adv-x="600" 
d="M395 626q-20 0 -36 7t-38 23q-20 14 -34.5 20t-28.5 6q-33 0 -70 -31l-10 11q22 20 42.5 33t42.5 13q20 0 36 -7t38 -23q20 -14 34.5 -20t28.5 -6q33 0 70 31l10 -11q-22 -20 -42.5 -33t-42.5 -13z" />
    <glyph glyph-name="hungarumlaut" unicode="&#x2dd;" horiz-adv-x="600" 
d="M224 596l122 159l28 -17l-137 -151zM382 596l122 159l28 -17l-137 -151z" />
    <glyph glyph-name="uni0300" unicode="&#x300;" 
d="M-77 739l32 16l75 -160l-14 -8z" />
    <glyph glyph-name="uni0301" unicode="&#x301;" 
d="M-1 596l122 159l28 -17l-137 -151z" />
    <glyph glyph-name="uni0302" unicode="&#x302;" 
d="M-117 611l151 136h32l91 -138l-14 -8l-97 116l-151 -116z" />
    <glyph glyph-name="uni0303" unicode="&#x303;" 
d="M96 626q-20 0 -36 7t-38 23q-20 14 -34.5 20t-28.5 6q-33 0 -70 -31l-10 11q22 20 42.5 33t42.5 13q20 0 36 -7t38 -23q20 -14 34.5 -20t28.5 -6q33 0 70 31l10 -11q-22 -20 -42.5 -33t-42.5 -13z" />
    <glyph glyph-name="uni0304" unicode="&#x304;" 
d="M-94 681h258l-6 -26h-258z" />
    <glyph glyph-name="uni0306" unicode="&#x306;" 
d="M17 600q-26 0 -43.5 9t-28.5 25.5t-18 39t-13 49.5l15 6l9 -30q14 -42 31.5 -56.5t51.5 -14.5t60 15t58 57l23 29l14 -7q-19 -27 -36 -49.5t-35.5 -38.5t-39.5 -25t-48 -9z" />
    <glyph glyph-name="uni0307" unicode="&#x307;" 
d="M28 637q-14 0 -20 8t-6 18q0 9 3 15q4 8 11 13.5t19 5.5q14 0 20 -8t6 -18q0 -9 -3 -15q-4 -8 -11 -13.5t-19 -5.5z" />
    <glyph glyph-name="uni0308" unicode="&#x308;" 
d="M-62 637q-14 0 -20 7.5t-6 17.5q0 4 0.5 7.5t2.5 8.5q4 8 11 13.5t19 5.5q14 0 20 -7.5t6 -17.5q0 -4 -0.5 -7.5t-2.5 -8.5q-4 -8 -11 -13.5t-19 -5.5zM119 637q-14 0 -20 7.5t-6 17.5q0 4 0.5 7.5t2.5 8.5q4 8 11 13.5t19 5.5q14 0 20 -7.5t6 -17.5q0 -4 -0.5 -7.5
t-2.5 -8.5q-4 -8 -11 -13.5t-19 -5.5z" />
    <glyph glyph-name="uni0309" unicode="&#x309;" 
d="M-2 593l99 123h-135l7 26h127q28 0 28 -20q0 -5 -2 -10t-7 -12.5t-15.5 -19.5t-26.5 -30l-61 -66z" />
    <glyph glyph-name="uni030A" unicode="&#x30a;" 
d="M24 614q29 0 51 18.5t29 46.5q5 23 5 35q0 23 -15.5 37t-41.5 14q-29 0 -51 -18.5t-29 -46.5q-5 -23 -5 -35q0 -23 15.5 -37t41.5 -14zM21 594q-36 0 -58 20.5t-22 52.5q0 24 8.5 45.5t23.5 37.5t36 25.5t46 9.5q36 0 58 -20.5t22 -52.5q0 -24 -8.5 -45.5t-23.5 -37.5
t-36 -25.5t-46 -9.5z" />
    <glyph glyph-name="uni030B" unicode="&#x30b;" 
d="M-75 596l122 159l28 -17l-137 -151zM83 596l122 159l28 -17l-137 -151z" />
    <glyph glyph-name="uni030C" unicode="&#x30c;" 
d="M-89 742l14 8l97 -116l151 116l12 -10l-151 -136h-32z" />
    <glyph glyph-name="uni0312" unicode="&#x312;" 
d="M18 598q-14 0 -21 7.5t-7 19.5q0 13 10 35q10 24 27.5 48.5t37.5 43.5h18q-23 -23 -38.5 -47.5t-23.5 -47.5h6q11 0 18 -6.5t7 -17.5q0 -15 -10 -25t-24 -10z" />
    <glyph glyph-name="uni0315" unicode="&#x315;" 
d="M34 748h39l-79 -178h-16z" />
    <glyph glyph-name="uni031B" unicode="&#x31b;" 
d="M-55 508h79l28 111h32l-23 -94q-5 -18 -15 -27.5t-30 -9.5h-76z" />
    <glyph glyph-name="uni0323" unicode="&#x323;" 
d="M-30 -139q-14 0 -20 8t-6 18q0 9 3 15q4 8 11 13.5t19 5.5q14 0 20 -8t6 -18q0 -9 -3 -15q-4 -8 -11 -13.5t-19 -5.5z" />
    <glyph glyph-name="uni0326" unicode="&#x326;" 
d="M-82 -220q23 23 38.5 47.5t23.5 47.5h-6q-11 0 -18 6.5t-7 17.5q0 15 10 25t24 10t21 -7.5t7 -19.5q0 -13 -10 -35q-10 -24 -27.5 -48.5t-37.5 -43.5h-18v0z" />
    <glyph glyph-name="uni0327" unicode="&#x327;" 
d="M-40 -203q-29 0 -47 11t-24 24l11 11q8 -12 24 -19t36 -7q18 0 32 6t23.5 15.5t14 20.5t4.5 21q0 18 -12 26.5t-40 10.5l-32 1l42 86h22l-36 -74l1 -3q8 2 16 3t16 1q24 0 39 -13.5t15 -34.5q0 -17 -8 -32.5t-22.5 -27.5t-33.5 -19t-41 -7z" />
    <glyph glyph-name="uni0328" unicode="&#x328;" 
d="M-92 -203q-29 0 -47 14.5t-18 43.5q0 42 35 75.5t95 65.5l-3 17l29 4l2 -17q-60 -35 -93.5 -69t-33.5 -71q0 -21 11.5 -31t31.5 -10t33.5 8.5t24.5 17.5l11 -11q-14 -14 -33 -25.5t-45 -11.5z" />
    <glyph glyph-name="pi" unicode="&#x3c0;" horiz-adv-x="542" 
d="M345 -12q-14 0 -24.5 7.5t-10.5 25.5q0 12 5 32l107 431h-211l-121 -484h-35l121 484h-98l6 24h476l-5 -24h-98l-115 -461l18 -8l130 114l11 -11l-84 -83q-29 -28 -43.5 -37.5t-28.5 -9.5z" />
    <glyph glyph-name="uni0400" unicode="&#x400;" horiz-adv-x="584" 
d="M-2 23h78l162 652h-78l5 23h455l-38 -153h-31l32 129h-308l-74 -296h229l21 85h27l-48 -193h-27l21 84h-228l-83 -330h326l33 131h31l-39 -155h-471zM328 919l32 16l75 -160l-14 -8z" />
    <glyph glyph-name="uni0401" unicode="&#x401;" horiz-adv-x="584" 
d="M-2 23h78l162 652h-78l5 23h455l-38 -153h-31l32 129h-308l-74 -296h229l21 85h27l-48 -193h-27l21 84h-228l-83 -330h326l33 131h31l-39 -155h-471zM347 813q-14 0 -20 7.5t-6 17.5q0 4 0.5 7.5t2.5 8.5q4 8 11 13.5t19 5.5q14 0 20 -7.5t6 -17.5q0 -4 -0.5 -7.5
t-2.5 -8.5q-4 -8 -11 -13.5t-19 -5.5zM528 813q-14 0 -20 7.5t-6 17.5q0 4 0.5 7.5t2.5 8.5q4 8 11 13.5t19 5.5q14 0 20 -7.5t6 -17.5q0 -4 -0.5 -7.5t-2.5 -8.5q-4 -8 -11 -13.5t-19 -5.5z" />
    <glyph glyph-name="uni0402" unicode="&#x402;" horiz-adv-x="740" 
d="M150 23h78l162 651h-215l-32 -129h-31l38 153h529l-38 -153h-31l32 129h-215l-69 -279h3q32 12 71 18.5t79 6.5q91 0 135.5 -34.5t44.5 -106.5q0 -17 -3.5 -38.5t-12.5 -56.5l-37 -154q-14 -54 -33 -91.5t-42 -60t-48.5 -32.5t-50.5 -10h-80l5 23h99q35 13 65 53t50 122
l37 151q8 33 11.5 54.5t3.5 41.5q0 59 -36.5 86.5t-114.5 27.5q-40 0 -81 -6.5t-72 -17.5l-86 -348h78l-5 -23h-193z" />
    <glyph glyph-name="uni0403" unicode="&#x403;" horiz-adv-x="518" 
d="M-2 23h78l162 652h-78l5 23h425l-38 -153h-31l32 129h-278l-162 -651h98l-5 -23h-213zM382 776l122 159l28 -17l-137 -151z" />
    <glyph glyph-name="uni0404" unicode="&#x404;" horiz-adv-x="619" 
d="M308 -12q-110 0 -172 55t-62 174q0 50 9 106t27 111t46 105t67 88t88.5 60.5t111.5 22.5q63 0 108 -22t57 -64h3l19 74h31l-52 -207h-31l18 71q3 13 3 23q0 24 -12 42.5t-32.5 31.5t-48.5 19.5t-60 6.5q-53 0 -98 -20t-81.5 -57.5t-63.5 -91t-43 -119.5q-2 -7 -4 -16.5
t-3 -14.5h315l-6 -24h-315q-11 -48 -13.5 -79t-2.5 -51q0 -102 50.5 -150.5t153.5 -48.5q61 0 102.5 16.5t67.5 42.5v5q-17 2 -26.5 11.5t-9.5 25.5q0 14 9.5 23.5t24.5 9.5t25 -9.5t10 -27.5q0 -21 -16 -43t-44.5 -39.5t-66.5 -28.5t-83 -11z" />
    <glyph glyph-name="uni0405" unicode="&#x405;" horiz-adv-x="563" 
d="M235 -12q-29 0 -56.5 5.5t-50 16.5t-38 27t-21.5 37h-3l-19 -74h-31l53 213h31l-18 -73q-4 -16 -4 -28q0 -24 12 -42.5t33 -31t49.5 -19t61.5 -6.5q49 0 88.5 14t67.5 39t43 59t15 74q0 56 -29 85.5t-85 52.5l-67 27q-59 23 -90 61t-31 98q0 43 17.5 77.5t48 59
t71.5 37.5t88 13q28 0 54.5 -5.5t47.5 -16.5t36 -27t21 -37h3l19 74h31l-51 -203h-31l17 67q2 9 2.5 14.5t0.5 11.5q0 24 -11.5 42t-32 30.5t-48 18.5t-58.5 6q-47 0 -82 -13t-59 -34.5t-36 -49.5t-12 -59q0 -54 27.5 -84.5t80.5 -51.5l66 -26q69 -29 98.5 -67.5t29.5 -94.5
q0 -45 -17 -84.5t-49 -69t-78 -46.5t-105 -17z" />
    <glyph glyph-name="uni0406" unicode="&#x406;" horiz-adv-x="304" 
d="M-2 23h78l162 652h-78l5 23h193l-5 -23h-78l-162 -652h78l-5 -23h-193z" />
    <glyph glyph-name="uni0407" unicode="&#x407;" horiz-adv-x="304" 
d="M-2 23h78l162 652h-78l5 23h193l-5 -23h-78l-162 -652h78l-5 -23h-193zM206 813q-14 0 -20 7.5t-6 17.5q0 4 0.5 7.5t2.5 8.5q4 8 11 13.5t19 5.5q14 0 20 -7.5t6 -17.5q0 -4 -0.5 -7.5t-2.5 -8.5q-4 -8 -11 -13.5t-19 -5.5zM387 813q-14 0 -20 7.5t-6 17.5q0 4 0.5 7.5
t2.5 8.5q4 8 11 13.5t19 5.5q14 0 20 -7.5t6 -17.5q0 -4 -0.5 -7.5t-2.5 -8.5q-4 -8 -11 -13.5t-19 -5.5z" />
    <glyph glyph-name="uni0408" unicode="&#x408;" horiz-adv-x="422" 
d="M95 -12q-50 0 -80 20t-30 52q0 17 9 27.5t26 10.5q16 0 24.5 -9t8.5 -23q0 -11 -6.5 -21t-22.5 -17v-3q8 -7 26 -11t40 -4q54 0 90 31t51 93l134 541h-98l5 23h213l-5 -23h-78l-136 -548q-17 -70 -61.5 -104.5t-109.5 -34.5z" />
    <glyph glyph-name="uni0409" unicode="&#x409;" horiz-adv-x="887" 
d="M38 -12q-37 0 -59 19.5t-22 47.5q0 16 9 27t26 11t25 -9t8 -23q0 -11 -6.5 -21t-22.5 -17v-3q7 -5 16.5 -8t25.5 -3t31.5 6t31.5 22t33 45.5t36.5 80.5t42 127t49.5 185l50 200h-78l5 23h448l-5 -23h-78l-72 -285h165q73 0 109 -37.5t36 -95.5q0 -36 -11.5 -81t-38.5 -84
t-70.5 -65.5t-107.5 -26.5h-292l5 23h78l162 651h-225l-49 -198q-28 -112 -51 -189.5t-43 -129.5t-39 -83t-38 -50t-40 -27.5t-44 -8.5zM613 24q36 0 65.5 11.5t52 32t37.5 47.5t23 59q8 29 11 48.5t3 36.5q0 43 -25.5 75t-83.5 32h-169l-85 -342h171z" />
    <glyph glyph-name="uni040A" unicode="&#x40a;" horiz-adv-x="944" 
d="M-2 23h78l162 652h-78l5 23h193l-5 -23h-78l-74 -299h349l74 299h-78l5 23h193l-5 -23h-78l-73 -293h167q69 0 106.5 -36t37.5 -93q0 -35 -11.5 -78.5t-38.5 -82.5t-70.5 -65.5t-107.5 -26.5h-292l5 23h78l81 329h-348l-82 -329h78l-5 -23h-193zM670 24q37 0 66.5 11.5
t52 32t37 47.5t22.5 59q8 29 11 48t3 34q0 20 -6.5 38.5t-20 32.5t-33.5 22.5t-48 8.5h-172l-83 -334h171z" />
    <glyph glyph-name="uni040B" unicode="&#x40b;" horiz-adv-x="797" 
d="M150 23h78l162 651h-215l-32 -129h-31l38 153h529l-38 -153h-31l32 129h-215l-69 -276h3q32 12 73.5 18.5t83.5 6.5q94 0 138.5 -34.5t44.5 -107.5q0 -17 -3.5 -38.5t-12.5 -56.5l-40 -163h78l-5 -23h-193l5 23h78l41 165q8 33 12 54.5t4 41.5q0 59 -37 86.5t-118 27.5
q-43 0 -85 -7t-73 -18l-87 -350h78l-5 -23h-193z" />
    <glyph glyph-name="uni040C" unicode="&#x40c;" horiz-adv-x="628" 
d="M-2 23h78l162 652h-78l5 23h193l-5 -23h-78l-74 -299h110l185 247q19 26 34 42t28 25t24.5 12t25.5 3q26 0 39.5 -13t13.5 -32q0 -17 -10 -27t-25 -10t-24 9t-9 22q0 19 12 31l-1 4q-9 -2 -17 -6t-18 -12.5t-22.5 -23t-30.5 -38.5l-184 -245q7 -2 11.5 -8t10.5 -20
l133 -313h71l-5 -23h-95l-147 347l-6 5h-110l-82 -329h78l-5 -23h-193zM438 776l122 159l28 -17l-137 -151z" />
    <glyph glyph-name="uni040D" unicode="&#x40d;" horiz-adv-x="726" 
d="M-2 23h78l162 652h-78l5 23h193l-5 -23h-78l-84 -340l-61 -235h2l521 546l7 29h-78l5 23h193l-5 -23h-78l-162 -652h78l-5 -23h-193l5 23h78l85 340l61 235h-2l-522 -546l-7 -29h78l-5 -23h-193zM397 919l32 16l75 -160l-14 -8z" />
    <glyph glyph-name="uni040E" unicode="&#x40e;" horiz-adv-x="608" 
d="M139 -12q-42 0 -66.5 19t-24.5 50q0 18 9 29.5t26 11.5q16 0 24.5 -9t8.5 -23q0 -25 -32 -38v-3q9 -8 21.5 -12.5t30.5 -4.5q19 0 34.5 6t30.5 19.5t30 34.5t34 51l24 38l-119 518h-60l6 23h187l-5 -23h-92l108 -478h2l296 478h-91l5 23h182l-5 -23h-60l-355 -570
q-21 -33 -39 -55.5t-35.5 -36t-35.5 -19.5t-39 -6zM415 786q-41 0 -64 17t-23 44q0 19 11 30t26 11q11 0 19.5 -6.5t8.5 -20.5q0 -15 -10 -24.5t-19 -11.5v-4q6 -8 20.5 -12.5t33.5 -4.5q44 0 78.5 23.5t58.5 77.5l14 -8q-27 -63 -69 -87t-85 -24z" />
    <glyph glyph-name="uni040F" unicode="&#x40f;" horiz-adv-x="706" 
d="M274 0h-281l5 23h78l162 652h-78l5 23h193l-5 -23h-78l-162 -651h365l162 651h-78l5 23h193l-5 -23h-78l-162 -652h78l-6 -23h-280l-40 -160h-33z" />
    <glyph glyph-name="uni0410" unicode="&#x410;" horiz-adv-x="648" 
d="M-40 23h55l399 675h43l62 -675h55l-5 -23h-186l5 23h94l-18 210h-293l-122 -210h94l-5 -23h-183zM185 257h277l-36 407h-3z" />
    <glyph glyph-name="uni0411" unicode="&#x411;" horiz-adv-x="581" 
d="M-2 23h78l162 652h-78l5 23h425l-38 -153h-31l32 129h-278l-71 -284h173q72 0 108 -37.5t36 -95.5q0 -36 -11.5 -81t-38 -84t-70.5 -65.5t-108 -26.5h-300zM293 24q36 0 65.5 11.5t52 32t37.5 47.5t23 59q7 29 10 48.5t3 36.5q0 21 -6 40.5t-19.5 34.5t-34 23.5
t-48.5 8.5h-178l-85 -342h180z" />
    <glyph glyph-name="uni0412" unicode="&#x412;" horiz-adv-x="621" 
d="M-2 23h78l162 652h-78l5 23h285q73 0 109 -33t36 -96q0 -39 -12.5 -72.5t-34.5 -60t-52.5 -44t-67.5 -23.5v-4q58 -8 83 -42.5t25 -89.5q0 -48 -15.5 -90.5t-45 -74t-71.5 -50t-95 -18.5h-316zM113 24h188q69 0 118.5 35.5t65.5 99.5q5 17 9.5 39t4.5 41q0 54 -28 84.5
t-94 30.5h-182zM201 378h169q62 0 109.5 31.5t64.5 85.5q6 17 10 38.5t4 40.5q0 45 -25.5 72.5t-85.5 27.5h-172z" />
    <glyph glyph-name="uni0413" unicode="&#x413;" horiz-adv-x="518" 
d="M-2 23h78l162 652h-78l5 23h425l-38 -153h-31l32 129h-278l-162 -651h98l-5 -23h-213z" />
    <glyph glyph-name="uni0414" unicode="&#x414;" horiz-adv-x="647" 
d="M-34 24h68q73 70 133.5 201.5t113.5 340.5l27 109h-78l5 23h466l-5 -23h-78l-162 -651h94l-46 -184h-33l40 160h-518l-40 -160h-33zM419 24l161 650h-242l-27 -108q-53 -210 -116 -345t-124 -197h348z" />
    <glyph glyph-name="uni0415" unicode="&#x415;" horiz-adv-x="584" 
d="M-2 23h78l162 652h-78l5 23h455l-38 -153h-31l32 129h-308l-74 -296h229l21 85h27l-48 -193h-27l21 84h-228l-83 -330h326l33 131h31l-39 -155h-471z" />
    <glyph glyph-name="uni0416" unicode="&#x416;" horiz-adv-x="917" 
d="M-52 23h76l272 318q11 13 18.5 18t18.5 6l-41 223q-10 54 -25.5 75t-38.5 26l-1 -4q9 -9 9 -25q0 -17 -10 -27t-25 -10q-14 0 -23.5 9t-9.5 22q0 21 14 36t42 15q38 0 60 -25.5t33 -85.5l40 -218h114l74 299h-78l5 23h193l-5 -23h-78l-74 -299h114l164 246
q16 24 29.5 39.5t26.5 25.5t26.5 14t29.5 4q26 0 39 -13t13 -32q0 -17 -10 -27t-24 -10q-15 0 -24.5 9t-9.5 22q0 17 12 31v4q-10 -2 -19 -6.5t-19 -13.5t-22 -23.5t-27 -36.5l-164 -245q5 -2 9.5 -7.5t10.5 -20.5l113 -313h71l-5 -23h-94l-127 347l-5 5h-114l-82 -329h78
l-5 -23h-193l5 23h78l82 329h-114l-7 -5l-297 -347h-104z" />
    <glyph glyph-name="uni0417" unicode="&#x417;" horiz-adv-x="560" 
d="M226 -12q-45 0 -81 11.5t-60.5 29.5t-37.5 39.5t-13 42.5q0 17 10 28t25 11q17 0 25 -8.5t8 -22.5q0 -15 -10 -26t-27 -13l-1 -4q21 -30 61 -46.5t99 -16.5q79 0 134 40.5t72 109.5q3 11 5 26t2 33q0 64 -40.5 92t-103.5 28h-79l6 24h85q31 0 60.5 9t54 26.5t42.5 42
t26 55.5q5 21 7 36.5t2 29.5q0 57 -34 88.5t-105 31.5q-32 0 -61.5 -9.5t-54 -26.5t-42 -42t-24.5 -55l-15 -61h-31l51 207h31l-18 -74h3q27 37 67.5 61.5t100.5 24.5q78 0 123.5 -38.5t45.5 -110.5q0 -80 -46.5 -134t-125.5 -72l-1 -4q24 -4 44.5 -14t36 -27t24.5 -41
t9 -55q0 -47 -18 -88.5t-50.5 -72t-78.5 -48t-102 -17.5z" />
    <glyph glyph-name="uni0418" unicode="&#x418;" horiz-adv-x="726" 
d="M-2 23h78l162 652h-78l5 23h193l-5 -23h-78l-84 -340l-61 -235h2l521 546l7 29h-78l5 23h193l-5 -23h-78l-162 -652h78l-5 -23h-193l5 23h78l85 340l61 235h-2l-522 -546l-7 -29h78l-5 -23h-193z" />
    <glyph glyph-name="uni0419" unicode="&#x419;" horiz-adv-x="726" 
d="M-2 23h78l162 652h-78l5 23h193l-5 -23h-78l-84 -340l-61 -235h2l521 546l7 29h-78l5 23h193l-5 -23h-78l-162 -652h78l-5 -23h-193l5 23h78l85 340l61 235h-2l-522 -546l-7 -29h78l-5 -23h-193zM487 786q-41 0 -64 17t-23 44q0 19 11 30t26 11q11 0 19.5 -6.5t8.5 -20.5
q0 -15 -10 -24.5t-19 -11.5v-4q6 -8 20.5 -12.5t33.5 -4.5q44 0 78.5 23.5t58.5 77.5l14 -8q-27 -63 -69 -87t-85 -24z" />
    <glyph glyph-name="uni041A" unicode="&#x41a;" horiz-adv-x="628" 
d="M-2 23h78l162 652h-78l5 23h193l-5 -23h-78l-74 -299h110l185 247q19 26 34 42t28 25t24.5 12t25.5 3q26 0 39.5 -13t13.5 -32q0 -17 -10 -27t-25 -10t-24 9t-9 22q0 19 12 31l-1 4q-9 -2 -17 -6t-18 -12.5t-22.5 -23t-30.5 -38.5l-184 -245q7 -2 11.5 -8t10.5 -20
l133 -313h71l-5 -23h-95l-147 347l-6 5h-110l-82 -329h78l-5 -23h-193z" />
    <glyph glyph-name="uni041B" unicode="&#x41b;" horiz-adv-x="651" 
d="M38 -12q-37 0 -59 19.5t-22 47.5q0 16 9 27t26 11t25 -9t8 -23q0 -11 -6.5 -21t-22.5 -17v-3q7 -5 16.5 -8t25.5 -3t31.5 6t31.5 22t33 45.5t36.5 80.5t42 127t49.5 185l50 200h-78l5 23h466l-5 -23h-78l-162 -652h78l-5 -23h-193l5 23h78l161 651h-242l-49 -198
q-28 -112 -51 -189.5t-43 -129.5t-39 -83t-38 -50t-40 -27.5t-44 -8.5z" />
    <glyph glyph-name="uni041C" unicode="&#x41c;" horiz-adv-x="811" 
d="M-2 23h78l162 652h-78l5 23h126l116 -421h4l323 421h132l-5 -23h-78l-163 -652h78l-5 -23h-193l5 23h78l159 637h-4l-131 -169l-215 -283l-78 283l-47 167h-4l-158 -635h78l-5 -23h-185z" />
    <glyph glyph-name="uni041D" unicode="&#x41d;" horiz-adv-x="726" 
d="M-2 23h78l162 652h-78l5 23h193l-5 -23h-78l-74 -299h385l74 299h-78l5 23h193l-5 -23h-78l-162 -652h78l-5 -23h-193l5 23h78l82 329h-385l-82 -329h78l-5 -23h-193z" />
    <glyph glyph-name="uni041E" unicode="&#x41e;" horiz-adv-x="679" 
d="M292 13q53 0 98 20.5t81.5 58t63.5 91t43 120.5q10 39 15.5 68t8.5 51t4 37.5t1 27.5q0 96 -45 147t-136 51q-53 0 -98 -20.5t-81.5 -58t-63.5 -91t-43 -120.5q-10 -39 -15.5 -68t-8.5 -51t-4 -37.5t-1 -27.5q0 -96 45 -147t136 -51zM289 -12q-105 0 -160 60t-55 172
q0 48 8.5 103t27 109.5t46.5 104.5t67.5 88.5t90.5 61.5t115 23q105 0 160 -60t55 -172q0 -48 -8.5 -103t-27 -109.5t-46.5 -104.5t-67.5 -88.5t-90.5 -61.5t-115 -23z" />
    <glyph glyph-name="uni041F" unicode="&#x41f;" horiz-adv-x="726" 
d="M-2 23h78l162 652h-78l5 23h615l-5 -23h-78l-162 -652h78l-5 -23h-193l5 23h78l162 651h-385l-162 -651h78l-5 -23h-193z" />
    <glyph glyph-name="uni0420" unicode="&#x420;" horiz-adv-x="572" 
d="M-2 23h78l162 652h-78l5 23h291q74 0 110 -33t36 -96q0 -42 -13.5 -84.5t-41.5 -77t-71 -56t-103 -21.5h-183l-77 -307h98l-5 -23h-213zM196 354h177q66 0 114.5 36.5t64.5 101.5q5 17 9 39.5t4 41.5q0 46 -25.5 73.5t-84.5 27.5h-180z" />
    <glyph glyph-name="uni0421" unicode="&#x421;" horiz-adv-x="600" 
d="M284 -12q-98 0 -154 55t-56 174q0 50 9 106t27 111t46.5 105t67 88t88.5 60.5t112 22.5q59 0 100.5 -22t53.5 -64h3l19 74h31l-51 -205h-31l17 69q3 13 3 23q0 24 -11 42.5t-30.5 31.5t-45.5 19.5t-56 6.5q-53 0 -98.5 -20.5t-81.5 -58t-63 -90.5t-43 -119
q-10 -40 -15.5 -69.5t-8.5 -51t-4 -37t-1 -27.5q0 -197 179 -197q74 0 127 39t90 101l19 -10q-18 -32 -41 -60t-53 -50t-66.5 -34.5t-81.5 -12.5z" />
    <glyph glyph-name="uni0422" unicode="&#x422;" horiz-adv-x="607" 
d="M130 23h98l162 651h-215l-32 -129h-31l38 153h529l-38 -153h-31l32 129h-215l-162 -651h98l-5 -23h-233z" />
    <glyph glyph-name="uni0423" unicode="&#x423;" horiz-adv-x="608" 
d="M139 -12q-42 0 -66.5 19t-24.5 50q0 18 9 29.5t26 11.5q16 0 24.5 -9t8.5 -23q0 -25 -32 -38v-3q9 -8 21.5 -12.5t30.5 -4.5q19 0 34.5 6t30.5 19.5t30 34.5t34 51l24 38l-119 518h-60l6 23h187l-5 -23h-92l108 -478h2l296 478h-91l5 23h182l-5 -23h-60l-355 -570
q-21 -33 -39 -55.5t-35.5 -36t-35.5 -19.5t-39 -6z" />
    <glyph glyph-name="uni0424" unicode="&#x424;" horiz-adv-x="723" 
d="M208 21h78l22 91h-58q-46 0 -85.5 11.5t-68.5 34.5t-45.5 58t-16.5 82q0 42 17 94t56.5 97t104 75.5t160.5 30.5h57l20 82h-78l5 23h193l-5 -23h-78l-20 -82h58q46 0 85.5 -11.5t68.5 -34.5t45.5 -58t16.5 -82q0 -42 -17 -94t-56.5 -97t-104 -75.5t-160.5 -30.5h-57
l-22 -91h78l-5 -23h-193zM423 572h-54q-51 0 -97.5 -13t-84.5 -38.5t-65.5 -63.5t-39.5 -88q-6 -23 -9 -42t-3 -39q0 -70 50 -111.5t133 -41.5h61zM405 135q51 0 97.5 13t84.5 38.5t65.5 63.5t39.5 88q6 23 8.5 42t2.5 39q0 70 -49.5 111.5t-132.5 41.5h-61l-109 -437h54z
" />
    <glyph glyph-name="uni0425" unicode="&#x425;" horiz-adv-x="609" 
d="M-43 23h60l294 333l-122 319h-60l5 23h182l-5 -23h-85l112 -295h3l263 295h-85l5 23h179l-5 -23h-60l-288 -321l126 -331h60l-5 -23h-182l5 23h85l-115 306h-4l-269 -306h85l-5 -23h-179z" />
    <glyph glyph-name="uni0426" unicode="&#x426;" horiz-adv-x="706" 
d="M167 -200q5 33 10 48.5t11 23.5t14 11t16 3q15 0 43 -6.5t86 -17.5q35 -6 60.5 -10t49.5 -4q33 0 56 9t37.5 24t21.5 34t7 40q0 24 -12 34.5t-41 10.5h-533l5 23h78l162 652h-78l5 23h193l-5 -23h-78l-162 -651h365l162 651h-78l5 23h193l-5 -23h-78l-162 -652h13
q42 0 60.5 -16t18.5 -52q0 -24 -8.5 -47t-27.5 -42t-50 -30.5t-75 -11.5q-17 0 -39 2t-51 5.5t-66 10t-85 15.5l-17 -57h-21v0z" />
    <glyph glyph-name="uni0427" unicode="&#x427;" horiz-adv-x="646" 
d="M320 23h98l69 277h-3q-32 -12 -73.5 -18.5t-83.5 -6.5q-94 0 -138.5 34.5t-44.5 107.5q0 17 3.5 38.5t12.5 56.5l40 163h-78l5 23h193l-5 -23h-78l-41 -165q-8 -33 -12 -54.5t-4 -41.5q0 -59 37 -86.5t118 -27.5q43 0 85 7t73 18l87 350h-78l5 23h193l-5 -23h-78
l-162 -652h78l-5 -23h-213z" />
    <glyph glyph-name="uni0428" unicode="&#x428;" horiz-adv-x="938" 
d="M-2 23h78l162 652h-78l5 23h193l-5 -23h-78l-162 -651h280l162 651h-78l5 23h193l-5 -23h-78l-162 -651h280l162 651h-78l5 23h193l-5 -23h-78l-162 -652h78l-5 -23h-827z" />
    <glyph glyph-name="uni0429" unicode="&#x429;" horiz-adv-x="938" 
d="M364 -200q5 33 10 48.5t11 23.5q5 7 12 10.5t19 3.5q16 0 46 -6.5t92 -17.5q37 -6 67 -10t59 -4q37 0 62 9t40.5 24t22 34t6.5 40q0 24 -12 34.5t-41 10.5h-765l5 23h78l162 652h-78l5 23h193l-5 -23h-78l-162 -651h280l162 651h-78l5 23h193l-5 -23h-78l-162 -651h280
l162 651h-78l5 23h193l-5 -23h-78l-162 -652h14q42 0 60 -16t18 -52q0 -24 -8.5 -47t-28 -42t-52 -30.5t-80.5 -11.5q-40 0 -103 8t-165 25l-17 -57h-21v0z" />
    <glyph glyph-name="uni042A" unicode="&#x42a;" horiz-adv-x="704" 
d="M138 23h78l162 651h-203l-32 -129h-31l38 153h348l-5 -23h-78l-71 -285h171q72 0 108 -37.5t36 -95.5q0 -36 -11.5 -81t-38 -84t-70.5 -65.5t-108 -26.5h-298zM431 24q36 0 65.5 11.5t52 32t37.5 47.5t23 59q7 29 10 48.5t3 36.5q0 21 -6 40.5t-19 34.5t-33.5 23.5
t-49.5 8.5h-176l-85 -342h178z" />
    <glyph glyph-name="uni042B" unicode="&#x42b;" horiz-adv-x="833" 
d="M-2 23h78l162 652h-78l5 23h193l-5 -23h-78l-71 -285h164q73 0 109 -37.5t36 -95.5q0 -37 -11.5 -81.5t-38.5 -83.5t-70.5 -65.5t-107.5 -26.5h-292zM527 23h78l162 652h-78l5 23h193l-5 -23h-78l-162 -652h78l-5 -23h-193zM284 24q36 0 65.5 11.5t52 31.5t38 47.5
t23.5 59.5q7 29 10 48.5t3 36.5q0 43 -25.5 75t-83.5 32h-169l-85 -342h171z" />
    <glyph glyph-name="uni042C" unicode="&#x42c;" horiz-adv-x="566" 
d="M-2 23h78l162 652h-78l5 23h193l-5 -23h-78l-71 -285h173q72 0 108 -37.5t36 -95.5q0 -36 -11.5 -81t-38 -84t-70.5 -65.5t-108 -26.5h-300zM293 24q36 0 65.5 11.5t52 32t37.5 47.5t23 59q7 29 10 48.5t3 36.5q0 21 -6 40.5t-19.5 34.5t-34 23.5t-48.5 8.5h-178
l-85 -342h180z" />
    <glyph glyph-name="uni042D" unicode="&#x42d;" horiz-adv-x="624" 
d="M234 -12q-49 0 -86 11.5t-61.5 29.5t-37 39.5t-12.5 42.5q0 17 10 28t25 11q17 0 25 -8.5t8 -22.5q0 -15 -10 -26t-27 -13l-1 -4q22 -29 60.5 -46t104.5 -17q54 0 100 20t83 57.5t63.5 90.5t43.5 120q2 9 5 21l5 20h-314l6 24h314q10 47 12 75t2 47q0 101 -43.5 149
t-125.5 48q-37 0 -70.5 -8.5t-61 -25t-47 -40.5t-27.5 -56l-16 -64h-32l52 207h31l-18 -74h3q29 38 75.5 62t112.5 24q93 0 148.5 -55t55.5 -174q0 -50 -9 -106t-27 -111t-47 -105t-68 -88t-90 -60.5t-114 -22.5z" />
    <glyph glyph-name="uni042E" unicode="&#x42e;" horiz-adv-x="932" 
d="M551 -12q-99 0 -152.5 60t-53.5 172q0 30 3 63.5t10 68.5h-163l-82 -329h78l-5 -23h-193l5 23h78l162 652h-78l5 23h193l-5 -23h-78l-74 -299h163q15 62 42 122t67 107t94 76t123 29q99 0 153 -60t54 -172q0 -48 -8.5 -103t-26.5 -109.5t-46 -104.5t-66.5 -88.5
t-88 -61.5t-110.5 -23zM554 13q50 0 94 20.5t79.5 58t62 91t42.5 120.5q9 39 15 68t9 50.5t4 37t1 28.5q0 96 -44 147t-129 51q-50 0 -94 -20.5t-79.5 -58t-62 -91t-42.5 -120.5q-9 -39 -15 -68t-9 -50.5t-4 -37t-1 -28.5q0 -96 44 -147t129 -51z" />
    <glyph glyph-name="uni042F" unicode="&#x42f;" horiz-adv-x="613" 
d="M-16 23h70l237 281q8 10 16.5 16.5t19.5 8.5v3h-45q-73 1 -108 37t-35 96q0 37 13 78t41 75.5t70.5 57t102.5 22.5h301l-5 -23h-78l-162 -652h78l-5 -23h-193l5 23h78l77 307h-105l-7 -5l-274 -325h-97zM547 674h-180q-36 0 -66.5 -12t-54 -31.5t-39 -46t-21.5 -54.5
q-5 -21 -7.5 -36t-2.5 -31q0 -23 6 -43t19 -34.5t34 -23t50 -8.5h183z" />
    <glyph glyph-name="uni0430" unicode="&#x430;" horiz-adv-x="514" 
d="M139 -12q-27 0 -44.5 10.5t-28 28.5t-15 42.5t-4.5 51.5q0 66 16.5 136.5t49 129t81 96t111.5 37.5q36 0 61 -16t35 -58h5l27 62h19l-122 -485l18 -8l130 114l11 -11l-84 -83q-29 -29 -43.5 -38t-28.5 -9t-24.5 7.5t-10.5 24.5q0 13 5 33l40 157l-5 2q-15 -35 -35 -74.5
t-44.5 -72.5t-54.5 -55t-65 -22zM148 17q18 0 40.5 11t43.5 36q24 27 46 62.5t41 73.5t33.5 74.5t22.5 65.5l5 21q18 68 -1 101t-68 33q-38 0 -70.5 -16.5t-58.5 -46.5t-45.5 -72t-32.5 -93q-11 -43 -15.5 -80t-4.5 -66q0 -22 2.5 -41t9.5 -33t19.5 -22t32.5 -8z" />
    <glyph glyph-name="uni0431" unicode="&#x431;" horiz-adv-x="469" 
d="M180 -12q-71 0 -102 43.5t-31 118.5q0 10 0.5 23.5t3.5 34t8.5 49.5t16.5 70q29 114 65 194t73 118q14 14 28.5 23t33 15t42.5 9.5t57 7.5q26 3 44.5 5.5t31.5 5.5t22 6t15 6l18 43h15q-7 -33 -11.5 -46.5t-13.5 -22.5q-4 -4 -10.5 -8t-20 -8t-35.5 -7.5t-58 -7.5
q-33 -4 -56.5 -7.5t-40 -8t-28.5 -11.5t-22 -18q-15 -15 -29 -36t-29 -52.5t-30.5 -74.5t-31.5 -101l5 -2q29 70 75.5 113.5t103.5 43.5q71 0 102.5 -43.5t31.5 -117.5q0 -63 -18 -126.5t-50.5 -115t-77 -83.5t-97.5 -32zM181 11q36 0 66 18.5t54 49t41.5 71.5t28.5 86
q6 23 9 40.5t5 31t2.5 25t0.5 22.5q0 57 -21 92.5t-78 35.5q-36 0 -66 -18.5t-54 -49t-41.5 -71.5t-28.5 -86q-6 -23 -9 -40.5t-5 -31t-2.5 -25t-0.5 -22.5q0 -57 21 -92.5t78 -35.5z" />
    <glyph glyph-name="uni0432" unicode="&#x432;" horiz-adv-x="441" 
d="M189 -12q-65 0 -103 37.5t-38 110.5q0 36 6.5 78.5t20 85t33.5 82.5t47.5 70.5t62 49t77.5 18.5q51 0 80 -24.5t29 -67.5q0 -54 -38.5 -90t-112.5 -52l-1 -3q64 -2 91.5 -31.5t27.5 -79.5q0 -35 -12.5 -68t-36.5 -58.5t-57.5 -41.5t-75.5 -16zM191 11q51 0 87 30t50 83
q7 29 7 48q0 50 -27 73.5t-97 23.5q-30 0 -111 -9q-6 -30 -11 -63.5t-5 -65.5q0 -33 8.5 -56t22.5 -37.5t33.5 -20.5t42.5 -6zM294 497q-60 0 -110 -52.5t-79 -166.5q67 6 114 17t77.5 25t47 32.5t21.5 39.5q4 19 4 36q0 26 -17 47.5t-58 21.5z" />
    <glyph glyph-name="uni0433" unicode="&#x433;" horiz-adv-x="420" 
d="M145 -12q-54 0 -85 28.5t-31 81.5q0 21 5.5 42t20 41t38.5 38.5t61 36.5l91 43q57 26 82.5 54.5t25.5 66.5q0 37 -23 57t-61 20q-85 0 -152 -101l-15 9q71 115 173 115q53 0 82.5 -28t29.5 -73q0 -28 -10.5 -50t-27.5 -39.5t-40 -31.5t-48 -26l-91 -43q-63 -30 -85 -63
t-22 -69q0 -45 24.5 -65.5t62.5 -20.5q96 0 167 109l15 -9q-76 -123 -187 -123z" />
    <glyph glyph-name="uni0434" unicode="&#x434;" horiz-adv-x="479" 
d="M180 -12q-71 0 -102 44.5t-31 117.5q0 63 17.5 126.5t49 114.5t75 83t95.5 32q54 0 83 -31.5t31 -90.5h5q5 39 10 91.5t5 114.5q0 78 -26.5 113t-71.5 35q-38 0 -71 -23t-65 -75l-15 9q35 59 71 85t82 26q30 0 54 -9.5t41 -31.5t26 -58t9 -89q0 -80 -10 -160t-28.5 -150
t-44.5 -126t-57 -87q-32 -32 -65 -46.5t-67 -14.5zM180 11q36 0 65.5 18.5t53 50t40.5 72.5t28 85q11 46 14.5 70t3.5 46q0 57 -21 93.5t-77 36.5q-36 0 -65.5 -18.5t-53 -49.5t-40.5 -72t-28 -85q-11 -46 -14.5 -70.5t-3.5 -46.5q0 -57 21 -93.5t77 -36.5z" />
    <glyph glyph-name="uni0435" unicode="&#x435;" horiz-adv-x="429" 
d="M157 -12q-58 0 -84 35.5t-26 108.5q0 35 6 78t19 86t32.5 83.5t47 71.5t63 50t79.5 19q20 0 39 -4.5t34 -15.5t24.5 -28.5t9.5 -44.5q0 -33 -16.5 -60t-52.5 -48t-93 -35.5t-138 -21.5q-7 -31 -12 -64.5t-5 -68.5q0 -23 3.5 -43.5t12.5 -36t24.5 -25t39.5 -9.5
q48 0 96.5 39t88.5 114l16 -8q-24 -47 -49 -80t-51 -53.5t-53 -29.5t-55 -9zM105 278q62 7 110.5 18t82.5 28.5t51.5 42t17.5 57.5q0 28 -16 51t-59 23q-59 0 -110 -53.5t-77 -166.5z" />
    <glyph glyph-name="uni0436" unicode="&#x436;" horiz-adv-x="754" 
d="M54 -12q-28 0 -45 12.5t-17 33.5q0 14 9 24t24 10q14 0 22 -8.5t8 -20.5q0 -11 -6 -19.5t-14 -12.5v-3h13q46 0 89.5 58.5t72.5 173.5q10 38 18 86t8 90q0 49 -13 66.5t-32 17.5q-21 0 -42.5 -21.5t-48.5 -75.5l-17 7q31 64 57.5 89t55.5 25q32 0 52 -23.5t20 -89.5
q0 -31 -5 -67.5t-11 -66.5h111l59 235h35l-59 -235h109q13 53 32.5 98t43.5 78t52 52t59 19q28 0 44 -12.5t16 -33.5q0 -14 -9 -24t-24 -10q-14 0 -22 8.5t-8 20.5q0 11 6 19.5t14 12.5v3h-11q-44 0 -87.5 -58.5t-72.5 -173.5q-9 -38 -17 -86t-8 -90q0 -48 13 -66t36 -18
t45 21.5t50 75.5l16 -7q-30 -64 -57 -89t-59 -25q-35 0 -55.5 24.5t-20.5 89.5q0 32 5 73t13 75h-109l-62 -250h-35l62 250h-110q-14 -58 -33.5 -106t-44.5 -82.5t-54 -54t-61 -19.5z" />
    <glyph glyph-name="uni0437" unicode="&#x437;" horiz-adv-x="394" 
d="M130 -12q-61 0 -91.5 24t-30.5 56q0 19 10 29t24 10t22.5 -9t8.5 -21q0 -16 -11.5 -25t-27.5 -11v-4q11 -11 32.5 -18.5t60.5 -7.5q57 0 97 26t51 74q3 13 5 26t2 26q0 48 -29 67.5t-78 19.5h-53l6 23h52q24 0 47 8t41.5 21.5t32 31.5t19.5 38q7 24 7 50q0 38 -21 56.5
t-59 18.5q-37 0 -74 -22.5t-74 -75.5l-16 9q38 60 81.5 86t88.5 26q57 0 83.5 -27.5t26.5 -68.5q0 -60 -37 -102.5t-98 -56.5l-1 -3q45 -6 68.5 -32.5t23.5 -68.5q0 -37 -13 -68.5t-38 -55t-60 -36.5t-78 -13z" />
    <glyph glyph-name="uni0438" unicode="&#x438;" horiz-adv-x="537" 
d="M128 -12q-36 0 -51 18t-15 45q0 17 6 40l105 391h-86l4 17l126 17l-115 -430q-5 -18 -5 -30q0 -39 41 -39q47 0 103 53q24 23 48 55t46 68.5t39 75t26 74.5l41 165h35l-122 -485l18 -8l130 114l11 -11l-84 -83q-29 -29 -44 -38t-28 -9q-14 0 -24.5 7.5t-10.5 24.5
q0 6 2 16t4 19l42 165l-6 1q-17 -34 -41 -74.5t-54 -76t-65.5 -59t-75.5 -23.5z" />
    <glyph glyph-name="uni0439" unicode="&#x439;" horiz-adv-x="537" 
d="M128 -12q-36 0 -51 18t-15 45q0 17 6 40l105 391h-86l4 17l126 17l-115 -430q-5 -18 -5 -30q0 -39 41 -39q47 0 103 53q24 23 48 55t46 68.5t39 75t26 74.5l41 165h35l-122 -485l18 -8l130 114l11 -11l-84 -83q-29 -29 -44 -38t-28 -9q-14 0 -24.5 7.5t-10.5 24.5
q0 6 2 16t4 19l42 165l-6 1q-17 -34 -41 -74.5t-54 -76t-65.5 -59t-75.5 -23.5zM339 608q-41 0 -64 17t-23 44q0 19 11 30t26 11q11 0 19.5 -6.5t8.5 -20.5q0 -15 -10 -24.5t-19 -11.5v-4q6 -8 20.5 -12.5t33.5 -4.5q44 0 78.5 23.5t58.5 77.5l14 -8q-27 -63 -69 -87
t-85 -24z" />
    <glyph glyph-name="uni043A" unicode="&#x43a;" horiz-adv-x="526" 
d="M331 -12q-11 0 -19.5 6t-12.5 21l-52 230l-6 5h-91l-62 -250h-35l120 482h-86l3 17l127 17l-61 -243h55q14 0 26.5 4t26.5 16.5t30.5 34.5t37.5 58q25 42 43.5 68t33 40t27.5 19t29 5q20 0 33.5 -12t13.5 -32q0 -17 -9.5 -27t-24.5 -10q-14 0 -22.5 9t-8.5 20
q0 12 5.5 19.5t12.5 11.5l-1 4q-13 -2 -23.5 -7t-23 -18.5t-28 -37t-38.5 -61.5q-20 -33 -34 -53t-24.5 -31t-19.5 -16t-19 -8v-3q13 -3 20 -12.5t13 -35.5l45 -197h19l118 103l10 -10l-72 -73q-26 -26 -42.5 -39.5t-33.5 -13.5z" />
    <glyph glyph-name="uni043B" unicode="&#x43b;" horiz-adv-x="545" 
d="M33 -12q-26 0 -42.5 13t-16.5 34q0 15 9 25.5t25 10.5q15 0 23 -9t8 -22q0 -22 -20 -31l2 -3h9q17 0 29 5.5t24 17.5q13 13 25.5 33.5t27 57t31.5 93.5t39 143l32 129h-70l5 23h310l-121 -485l18 -8l130 114l11 -11l-84 -83q-29 -29 -44 -38t-29 -9q-12 0 -23 7.5
t-11 24.5q0 14 5 34l107 431h-177l-32 -127q-22 -87 -39.5 -145t-32.5 -96.5t-29.5 -61.5t-30.5 -39q-15 -16 -32.5 -22t-35.5 -6z" />
    <glyph glyph-name="uni043C" unicode="&#x43c;" horiz-adv-x="721" 
d="M34 -12q-26 0 -42.5 13t-16.5 34q0 15 9 25.5t25 10.5q15 0 23 -9t8 -22q0 -22 -20 -31l2 -3h9q17 0 29 5.5t24 17.5q10 10 20 27t21 45t24 69.5t28 101.5l53 213h-70l5 23h117l68 -362h4l257 362h48l-121 -485l18 -8l130 114l11 -11l-84 -83q-29 -29 -44 -38t-28 -9
t-24 7.5t-11 24.5q0 14 5 34l103 412h-4l-87 -123l-193 -275l-50 275l-23 123h-5l-48 -191q-15 -62 -28.5 -105t-25.5 -73t-23.5 -49t-24.5 -32q-16 -16 -33 -22t-35 -6z" />
    <glyph glyph-name="uni043D" unicode="&#x43d;" horiz-adv-x="543" 
d="M363 -12q-14 0 -24.5 7.5t-10.5 25.5q0 6 2 15l4 18l47 196h-231l-62 -250h-35l120 482h-86l4 17l126 17l-61 -243h232l58 235h35l-121 -485l18 -8l130 114l11 -11l-84 -83q-29 -29 -44 -38t-28 -9z" />
    <glyph glyph-name="uni043E" unicode="&#x43e;" horiz-adv-x="469" 
d="M180 11q36 0 66 19t53.5 50.5t40.5 73t28 87.5q6 25 9.5 43t6 32t3 25.5t0.5 22.5q0 30 -5 54.5t-16 42t-30 27t-47 9.5q-36 0 -66 -19t-53.5 -50.5t-40.5 -73t-28 -87.5q-12 -50 -15.5 -75.5t-3.5 -47.5q0 -30 5 -54.5t16 -42t30 -27t47 -9.5zM179 -12q-71 0 -101.5 45
t-30.5 120q0 66 18 131.5t50 118t77 85t98 32.5q71 0 101.5 -45t30.5 -120q0 -66 -18 -131.5t-50.5 -118t-77 -85t-97.5 -32.5z" />
    <glyph glyph-name="uni043F" unicode="&#x43f;" horiz-adv-x="542" 
d="M359 -12q-14 0 -24.5 7.5t-10.5 24.5q0 13 5 33l98 369q5 20 5 30q0 39 -41 39q-48 0 -103 -53q-24 -23 -48.5 -55t-46 -68.5t-38.5 -75t-26 -74.5l-41 -165h-35l120 482h-86l4 17l126 17l-58 -228l6 -1q17 34 41 74.5t54 76t65 59t76 23.5q36 0 51 -17.5t15 -45.5
q0 -18 -6 -40l-105 -394l18 -8l130 114l11 -11l-84 -83q-29 -29 -43.5 -38t-28.5 -9z" />
    <glyph glyph-name="uni0440" unicode="&#x440;" horiz-adv-x="506" 
d="M-64 -177h72l165 659h-86l4 17l126 17l-56 -218l6 -2q15 35 34.5 74.5t44.5 72.5t54.5 55t65.5 22q27 0 44.5 -10.5t28 -28.5t15 -42.5t4.5 -51.5q0 -66 -16.5 -136.5t-49.5 -129t-81 -96t-111 -37.5q-35 0 -60 15t-34 56h-5l-58 -236h98l-6 -23h-205zM194 13
q38 0 70.5 16.5t58.5 46.5t45.5 72t32.5 93q11 43 15.5 80t4.5 66q0 22 -2.5 41t-9.5 33t-19.5 22t-32.5 8q-18 0 -40.5 -11t-43.5 -36q-24 -27 -46 -62.5t-41 -73.5t-33.5 -74.5t-22.5 -65.5l-5 -21q-18 -68 1 -101t68 -33z" />
    <glyph glyph-name="uni0441" unicode="&#x441;" horiz-adv-x="402" 
d="M156 -12q-57 0 -83 35t-26 107q0 36 6 79t18 86t31 84t45.5 72t60.5 50t77 19q48 0 76.5 -23t28.5 -55q0 -18 -10 -29t-26 -11q-14 0 -22 8.5t-8 21.5q0 14 10.5 25t30.5 13v4q-11 11 -30.5 17.5t-48.5 6.5q-57 0 -107.5 -55.5t-76.5 -174.5q-2 -8 -5 -22.5t-6 -33.5
t-5 -40.5t-2 -43.5t3.5 -42.5t12 -36t24 -25t39.5 -9.5q46 0 90 40t83 113l16 -8q-47 -93 -95 -132.5t-101 -39.5z" />
    <glyph glyph-name="uni0442" unicode="&#x442;" horiz-adv-x="810" 
d="M627 -12q-14 0 -24.5 7.5t-10.5 24.5q0 13 5 33l98 369q5 20 5 30q0 39 -41 39q-48 0 -103 -53q-24 -23 -48.5 -55t-46 -68.5t-38.5 -75t-26 -74.5l-41 -165h-35l105 420q5 20 5 32q0 39 -40 39q-47 0 -103 -53q-24 -23 -48.5 -55t-46 -68.5t-38.5 -75t-26 -74.5
l-41 -165h-35l120 482h-86l4 17l126 17l-58 -228l6 -1q16 33 40 73.5t54 76t65.5 59.5t76.5 24q35 0 49.5 -18.5t14.5 -47.5q0 -20 -6 -41l-32 -125l6 -1q16 32 40 72.5t54 76t65.5 60t76.5 24.5q36 0 51 -17.5t15 -45.5q0 -18 -6 -40l-105 -394l18 -8l130 114l11 -11
l-84 -83q-29 -29 -43.5 -38t-28.5 -9z" />
    <glyph glyph-name="uni0443" unicode="&#x443;" horiz-adv-x="442" 
d="M-51 -212q-28 0 -44.5 12.5t-16.5 32.5q0 15 9 25.5t25 10.5t24 -8.5t8 -22.5q0 -21 -21 -31l2 -3h8q49 0 86 30.5t72 92.5l35 62l-42 496h-45l6 23h150l-6 -23h-70l35 -447h6l253 447h-70l6 23h144l-6 -23h-45l-332 -572q-38 -66 -79 -95.5t-92 -29.5z" />
    <glyph glyph-name="uni0444" unicode="&#x444;" horiz-adv-x="684" 
d="M138 -212q-29 0 -45.5 12.5t-16.5 32.5q0 14 9 24t23 10q15 0 23 -9t8 -20q0 -9 -5.5 -18t-15.5 -14l1 -3h12q45 0 71.5 31.5t40.5 90.5l45 183l-5 2q-33 -69 -71.5 -95.5t-73.5 -26.5q-50 0 -69.5 36t-19.5 91q0 70 17 142.5t48.5 130.5t75.5 95t98 37q33 0 55 -17.5
t27 -52.5h4l40 160q17 65 51 100t88 35q29 0 45.5 -12.5t16.5 -32.5q0 -14 -9 -24t-23 -10q-15 0 -23 9t-8 20q0 9 5.5 18t15.5 14l-1 3h-12q-45 0 -71 -31.5t-41 -90.5l-52 -208l5 -2q33 69 71.5 95.5t73.5 26.5q50 0 69.5 -36t19.5 -91q0 -71 -17 -143t-48.5 -130
t-75.5 -95t-98 -37q-33 0 -55 17.5t-27 52.5h-4l-33 -135q-16 -65 -50.5 -100t-88.5 -35zM146 15q34 0 63 22.5t52.5 61t42 88.5t31.5 104l18 74q15 62 1 97t-61 35q-32 0 -60.5 -16.5t-52.5 -47t-43 -73t-32 -93.5q-11 -42 -16 -81.5t-5 -69.5q0 -49 13 -75t49 -26zM391 11
q32 0 60.5 16.5t52.5 47t43 73t32 93.5q11 42 16 81.5t5 69.5q0 49 -13 75t-49 26q-34 0 -63 -22.5t-52.5 -61t-42 -88.5t-31.5 -104l-18 -74q-15 -62 -1 -97t61 -35z" />
    <glyph glyph-name="uni0445" unicode="&#x445;" horiz-adv-x="531" 
d="M40 -12q-27 0 -43 12t-16 32q0 17 10 27t24 10t22.5 -9t8.5 -20q0 -12 -6 -20.5t-14 -11.5l1 -3h10q45 1 99 59t114 188l-48 235h-19l-120 -103l-10 10l81 79q14 14 24 23t17.5 14.5t14 7.5t12.5 2q12 0 21 -6t12 -20l38 -208h5q8 17 18.5 38.5t23 44t27.5 45t32 41.5
q25 29 52.5 47t59.5 18q27 0 43 -12t16 -32q0 -17 -10 -27t-24 -10t-22.5 9t-8.5 20q0 12 6 20.5t14 11.5l-1 3h-10q-45 -2 -99 -59.5t-114 -187.5l48 -235h19l120 103l10 -10l-81 -79q-14 -14 -24 -23.5t-17.5 -14.5t-14 -7t-12.5 -2q-12 0 -21 6t-12 20l-38 208h-5
q-8 -17 -18.5 -38.5t-23 -44t-27.5 -45t-32 -41.5q-25 -29 -52.5 -47t-59.5 -18z" />
    <glyph glyph-name="uni0446" unicode="&#x446;" horiz-adv-x="537" 
d="M252 -181h-9.5t-9.5 1v12h11q21 0 36.5 5.5t28.5 16t24.5 25.5t24.5 34l100 144l-3 3l-31 -29q-24 -23 -38.5 -33t-28.5 -10t-24.5 7.5t-10.5 24.5q0 6 2 16t4 19l42 165l-6 1q-17 -34 -41 -74.5t-54 -76t-65.5 -59t-75.5 -23.5q-36 0 -51 18t-15 45q0 17 6 40l105 391
h-86l4 17l126 17l-115 -430q-5 -18 -5 -30q0 -39 41 -39q47 0 103 53q24 23 48 55t46 68.5t39 75t26 74.5l41 165h35l-122 -485l18 -8l130 114l11 -11q-23 -24 -38 -51.5t-35 -65.5q-29 -56 -50 -90t-39 -52q-21 -20 -44 -30t-55 -10z" />
    <glyph glyph-name="uni0447" unicode="&#x447;" horiz-adv-x="493" 
d="M313 -12q-13 0 -24 7.5t-11 25.5q0 6 2 15l4 18l68 274l-6 1q-76 -132 -168 -132q-47 0 -67 26t-20 60q0 14 3 30t8 36l36 133h-86l4 17l126 17l-46 -170q-6 -21 -8 -33.5t-2 -23.5q0 -26 12.5 -44.5t47.5 -18.5q34 0 64.5 18t56 47.5t44 67t28.5 76.5l18 73h35
l-122 -485l18 -8l130 114l11 -11l-84 -83q-14 -14 -24.5 -23.5t-19 -14.5t-15 -7t-13.5 -2z" />
    <glyph glyph-name="uni0448" unicode="&#x448;" horiz-adv-x="805" 
d="M128 -12q-36 0 -51 18t-15 45q0 17 6 40l105 391h-86l4 17l126 17l-115 -430q-5 -18 -5 -30q0 -39 41 -39q47 0 103 53q24 23 48 55t46 68.5t39 75t26 74.5l41 165h35l-106 -420q-4 -16 -4 -31q0 -40 40 -40q48 0 103 53q24 23 48.5 55t46 68.5t38.5 75t26 74.5l41 165
h35l-122 -485l18 -8l130 114l11 -11l-84 -83q-29 -29 -44 -38t-28 -9q-14 0 -24.5 7.5t-10.5 24.5q0 6 2 16t4 19l42 165l-6 1q-17 -34 -41 -74.5t-54 -76t-65.5 -59t-75.5 -23.5q-35 0 -49.5 18.5t-14.5 47.5q0 20 6 41l32 125l-6 1q-16 -33 -40 -73.5t-54 -76t-66 -59.5
t-76 -24z" />
    <glyph glyph-name="uni0449" unicode="&#x449;" horiz-adv-x="805" 
d="M520 -181h-9.5t-9.5 1v12h11q21 0 36.5 5.5t28.5 16t24.5 25.5t24.5 34l100 144l-3 3l-31 -29q-24 -23 -38.5 -33t-28.5 -10t-24.5 7.5t-10.5 24.5q0 6 2 16t4 19l42 165l-6 1q-17 -34 -41 -74.5t-54 -76t-65.5 -59t-75.5 -23.5q-35 0 -49.5 18.5t-14.5 47.5q0 20 6 41
l32 125l-6 1q-16 -33 -40 -73.5t-54 -76t-66 -59.5t-76 -24q-36 0 -51 18t-15 45q0 17 6 40l105 391h-86l4 17l126 17l-115 -430q-5 -18 -5 -30q0 -39 41 -39q47 0 103 53q24 23 48 55t46 68.5t39 75t26 74.5l41 165h35l-106 -420q-4 -16 -4 -31q0 -40 40 -40q48 0 103 53
q24 23 48.5 55t46 68.5t38.5 75t26 74.5l41 165h35l-122 -485l18 -8l130 114l11 -11q-23 -24 -38 -51.5t-35 -65.5q-29 -56 -50 -90t-39 -52q-21 -20 -44 -30t-55 -10z" />
    <glyph glyph-name="uni044A" unicode="&#x44a;" horiz-adv-x="538" 
d="M273 -12q-23 0 -45.5 6t-40 19.5t-28 36.5t-10.5 57q0 33 9 73.5t29.5 85.5t53 92.5t79.5 95.5l-185 36l-16 -8l-41 -136l-15 3l31 133q5 20 15.5 29t30.5 9t69.5 -12t122.5 -35l8 35h25l-7 -29q-2 -9 -5.5 -15t-11.5 -14q-34 -34 -67.5 -85t-58.5 -109l5 -1
q29 38 61.5 55.5t71.5 17.5q51 0 82 -30.5t31 -84.5q0 -35 -11.5 -74.5t-35.5 -73t-60.5 -55.5t-85.5 -22zM275 11q18 0 39 5t41.5 20t38 41.5t27.5 69.5q5 20 7 36.5t2 30.5q0 42 -23.5 66t-63.5 24q-20 0 -42.5 -6.5t-43.5 -22t-38 -41t-26 -63.5q-5 -19 -6.5 -35
t-1.5 -29q0 -51 24 -73.5t66 -22.5z" />
    <glyph glyph-name="uni044B" unicode="&#x44b;" horiz-adv-x="661" 
d="M192 -12q-22 0 -43.5 6t-38.5 19.5t-27.5 36.5t-10.5 57q0 36 13 85l78 290h-86l4 17l127 17l-71 -260l5 -1q29 38 61.5 55.5t69.5 17.5q49 0 79.5 -30.5t30.5 -84.5q0 -35 -11.5 -74.5t-35.5 -73t-60 -55.5t-84 -22zM479 -12q-12 0 -22.5 7.5t-10.5 25.5q0 11 5 31
l113 456h35l-121 -485l18 -8l130 114l11 -11l-84 -83q-14 -14 -25 -23.5t-19.5 -14.5t-15.5 -7t-14 -2zM193 11q18 0 40 6.5t42 22t37 41t26 63.5q5 19 7 35t2 29q0 51 -23 73.5t-63 22.5q-18 0 -40 -6.5t-42 -22t-37 -41t-26 -63.5q-5 -19 -7 -35t-2 -29q0 -51 23 -73.5
t63 -22.5z" />
    <glyph glyph-name="uni044C" unicode="&#x44c;" horiz-adv-x="461" 
d="M195 -12q-23 0 -45 6t-39.5 19.5t-28 36.5t-10.5 57q0 36 13 85l78 290h-86l4 17l127 17l-71 -260l5 -1q29 38 62 55.5t72 17.5q51 0 82 -30.5t31 -84.5q0 -35 -12 -74.5t-36 -73t-60.5 -55.5t-85.5 -22zM198 11q18 0 39 5t41.5 20t38 41.5t27.5 69.5q5 20 7 36.5t2 30.5
q0 42 -23.5 66t-63.5 24q-20 0 -42.5 -6.5t-43.5 -22t-38 -41t-26 -63.5q-5 -19 -6.5 -35t-1.5 -29q0 -51 24 -73.5t66 -22.5z" />
    <glyph glyph-name="uni044D" unicode="&#x44d;" horiz-adv-x="409" 
d="M120 -12q-54 0 -83 24t-29 55q0 19 10 29t24 10t22.5 -8.5t8.5 -21.5q0 -15 -11.5 -24.5t-27.5 -11.5v-4q11 -11 30.5 -18.5t53.5 -7.5q60 0 111 54.5t77 173.5l3 12h-190l6 23h189q5 19 8 48t3 62q0 22 -3.5 42.5t-12 36.5t-24 25.5t-39.5 9.5q-38 0 -74.5 -25
t-73.5 -84l-16 9q38 66 80.5 94.5t90.5 28.5q57 0 83 -35t26 -107q0 -36 -6 -79t-18.5 -86t-31.5 -84t-46 -72t-62 -50t-78 -19z" />
    <glyph glyph-name="uni044E" unicode="&#x44e;" horiz-adv-x="684" 
d="M399 -12q-69 0 -99 45t-30 120q0 24 2.5 48.5t7.5 48.5h-130l-62 -250h-35l120 482h-86l4 17l126 17l-61 -243h129q12 50 33.5 95t50 78.5t64 53.5t75.5 20q68 0 98.5 -45t30.5 -120q0 -66 -18 -131.5t-49.5 -118t-75 -85t-95.5 -32.5zM399 11q35 0 64 19t52 50.5t40 73
t28 87.5q6 25 9.5 43t6 32t3 25.5t0.5 22.5q0 59 -20.5 96t-73.5 37q-35 0 -64 -19t-52 -50.5t-40 -73t-28 -87.5q-6 -25 -10 -43t-6 -32t-2.5 -25.5t-0.5 -22.5q-1 -60 19.5 -96.5t74.5 -36.5z" />
    <glyph glyph-name="uni044F" unicode="&#x44f;" horiz-adv-x="498" 
d="M59 -12q-16 0 -25.5 11t-15.5 37l-18 81l14 6l34 -103h17l116 166q18 27 28.5 35.5t22.5 10.5v4q-26 3 -48 12t-39 24.5t-26.5 37t-9.5 47.5t9.5 55t32 53t60.5 39.5t95 15.5q21 0 57.5 -2.5t71.5 -10.5l-121 -484l18 -8l130 114l11 -11l-84 -83q-29 -29 -44 -38t-29 -9
q-13 0 -23.5 7.5t-10.5 25.5q0 11 5 31l43 174h-83l-148 -213q-10 -15 -18.5 -20t-21.5 -5zM395 489q-23 5 -49.5 6.5t-42.5 1.5q-66 0 -104.5 -26t-47.5 -68q-3 -14 -4.5 -24t-1.5 -23q0 -45 31.5 -76.5t92.5 -31.5h66z" />
    <glyph glyph-name="uni0450" unicode="&#x450;" horiz-adv-x="429" 
d="M157 -12q-58 0 -84 35.5t-26 108.5q0 35 6 78t19 86t32.5 83.5t47 71.5t63 50t79.5 19q20 0 39 -4.5t34 -15.5t24.5 -28.5t9.5 -44.5q0 -33 -16.5 -60t-52.5 -48t-93 -35.5t-138 -21.5q-7 -31 -12 -64.5t-5 -68.5q0 -23 3.5 -43.5t12.5 -36t24.5 -25t39.5 -9.5
q48 0 96.5 39t88.5 114l16 -8q-24 -47 -49 -80t-51 -53.5t-53 -29.5t-55 -9zM105 278q62 7 110.5 18t82.5 28.5t51.5 42t17.5 57.5q0 28 -16 51t-59 23q-59 0 -110 -53.5t-77 -166.5zM217 739l32 16l75 -160l-14 -8z" />
    <glyph glyph-name="uni0451" unicode="&#x451;" horiz-adv-x="429" 
d="M157 -12q-58 0 -84 35.5t-26 108.5q0 35 6 78t19 86t32.5 83.5t47 71.5t63 50t79.5 19q20 0 39 -4.5t34 -15.5t24.5 -28.5t9.5 -44.5q0 -33 -16.5 -60t-52.5 -48t-93 -35.5t-138 -21.5q-7 -31 -12 -64.5t-5 -68.5q0 -23 3.5 -43.5t12.5 -36t24.5 -25t39.5 -9.5
q48 0 96.5 39t88.5 114l16 -8q-24 -47 -49 -80t-51 -53.5t-53 -29.5t-55 -9zM105 278q62 7 110.5 18t82.5 28.5t51.5 42t17.5 57.5q0 28 -16 51t-59 23q-59 0 -110 -53.5t-77 -166.5zM232 637q-14 0 -20 7.5t-6 17.5q0 4 0.5 7.5t2.5 8.5q4 8 11 13.5t19 5.5q14 0 20 -7.5
t6 -17.5q0 -4 -0.5 -7.5t-2.5 -8.5q-4 -8 -11 -13.5t-19 -5.5zM413 637q-14 0 -20 7.5t-6 17.5q0 4 0.5 7.5t2.5 8.5q4 8 11 13.5t19 5.5q14 0 20 -7.5t6 -17.5q0 -4 -0.5 -7.5t-2.5 -8.5q-4 -8 -11 -13.5t-19 -5.5z" />
    <glyph glyph-name="uni0452" unicode="&#x452;" horiz-adv-x="506" 
d="M182 -212q-29 0 -45.5 12.5t-16.5 32.5q0 14 9 24t23 10q15 0 23 -9t8 -20q0 -9 -5.5 -18t-14.5 -14l1 -4h11q43 0 67 31t40 91l131 498q5 17 5 30q0 39 -41 39q-48 0 -103 -53q-24 -23 -48.5 -55t-46 -68.5t-38.5 -75t-26 -74.5l-41 -165h-35l157 628h-81l6 23h81l25 98
l36 6l-26 -104h175l-5 -23h-176l-86 -340l6 -1q17 34 41 74.5t54 76t65 59t76 23.5q36 0 51 -17.5t15 -45.5q0 -19 -6 -40l-130 -495q-17 -65 -50 -99.5t-85 -34.5z" />
    <glyph glyph-name="uni0453" unicode="&#x453;" horiz-adv-x="420" 
d="M145 -12q-54 0 -85 28.5t-31 81.5q0 21 5.5 42t20 41t38.5 38.5t61 36.5l91 43q57 26 82.5 54.5t25.5 66.5q0 37 -23 57t-61 20q-85 0 -152 -101l-15 9q71 115 173 115q53 0 82.5 -28t29.5 -73q0 -28 -10.5 -50t-27.5 -39.5t-40 -31.5t-48 -26l-91 -43q-63 -30 -85 -63
t-22 -69q0 -45 24.5 -65.5t62.5 -20.5q96 0 167 109l15 -9q-76 -123 -187 -123zM282 596l122 159l28 -17l-137 -151z" />
    <glyph glyph-name="uni0454" unicode="&#x454;" horiz-adv-x="408" 
d="M157 -12q-110 0 -110 142q0 36 6 79t18 86t31 84t45.5 72t60.5 50t77 19q50 0 78 -23t28 -55q0 -18 -10 -28t-24 -10t-22.5 8.5t-8.5 20.5q0 16 11 25t28 11v5q-11 11 -30.5 17.5t-48.5 6.5q-36 0 -66 -19.5t-53 -51.5t-39 -72.5t-25 -83.5h190l-5 -24h-190
q-5 -20 -9.5 -53t-4.5 -69q0 -22 3 -42.5t12 -36t24.5 -24.5t39.5 -9q43 0 77.5 24.5t72.5 81.5l16 -8q-41 -68 -81.5 -95.5t-90.5 -27.5z" />
    <glyph glyph-name="uni0455" unicode="&#x455;" horiz-adv-x="353" 
d="M95 -12q-42 0 -64 13.5t-22 36.5q0 14 9 23.5t24 9.5q14 0 22 -8t8 -21q0 -10 -6 -18t-14 -13l1 -4q5 -2 13 -3t17 -1q22 0 48.5 5.5t49.5 19t38 37t15 58.5q0 18 -3.5 32.5t-12 29t-22.5 30t-34 36.5q-31 31 -48 58t-17 66q0 35 13 62t35.5 45.5t52.5 28t64 9.5
q41 0 63 -13.5t22 -36.5q0 -14 -9 -23.5t-24 -9.5q-14 0 -22 8.5t-8 20.5q0 10 6 18.5t14 13.5l-1 4q-9 3 -27 3q-23 0 -48.5 -5.5t-47 -19t-35.5 -37t-14 -58.5q0 -18 3.5 -32.5t12 -28.5t22 -30t34.5 -37q32 -33 48.5 -60t16.5 -64q0 -35 -14 -61.5t-37.5 -45.5t-55 -28.5
t-66.5 -9.5z" />
    <glyph glyph-name="uni0456" unicode="&#x456;" horiz-adv-x="278" 
d="M97 -12q-14 0 -24.5 7.5t-10.5 24.5q0 13 5 33l106 429h-86l4 17l126 17l-123 -493l18 -8l130 114l11 -11l-84 -83q-29 -29 -43.5 -38t-28.5 -9zM238 662q-14 0 -21 8t-7 18t4 18t12 13.5t20 5.5q14 0 21 -8t7 -18t-4 -18t-12 -13.5t-20 -5.5z" />
    <glyph glyph-name="uni0457" unicode="&#x457;" horiz-adv-x="278" 
d="M97 -12q-14 0 -24.5 7.5t-10.5 24.5q0 13 5 33l106 429h-86l4 17l126 17l-123 -493l18 -8l130 114l11 -11l-84 -83q-29 -29 -43.5 -38t-28.5 -9zM130 637q-14 0 -20 7.5t-6 17.5q0 4 0.5 7.5t2.5 8.5q4 8 11 13.5t19 5.5q14 0 20 -7.5t6 -17.5q0 -4 -0.5 -7.5t-2.5 -8.5
q-4 -8 -11 -13.5t-19 -5.5zM311 637q-14 0 -20 7.5t-6 17.5q0 4 0.5 7.5t2.5 8.5q4 8 11 13.5t19 5.5q14 0 20 -7.5t6 -17.5q0 -4 -0.5 -7.5t-2.5 -8.5q-4 -8 -11 -13.5t-19 -5.5z" />
    <glyph glyph-name="uni0458" unicode="&#x458;" horiz-adv-x="252" 
d="M-66 -212q-30 0 -46.5 12.5t-16.5 32.5q0 14 9.5 24t23.5 10t22 -9t8 -20q0 -9 -5.5 -18t-14.5 -14l1 -4h11q43 0 68 32t39 91l139 557h-86l4 17l126 17l-148 -594q-16 -63 -49.5 -98.5t-84.5 -35.5zM237 662q-14 0 -21 8t-7 18t4 18t12 13.5t20 5.5q14 0 21 -8t7 -18
t-4 -18t-12 -13.5t-20 -5.5z" />
    <glyph glyph-name="uni0459" unicode="&#x459;" horiz-adv-x="726" 
d="M33 -12q-26 0 -42.5 13t-16.5 34q0 15 9 25.5t25 10.5q15 0 23 -9t8 -22q0 -22 -20 -31l2 -3h9q17 0 29 5.5t24 17.5q13 13 25.5 33.5t27 57t31.5 93.5t39 143l32 129h-70l5 23h296l-63 -252l6 -1q29 38 61 55.5t69 17.5q50 0 81 -30.5t31 -84.5q0 -35 -12 -74.5t-36 -73
t-60.5 -55.5t-84.5 -22q-21 0 -42.5 6t-38 19.5t-27 36.5t-10.5 57q0 17 2.5 38t9.5 47l73 293h-163l-32 -127q-22 -87 -39.5 -145t-32.5 -96.5t-29.5 -61.5t-30.5 -39q-15 -16 -32.5 -22t-35.5 -6zM464 11q18 0 40 6.5t42 22t37 41t26 63.5q5 19 7 35t2 29q0 51 -23 73.5
t-63 22.5q-18 0 -40 -6.5t-42 -22t-37 -41t-26 -63.5q-5 -19 -7 -35t-2 -29q0 -51 23 -73.5t63 -22.5z" />
    <glyph glyph-name="uni045A" unicode="&#x45a;" horiz-adv-x="718" 
d="M173 482h-86l4 17l126 17l-61 -243h212l58 235h35l-63 -252l6 -1q29 38 61 55.5t69 17.5q50 0 81 -30.5t31 -84.5q0 -35 -12 -74.5t-36 -73t-60.5 -55.5t-84.5 -22q-22 0 -43 6t-37.5 20t-27 36.5t-10.5 56.5q0 32 12 85l14 58h-211l-62 -250h-35zM456 11q18 0 40 6.5
t42 22t37 41t26 63.5q5 19 7 35t2 29q0 51 -23 73.5t-63 22.5q-18 0 -40 -6.5t-42 -22t-37 -41t-26 -63.5q-5 -19 -7 -35t-2 -29q0 -51 23 -73.5t63 -22.5z" />
    <glyph glyph-name="uni045B" unicode="&#x45b;" horiz-adv-x="528" 
d="M345 -12q-14 0 -24.5 7.5t-10.5 24.5q0 13 5 33l98 369q5 20 5 30q0 39 -41 39q-48 0 -103 -53q-24 -23 -48.5 -55t-46 -68.5t-38.5 -75t-26 -74.5l-41 -165h-35l157 628h-81l6 23h81l25 98l36 6l-26 -104h175l-5 -23h-176l-86 -340l6 -1q17 34 41 74.5t54 76t65 59
t76 23.5q36 0 51 -17.5t15 -45.5q0 -16 -6 -40l-105 -394l18 -8l130 114l11 -11l-84 -83q-29 -29 -43.5 -38t-28.5 -9z" />
    <glyph glyph-name="uni045C" unicode="&#x45c;" horiz-adv-x="526" 
d="M331 -12q-11 0 -19.5 6t-12.5 21l-52 230l-6 5h-91l-62 -250h-35l120 482h-86l3 17l127 17l-61 -243h55q14 0 26.5 4t26.5 16.5t30.5 34.5t37.5 58q25 42 43.5 68t33 40t27.5 19t29 5q20 0 33.5 -12t13.5 -32q0 -17 -9.5 -27t-24.5 -10q-14 0 -22.5 9t-8.5 20
q0 12 5.5 19.5t12.5 11.5l-1 4q-13 -2 -23.5 -7t-23 -18.5t-28 -37t-38.5 -61.5q-20 -33 -34 -53t-24.5 -31t-19.5 -16t-19 -8v-3q13 -3 20 -12.5t13 -35.5l45 -197h19l118 103l10 -10l-72 -73q-26 -26 -42.5 -39.5t-33.5 -13.5zM310 596l122 159l28 -17l-137 -151z" />
    <glyph glyph-name="uni045D" unicode="&#x45d;" horiz-adv-x="537" 
d="M128 -12q-36 0 -51 18t-15 45q0 17 6 40l105 391h-86l4 17l126 17l-115 -430q-5 -18 -5 -30q0 -39 41 -39q47 0 103 53q24 23 48 55t46 68.5t39 75t26 74.5l41 165h35l-122 -485l18 -8l130 114l11 -11l-84 -83q-29 -29 -44 -38t-28 -9q-14 0 -24.5 7.5t-10.5 24.5
q0 6 2 16t4 19l42 165l-6 1q-17 -34 -41 -74.5t-54 -76t-65.5 -59t-75.5 -23.5zM252 739l32 16l75 -160l-14 -8z" />
    <glyph glyph-name="uni045E" unicode="&#x45e;" horiz-adv-x="442" 
d="M-51 -212q-28 0 -44.5 12.5t-16.5 32.5q0 15 9 25.5t25 10.5t24 -8.5t8 -22.5q0 -21 -21 -31l2 -3h8q49 0 86 30.5t72 92.5l35 62l-42 496h-45l6 23h150l-6 -23h-70l35 -447h6l253 447h-70l6 23h144l-6 -23h-45l-332 -572q-38 -66 -79 -95.5t-92 -29.5zM300 608
q-41 0 -64 17t-23 44q0 19 11 30t26 11q11 0 19.5 -6.5t8.5 -20.5q0 -15 -10 -24.5t-19 -11.5v-4q6 -8 20.5 -12.5t33.5 -4.5q44 0 78.5 23.5t58.5 77.5l14 -8q-27 -63 -69 -87t-85 -24z" />
    <glyph glyph-name="uni045F" unicode="&#x45f;" horiz-adv-x="537" 
d="M128 -12q-36 0 -51 18t-15 45q0 17 6 40l105 391h-86l4 17l126 17l-115 -430q-5 -18 -5 -30q0 -39 41 -39q47 0 103 53q24 23 48 55t46 68.5t39 75t26 74.5l41 165h35l-122 -485l18 -8l130 114l11 -11l-84 -83q-29 -29 -44 -38t-28 -9q-14 0 -24.5 7.5t-10.5 24.5
q0 6 2 16t4 19l42 165l-6 1q-17 -34 -41 -74.5t-54 -76t-65.5 -59t-75.5 -23.5zM81 -199q25 0 42.5 13t32.5 42l42 80q14 27 27 40l11 -5q-2 -4 -6.5 -12.5t-9.5 -23.5q-11 -31 -19 -51t-14.5 -33t-12 -21t-12.5 -15q-27 -27 -73 -27h-9.5t-9.5 1v12h11z" />
    <glyph glyph-name="uni0472" unicode="&#x472;" horiz-adv-x="679" 
d="M289 -12q-105 0 -160 60t-55 172q0 48 8.5 103t27 109.5t46.5 104.5t67.5 88.5t90.5 61.5t115 23q105 0 160 -60t55 -172q0 -48 -8.5 -103t-27 -109.5t-46.5 -104.5t-67.5 -88.5t-90.5 -61.5t-115 -23zM133 367h460q9 47 11.5 74t2.5 46q0 96 -45 147t-136 51
q-53 0 -98 -20.5t-81.5 -58t-63.5 -91t-43 -120.5zM292 13q53 0 98 20.5t81.5 58t63.5 91t43 120.5q6 20 9 40h-459q-11 -52 -14 -82t-3 -50q0 -96 45 -147t136 -51z" />
    <glyph glyph-name="uni0473" unicode="&#x473;" horiz-adv-x="469" 
d="M179 -12q-71 0 -101.5 45t-30.5 120q0 66 18 131.5t50 118t77 85t98 32.5q71 0 101.5 -45t30.5 -120q0 -66 -18 -131.5t-50.5 -118t-77 -85t-97.5 -32.5zM289 497q-36 0 -66 -19t-53.5 -50.5t-40.5 -73t-28 -86.5h273q8 36 10.5 56t2.5 40q0 30 -5 54.5t-16 42t-30 27
t-47 9.5zM180 11q36 0 66.5 19.5t54.5 51.5t41 74.5t27 89.5h-273q-9 -39 -11.5 -60.5t-2.5 -41.5q0 -30 5 -54.5t16 -42t30 -27t47 -9.5z" />
    <glyph glyph-name="uni0490" unicode="&#x490;" horiz-adv-x="518" 
d="M-2 23h78l162 652h-78l5 23h392l39 153h32l-44 -177h-309l-162 -651h98l-5 -23h-213z" />
    <glyph glyph-name="uni0491" unicode="&#x491;" horiz-adv-x="430" 
d="M174 485h-70l5 23h310l38 150h30l-43 -173h-235l-121 -485h-35z" />
    <glyph glyph-name="uni0492" unicode="&#x492;" horiz-adv-x="518" 
d="M-2 23h78l80 321h-89l6 23h89l76 308h-78l5 23h425l-38 -153h-31l32 129h-278l-77 -307h210l-6 -23h-209l-80 -321h98l-6 -23h-212z" />
    <glyph glyph-name="uni0493" unicode="&#x493;" horiz-adv-x="430" 
d="M116 248h-79l5 22h79l54 215h-70l5 23h341l-38 -148h-30l32 125h-205l-54 -215h165l-5 -22h-165l-62 -248h-35z" />
    <glyph glyph-name="uni0494" unicode="&#x494;" horiz-adv-x="588" 
d="M-2 23h78l162 652h-78l5 23h425l-38 -153h-31l33 129h-279l-82 -330h3q32 12 71 18.5t79 6.5q91 0 135.5 -34.5t44.5 -106.5q0 -17 -3.5 -39t-12.5 -57l-25 -102q-14 -54 -33 -91.5t-42 -60t-48.5 -32.5t-50.5 -10h-80l5 23h99q35 13 65 53t50 122l25 100q8 33 11.5 54.5
t3.5 41.5q0 59 -36.5 86.5t-114.5 27.5q-41 0 -81.5 -6.5t-70.5 -17.5l-74 -297h78l-5 -23h-193z" />
    <glyph glyph-name="uni0495" unicode="&#x495;" horiz-adv-x="483" 
d="M123 -177h96q23 15 44 50t34 86l41 164q5 22 7.5 34t2.5 22q0 27 -13.5 45.5t-48.5 18.5q-30 0 -59 -14.5t-53.5 -38.5t-42.5 -55t-26 -64l-17 -71h-35l121 485h-70l5 23h341l-38 -148h-30l32 125h-205l-80 -321l5 -2q76 110 163 110q46 0 66 -26t20 -61q0 -26 -10 -65
l-41 -164q-11 -44 -27 -74t-34 -48t-36.5 -26t-34.5 -8h-83z" />
    <glyph glyph-name="uni0496" unicode="&#x496;" horiz-adv-x="917" 
d="M822 0h-74l-127 347l-5 5h-114l-82 -329h78l-5 -23h-193l5 23h78l82 329h-114l-7 -5l-297 -347h-104l5 23h76l272 318q11 13 18.5 18t18.5 6l-41 223q-10 54 -25.5 75t-38.5 26l-1 -4q9 -9 9 -25q0 -17 -10 -27t-25 -10q-14 0 -23.5 9t-9.5 22q0 21 14 36t42 15
q38 0 60 -25.5t33 -85.5l40 -218h114l74 299h-78l5 23h193l-5 -23h-78l-74 -299h114l164 246q16 24 29.5 39.5t26.5 25.5t26.5 14t29.5 4q26 0 39 -13t13 -32q0 -17 -10 -27t-24 -10q-15 0 -24.5 9t-9.5 22q0 17 12 31v4q-10 -2 -19 -6.5t-19 -13.5t-22 -23.5t-27 -36.5
l-164 -245q5 -2 9.5 -7.5t10.5 -20.5l113 -312h85l-44 -177h-33z" />
    <glyph glyph-name="uni0497" unicode="&#x497;" horiz-adv-x="754" 
d="M54 -12q-28 0 -45 12.5t-17 33.5q0 14 9 24t24 10q14 0 22 -8.5t8 -20.5q0 -11 -6 -19.5t-14 -12.5v-3h13q46 0 89.5 58.5t72.5 173.5q10 38 18 86t8 90q0 49 -13 66.5t-32 17.5q-21 0 -42.5 -21.5t-48.5 -75.5l-17 7q31 64 57.5 89t55.5 25q32 0 52 -23.5t20 -89.5
q0 -31 -5 -67.5t-11 -66.5h111l59 235h35l-59 -235h109q13 53 32.5 98t43.5 78t52 52t59 19q28 0 44 -12.5t16 -33.5q0 -14 -9 -24t-24 -10q-14 0 -22 8.5t-8 20.5q0 11 6 19.5t14 12.5v3h-11q-44 0 -87.5 -58.5t-72.5 -173.5q-9 -38 -17 -86t-8 -90q0 -48 13 -66t36 -18
t45 21.5t50 75.5l16 -7q-23 -46 -47 -100q-23 -50 -45.5 -88.5t-38.5 -54.5q-21 -21 -44.5 -30.5t-55.5 -9.5h-9.5t-9.5 1v12h11q21 0 36.5 6t28.5 16.5t25 25.5t25 34l77 113l-4 3q-32 -42 -65 -42q-35 0 -55.5 24.5t-20.5 89.5q0 32 5 73t13 75h-109l-62 -250h-35l62 250
h-110q-14 -58 -33.5 -106t-44.5 -82.5t-54 -54t-61 -19.5z" />
    <glyph glyph-name="uni0498" unicode="&#x498;" horiz-adv-x="560" 
d="M206 -11q-41 3 -72.5 15t-54 29t-34 37.5t-11.5 40.5q0 17 10 28t25 11q17 0 25 -8.5t8 -22.5q0 -15 -10 -26t-27 -13l-1 -4q21 -30 61 -46.5t99 -16.5q79 0 134 40.5t72 109.5q3 11 5 26t2 33q0 64 -40.5 92t-103.5 28h-79l6 24h85q31 0 60.5 9t54 26.5t42.5 42t26 55.5
q5 21 7 36.5t2 29.5q0 57 -34 88.5t-105 31.5q-32 0 -61.5 -9.5t-54 -26.5t-42 -42t-24.5 -55l-15 -61h-31l51 207h31l-18 -74h3q27 37 67.5 61.5t100.5 24.5q78 0 123.5 -38.5t45.5 -110.5q0 -80 -46.5 -134t-125.5 -72l-1 -4q24 -4 44.5 -14t36 -27t24.5 -41t9 -55
q0 -46 -17 -86t-48 -70.5t-74.5 -49t-96.5 -20.5l-37 -148h-33z" />
    <glyph glyph-name="uni0499" unicode="&#x499;" horiz-adv-x="394" 
d="M122 -12q-57 2 -85.5 25t-28.5 55q0 19 10 29t24 10t22.5 -9t8.5 -21q0 -16 -11.5 -25t-27.5 -11v-4q11 -11 32.5 -18.5t60.5 -7.5q57 0 97 26t51 74q3 13 5 26t2 26q0 48 -29 67.5t-78 19.5h-53l6 23h52q24 0 47 8t41.5 21.5t32 31.5t19.5 38q7 24 7 50q0 38 -21 56.5
t-59 18.5q-37 0 -74 -22.5t-74 -75.5l-16 9q38 60 81.5 86t88.5 26q57 0 83.5 -27.5t26.5 -68.5q0 -60 -37 -102.5t-98 -56.5l-1 -3q45 -6 68.5 -32.5t23.5 -68.5q0 -35 -11.5 -64.5t-33 -52t-52 -37t-68.5 -18.5l-35 -139h-32z" />
    <glyph glyph-name="uni049A" unicode="&#x49a;" horiz-adv-x="628" 
d="M533 0h-75l-147 347l-6 5h-110l-82 -329h78l-5 -23h-193l5 23h78l162 652h-78l5 23h193l-5 -23h-78l-74 -299h110l185 247q19 26 34 42t28 25t24.5 12t25.5 3q26 0 39.5 -13t13.5 -32q0 -17 -10 -27t-25 -10t-24 9t-9 22q0 19 12 31l-1 4q-9 -2 -17 -6t-18 -12.5
t-22.5 -23t-30.5 -38.5l-184 -245q7 -2 11.5 -8t10.5 -20l133 -312h84l-45 -184h-33z" />
    <glyph glyph-name="uni049B" unicode="&#x49b;" horiz-adv-x="526" 
d="M173 482h-86l3 17l127 17l-61 -243h55q14 0 26.5 4t26 16.5t30 34.5t38.5 58q25 42 43.5 68t33 40t27.5 19t29 5q20 0 33.5 -12t13.5 -32q0 -17 -9.5 -27t-24.5 -10q-14 0 -22.5 9t-8.5 20q0 12 5.5 19.5t12.5 11.5l-1 4q-13 -2 -23.5 -7t-23 -18.5t-28 -37t-38.5 -61.5
q-20 -33 -33.5 -53t-24.5 -31t-20 -16t-19 -8v-3q13 -3 20 -12.5t13 -35.5l45 -197h19l118 103l10 -10q-22 -23 -37 -50t-35 -66q-28 -55 -48 -88t-39 -51q-20 -21 -43.5 -30.5t-55.5 -9.5h-9.5t-9.5 1v12h11q21 0 36.5 5.5t28.5 16t24.5 25.5t24.5 34l100 142l-4 3l-26 -25
q-23 -23 -38 -34t-29 -11q-11 0 -19 6t-12 21l-52 230l-6 5h-91l-62 -250h-35z" />
    <glyph glyph-name="uni049C" unicode="&#x49c;" horiz-adv-x="648" 
d="M-2 23h78l162 652h-78l5 23h193l-5 -23h-78l-74 -299h62l45 180h26l-45 -180h44l174 246q18 26 33 42.5t28 25.5t25.5 12t26.5 3q25 0 38.5 -13t13.5 -32q0 -17 -10 -27t-25 -10t-24 9t-9 22q0 19 12 31l-1 4q-9 -2 -17.5 -6t-18.5 -13t-22.5 -23.5t-28.5 -37.5
l-174 -245q6 -3 10.5 -8.5t9.5 -19.5l124 -313h71l-5 -23h-95l-137 347l-5 5h-44l-40 -160h-26l40 160h-62l-82 -329h78l-5 -23h-193z" />
    <glyph glyph-name="uni049D" unicode="&#x49d;" horiz-adv-x="550" 
d="M173 482h-86l3 17l127 17l-61 -243h53l31 125h25l-31 -125h8q13 0 25 4.5t25 17t28.5 34.5t36.5 57q25 42 43 68t32.5 40t27.5 19t29 5q20 0 33.5 -12t13.5 -32q0 -17 -9.5 -27t-24.5 -10q-14 0 -22.5 9t-8.5 20q0 12 5.5 19.5t12.5 11.5l-1 4q-13 -2 -23.5 -7
t-22.5 -18.5t-27.5 -37t-38.5 -61.5q-20 -33 -33.5 -53.5t-23.5 -31.5t-18.5 -15.5t-17.5 -7.5v-3q14 -4 20.5 -13t11.5 -34l38 -198h19l118 103l10 -10l-72 -73q-26 -26 -43 -39.5t-34 -13.5q-11 0 -19.5 6.5t-11.5 23.5l-45 227l-5 5h-42l-32 -127h-25l32 127h-53
l-62 -250h-35z" />
    <glyph glyph-name="uni04A0" unicode="&#x4a0;" horiz-adv-x="768" 
d="M138 23h78l162 651h-203l-32 -129h-31l38 153h348l-5 -23h-78l-74 -299h110l185 247q19 26 34 42t28 25t24.5 12t25.5 3q26 0 39.5 -13t13.5 -32q0 -17 -10 -27t-25 -10t-24 9t-9 22q0 19 12 31l-1 4q-9 -2 -17.5 -6t-18 -12.5t-22 -23.5t-30.5 -38l-184 -245
q7 -2 11.5 -8t10.5 -20l133 -313h71l-6 -23h-94l-147 347l-6 5h-110l-82 -329h78l-5 -23h-193z" />
    </font>
</defs>
</svg>
