<?xml version="1.0" standalone="no"?>
<!DOCTYPE svg PUBLIC "-//W3C//DTD SVG 1.1//EN" "http://www.w3.org/Graphics/SVG/1.1/DTD/svg11.dtd" >
<svg xmlns="http://www.w3.org/2000/svg" xmlns:xlink="http://www.w3.org/1999/xlink" version="1.1">
<metadata>
Created by FontForge 20170731 at Wed Sep 19 18:49:41 2018
 By Aleksey,,,
Copyright 2018 IBM Corp. All rights reserved.
</metadata>
<defs>
<font id="IBMPlexSerif-BoldItalic" horiz-adv-x="0" >
  <font-face 
    font-family="IBM Plex Serif"
    font-weight="700"
    font-style="italic"
    font-stretch="normal"
    units-per-em="1000"
    panose-1="2 6 8 3 5 4 6 0 2 3"
    ascent="800"
    descent="-200"
    x-height="524"
    cap-height="698"
    bbox="-306 -281 1182 1140"
    underline-thickness="62"
    underline-position="-144"
    slope="-14"
    unicode-range="U+000D-FB02"
  />
<missing-glyph horiz-adv-x="424" 
d="M32 0v780h360v-780h-360zM94 62h236v656h-236v-656z" />
    <glyph glyph-name="fi" unicode="fi" horiz-adv-x="647" 
d="M-62 -212q-58 0 -88 24t-30 61q0 26 19 47.5t51 21.5q27 0 43.5 -16t16.5 -40q0 -20 -12 -33.5t-28 -21.5l8 -9q33 0 55 18t34 65l139 556h-84l16 63h85l7 30q13 55 40 94.5t63.5 64t79.5 36t88 11.5q87 0 129 -27t42 -64q0 -32 -21 -56.5t-60 -24.5q-32 0 -48.5 17.5
t-16.5 43.5q0 23 13.5 40.5t29.5 25.5l-7 8q-4 2 -9 2q-30 0 -57 -7t-48.5 -22t-37.5 -39t-25 -59l-19 -74h241l68 12l-115 -460l18 -8l90 114l36 -21l-56 -85q-35 -53 -70 -70.5t-64 -17.5q-27 0 -45 7.5t-29.5 19t-16 26t-4.5 29.5q0 12 3 28.5t6 27.5l83 335h-160
l-122 -483q-13 -50 -36 -86t-53.5 -59t-66.5 -34t-75 -11z" />
    <glyph glyph-name="fl" unicode="fl" horiz-adv-x="641" 
d="M-62 -212q-58 0 -88 24t-30 61q0 26 19 47.5t51 21.5q27 0 43.5 -16t16.5 -40q0 -20 -12 -33.5t-28 -21.5l8 -9q33 0 55 18t34 65l139 556h-84l16 63h85l10 42q12 52 36.5 89t57 60t71 34t79.5 11q42 0 74 -9t52 -23l124 32l-171 -684l18 -8l90 114l36 -21l-56 -85
q-35 -53 -69.5 -70.5t-63.5 -17.5q-27 0 -45.5 7t-29.5 19t-16 26.5t-5 29.5q0 12 3 28.5t6 27.5l141 563q-14 7 -30 11t-36 4q-16 0 -32.5 -4t-31.5 -14t-27 -27t-18 -42l-23 -93h85l-16 -63h-85l-122 -483q-13 -50 -36 -86t-53.5 -59t-66.5 -34t-75 -11z" />
    <glyph glyph-name=".notdef" horiz-adv-x="424" 
d="M32 0v780h360v-780h-360zM94 62h236v656h-236v-656z" />
    <glyph glyph-name=".null" 
 />
    <glyph glyph-name=".null" 
 />
    <glyph glyph-name="uni000D" unicode="&#xd;" horiz-adv-x="212" 
 />
    <glyph glyph-name="space" unicode=" " horiz-adv-x="212" 
 />
    <glyph glyph-name="exclam" unicode="!" horiz-adv-x="287" 
d="M89 -12q-38 0 -59.5 21.5t-21.5 50.5q0 14 3 26q8 34 34 54.5t64 20.5t59.5 -21.5t21.5 -50.5q0 -14 -3 -26q-8 -34 -34 -54.5t-64 -20.5zM135 544l39 154h159l-39 -154l-127 -327h-65z" />
    <glyph glyph-name="quotedbl" unicode="&#x22;" horiz-adv-x="444" 
d="M152 633l29 115h114l-29 -115l-88 -205h-41zM365 633l29 115h114l-29 -115l-88 -205h-41z" />
    <glyph glyph-name="numbersign" unicode="#" horiz-adv-x="563" 
d="M85 190h-91l19 72h100l70 174h-90l18 72h101l75 190h85l-75 -190h143l75 190h85l-76 -190h91l-19 -72h-101l-70 -174h91l-18 -72h-101l-75 -190h-85l75 190h-143l-75 -190h-85zM198 262h143l69 174h-142z" />
    <glyph glyph-name="dollar" unicode="$" horiz-adv-x="560" 
d="M186 -1q-30 2 -59 9.5t-52.5 21.5t-37.5 36t-14 52q0 18 6 34.5t17 30t26 21.5t34 8q30 0 45 -18.5t15 -41.5q0 -26 -16.5 -48.5t-51.5 -27.5v-9q20 -7 45 -10.5t58 -3.5l59 238l-10 3q-72 22 -105 64t-33 111q0 45 16.5 85.5t48 72.5t78 51.5t107.5 22.5l20 79h57
l-20 -80q27 -3 53.5 -11t47 -22.5t33.5 -35.5t13 -50q0 -18 -5.5 -34.5t-16 -30t-26 -21.5t-34.5 -8q-29 0 -44.5 18.5t-15.5 41.5q0 26 16.5 48.5t51.5 27.5v9q-20 6 -40.5 9.5t-47.5 4.5l-58 -231l11 -3q79 -23 113.5 -63t34.5 -103q0 -49 -17.5 -92.5t-51.5 -77
t-82.5 -54.5t-110.5 -24l-20 -80h-57zM257 57q28 6 52 20t40.5 32.5t26 41t9.5 46.5q0 52 -74 79zM348 642q-62 -10 -92 -46t-30 -77q0 -28 14 -50t55 -39z" />
    <glyph glyph-name="percent" unicode="%" horiz-adv-x="860" 
d="M243 366q49 0 70 86q11 43 18 71.5t11 46t5.5 27.5t1.5 17q0 25 -11 34.5t-26 9.5q-49 0 -70 -86l-18 -72t-11 -45.5t-5.5 -27.5t-1.5 -17q0 -25 11 -34.5t26 -9.5zM592 40q49 0 70 86q11 43 18 71.5t11 46t5.5 27.5t1.5 17q0 25 -11 34.5t-26 9.5q-49 0 -70 -86l-18 -72
t-11 -45.5t-5.5 -27.5t-1.5 -17q0 -25 11 -34.5t26 -9.5zM234 314q-29 0 -53.5 7t-42 22.5t-27.5 39.5t-10 58q0 32 10 78t35 88.5t67.5 72.5t107.5 30q58 0 95.5 -30t37.5 -97q0 -32 -10 -78t-35 -88.5t-67.5 -72.5t-107.5 -30zM583 -12q-29 0 -53.5 7t-42 22.5t-27.5 39.5
t-10 58q0 32 10 78t35 88.5t67.5 72.5t107.5 30q58 0 95.5 -30t37.5 -97q0 -32 -10 -78t-35 -88.5t-67.5 -72.5t-107.5 -30zM719 698h80l-615 -698h-79z" />
    <glyph glyph-name="ampersand" unicode="&#x26;" horiz-adv-x="691" 
d="M209 -12q-46 0 -85 8.5t-67.5 27.5t-45 49t-16.5 73q0 46 18.5 82t49.5 64t72.5 50t88.5 42l-6 12q-17 34 -28 59.5t-11 60.5q0 48 20.5 84t54.5 60.5t77.5 37t88.5 12.5q47 0 79.5 -8.5t53 -24t29.5 -36.5t9 -46q0 -40 -21 -71t-53.5 -55t-71 -42.5t-73.5 -32.5
l102 -194q21 27 40 60t31 69h-58l15 60h190l-15 -60h-58q-18 -56 -47 -104.5t-64 -89.5l18 -34q12 -23 36.5 -32t60.5 -9l-15 -60h-112q-62 0 -91 42q-43 -26 -90.5 -40t-105.5 -14zM348 440q40 23 67.5 51t36.5 63q2 7 4.5 23.5t2.5 22.5q0 24 -13 36t-36 12
q-29 0 -50.5 -17.5t-30.5 -52.5q-3 -12 -5 -23t-2 -23q0 -25 6 -45.5t20 -46.5zM258 58q30 0 59 10.5t57 28.5l-123 236q-34 -27 -54 -59t-28 -61q-5 -17 -9 -35.5t-4 -32.5q0 -44 28.5 -65.5t73.5 -21.5z" />
    <glyph glyph-name="quotesingle" unicode="'" horiz-adv-x="231" 
d="M152 633l29 115h114l-29 -115l-88 -205h-41z" />
    <glyph glyph-name="parenleft" unicode="(" horiz-adv-x="325" 
d="M187 -156q-34 22 -63 53.5t-50.5 73.5t-33.5 95t-12 116q0 97 34 197q22 63 57 122.5t81 111t100.5 94.5t115.5 73l28 -51q-44 -30 -81 -72t-68 -92.5t-54.5 -108t-38.5 -118.5l-18 -74q-9 -38 -15 -76.5t-6 -81.5q0 -26 3 -54.5t11 -57.5t21.5 -56.5t34.5 -49.5l-46 -44
v0z" />
    <glyph glyph-name="parenright" unicode=")" horiz-adv-x="325" 
d="M-94 -105q43 30 80.5 72t68.5 92.5t54.5 108t38.5 118.5l18 74q9 38 15 76.5t6 81.5q0 25 -3 54t-11 58t-21.5 56.5t-34.5 49.5l46 44q34 -22 63 -53.5t50.5 -73.5t33.5 -95t12 -116q0 -97 -34 -197q-22 -63 -57 -122.5t-81 -111t-100.5 -94.5t-115.5 -73z" />
    <glyph glyph-name="asterisk" unicode="*" horiz-adv-x="546" 
d="M116 367l48 49l122 77l31 -26l-71 -118l-48 -50zM154 522l-54 18l59 100l53 -19l92 -72l-20 -34zM360 348l-17 120l37 21l87 -81l23 -50l-107 -60zM323 686l14 61h117l-14 -61l-67 -122h-45zM390 549l121 73l63 18l11 -107l-62 -19l-130 -3z" />
    <glyph glyph-name="plus" unicode="+" horiz-adv-x="550" 
d="M233 267h-171l19 77h171l47 190h88l-48 -190h170l-19 -77h-170l-48 -191h-87z" />
    <glyph glyph-name="comma" unicode="," horiz-adv-x="276" 
d="M-72 -145q89 65 132 136q-28 7 -44 25.5t-16 43.5q0 7 1 14.5t3 15.5q10 32 35 51.5t63 19.5q37 0 58.5 -22.5t21.5 -53.5q0 -15 -3 -28q-7 -31 -24.5 -60t-40.5 -55t-50 -48t-52 -39h-84v0z" />
    <glyph glyph-name="hyphen" unicode="-" horiz-adv-x="367" 
d="M69 353h274l-24 -96h-274z" />
    <glyph glyph-name="period" unicode="." horiz-adv-x="276" 
d="M82 -12q-38 0 -59.5 21.5t-21.5 50.5q0 14 3 26q8 34 34 54.5t64 20.5t59.5 -21.5t21.5 -50.5q0 -14 -3 -26q-8 -34 -34 -54.5t-64 -20.5z" />
    <glyph glyph-name="slash" unicode="/" horiz-adv-x="409" 
d="M398 748h104l-494 -891h-104z" />
    <glyph glyph-name="zero" unicode="0" horiz-adv-x="550" 
d="M221 53q28 0 47 15t33.5 43.5t26 70.5t25.5 95q16 65 28.5 114.5t21.5 87t13.5 64t4.5 45.5q0 24 -12 40.5t-40 16.5t-47 -15t-33.5 -43.5t-26.5 -70.5t-25 -95q-16 -65 -28.5 -114.5t-21.5 -87t-13.5 -64t-4.5 -45.5q0 -24 12 -40.5t40 -16.5zM214 -12q-42 0 -76 11.5
t-57.5 36.5t-36.5 64t-13 94q0 22 5.5 69t19.5 104.5t38 118t62.5 110.5t92.5 82t127 32q84 0 133.5 -48.5t49.5 -157.5q0 -22 -5.5 -69t-19.5 -104.5t-38 -118t-62.5 -110.5t-92.5 -82t-127 -32z" />
    <glyph glyph-name="one" unicode="1" horiz-adv-x="550" 
d="M29 60h143l132 531l-165 -58l-14 54l242 111h117l-159 -638h133l-15 -60h-429z" />
    <glyph glyph-name="two" unicode="2" horiz-adv-x="550" 
d="M-6 100l228 205q54 47 93 94t55 108q1 3 3 11.5t4 19t3.5 22t1.5 20.5q0 35 -19.5 54t-55.5 19q-25 0 -43.5 -3.5t-35.5 -9.5l-3 -8q21 -5 33 -19.5t12 -35.5q0 -31 -22.5 -55.5t-63.5 -24.5q-27 0 -46.5 16t-19.5 50q0 27 15 53t44 47t71 34t96 13q53 0 90 -11t60.5 -31
t34.5 -47t11 -59q0 -54 -21.5 -97t-55.5 -79.5t-76 -67.5t-82 -59l-194 -139l-3 -11h273l23 93h72l-50 -202h-457z" />
    <glyph glyph-name="three" unicode="3" horiz-adv-x="550" 
d="M184 -12q-49 0 -84.5 10t-58 27t-33.5 39t-11 45t8 40.5t20.5 29.5t28.5 18t33 6q35 0 51 -18t16 -41q0 -19 -6.5 -32t-17.5 -22t-24.5 -14t-26.5 -6l-3 -8q32 -16 84 -16q62 0 97 28.5t51 91.5q1 4 3.5 13.5t5 21t4.5 23.5t2 23q0 45 -28 64.5t-78 19.5h-53l18 68h52
q70 0 105.5 30.5t46.5 76.5q1 4 2.5 11.5l3.5 17.5t3.5 20t1.5 19q0 44 -24 61.5t-57 17.5q-26 0 -45 -3.5t-33 -9.5l-3 -8q23 -5 33.5 -20.5t10.5 -33.5q0 -35 -23 -57.5t-61 -22.5q-28 0 -48 15.5t-20 49.5q0 27 15.5 53t45 47t72.5 34t99 13q96 0 148 -33t52 -103
q0 -47 -20 -82t-51.5 -59.5t-71 -39t-78.5 -20.5l-2 -8q69 -9 108.5 -43.5t39.5 -91.5q0 -33 -14.5 -75t-49 -79t-92 -62.5t-144.5 -25.5z" />
    <glyph glyph-name="four" unicode="4" horiz-adv-x="550" 
d="M250 153h-257l22 89l346 456h172l-111 -446h92l-25 -99h-91l-38 -153h-148zM99 252h175l86 343h-9z" />
    <glyph glyph-name="five" unicode="5" horiz-adv-x="550" 
d="M185 -12q-50 0 -84 10.5t-54.5 28t-29.5 39t-9 43.5q0 23 8 40.5t20.5 29.5t28.5 18t33 6q35 0 51 -18t16 -41q0 -35 -23 -53.5t-53 -21.5l-3 -8q30 -16 78 -16q55 0 94 36t58 111q1 3 3 12t4.5 21t4.5 25t2 25q0 42 -22 59.5t-54 17.5t-62.5 -18t-48.5 -42l-63 15
l122 391h372l-30 -119h-315l-74 -238h10q11 18 25.5 34t35 29t47 20.5t60.5 7.5q33 0 62 -8t50.5 -25.5t34 -45t12.5 -66.5q0 -63 -22 -118t-62.5 -95t-97 -63t-125.5 -23z" />
    <glyph glyph-name="six" unicode="6" horiz-adv-x="550" 
d="M211 -12q-41 0 -75.5 11.5t-59 34.5t-38.5 59t-14 85q0 52 14 109.5t42.5 114t71 108.5t100 93.5t129.5 69.5t160 37l3 -58q-127 -30 -210.5 -107t-119.5 -191l9 -2q9 19 23 36.5t33.5 31t45 22t55.5 8.5q63 0 97.5 -36.5t34.5 -105.5q0 -72 -23 -131t-63 -101t-95.5 -65
t-119.5 -23zM223 53q24 0 41 10.5t29.5 29.5t22 46t17.5 60q1 3 4 15.5t6.5 28.5t6.5 33t3 29q0 28 -15 44t-43 16q-24 0 -41 -10.5t-29.5 -29.5t-22 -46t-17.5 -60q-1 -3 -4 -15.5t-6.5 -28.5t-6.5 -33t-3 -29q0 -28 15 -44t43 -16z" />
    <glyph glyph-name="seven" unicode="7" horiz-adv-x="550" 
d="M478 578h-281l-32 -127h-72l61 247h450l-26 -103l-346 -595h-156z" />
    <glyph glyph-name="eight" unicode="8" horiz-adv-x="550" 
d="M211 -12q-104 0 -154.5 42.5t-50.5 112.5q0 45 16 83t44.5 66t67.5 45.5t86 22.5l2 8q-20 4 -39.5 14t-35.5 26.5t-26 39.5t-10 53q0 44 18.5 82.5t53 66.5t83.5 44t111 16q53 0 90 -11t60 -29.5t33 -44t10 -55.5q0 -43 -16.5 -78.5t-43.5 -61.5t-62 -42t-71 -20l-2 -8
q52 -8 88.5 -41t36.5 -94q0 -37 -15.5 -78.5t-49.5 -77t-89.5 -58.5t-134.5 -23zM222 50q50 0 73 36t37 96q1 3 4 15t6 26.5t5.5 29.5t2.5 24q0 25 -15 41.5t-47 16.5q-50 0 -73 -36t-37 -96q-1 -3 -4 -15t-6 -26.5t-5.5 -29.5t-2.5 -24q0 -25 15 -41.5t47 -16.5zM309 396
q22 0 36.5 8t25 23.5t17.5 37.5t14 51q5 21 8.5 34.5t5 22.5t2 15.5t0.5 12.5q0 23 -14 35t-38 12q-22 0 -36.5 -8t-25 -23.5t-17.5 -38t-14 -50.5q-5 -21 -8.5 -35t-5 -23t-2 -15t-0.5 -12q0 -23 14 -35t38 -12z" />
    <glyph glyph-name="nine" unicode="9" horiz-adv-x="550" 
d="M46 46q127 30 210.5 107t119.5 191l-9 2q-9 -19 -23 -36.5t-33.5 -31t-45 -22t-55.5 -8.5q-63 0 -97.5 36.5t-34.5 105.5q0 72 23 131t63 101t95 65t120 23q41 0 75.5 -11.5t59 -34.5t38.5 -59t14 -85q0 -52 -14 -109.5t-42.5 -114t-71 -108.5t-100 -93.5t-130 -70
t-159.5 -36.5zM295 333q24 0 41 10.5t29.5 29.5t22 46t17.5 60q1 3 4 15.5t6.5 28.5t6.5 33t3 29q0 28 -15 44t-43 16q-24 0 -41 -10.5t-29.5 -29.5t-22 -46t-17.5 -60q-1 -3 -4 -15.5t-6.5 -28.5t-6.5 -33t-3 -29q0 -28 15 -44t43 -16z" />
    <glyph glyph-name="colon" unicode=":" horiz-adv-x="296" 
d="M92 -12q-38 0 -59.5 21.5t-21.5 50.5q0 14 3 26q8 34 34 54.5t64 20.5t59.5 -21.5t21.5 -50.5q0 -14 -3 -26q-8 -34 -34 -54.5t-64 -20.5zM186 363q-38 0 -59.5 21.5t-21.5 50.5q0 14 3 26q8 34 34 54.5t64 20.5t59.5 -21.5t21.5 -50.5q0 -14 -3 -26q-8 -34 -34 -54.5
t-64 -20.5z" />
    <glyph glyph-name="semicolon" unicode=";" horiz-adv-x="286" 
d="M185 363q-38 0 -59.5 21.5t-21.5 50.5q0 14 3 26q8 34 34 54.5t64 20.5t59.5 -21.5t21.5 -50.5q0 -14 -3 -26q-8 -34 -34 -54.5t-64 -20.5zM-62 -145q89 65 132 136q-28 7 -44 25.5t-16 43.5q0 7 1 14.5t3 15.5q10 32 35 51.5t63 19.5q37 0 58.5 -22.5t21.5 -53.5
q0 -15 -3 -28q-7 -31 -24.5 -60t-40.5 -55t-50 -48t-52 -39h-84v0z" />
    <glyph glyph-name="less" unicode="&#x3c;" horiz-adv-x="550" 
d="M85 230l20 80l412 236l-24 -98l-292 -180l-2 -11l202 -183l-22 -85z" />
    <glyph glyph-name="equal" unicode="=" horiz-adv-x="550" 
d="M52 232h428l-19 -77h-428zM108 455h428l-19 -77h-428z" />
    <glyph glyph-name="greater" unicode="&#x3e;" horiz-adv-x="550" 
d="M61 87l292 180l2 11l-202 183l22 85l294 -241l-20 -80l-412 -236z" />
    <glyph glyph-name="question" unicode="?" horiz-adv-x="466" 
d="M169 383q72 4 116 36t62 102q3 12 6.5 28t3.5 32q0 34 -21.5 53t-56.5 19q-18 0 -39 -3t-36 -10l-3 -8q22 -5 33 -20t11 -34q0 -32 -22 -56t-60 -24q-32 0 -51 17t-19 48q0 30 18 56.5t49.5 46.5t74 32t92.5 12q52 0 88.5 -10t59.5 -28t33.5 -43.5t10.5 -56.5
q0 -60 -25 -106t-66 -78.5t-94 -51t-110 -22.5l-21 -84h-72zM120 -12q-38 0 -59.5 21.5t-21.5 50.5q0 14 3 26q8 34 34 54.5t64 20.5t59.5 -21.5t21.5 -50.5q0 -14 -3 -26q-8 -34 -34 -54.5t-64 -20.5z" />
    <glyph glyph-name="at" unicode="@" horiz-adv-x="839" 
d="M348 -120q-65 0 -118.5 18t-92.5 53.5t-60.5 88.5t-21.5 123q0 63 14 128t41 126t67.5 114.5t92.5 93t116 62.5t139 23q64 0 116.5 -16.5t90 -49t57.5 -80.5t20 -110q0 -79 -19.5 -149t-52.5 -122.5t-76 -83t-90 -30.5q-55 0 -77.5 25t-22.5 66q0 13 3 31l-8 2
q-12 -25 -25 -47.5t-29.5 -39.5t-37 -27t-46.5 -10q-47 0 -67 32.5t-20 88.5q0 52 14.5 108t40.5 103t63.5 77.5t84.5 30.5q34 0 57.5 -17.5t32.5 -62.5h8l50 71h54l-79 -324q-4 -16 -4 -29q0 -28 27 -28q37 0 69 54t55 148q6 24 13 59.5t7 75.5q0 104 -52 159t-159 55
q-69 0 -128 -28t-106 -77t-81 -114.5t-53 -141.5q-2 -6 -6 -22t-8.5 -37t-8 -45t-3.5 -47q0 -55 17 -97.5t48 -72t73 -44.5t92 -15h177l-9 -37q-45 -5 -87.5 -8.5t-91.5 -3.5zM374 145q20 0 40 21t37 52t29.5 64.5t18.5 59.5l6 25q8 34 1.5 53.5t-35.5 19.5t-55.5 -27
t-44.5 -90q-5 -16 -9 -34.5t-7 -37t-4.5 -35.5t-1.5 -30q0 -19 5.5 -30t19.5 -11z" />
    <glyph glyph-name="A" unicode="A" horiz-adv-x="663" 
d="M-38 60h47l364 638h131l51 -638h47l-15 -60h-266l14 60h70l-8 158h-217l-86 -158h70l-15 -60h-202zM212 280h183l-11 309h-9z" />
    <glyph glyph-name="B" unicode="B" horiz-adv-x="647" 
d="M-18 60h63l144 578h-63l15 60h320q53 0 89.5 -9t59.5 -26.5t33.5 -42t10.5 -55.5q0 -80 -50 -129t-134 -66l-2 -8q25 -6 48.5 -17t41.5 -28t28.5 -40.5t10.5 -54.5q0 -41 -16.5 -81t-49.5 -71.5t-83.5 -50.5t-118.5 -19h-362zM199 64h96q50 0 87 28.5t51 85.5
q10 39 12.5 53.5t2.5 23.5q0 32 -19 52t-61 20h-103zM281 391h76q48 0 82 28.5t48 82.5q9 36 12 50.5t3 22.5q0 27 -17.5 43t-56.5 16h-87z" />
    <glyph glyph-name="C" unicode="C" horiz-adv-x="604" 
d="M271 -12q-45 0 -86 13t-71.5 42.5t-48.5 76.5t-18 115q0 53 11 108.5t33 108.5t54 100t73.5 82t92 55.5t109.5 20.5q53 0 82.5 -21t38.5 -51h11l15 60h110l-55 -222h-110l10 41q5 20 5 36q0 44 -27.5 65t-67.5 21q-65 0 -108 -50t-63 -128q-17 -69 -28 -112.5
t-17.5 -72.5t-9 -47.5t-2.5 -37.5q0 -54 27 -89t84 -35q33 0 60.5 10t51 27.5t43 41.5t37.5 53l43 -28q-22 -36 -51 -69t-64 -58.5t-76.5 -40.5t-87.5 -15z" />
    <glyph glyph-name="D" unicode="D" horiz-adv-x="691" 
d="M-18 60h63l144 578h-63l15 60h292q65 0 112 -19.5t77 -53t44.5 -78t14.5 -94.5q0 -51 -11.5 -104.5t-34 -104t-56.5 -95t-79.5 -77.5t-102 -52.5t-123.5 -19.5h-307zM199 64h53q94 0 147 51.5t81 162.5q18 73 28.5 116.5t15.5 69t6.5 39t1.5 26.5q0 58 -33 82t-96 24h-61
z" />
    <glyph glyph-name="E" unicode="E" horiz-adv-x="604" 
d="M-18 60h63l144 578h-63l15 60h516l-47 -186h-110l30 122h-189l-59 -238h120l16 64h69l-48 -192h-69l16 64h-120l-67 -268h198l35 142h110l-51 -206h-524z" />
    <glyph glyph-name="F" unicode="F" horiz-adv-x="574" 
d="M-18 60h63l144 578h-63l15 60h516l-47 -186h-110l30 122h-189l-63 -253h121l16 64h69l-49 -192h-69l17 64h-121l-64 -257h90l-15 -60h-306z" />
    <glyph glyph-name="G" unicode="G" horiz-adv-x="708" 
d="M271 -12q-103 0 -163.5 61.5t-60.5 182.5q0 85 27 170t78 153.5t124 111.5t165 43q60 0 94.5 -20t45.5 -52h11l15 60h110l-55 -222h-110l10 40q5 20 5 37q0 43 -30 66.5t-81 23.5q-73 0 -125 -54t-75 -148q-18 -71 -29 -115t-18 -72.5t-9.5 -47.5t-2.5 -38q0 -49 27 -80
t75 -31q25 0 49.5 9.5t45 27t35.5 42.5t23 55l24 97h-92l15 60h292l-15 -60h-47l-71 -288h-52l-28 98h-10q-11 -19 -30 -38.5t-44 -35.5t-56 -26t-67 -10z" />
    <glyph glyph-name="H" unicode="H" horiz-adv-x="730" 
d="M-18 60h63l144 578h-63l15 60h279l-15 -60h-63l-62 -247h234l62 247h-63l15 60h279l-15 -60h-63l-144 -578h63l-15 -60h-279l15 60h63l66 265h-234l-66 -265h63l-15 -60h-279z" />
    <glyph glyph-name="I" unicode="I" horiz-adv-x="343" 
d="M-18 60h63l144 578h-63l15 60h279l-15 -60h-63l-144 -578h63l-15 -60h-279z" />
    <glyph glyph-name="J" unicode="J" horiz-adv-x="465" 
d="M107 -12q-63 0 -102.5 29t-39.5 74q0 15 5.5 30t15.5 27t25 19t34 7q30 0 47 -14.5t17 -41.5q0 -26 -15 -42t-35 -21v-4q7 -3 16.5 -4.5t19.5 -1.5q38 0 63.5 28t38.5 82l120 483h-90l15 60h306l-15 -60h-63l-111 -448q-23 -94 -81.5 -148t-170.5 -54z" />
    <glyph glyph-name="K" unicode="K" horiz-adv-x="708" 
d="M-18 60h63l144 578h-63l15 60h279l-15 -60h-63l-73 -293h8l118 111l193 182h-73l15 60h239l-15 -60h-63l-222 -204l118 -374h63l-14 -60h-292l15 60h63l-76 280l-102 -95l-46 -185h63l-15 -60h-279z" />
    <glyph glyph-name="L" unicode="L" horiz-adv-x="553" 
d="M-18 60h63l144 578h-63l15 60h279l-15 -60h-63l-143 -574h167l35 142h110l-51 -206h-493z" />
    <glyph glyph-name="M" unicode="M" horiz-adv-x="824" 
d="M-18 60h63l144 578h-63l15 60h240l50 -326h9l211 326h250l-15 -60h-63l-144 -578h63l-15 -60h-279l15 60h63l131 523h-10l-88 -134l-220 -333l-62 335l-19 130h-10l-130 -521h63l-15 -60h-199z" />
    <glyph glyph-name="N" unicode="N" horiz-adv-x="710" 
d="M-18 60h62l145 578h-63l15 60h244l128 -512h10l113 452h-63l15 60h199l-15 -60h-63l-159 -638h-134l-158 586h-10l-131 -526h63l-15 -60h-198z" />
    <glyph glyph-name="O" unicode="O" horiz-adv-x="701" 
d="M306 53q63 0 105.5 44.5t59.5 114.5q22 87 35.5 140.5t21 87t10.5 53.5t3 40q0 48 -27.5 80t-81.5 32q-63 0 -105.5 -44.5t-59.5 -114.5q-22 -87 -35.5 -140.5t-21 -87t-10.5 -53.5t-3 -40q0 -48 27.5 -80t81.5 -32zM292 -12q-59 0 -104.5 18t-76.5 51.5t-47 81.5
t-16 107q0 50 11.5 104t34 105.5t56 97.5t77.5 81t99 55.5t120 20.5q59 0 104.5 -18t76.5 -51.5t47 -81.5t16 -107q0 -50 -11.5 -104t-34 -105.5t-56 -97.5t-77.5 -81t-99 -55.5t-120 -20.5z" />
    <glyph glyph-name="P" unicode="P" horiz-adv-x="617" 
d="M-18 60h63l144 578h-63l15 60h351q38 0 70 -7.5t54.5 -23t35 -40.5t12.5 -61q0 -43 -14 -88t-44.5 -82t-80 -60.5t-120.5 -23.5h-144l-63 -252h90l-15 -60h-306zM277 376h91q98 0 125 108q2 7 5 19t5.5 24.5t4.5 24t2 18.5q0 29 -19.5 46.5t-59.5 17.5h-90z" />
    <glyph glyph-name="Q" unicode="Q" horiz-adv-x="700" 
d="M370 -184q-51 0 -79 21t-48 70l-36 92q-78 23 -118.5 87t-40.5 160q0 50 11.5 104t34 105.5t56 97.5t77.5 81t99 55.5t120 20.5q59 0 104.5 -18t76.5 -51.5t47 -81.5t16 -107q0 -68 -21 -141.5t-62 -138t-102 -113t-141 -64.5l39 -81q11 -21 31 -31t43 -10h19l-15 -57
h-111zM306 53q63 0 105.5 44.5t59.5 114.5q22 87 35.5 140.5t21 87t10.5 53.5t3 40q0 48 -27.5 80t-81.5 32q-63 0 -105.5 -44.5t-59.5 -114.5q-22 -87 -35.5 -140.5t-21 -87t-10.5 -53.5t-3 -40q0 -48 27.5 -80t81.5 -32z" />
    <glyph glyph-name="R" unicode="R" horiz-adv-x="673" 
d="M-18 60h63l144 578h-63l15 60h351q38 0 70 -7.5t54.5 -23t35 -40.5t12.5 -61q0 -93 -51.5 -156.5t-141.5 -82.5l60 -206q9 -33 28.5 -47t49.5 -14h6l-14 -60h-93q-65 0 -93.5 22t-39.5 75l-45 219h-68l-64 -256h63l-15 -60h-279zM277 376h90q99 0 126 108l5 20t5.5 24.5
t4.5 23.5t2 18q0 29 -19.5 46.5t-59.5 17.5h-90z" />
    <glyph glyph-name="S" unicode="S" horiz-adv-x="575" 
d="M243 -12q-58 0 -90.5 19.5t-39.5 49.5h-12l-14 -57h-110l51 204h110l-12 -47q-4 -17 -4 -28q0 -36 30 -55t84 -19q38 0 67.5 11t49.5 29.5t30.5 42.5t10.5 50q0 32 -19 52t-70 34l-39 11q-82 23 -121.5 66.5t-39.5 112.5q0 51 19 96t53.5 78.5t84 52.5t110.5 19
q58 0 88 -21.5t33 -47.5h11l14 57h110l-51 -204h-110l12 47q4 17 4 28q0 38 -30 56t-82 18q-34 0 -60.5 -10t-44.5 -26.5t-27.5 -38t-9.5 -43.5q0 -16 4 -29.5t14.5 -25.5t30 -22t50.5 -19l38 -11q85 -24 121.5 -66t36.5 -106q0 -54 -19.5 -101.5t-55.5 -82t-88 -54.5
t-118 -20z" />
    <glyph glyph-name="T" unicode="T" horiz-adv-x="673" 
d="M120 60h90l143 574h-127l-31 -122h-110l46 186h629l-47 -186h-110l30 122h-127l-143 -574h90l-14 -60h-334z" />
    <glyph glyph-name="U" unicode="U" horiz-adv-x="701" 
d="M315 -12q-112 0 -173 41t-61 137q0 21 5.5 53t14.5 69l87 350h-63l15 60h279l-15 -60h-63l-97 -389q-14 -53 -14 -92q0 -48 27 -72.5t84 -24.5q78 0 123.5 49.5t73.5 159.5l93 369h-63l15 60h200l-15 -60h-64l-95 -380q-33 -134 -103 -202t-191 -68z" />
    <glyph glyph-name="V" unicode="V" horiz-adv-x="636" 
d="M151 638h-47l15 60h268l-15 -60h-69l4 -282v-248h8l124 248l146 282h-69l15 60h202l-15 -60h-47l-347 -638h-140z" />
    <glyph glyph-name="W" unicode="W" horiz-adv-x="961" 
d="M154 638h-47l15 60h268l-15 -60h-69l-16 -481h8l260 541h129l-1 -541h8l216 481h-69l15 60h202l-15 -60h-47l-306 -638h-142l2 519h-8l-251 -519h-152z" />
    <glyph glyph-name="X" unicode="X" horiz-adv-x="669" 
d="M-23 60h53l253 279l-101 299h-53l15 60h267l-15 -60h-57l63 -198h10l161 198h-57l15 60h204l-15 -60h-53l-239 -264l109 -314h53l-15 -60h-267l15 60h57l-70 214h-10l-177 -214h57l-15 -60h-203z" />
    <glyph glyph-name="Y" unicode="Y" horiz-adv-x="645" 
d="M115 60h80l55 220l-95 358h-47l15 60h273l-15 -60h-69l65 -267h9l196 267h-69l15 60h207l-15 -60h-47l-264 -335l-61 -243h80l-15 -60h-313z" />
    <glyph glyph-name="Z" unicode="Z" horiz-adv-x="584" 
d="M-19 64l481 570h-214l-31 -122h-110l46 186h500l-16 -64l-477 -570h235l35 142h110l-51 -206h-523z" />
    <glyph glyph-name="bracketleft" unicode="[" horiz-adv-x="330" 
d="M191 760h236l-15 -59h-104l-195 -780h104l-16 -59h-236z" />
    <glyph glyph-name="backslash" unicode="\" horiz-adv-x="409" 
d="M156 748h90l49 -891h-90z" />
    <glyph glyph-name="bracketright" unicode="]" horiz-adv-x="330" 
d="M-57 -79h104l195 780h-104l16 59h236l-226 -898h-236z" />
    <glyph glyph-name="asciicircum" unicode="^" horiz-adv-x="550" 
d="M79 346l253 352h99l85 -358l-79 -33l-69 298h-8l-214 -298z" />
    <glyph glyph-name="underscore" unicode="_" horiz-adv-x="521" 
d="M-52 -90h448l-19 -78h-448z" />
    <glyph glyph-name="grave" unicode="`" horiz-adv-x="600" 
d="M203 754l123 48l16 -208l-38 -12z" />
    <glyph glyph-name="a" unicode="a" horiz-adv-x="592" 
d="M143 -12q-63 0 -89.5 42t-26.5 115q0 42 8 87.5t24 89t39 82.5t52 68.5t64.5 46.5t76.5 17q44 0 75.5 -23.5t41.5 -80.5h12l65 92h71l-112 -448l18 -8l90 114l36 -21l-56 -85q-31 -47 -61.5 -67.5t-62.5 -20.5q-25 0 -41.5 7t-26 18t-13.5 25.5t-4 28.5q0 15 3 31.5
t6 27.5l4 16l-12 2q-14 -31 -31.5 -59.5t-39 -50t-49 -34t-61.5 -12.5zM206 80q24 0 49.5 26t47 64t38 81t24.5 77l7 29q11 48 3 76t-43 28t-69.5 -39t-59.5 -128q-11 -38 -19 -84.5t-8 -78.5q0 -23 6.5 -37t23.5 -14z" />
    <glyph glyph-name="b" unicode="b" horiz-adv-x="567" 
d="M275 -12q-44 0 -75.5 23.5t-41.5 80.5h-12l-66 -92h-71l164 656h-81l15 59l237 45l-114 -377l12 -4q14 31 31 59.5t39 50t49 34.5t62 13q63 0 89.5 -42t26.5 -115q0 -64 -18.5 -133t-52.5 -126.5t-83 -94.5t-110 -37zM234 63q35 0 69.5 39t59.5 128q11 38 19 84.5t8 78.5
q0 23 -6.5 37t-23.5 14q-24 0 -49.5 -26t-47 -64t-38.5 -81t-24 -77l-7 -29q-11 -48 -3 -76t43 -28z" />
    <glyph glyph-name="c" unicode="c" horiz-adv-x="458" 
d="M186 -12q-81 0 -119 46.5t-38 127.5q0 60 17 126t52 121t87 91t123 36q74 0 113.5 -33t39.5 -84q0 -21 -6 -39.5t-17.5 -33t-28 -23t-37.5 -8.5q-30 0 -45.5 20.5t-15.5 44.5q0 13 5 26.5t15.5 24.5t26 19t36.5 10v10q-12 9 -28.5 13.5t-33.5 4.5q-19 0 -35.5 -7
t-31.5 -26t-29 -52.5t-28 -86.5q-15 -55 -22 -98t-7 -72q0 -43 16 -61t45 -18q45 0 81 37t71 106l39 -17q-23 -49 -47 -87t-52.5 -64.5t-64 -40t-81.5 -13.5z" />
    <glyph glyph-name="d" unicode="d" horiz-adv-x="589" 
d="M143 -12q-63 0 -89.5 42t-26.5 115q0 42 8.5 87.5t24 89t38.5 82.5t52 68.5t63.5 46.5t74.5 17q43 0 68 -20t34 -58h12l42 198h-81l15 59l237 45l-171 -684l18 -8l90 114l36 -21l-56 -85q-31 -47 -61.5 -67.5t-62.5 -20.5q-24 0 -40.5 7t-26.5 18t-14 25.5t-4 28.5
q0 15 3 31.5t6 27.5l4 16l-12 2q-14 -31 -31.5 -59.5t-39 -50t-49 -34t-61.5 -12.5zM206 80q24 0 49.5 26t47 64.5t38 81.5t24.5 76l7 29q11 48 3 76t-43 28t-69.5 -39t-59.5 -128q-11 -38 -19 -84.5t-8 -78.5q0 -23 6.5 -37t23.5 -14z" />
    <glyph glyph-name="e" unicode="e" horiz-adv-x="479" 
d="M186 -12q-81 0 -119 46.5t-38 129.5q0 59 17.5 124.5t53.5 120.5t92.5 91t134.5 36q33 0 61.5 -6t49 -19.5t32.5 -34t12 -49.5q0 -23 -12 -50.5t-44 -52t-88 -43t-145 -23.5q-8 -35 -11 -63t-3 -49q0 -43 16 -61t45 -18q46 0 84 37.5t72 105.5l39 -17q-23 -48 -47 -86
t-53.5 -64.5t-66 -40.5t-82.5 -14zM203 299q47 7 77.5 20.5t48.5 32t25.5 40.5t7.5 46q0 21 -10.5 33t-31.5 12t-36.5 -9.5t-28.5 -31t-25.5 -56.5t-26.5 -87z" />
    <glyph glyph-name="f" unicode="f" horiz-adv-x="361" 
d="M-62 -212q-58 0 -88 24t-30 61q0 26 19 47.5t51 21.5q27 0 43.5 -16t16.5 -40q0 -20 -12 -33.5t-28 -21.5l8 -9q33 0 55 18t34 65l139 556h-84l16 63h85l11 46q12 51 35 87t54 59t67.5 33.5t75.5 10.5q59 0 89.5 -24.5t30.5 -60.5q0 -29 -19 -51t-54 -22
q-27 0 -43.5 14.5t-16.5 39.5q0 23 12.5 38t28.5 23l-9 9q-33 0 -55.5 -18t-33.5 -65l-30 -119h107l-16 -63h-106l-122 -483q-13 -50 -36 -86t-53.5 -59t-66.5 -34t-75 -11z" />
    <glyph glyph-name="g" unicode="g" horiz-adv-x="505" 
d="M144 -212q-63 0 -105.5 8.5t-69 22.5t-37.5 32.5t-11 39.5q0 22 12 39.5t32 31t46.5 23.5t56.5 18l2 11q-26 14 -36.5 32t-10.5 41t9 41t24 31.5t35 23t42 15.5l2 11q-29 16 -48 45t-19 72q0 49 20 88t54.5 66t81 41.5t98.5 14.5q47 0 84 -16q14 48 40.5 77t64.5 29
q29 0 46 -14t17 -39q0 -28 -17 -47t-42 -19q-42 0 -53 44h-7l-18 -48q23 -19 36.5 -44.5t13.5 -60.5q0 -49 -20 -87.5t-54.5 -65.5t-80.5 -41.5t-98 -14.5q-14 0 -25.5 2t-22.5 4q-23 -5 -36 -13.5t-13 -23.5q0 -16 12.5 -23.5t32.5 -14.5l84 -27q45 -15 76.5 -29t51.5 -30
t29 -36t9 -46q0 -45 -23 -76.5t-62.5 -51t-92 -28t-110.5 -8.5zM248 238q19 0 32.5 8t23 21.5t16 31t11.5 36.5q11 42 16.5 68t5.5 38q0 21 -11 33.5t-35 12.5q-19 0 -32.5 -8t-23 -21.5t-16 -31t-11.5 -36.5q-11 -42 -16.5 -68t-5.5 -38q0 -21 11 -33.5t35 -12.5zM159 -171
q29 0 55 4t45 13t30 22.5t11 32.5q0 26 -17 35.5t-50 20.5l-121 38q-39 -17 -66 -39t-27 -53q0 -34 31.5 -54t108.5 -20z" />
    <glyph glyph-name="h" unicode="h" horiz-adv-x="599" 
d="M400 -12q-27 0 -45 7.5t-29 19t-15.5 26t-4.5 28.5q0 13 3 28.5t6 27.5l76 272q3 12 3 21q0 26 -23 26q-21 0 -46 -23t-50.5 -64.5t-48.5 -100t-41 -128.5l-32 -128h-144l164 656h-81l15 59l237 45l-111 -385l12 -4q19 34 38 64.5t41.5 52.5t50 35t62.5 13q54 0 78 -28.5
t24 -76.5q0 -18 -3.5 -38t-9.5 -42l-78 -275l18 -8l90 114l36 -21l-56 -85q-32 -48 -65 -68t-71 -20z" />
    <glyph glyph-name="i" unicode="i" horiz-adv-x="330" 
d="M138 -12q-27 0 -45 7.5t-29.5 19t-16 26t-4.5 29.5q0 12 3 28.5t6 27.5l76 305h-81l15 60l237 45l-115 -460l18 -8l90 114l36 -21l-56 -85q-35 -53 -70 -70.5t-64 -17.5zM271 766q37 0 56.5 -19t19.5 -45q0 -14 -3 -26q-8 -32 -33 -50t-60 -18q-37 0 -56.5 19t-19.5 45
q0 14 3 26q8 32 33 50t60 18z" />
    <glyph glyph-name="j" unicode="j" horiz-adv-x="303" 
d="M-64 -212q-60 0 -88.5 19.5t-28.5 54.5q0 29 18 52t53 23q26 0 42 -14.5t16 -39.5q0 -16 -9.5 -31t-27.5 -25l9 -10q30 3 47 28t30 73l129 513h-81l15 60l237 45l-144 -569q-12 -46 -33 -80t-49 -56t-62.5 -32.5t-72.5 -10.5zM249 608q-37 0 -56.5 19t-19.5 45q0 14 3 26
q8 32 33 50t60 18q37 0 56.5 -19t19.5 -45q0 -14 -3 -26q-8 -32 -33 -50t-60 -18z" />
    <glyph glyph-name="k" unicode="k" horiz-adv-x="588" 
d="M401 -12q-37 0 -63 14t-40 55l-50 161q43 25 72 52.5t46 53t24.5 48t7.5 38.5q0 34 -30 34q-23 0 -47.5 -23t-49 -65t-46.5 -100t-40 -128l-32 -128h-144l164 656h-81l15 59l237 45l-111 -385l12 -4q19 35 38.5 65t42.5 52.5t50 35t62 12.5q53 0 77 -29t24 -70
q0 -32 -12.5 -59.5t-33.5 -51t-48 -43t-57 -34.5l56 -176h18l86 109l36 -21l-56 -85q-18 -27 -33.5 -44t-30.5 -27t-30 -13.5t-33 -3.5z" />
    <glyph glyph-name="l" unicode="l" horiz-adv-x="315" 
d="M125 -12q-27 0 -45.5 7t-29.5 19t-16 26.5t-5 29.5q0 12 3 28.5t6 27.5l133 530h-81l15 59l236 45l-171 -684l18 -8l90 114l36 -21l-56 -85q-35 -53 -69.5 -70.5t-63.5 -17.5z" />
    <glyph glyph-name="m" unicode="m" horiz-adv-x="887" 
d="M689 -12q-27 0 -45 7.5t-29.5 19t-16 26t-4.5 28.5q0 13 3 28.5t6 27.5l76 272q3 12 3 21q0 26 -22 26q-21 0 -46.5 -23t-50.5 -64.5t-48 -100t-41 -128.5l-32 -128h-144l99 397q3 13 3 21q0 26 -22 26q-21 0 -46 -23.5t-49.5 -65.5t-47.5 -100t-40 -127l-32 -128h-144
l108 431h-81l15 60l222 45l-40 -161l12 -4q19 34 38 64.5t41.5 52.5t49 35t59.5 13q44 0 64 -26t20 -75q0 -10 -1 -21t-3 -23l-3 -16l12 -4q19 34 38.5 64.5t42.5 52.5t50.5 35t62.5 13q54 0 77.5 -29t23.5 -77q0 -18 -3.5 -37.5t-9.5 -41.5l-78 -275l18 -8l90 114l36 -21
l-56 -85q-32 -48 -65 -68t-70 -20z" />
    <glyph glyph-name="n" unicode="n" horiz-adv-x="609" 
d="M410 -12q-27 0 -45 7.5t-29 19t-15.5 26t-4.5 28.5q0 13 3 28.5t6 27.5l76 272q3 12 3 21q0 26 -23 26q-21 0 -46 -23t-50.5 -65t-48.5 -100t-41 -128l-32 -128h-144l108 431h-81l15 60l222 45l-40 -161l12 -4q19 34 38 64.5t41.5 52.5t50 35t62.5 13q54 0 78 -28.5
t24 -76.5q0 -18 -3.5 -38t-9.5 -42l-78 -275l18 -8l90 114l36 -21l-56 -85q-32 -48 -65 -68t-71 -20z" />
    <glyph glyph-name="o" unicode="o" horiz-adv-x="549" 
d="M223 44q39 0 63.5 32t37.5 84q18 70 30 115.5t18.5 74t9 43.5t2.5 24q0 26 -13.5 44.5t-44.5 18.5q-39 0 -63.5 -32t-37.5 -84q-18 -70 -30 -115.5t-18.5 -74t-9 -43.5t-2.5 -24q0 -26 13.5 -44.5t44.5 -18.5zM216 -12q-91 0 -137.5 52.5t-46.5 143.5q0 58 20 120.5
t58.5 114t94.5 84.5t128 33q91 0 137.5 -52.5t46.5 -143.5q0 -59 -20 -121t-58.5 -113.5t-94.5 -84.5t-128 -33z" />
    <glyph glyph-name="p" unicode="p" horiz-adv-x="577" 
d="M-78 -141h62l143 572h-81l15 60l216 45l-37 -153l12 -4q14 31 31 59t38.5 50t48.5 35t62 13q63 0 90 -42t27 -115q0 -64 -18.5 -133t-52.5 -126.5t-83 -94.5t-109 -37q-84 0 -102 78h-12l-44 -207h88l-14 -59h-294zM244 63q35 0 69.5 39t59.5 128q11 38 19 84.5t8 78.5
q0 23 -6.5 37t-23.5 14q-24 0 -49.5 -26t-47 -64t-38.5 -81t-24 -77l-7 -29q-11 -48 -3 -76t43 -28z" />
    <glyph glyph-name="q" unicode="q" horiz-adv-x="568" 
d="M160 -141h88l88 282l-12 4q-14 -31 -31.5 -59.5t-39 -50t-49 -34.5t-61.5 -13q-63 0 -89.5 42t-26.5 115q0 64 18.5 133t52.5 126.5t83 94.5t110 37q44 0 75.5 -23.5t41.5 -80.5h12l66 92h71l-166 -665h62l-14 -59h-293zM206 80q24 0 49.5 26t47 64t38 81t24.5 77l7 29
q11 48 3 76t-43 28t-69.5 -39t-59.5 -128q-11 -38 -19 -84.5t-8 -78.5q0 -23 6.5 -37t23.5 -14z" />
    <glyph glyph-name="r" unicode="r" horiz-adv-x="480" 
d="M127 431h-81l15 60l216 45l-41 -165l12 -4q34 86 70.5 127.5t93.5 41.5q45 0 68.5 -23t23.5 -61q0 -18 -5.5 -34t-16.5 -29t-26.5 -20.5t-34.5 -7.5q-28 0 -47 15.5t-19 41.5q0 15 6.5 31t16.5 26l-7 7q-19 -5 -44.5 -41t-54.5 -96q-26 -53 -47 -115t-38 -132l-24 -98
h-144z" />
    <glyph glyph-name="s" unicode="s" horiz-adv-x="422" 
d="M110 -12q-72 0 -101 21t-29 57q0 28 18.5 51.5t54.5 23.5q26 0 42.5 -16t16.5 -41q0 -15 -6 -31.5t-17 -25.5l9 -11q48 9 80 35t32 67q0 20 -8.5 36.5t-21 31.5t-28 30t-29.5 31q-19 22 -35 47t-16 61q0 46 19.5 80t51.5 56.5t73.5 33.5t85.5 11q70 0 99 -21t29 -57
q0 -28 -18.5 -51.5t-54.5 -23.5q-26 0 -42.5 16t-16.5 41q0 15 6 31.5t17 25.5l-9 11q-45 -10 -72 -37.5t-27 -64.5q0 -20 8.5 -36.5t21.5 -31.5t29 -30t31 -32q17 -19 32.5 -44.5t15.5 -63.5q0 -46 -20.5 -79.5t-54.5 -56t-77.5 -33.5t-88.5 -11z" />
    <glyph glyph-name="t" unicode="t" horiz-adv-x="385" 
d="M147 -12q-26 0 -43.5 7t-28.5 18.5t-15.5 25.5t-4.5 29q0 14 3 30.5t6 27.5l83 335h-84l16 63h35q18 0 31.5 3t24 9t19.5 15.5t19 23.5l62 92h73l-36 -143h113l-16 -63h-112l-95 -378l20 -11l115 109l33 -26l-84 -91q-22 -24 -40 -39t-33.5 -23t-30.5 -11t-30 -3z" />
    <glyph glyph-name="u" unicode="u" horiz-adv-x="607" 
d="M143 -12q-54 0 -78 28.5t-24 76.5q0 19 3.5 39t9.5 41l74 258h-82l15 60l242 45l-114 -410q-3 -12 -3 -21q0 -25 23 -25q21 0 46 23t50.5 64.5t48.5 99.5t41 129l32 128h144l-112 -448l18 -8l90 114l36 -21l-56 -85q-18 -28 -35.5 -45.5t-34 -27t-31.5 -12.5t-29 -3
q-25 0 -41.5 7t-26 18.5t-13.5 25.5t-4 28q0 15 3 31.5t6 27.5l6 23l-12 4q-19 -35 -38 -65t-41.5 -52t-50 -35t-62.5 -13z" />
    <glyph glyph-name="v" unicode="v" horiz-adv-x="511" 
d="M96 465h-37l14 59h242l-14 -59h-53l9 -326h11l171 326h-48l15 59h160l-15 -59h-35l-271 -465h-113z" />
    <glyph glyph-name="w" unicode="w" horiz-adv-x="787" 
d="M94 465h-35l14 59h241l-14 -59h-55l-11 -326h11l198 385h106l-5 -385h11l161 326h-55l14 59h167l-14 -59h-35l-261 -465h-113l2 340h-10l-184 -340h-119z" />
    <glyph glyph-name="x" unicode="x" horiz-adv-x="618" 
d="M77 -12q-45 0 -69 21.5t-24 56.5q0 37 22 65t61 28q28 0 47 -15.5t19 -41.5q0 -15 -6.5 -31t-16.5 -26l8 -6q12 3 27.5 21t31.5 46.5t33 65.5t32 79l-52 198h-16l-77 -88l-33 24l44 62q20 28 39 45.5t37 27.5t35 13t32 3q44 0 63.5 -23.5t25.5 -70.5l15 -110h6
q14 48 27.5 80t28.5 55q14 21 30.5 34.5t33 21t32.5 10.5t28 3q45 0 69 -21.5t24 -56.5q0 -37 -22 -65t-61 -28q-28 0 -47 15.5t-19 41.5q0 15 6.5 31t16.5 26l-8 6q-12 -3 -27.5 -21t-31.5 -46.5t-33 -65.5t-32 -79l52 -198h16l77 88l33 -24l-44 -62q-20 -29 -39 -46
t-37 -27t-35 -13t-32 -3q-44 0 -63.5 23.5t-25.5 70.5l-15 110h-6q-14 -48 -27.5 -80t-28.5 -55q-14 -21 -30.5 -34.5t-33 -21t-32.5 -10.5t-28 -3z" />
    <glyph glyph-name="y" unicode="y" horiz-adv-x="512" 
d="M20 -212q-46 0 -74.5 21t-28.5 57q0 29 19 52t55 23q26 0 42.5 -14.5t16.5 -39.5q0 -15 -6 -30t-16 -23l7 -6q32 11 60 41.5t58 90.5l-63 505h-39l14 59h240l-14 -59h-51l19 -319h11l178 319h-46l14 59h158l-15 -59h-35l-317 -525q-26 -43 -51 -72t-48 -47t-45 -25.5
t-43 -7.5z" />
    <glyph glyph-name="z" unicode="z" horiz-adv-x="486" 
d="M329 -12q-23 0 -47.5 3.5t-55 11t-70 18.5t-93.5 27l-12 -48h-66l9 34q3 12 6 20.5t7.5 16t11 15t16.5 17.5l277 276l-174 27l-20 -13l-30 -81l-41 6l36 148q10 41 31 55.5t58 14.5q23 0 44.5 -3.5t47.5 -10.5t60.5 -18.5t83.5 -27.5l12 48h66l-9 -35q-6 -23 -14 -36.5
t-27 -32.5l-276 -275l204 -27l20 13l30 81l41 -6l-36 -148q-10 -42 -31 -56t-59 -14z" />
    <glyph glyph-name="braceleft" unicode="{" horiz-adv-x="356" 
d="M103 -138q-33 0 -52.5 19.5t-19.5 50.5q0 14 4 29l57 229q4 16 4 27q0 30 -19 45t-51 15l16 67q39 0 69.5 22.5t41.5 65.5l56 227q12 48 45.5 74.5t101.5 26.5h98l-15 -59h-85l-66 -263q-6 -23 -18 -43t-29 -36t-38 -26.5t-45 -14.5l-3 -14q29 -7 49 -33t20 -68
q0 -10 -1 -21.5t-4 -22.5l-60 -238h85l-15 -59h-126v0z" />
    <glyph glyph-name="bar" unicode="|" horiz-adv-x="350" 
d="M255 760h90l-225 -898h-90z" />
    <glyph glyph-name="braceright" unicode="}" horiz-adv-x="356" 
d="M-59 -79h85l66 263q6 22 18 42.5t29 36.5t38 26.5t45 14.5l3 14q-29 7 -49 33t-20 68q0 10 1 21.5t4 22.5l60 238h-85l15 59h126q33 0 52.5 -19.5t19.5 -50.5q0 -14 -4 -29l-57 -229q-4 -16 -4 -27q0 -30 19 -45t51 -15l-16 -67q-39 0 -69.5 -22.5t-41.5 -65.5l-56 -227
q-12 -48 -45.5 -74.5t-101.5 -26.5h-98z" />
    <glyph glyph-name="asciitilde" unicode="~" horiz-adv-x="550" 
d="M368 236q-32 0 -55.5 9.5t-48.5 26.5q-21 14 -41 23.5t-46 9.5q-20 0 -36 -6.5t-39 -22.5l-24 55q22 25 51 40.5t71 15.5q32 0 55.5 -9.5t48.5 -26.5q21 -14 41 -23.5t46 -9.5q20 0 36 6.5t39 22.5l24 -55q-22 -25 -51 -40.5t-71 -15.5z" />
    <glyph glyph-name="uni00A0" unicode="&#xa0;" horiz-adv-x="212" 
 />
    <glyph glyph-name="exclamdown" unicode="&#xa1;" horiz-adv-x="287" 
d="M179 363q-38 0 -59.5 21.5t-21.5 50.5q0 14 3 26q8 34 34 54.5t64 20.5t59.5 -21.5t21.5 -50.5q0 -14 -3 -26q-8 -34 -34 -54.5t-64 -20.5zM-6 -20l127 327h65l-33 -327l-39 -154h-159z" />
    <glyph glyph-name="cent" unicode="&#xa2;" horiz-adv-x="492" 
d="M172 -11q-70 5 -106.5 47.5t-36.5 125.5q0 58 16 122t50 118.5t87 91.5t126 41l24 95h57l-24 -97q65 -8 92.5 -38t27.5 -71q0 -36 -20 -64t-56 -28q-28 0 -42 17t-14 38q0 24 18 47t55 27v9q-11 5 -30.5 10t-43.5 7l-105 -420q54 3 92.5 40.5t72.5 102.5l39 -17
q-21 -44 -43 -79t-48 -61t-58.5 -41.5t-72.5 -20.5l-26 -105h-57zM296 483q-17 -5 -30.5 -16t-25.5 -30.5t-22.5 -49t-22.5 -71.5q-29 -111 -29 -170q0 -29 6 -47t22 -26z" />
    <glyph glyph-name="sterling" unicode="&#xa3;" horiz-adv-x="538" 
d="M-20 104q19 10 43 30t46 48t36.5 63t13.5 74h-84l15 61h60q-3 14 -5 31.5t-2 40.5q0 64 22 112.5t58.5 80.5t84 48.5t97.5 16.5q36 0 69.5 -7t60 -22.5t42 -40t15.5 -58.5q0 -18 -5.5 -35t-16 -30.5t-26 -21.5t-34.5 -8q-31 0 -47.5 19.5t-16.5 43.5q0 28 18 50t54 28v9
q-19 5 -35.5 8.5t-38.5 3.5q-42 0 -71 -19t-47 -48t-25.5 -63.5t-7.5 -65.5q0 -17 0.5 -35t0.5 -38h140l-15 -61h-125q-2 -44 -16.5 -78t-37.5 -58.5t-52.5 -40.5t-61.5 -23l-2 -10h298l27 110h72l-54 -219h-473z" />
    <glyph glyph-name="currency" unicode="&#xa4;" horiz-adv-x="609" 
d="M278 109q-36 0 -64.5 9t-50.5 26l-108 -93l-53 78l107 91q-9 27 -9 60q0 54 18.5 108.5t55.5 100.5l-62 95l79 66l62 -94q29 16 60 24.5t68 8.5q36 0 64.5 -9t50.5 -26l108 93l53 -78l-107 -91q9 -27 9 -60q0 -54 -18.5 -108.5t-55.5 -100.5l62 -95l-79 -66l-62 94
q-29 -16 -60 -24.5t-68 -8.5zM290 164q42 0 68.5 28t37.5 73q14 55 22.5 88t13 53t6 32t1.5 26q0 31 -19 50.5t-51 19.5q-42 0 -68.5 -28t-37.5 -73q-14 -56 -22.5 -88.5t-13 -52.5t-6 -32t-1.5 -26q0 -31 19 -50.5t51 -19.5z" />
    <glyph glyph-name="yen" unicode="&#xa5;" horiz-adv-x="639" 
d="M124 60h72l22 88h-147l15 60h147l21 86h-147l15 60h119l-69 284h-47l15 60h269l-15 -60h-69l48 -252h7l179 252h-69l15 60h207l-15 -60h-47l-220 -284h131l-15 -60h-148l-21 -86h147l-15 -60h-147l-22 -88h72l-15 -60h-288z" />
    <glyph glyph-name="brokenbar" unicode="&#xa6;" horiz-adv-x="350" 
d="M120 220h90l-90 -358h-90zM255 760h90l-90 -358h-90z" />
    <glyph glyph-name="section" unicode="&#xa7;" horiz-adv-x="513" 
d="M152 -161q-70 0 -113.5 30t-43.5 77q0 36 20.5 64t56.5 28q27 0 41.5 -17t14.5 -39q0 -25 -18 -47t-53 -27v-8q34 -14 78 -14q54 0 86.5 23t32.5 59q0 31 -20 51.5t-53 45.5l-62 46q-23 17 -43 34t-35 36.5t-23.5 42t-8.5 51.5q0 28 11.5 52.5t32.5 44t49.5 32.5t62.5 17
l3 12q-14 19 -22 41t-8 52q0 36 16.5 69t46 58.5t70.5 41t90 15.5q70 0 113.5 -30t43.5 -77q0 -36 -20.5 -64t-56.5 -28q-27 0 -41.5 17t-14.5 39q0 25 18 47t53 27v8q-34 14 -78 14q-54 0 -86.5 -23t-32.5 -59q0 -31 20 -51.5t53 -45.5l62 -46q23 -17 43 -34t35 -36.5
t23.5 -42.5t8.5 -51t-11.5 -53t-32.5 -44.5t-49.5 -32t-62.5 -16.5l-3 -12q14 -19 22 -41t8 -52q0 -36 -16.5 -69t-46 -58.5t-70.5 -41t-90 -15.5zM131 329q0 -17 5.5 -30t15.5 -24.5t24 -23t31 -24.5l62 -45q14 -10 26 -19.5t23 -18.5q32 9 48 29.5t16 46.5q0 34 -21 55
t-55 47l-62 45q-14 10 -26 19.5t-23 18.5q-32 -9 -48 -29.5t-16 -46.5z" />
    <glyph glyph-name="dieresis" unicode="&#xa8;" horiz-adv-x="600" 
d="M219 604q-30 0 -47.5 18t-17.5 42q0 10 3 22q6 23 27 40t51 17t47.5 -18t17.5 -42q0 -10 -3 -22q-6 -23 -27 -40t-51 -17zM429 604q-30 0 -47.5 18t-17.5 42q0 10 3 22q6 23 27 40t51 17t47.5 -18t17.5 -42q0 -10 -3 -22q-6 -23 -27 -40t-51 -17z" />
    <glyph glyph-name="copyright" unicode="&#xa9;" horiz-adv-x="758" 
d="M338 137q-121 0 -121 134q0 46 13.5 97.5t41 94t68.5 70.5t97 28q54 0 83.5 -26t29.5 -65q0 -30 -17.5 -53.5t-46.5 -23.5q-23 0 -35.5 15t-12.5 32q0 20 16 39.5t46 22.5v8q-9 6 -22 10t-27 4q-16 0 -29 -5.5t-24.5 -20.5t-22 -41t-21.5 -67q-23 -87 -23 -130
q0 -33 13 -47t36 -14q34 0 61.5 28.5t54.5 81.5l31 -13q-35 -76 -77 -117.5t-112 -41.5zM341 34q57 0 107.5 19t90.5 52.5t68 80t40 101.5q4 19 8.5 40t8 40.5t5.5 35.5t2 25q0 54 -16 97.5t-45.5 74.5t-70.5 47.5t-92 16.5q-57 0 -107.5 -19t-90.5 -53t-68 -80t-40 -101
q-4 -19 -8.5 -40t-8 -40.5t-5.5 -35.5t-2 -25q0 -54 16 -97.5t45.5 -74.5t70.5 -47.5t92 -16.5zM338 -12q-66 0 -119 21.5t-90.5 59.5t-57.5 91.5t-20 118.5q0 71 25.5 147.5t75.5 139.5t125 103.5t173 40.5q66 0 119 -21.5t90.5 -59.5t57.5 -92t20 -118q0 -71 -25.5 -147.5
t-76 -139.5t-125 -103.5t-172.5 -40.5z" />
    <glyph glyph-name="ordfeminine" unicode="&#xaa;" horiz-adv-x="418" 
d="M168 325q-33 0 -56 19t-23 51q0 63 56 97.5t163 39.5q1 9 3.5 20.5t5 24t4 24t1.5 19.5q0 23 -13 34t-35 11q-9 0 -20 -1.5t-19 -3.5l-1 -7q10 -7 10 -27q0 -19 -13.5 -36t-39.5 -17q-40 0 -40 41q0 16 11 32.5t31 29.5t47 21t59 8q53 0 86 -24t33 -74q0 -12 -3 -31
t-7 -34l-37 -152l14 -6l58 73l25 -14l-39 -58q-41 -60 -84 -60q-31 0 -45 15.5t-14 38.5q0 11 4 28l-9 2q-6 -15 -16.5 -30t-25 -27t-32.5 -19.5t-39 -7.5zM214 378q12 0 24 8t22.5 21t18.5 29t12 31l9 33q-50 -3 -72.5 -17.5t-33.5 -40.5q-2 -5 -4.5 -16t-2.5 -19
q0 -15 8 -22t19 -7z" />
    <glyph glyph-name="guillemotleft" unicode="&#xab;" horiz-adv-x="516" 
d="M32 253l14 58l215 183l23 -42l-121 -179l33 -177l-35 -34zM256 253l14 58l215 183l23 -42l-121 -179l33 -177l-35 -34z" />
    <glyph glyph-name="logicalnot" unicode="&#xac;" horiz-adv-x="550" 
d="M390 267h-328l19 77h416l-66 -264h-87z" />
    <glyph glyph-name="uni00AD" unicode="&#xad;" horiz-adv-x="367" 
d="M69 353h274l-24 -96h-274z" />
    <glyph glyph-name="registered" unicode="&#xae;" horiz-adv-x="429" 
d="M169 422h16l40 164h-15l6 24h106q24 0 38 -10t14 -32q0 -31 -17.5 -50t-39.5 -24l18 -58q4 -14 20 -14h3l-6 -24h-29q-20 0 -27.5 6t-11.5 23l-15 62h-13l-17 -67h13l-6 -24h-83zM258 331q33 0 61 11.5t49 31.5t35 47.5t21 59.5q2 11 4 28.5t2 23.5q0 31 -9.5 57.5
t-27 45.5t-42.5 30t-56 11q-33 0 -61 -11.5t-49 -31.5t-35 -47.5t-21 -59.5q-2 -11 -4 -28.5t-2 -23.5q0 -31 9.5 -57.5t27 -45.5t42.5 -30t56 -11zM255 298q-38 0 -70 13.5t-55.5 37t-37 55.5t-13.5 69q0 51 16.5 94.5t45.5 75t69.5 49.5t87.5 18q38 0 70 -13.5t55.5 -37
t37 -55.5t13.5 -69q0 -51 -16.5 -94.5t-46 -75t-69.5 -49.5t-87 -18zM262 513h22q25 0 32 28q2 6 3.5 13t1.5 11q0 8 -4.5 13t-15.5 5h-22z" />
    <glyph glyph-name="macron" unicode="&#xaf;" horiz-adv-x="600" 
d="M199 714h288l-20 -80h-288z" />
    <glyph glyph-name="degree" unicode="&#xb0;" horiz-adv-x="434" 
d="M262 338q-34 0 -63 12.5t-50 34.5t-33 53t-12 67q0 44 15.5 81.5t42 65t62.5 43t77 15.5q34 0 63 -12.5t50 -34.5t33 -53t12 -67q0 -44 -15.5 -81.5t-42 -65t-62.5 -43t-77 -15.5zM270 407q25 0 45 10.5t34.5 29.5t22.5 43.5t8 53.5q0 40 -23.5 68.5t-63.5 28.5
q-25 0 -45 -10.5t-34.5 -29.5t-22.5 -44t-8 -53q0 -40 23.5 -68.5t63.5 -28.5z" />
    <glyph glyph-name="plusminus" unicode="&#xb1;" horiz-adv-x="550" 
d="M256 360h-171l19 77h171l44 178h88l-45 -178h170l-19 -77h-170l-45 -178h-87zM14 77h428l-19 -77h-428z" />
    <glyph glyph-name="twosuperior" unicode="&#xb2;" horiz-adv-x="329" 
d="M64 407l111 97q32 28 53.5 50t29.5 52q2 6 3.5 12.5t1.5 11.5q0 13 -9 22.5t-29 9.5q-7 0 -16 -1t-16 -3l-2 -5q18 -3 18 -24q0 -18 -15 -33.5t-38 -15.5q-20 0 -30 10.5t-10 27.5q0 19 11 34.5t30 27t43 18t50 6.5q64 0 91.5 -21.5t27.5 -59.5q0 -29 -13 -51t-33 -40
t-44 -32.5t-45 -27.5l-98 -58l-2 -8h137l10 41h57l-29 -117h-265z" />
    <glyph glyph-name="threesuperior" unicode="&#xb3;" horiz-adv-x="318" 
d="M148 324q-48 0 -74 18t-26 47q0 27 16 43t36 16q18 0 29.5 -9t11.5 -27q0 -14 -10 -24.5t-21 -12.5l-2 -5q13 -6 29 -6q32 0 49.5 14.5t25.5 49.5q4 15 5 21.5t1 11.5q0 18 -11 27.5t-37 9.5h-26l12 46h20q35 0 52 17.5t25 45.5q1 3 2.5 10.5t1.5 12.5q0 33 -41 33
q-11 0 -28 -5l-2 -5q17 -6 17 -25q0 -14 -12 -30.5t-39 -16.5q-18 0 -29 10t-11 28t10.5 33.5t28.5 27t43 18t54 6.5q61 0 89 -19.5t28 -56.5q0 -23 -9.5 -41t-24.5 -30.5t-34 -19.5t-37 -9l-2 -7q68 -14 68 -69q0 -57 -47 -92.5t-131 -35.5z" />
    <glyph glyph-name="acute" unicode="&#xb4;" horiz-adv-x="600" 
d="M274 602l100 200l111 -58l-175 -162z" />
    <glyph glyph-name="mu" unicode="&#xb5;" horiz-adv-x="608" 
d="M128 431h-81l15 60l242 45l-111 -397q-6 -23 -6 -33q0 -26 23 -26q19 0 43.5 21.5t50 62t49.5 99t43 133.5l32 128h144l-112 -448l18 -8l90 114l36 -21l-56 -85q-18 -28 -35.5 -45.5t-34 -27t-31.5 -12.5t-29 -3q-25 0 -41.5 7t-26 18.5t-13.5 25.5t-4 28q0 15 3 31.5
t6 27.5l6 23l-12 4q-17 -36 -33 -66t-34 -52t-38.5 -34.5t-46.5 -12.5q-20 0 -34.5 11t-19.5 37h-12l-4 -176l-15 -60h-133z" />
    <glyph glyph-name="paragraph" unicode="&#xb6;" horiz-adv-x="561" 
d="M144 -158q-39 0 -68.5 8.5t-49 23.5t-29.5 35t-10 42q0 17 5.5 33.5t15.5 29t24.5 20t31.5 7.5q29 0 43.5 -18t14.5 -41q0 -27 -17 -45.5t-51 -23.5l-1 -8q22 -8 44 -10t39 -2h9.5t10.5 1l99 392q-39 0 -70.5 13t-54.5 36t-35.5 55t-12.5 70q0 58 23.5 102.5t62.5 74.5
t90 45.5t107 15.5h262l-15 -60h-63l-138 -549q-14 -58 -40 -104t-60.5 -77.5t-77 -48.5t-89.5 -17zM224 -86q45 23 77 68.5t49 113.5l136 542h-79z" />
    <glyph glyph-name="periodcentered" unicode="&#xb7;" horiz-adv-x="327" 
d="M163 219q-38 0 -59.5 21.5t-21.5 50.5q0 14 3 26q8 34 34 54.5t64 20.5t59.5 -21.5t21.5 -50.5q0 -14 -3 -26q-8 -34 -34 -54.5t-64 -20.5z" />
    <glyph glyph-name="cedilla" unicode="&#xb8;" horiz-adv-x="600" 
d="M273 -212q-45 0 -71 16t-36 30l30 33q10 -13 26.5 -20.5t37.5 -7.5q26 0 38.5 13.5t12.5 33.5q0 12 -9 21.5t-40 13.5l-23 3l40 90h53l-32 -72l3 -4q11 4 21 5.5t18 1.5q28 0 46 -13.5t18 -39.5q0 -24 -11 -43t-29.5 -32.5t-42.5 -21t-50 -7.5z" />
    <glyph glyph-name="onesuperior" unicode="&#xb9;" horiz-adv-x="325" 
d="M69 374h80l63 252l-87 -33l-7 36l147 69h66l-81 -324h70l-11 -44h-251z" />
    <glyph glyph-name="ordmasculine" unicode="&#xba;" horiz-adv-x="398" 
d="M230 369q28 0 47 23t29 64q11 43 17.5 70.5t10.5 44.5t5 26t1 16q0 23 -12 35.5t-32 12.5q-29 0 -48 -23t-29 -64q-11 -43 -17.5 -70.5t-10.5 -44.5t-5 -26t-1 -16q0 -23 12.5 -35.5t32.5 -12.5zM223 325q-58 0 -94 32t-36 98q0 41 13 85.5t39.5 81t65.5 60t91 23.5
q58 0 94 -32t36 -98q0 -42 -13.5 -86t-39.5 -80.5t-65 -60t-91 -23.5z" />
    <glyph glyph-name="guillemotright" unicode="&#xbb;" horiz-adv-x="516" 
d="M8 104l121 179l-33 177l35 34l129 -191l-14 -58l-215 -183zM232 104l121 179l-33 177l35 34l129 -191l-14 -58l-215 -183z" />
    <glyph glyph-name="onequarter" unicode="&#xbc;" horiz-adv-x="823" 
d="M69 374h80l63 252l-87 -33l-7 36l147 69h66l-81 -324h70l-11 -44h-251zM720 698h81l-655 -698h-82zM560 74h-145l18 69l179 225h120l-56 -225h40l-18 -69h-40l-18 -74h-98zM480 143h98l42 167h-7z" />
    <glyph glyph-name="onehalf" unicode="&#xbd;" horiz-adv-x="833" 
d="M69 374h80l63 252l-87 -33l-7 36l147 69h66l-81 -324h70l-11 -44h-251zM720 698h81l-655 -698h-82zM452 77l111 97q32 28 53.5 50t29.5 52q2 6 3.5 12.5t1.5 11.5q0 13 -9 22.5t-29 9.5q-7 0 -16 -1t-16 -3l-2 -5q18 -3 18 -24q0 -18 -15 -33.5t-38 -15.5q-20 0 -30 10.5
t-10 27.5q0 19 11 34.5t30 27t43 18t50 6.5q64 0 91.5 -21.5t27.5 -59.5q0 -29 -13 -51t-33 -40t-44 -32.5t-45 -27.5l-98 -58l-2 -8h137l10 41h57l-29 -117h-265z" />
    <glyph glyph-name="threequarters" unicode="&#xbe;" horiz-adv-x="776" 
d="M148 324q-48 0 -74 18t-26 47q0 27 16 43t36 16q18 0 29.5 -9t11.5 -27q0 -14 -10 -24.5t-21 -12.5l-2 -5q13 -6 29 -6q32 0 49.5 14.5t25.5 49.5q4 15 5 21.5t1 11.5q0 18 -11 27.5t-37 9.5h-26l12 46h20q35 0 52 17.5t25 45.5q1 3 2.5 10.5t1.5 12.5q0 33 -41 33
q-11 0 -28 -5l-2 -5q17 -6 17 -25q0 -14 -12 -30.5t-39 -16.5q-18 0 -29 10t-11 28t10.5 33.5t28.5 27t43 18t54 6.5q61 0 89 -19.5t28 -56.5q0 -23 -9.5 -41t-24.5 -30.5t-34 -19.5t-37 -9l-2 -7q68 -14 68 -69q0 -57 -47 -92.5t-131 -35.5zM673 698h81l-655 -698h-82z
M513 74h-145l18 69l179 225h120l-56 -225h40l-18 -69h-40l-18 -74h-98zM433 143h98l42 167h-7z" />
    <glyph glyph-name="questiondown" unicode="&#xbf;" horiz-adv-x="473" 
d="M146 -186q-52 0 -88.5 10t-59.5 28t-33.5 43.5t-10.5 56.5q0 60 25 106t66 78.5t94 50.5t110 23l21 84h72l-38 -153q-72 -4 -116 -36t-62 -102q-3 -12 -6.5 -28t-3.5 -32q0 -34 21.5 -53t56.5 -19q18 0 39 3t36 10l3 8q-22 5 -33 20t-11 34q0 32 22 56t60 24q32 0 51 -17
t19 -48q0 -30 -18 -56.5t-49.5 -46.5t-74 -32t-92.5 -12zM333 363q-38 0 -59.5 21.5t-21.5 50.5q0 14 3 26q8 34 34 54.5t64 20.5t59.5 -21.5t21.5 -50.5q0 -14 -3 -26q-8 -34 -34 -54.5t-64 -20.5z" />
    <glyph glyph-name="Agrave" unicode="&#xc0;" horiz-adv-x="663" 
d="M-38 60h47l364 638h131l51 -638h47l-15 -60h-266l14 60h70l-8 158h-217l-86 -158h70l-15 -60h-202zM212 280h183l-11 309h-9zM349 914l123 48l16 -208l-38 -12z" />
    <glyph glyph-name="Aacute" unicode="&#xc1;" horiz-adv-x="663" 
d="M-38 60h47l364 638h131l51 -638h47l-15 -60h-266l14 60h70l-8 158h-217l-86 -158h70l-15 -60h-202zM212 280h183l-11 309h-9zM412 762l100 200l111 -58l-175 -162z" />
    <glyph glyph-name="Acircumflex" unicode="&#xc2;" horiz-adv-x="663" 
d="M-38 60h47l364 638h131l51 -638h47l-15 -60h-266l14 60h70l-8 158h-217l-86 -158h70l-15 -60h-202zM212 280h183l-11 309h-9zM305 771l151 184h85l77 -191l-35 -19l-99 112l-150 -112z" />
    <glyph glyph-name="Atilde" unicode="&#xc3;" horiz-adv-x="663" 
d="M-38 60h47l364 638h131l51 -638h47l-15 -60h-266l14 60h70l-8 158h-217l-86 -158h70l-15 -60h-202zM212 280h183l-11 309h-9zM527 767q-23 0 -41.5 9.5t-37.5 20.5q-18 11 -33 20.5t-32 9.5q-14 0 -27.5 -6t-37.5 -29l-27 29q15 19 28.5 36t28 29.5t30 19.5t34.5 7
q23 0 41.5 -9.5t37.5 -20.5q18 -11 33 -20.5t32 -9.5q14 0 27.5 6t37.5 29l27 -29q-30 -39 -57 -65.5t-64 -26.5z" />
    <glyph glyph-name="Adieresis" unicode="&#xc4;" horiz-adv-x="663" 
d="M-38 60h47l364 638h131l51 -638h47l-15 -60h-266l14 60h70l-8 158h-217l-86 -158h70l-15 -60h-202zM212 280h183l-11 309h-9zM358 769q-30 0 -47.5 18t-17.5 42q0 10 3 22q6 23 27 40t51 17t47.5 -18t17.5 -42q0 -10 -3 -22q-6 -23 -27 -40t-51 -17zM568 769
q-30 0 -47.5 18t-17.5 42q0 10 3 22q6 23 27 40t51 17t47.5 -18t17.5 -42q0 -10 -3 -22q-6 -23 -27 -40t-51 -17z" />
    <glyph glyph-name="Aring" unicode="&#xc5;" horiz-adv-x="663" 
d="M-38 60h47l364 638h131l51 -638h47l-15 -60h-266l14 60h70l-8 158h-217l-86 -158h70l-15 -60h-202zM212 280h183l-11 309h-9zM460 770q23 0 37.5 14.5t21.5 40.5q8 37 12.5 59.5t4.5 31.5q0 16 -8.5 27t-30.5 11q-23 0 -37.5 -14.5t-21.5 -40.5q-8 -37 -12.5 -59.5
t-4.5 -31.5q0 -16 8.5 -27t30.5 -11zM457 722q-28 0 -49.5 9.5t-36.5 24.5t-22.5 34.5t-7.5 40.5q0 36 12.5 67t34.5 54t51 36.5t61 13.5q28 0 49.5 -9.5t36.5 -24.5t22.5 -34.5t7.5 -40.5q0 -36 -13 -67t-34.5 -54t-50.5 -36.5t-61 -13.5z" />
    <glyph glyph-name="AE" unicode="&#xc6;" horiz-adv-x="945" 
d="M-37 60h56l418 578h-64l15 60h610l-47 -186h-110l30 122h-189l-59 -238h120l16 64h69l-48 -192h-69l16 64h-120l-67 -268h198l35 142h110l-51 -206h-524l15 60h63l39 158h-209l-114 -158h64l-15 -60h-203zM260 280h181l89 358h-10z" />
    <glyph glyph-name="Ccedilla" unicode="&#xc7;" horiz-adv-x="604" 
d="M249 -212q-45 0 -71 16t-36 30l30 33q10 -13 26.5 -20.5t37.5 -7.5q26 0 38.5 13.5t12.5 33.5q0 12 -9 21.5t-40 13.5l-23 3l29 65q-41 4 -77 19.5t-62.5 45t-42 74t-15.5 107.5q0 53 11 108.5t33 108.5t54 100t73.5 82t92 55.5t109.5 20.5q53 0 82.5 -21t38.5 -51h11
l15 60h110l-55 -222h-110l10 41q5 20 5 36q0 44 -27.5 65t-67.5 21q-65 0 -108 -50t-63 -128q-17 -69 -28 -112.5t-17.5 -72.5t-9 -47.5t-2.5 -37.5q0 -54 27 -89t84 -35q33 0 60.5 10t51 27.5t43 41.5t37.5 53l43 -28q-20 -33 -46.5 -64t-58.5 -55.5t-69 -41.5t-79 -21
l-21 -47l3 -4q11 4 21 5.5t18 1.5q28 0 46 -13.5t18 -39.5q0 -24 -11 -43t-29.5 -32.5t-42.5 -21t-50 -7.5z" />
    <glyph glyph-name="Egrave" unicode="&#xc8;" horiz-adv-x="604" 
d="M-18 60h63l144 578h-63l15 60h516l-47 -186h-110l30 122h-189l-59 -238h120l16 64h69l-48 -192h-69l16 64h-120l-67 -268h198l35 142h110l-51 -206h-524zM320 914l123 48l16 -208l-38 -12z" />
    <glyph glyph-name="Eacute" unicode="&#xc9;" horiz-adv-x="604" 
d="M-18 60h63l144 578h-63l15 60h516l-47 -186h-110l30 122h-189l-59 -238h120l16 64h69l-48 -192h-69l16 64h-120l-67 -268h198l35 142h110l-51 -206h-524zM383 762l100 200l111 -58l-175 -162z" />
    <glyph glyph-name="Ecircumflex" unicode="&#xca;" horiz-adv-x="604" 
d="M-18 60h63l144 578h-63l15 60h516l-47 -186h-110l30 122h-189l-59 -238h120l16 64h69l-48 -192h-69l16 64h-120l-67 -268h198l35 142h110l-51 -206h-524zM276 771l151 184h85l77 -191l-35 -19l-99 112l-150 -112z" />
    <glyph glyph-name="Edieresis" unicode="&#xcb;" horiz-adv-x="604" 
d="M-18 60h63l144 578h-63l15 60h516l-47 -186h-110l30 122h-189l-59 -238h120l16 64h69l-48 -192h-69l16 64h-120l-67 -268h198l35 142h110l-51 -206h-524zM329 769q-30 0 -47.5 18t-17.5 42q0 10 3 22q6 23 27 40t51 17t47.5 -18t17.5 -42q0 -10 -3 -22q-6 -23 -27 -40
t-51 -17zM539 769q-30 0 -47.5 18t-17.5 42q0 10 3 22q6 23 27 40t51 17t47.5 -18t17.5 -42q0 -10 -3 -22q-6 -23 -27 -40t-51 -17z" />
    <glyph glyph-name="Igrave" unicode="&#xcc;" horiz-adv-x="343" 
d="M-18 60h63l144 578h-63l15 60h279l-15 -60h-63l-144 -578h63l-15 -60h-279zM191 914l123 48l16 -208l-38 -12z" />
    <glyph glyph-name="Iacute" unicode="&#xcd;" horiz-adv-x="343" 
d="M-18 60h63l144 578h-63l15 60h279l-15 -60h-63l-144 -578h63l-15 -60h-279zM254 762l100 200l111 -58l-175 -162z" />
    <glyph glyph-name="Icircumflex" unicode="&#xce;" horiz-adv-x="343" 
d="M-18 60h63l144 578h-63l15 60h279l-15 -60h-63l-144 -578h63l-15 -60h-279zM147 771l151 184h85l77 -191l-35 -19l-99 112l-150 -112z" />
    <glyph glyph-name="Idieresis" unicode="&#xcf;" horiz-adv-x="343" 
d="M-18 60h63l144 578h-63l15 60h279l-15 -60h-63l-144 -578h63l-15 -60h-279zM200 769q-30 0 -47.5 18t-17.5 42q0 10 3 22q6 23 27 40t51 17t47.5 -18t17.5 -42q0 -10 -3 -22q-6 -23 -27 -40t-51 -17zM410 769q-30 0 -47.5 18t-17.5 42q0 10 3 22q6 23 27 40t51 17
t47.5 -18t17.5 -42q0 -10 -3 -22q-6 -23 -27 -40t-51 -17z" />
    <glyph glyph-name="Eth" unicode="&#xd0;" horiz-adv-x="700" 
d="M-18 60h63l64 258h-76l15 64h77l64 256h-63l15 60h292q65 0 112 -19.5t77 -53t44.5 -78t14.5 -94.5q0 -51 -11.5 -104.5t-34 -104t-56.5 -95t-79.5 -77.5t-102 -52.5t-123.5 -19.5h-307zM199 64h53q94 0 147 51.5t81 162.5q18 73 28.5 116.5t15.5 69t6.5 39t1.5 26.5
q0 58 -33 82t-96 24h-61l-63 -253h103l-16 -64h-103z" />
    <glyph glyph-name="Ntilde" unicode="&#xd1;" horiz-adv-x="710" 
d="M-18 60h62l145 578h-63l15 60h244l128 -512h10l113 452h-63l15 60h199l-15 -60h-63l-159 -638h-134l-158 586h-10l-131 -526h63l-15 -60h-198zM574 767q-23 0 -41.5 9.5t-37.5 20.5q-18 11 -33 20.5t-32 9.5q-14 0 -27.5 -6t-37.5 -29l-27 29q15 19 28.5 36t28 29.5
t30 19.5t34.5 7q23 0 41.5 -9.5t37.5 -20.5q18 -11 33 -20.5t32 -9.5q14 0 27.5 6t37.5 29l27 -29q-30 -39 -57 -65.5t-64 -26.5z" />
    <glyph glyph-name="Ograve" unicode="&#xd2;" horiz-adv-x="701" 
d="M306 53q63 0 105.5 44.5t59.5 114.5q22 87 35.5 140.5t21 87t10.5 53.5t3 40q0 48 -27.5 80t-81.5 32q-63 0 -105.5 -44.5t-59.5 -114.5q-22 -87 -35.5 -140.5t-21 -87t-10.5 -53.5t-3 -40q0 -48 27.5 -80t81.5 -32zM292 -12q-59 0 -104.5 18t-76.5 51.5t-47 81.5
t-16 107q0 50 11.5 104t34 105.5t56 97.5t77.5 81t99 55.5t120 20.5q59 0 104.5 -18t76.5 -51.5t47 -81.5t16 -107q0 -50 -11.5 -104t-34 -105.5t-56 -97.5t-77.5 -81t-99 -55.5t-120 -20.5zM354 914l123 48l16 -208l-38 -12z" />
    <glyph glyph-name="Oacute" unicode="&#xd3;" horiz-adv-x="701" 
d="M306 53q63 0 105.5 44.5t59.5 114.5q22 87 35.5 140.5t21 87t10.5 53.5t3 40q0 48 -27.5 80t-81.5 32q-63 0 -105.5 -44.5t-59.5 -114.5q-22 -87 -35.5 -140.5t-21 -87t-10.5 -53.5t-3 -40q0 -48 27.5 -80t81.5 -32zM292 -12q-59 0 -104.5 18t-76.5 51.5t-47 81.5
t-16 107q0 50 11.5 104t34 105.5t56 97.5t77.5 81t99 55.5t120 20.5q59 0 104.5 -18t76.5 -51.5t47 -81.5t16 -107q0 -50 -11.5 -104t-34 -105.5t-56 -97.5t-77.5 -81t-99 -55.5t-120 -20.5zM417 762l100 200l111 -58l-175 -162z" />
    <glyph glyph-name="Ocircumflex" unicode="&#xd4;" horiz-adv-x="701" 
d="M306 53q63 0 105.5 44.5t59.5 114.5q22 87 35.5 140.5t21 87t10.5 53.5t3 40q0 48 -27.5 80t-81.5 32q-63 0 -105.5 -44.5t-59.5 -114.5q-22 -87 -35.5 -140.5t-21 -87t-10.5 -53.5t-3 -40q0 -48 27.5 -80t81.5 -32zM292 -12q-59 0 -104.5 18t-76.5 51.5t-47 81.5
t-16 107q0 50 11.5 104t34 105.5t56 97.5t77.5 81t99 55.5t120 20.5q59 0 104.5 -18t76.5 -51.5t47 -81.5t16 -107q0 -50 -11.5 -104t-34 -105.5t-56 -97.5t-77.5 -81t-99 -55.5t-120 -20.5zM310 771l151 184h85l77 -191l-35 -19l-99 112l-150 -112z" />
    <glyph glyph-name="Otilde" unicode="&#xd5;" horiz-adv-x="701" 
d="M306 53q63 0 105.5 44.5t59.5 114.5q22 87 35.5 140.5t21 87t10.5 53.5t3 40q0 48 -27.5 80t-81.5 32q-63 0 -105.5 -44.5t-59.5 -114.5q-22 -87 -35.5 -140.5t-21 -87t-10.5 -53.5t-3 -40q0 -48 27.5 -80t81.5 -32zM292 -12q-59 0 -104.5 18t-76.5 51.5t-47 81.5
t-16 107q0 50 11.5 104t34 105.5t56 97.5t77.5 81t99 55.5t120 20.5q59 0 104.5 -18t76.5 -51.5t47 -81.5t16 -107q0 -50 -11.5 -104t-34 -105.5t-56 -97.5t-77.5 -81t-99 -55.5t-120 -20.5zM532 767q-23 0 -41.5 9.5t-37.5 20.5q-18 11 -33 20.5t-32 9.5q-14 0 -27.5 -6
t-37.5 -29l-27 29q15 19 28.5 36t28 29.5t30 19.5t34.5 7q23 0 41.5 -9.5t37.5 -20.5q18 -11 33 -20.5t32 -9.5q14 0 27.5 6t37.5 29l27 -29q-30 -39 -57 -65.5t-64 -26.5z" />
    <glyph glyph-name="Odieresis" unicode="&#xd6;" horiz-adv-x="701" 
d="M306 53q63 0 105.5 44.5t59.5 114.5q22 87 35.5 140.5t21 87t10.5 53.5t3 40q0 48 -27.5 80t-81.5 32q-63 0 -105.5 -44.5t-59.5 -114.5q-22 -87 -35.5 -140.5t-21 -87t-10.5 -53.5t-3 -40q0 -48 27.5 -80t81.5 -32zM292 -12q-59 0 -104.5 18t-76.5 51.5t-47 81.5
t-16 107q0 50 11.5 104t34 105.5t56 97.5t77.5 81t99 55.5t120 20.5q59 0 104.5 -18t76.5 -51.5t47 -81.5t16 -107q0 -50 -11.5 -104t-34 -105.5t-56 -97.5t-77.5 -81t-99 -55.5t-120 -20.5zM363 769q-30 0 -47.5 18t-17.5 42q0 10 3 22q6 23 27 40t51 17t47.5 -18t17.5 -42
q0 -10 -3 -22q-6 -23 -27 -40t-51 -17zM573 769q-30 0 -47.5 18t-17.5 42q0 10 3 22q6 23 27 40t51 17t47.5 -18t17.5 -42q0 -10 -3 -22q-6 -23 -27 -40t-51 -17z" />
    <glyph glyph-name="multiply" unicode="&#xd7;" horiz-adv-x="550" 
d="M48 150l181 155l-103 155l67 56l103 -154l179 154l45 -64l-181 -155l103 -155l-67 -56l-103 154l-179 -154z" />
    <glyph glyph-name="Oslash" unicode="&#xd8;" horiz-adv-x="701" 
d="M13 -3l77 87q-42 63 -42 162q0 50 11.5 104t34 105.5t56 97.5t77.5 81t99 55.5t120 20.5q96 0 158 -48l73 81l48 -42l-77 -87q42 -63 42 -162q0 -50 -11.5 -104t-34 -105.5t-56 -97.5t-77.5 -81t-99 -55.5t-120 -20.5q-96 0 -158 48l-73 -81zM432 645q-63 0 -108 -44.5
t-62 -114.5q-17 -69 -29 -116.5t-20 -80.5t-12.5 -54.5t-6.5 -37.5l342 386q-13 28 -39.5 45t-64.5 17zM306 53q63 0 108 44.5t62 114.5q17 69 29 116.5t20 80.5t12.5 54t6.5 38l-342 -386q13 -28 39.5 -45t64.5 -17z" />
    <glyph glyph-name="Ugrave" unicode="&#xd9;" horiz-adv-x="701" 
d="M315 -12q-112 0 -173 41t-61 137q0 21 5.5 53t14.5 69l87 350h-63l15 60h279l-15 -60h-63l-97 -389q-14 -53 -14 -92q0 -48 27 -72.5t84 -24.5q78 0 123.5 49.5t73.5 159.5l93 369h-63l15 60h200l-15 -60h-64l-95 -380q-33 -134 -103 -202t-191 -68zM409 914l123 48
l16 -208l-38 -12z" />
    <glyph glyph-name="Uacute" unicode="&#xda;" horiz-adv-x="701" 
d="M315 -12q-112 0 -173 41t-61 137q0 21 5.5 53t14.5 69l87 350h-63l15 60h279l-15 -60h-63l-97 -389q-14 -53 -14 -92q0 -48 27 -72.5t84 -24.5q78 0 123.5 49.5t73.5 159.5l93 369h-63l15 60h200l-15 -60h-64l-95 -380q-33 -134 -103 -202t-191 -68zM472 762l100 200
l111 -58l-175 -162z" />
    <glyph glyph-name="Ucircumflex" unicode="&#xdb;" horiz-adv-x="701" 
d="M315 -12q-112 0 -173 41t-61 137q0 21 5.5 53t14.5 69l87 350h-63l15 60h279l-15 -60h-63l-97 -389q-14 -53 -14 -92q0 -48 27 -72.5t84 -24.5q78 0 123.5 49.5t73.5 159.5l93 369h-63l15 60h200l-15 -60h-64l-95 -380q-33 -134 -103 -202t-191 -68zM365 771l151 184h85
l77 -191l-35 -19l-99 112l-150 -112z" />
    <glyph glyph-name="Udieresis" unicode="&#xdc;" horiz-adv-x="701" 
d="M315 -12q-112 0 -173 41t-61 137q0 21 5.5 53t14.5 69l87 350h-63l15 60h279l-15 -60h-63l-97 -389q-14 -53 -14 -92q0 -48 27 -72.5t84 -24.5q78 0 123.5 49.5t73.5 159.5l93 369h-63l15 60h200l-15 -60h-64l-95 -380q-33 -134 -103 -202t-191 -68zM418 769
q-30 0 -47.5 18t-17.5 42q0 10 3 22q6 23 27 40t51 17t47.5 -18t17.5 -42q0 -10 -3 -22q-6 -23 -27 -40t-51 -17zM628 769q-30 0 -47.5 18t-17.5 42q0 10 3 22q6 23 27 40t51 17t47.5 -18t17.5 -42q0 -10 -3 -22q-6 -23 -27 -40t-51 -17z" />
    <glyph glyph-name="Yacute" unicode="&#xdd;" horiz-adv-x="645" 
d="M115 60h80l55 220l-95 358h-47l15 60h273l-15 -60h-69l65 -267h9l196 267h-69l15 60h207l-15 -60h-47l-264 -335l-61 -243h80l-15 -60h-313zM435 762l100 200l111 -58l-175 -162z" />
    <glyph glyph-name="Thorn" unicode="&#xde;" horiz-adv-x="610" 
d="M-18 60h63l144 578h-63l15 60h279l-15 -60h-63l-24 -96h135q38 0 70 -7t54.5 -23t35 -41t12.5 -61q0 -42 -14 -87t-44.5 -82t-80 -61t-120.5 -24h-144l-24 -96h63l-15 -60h-279zM238 220h91q96 0 125 107q2 7 5 19t5.5 25t4.5 24.5t2 18.5q0 30 -19.5 47t-59.5 17h-90z
" />
    <glyph glyph-name="germandbls" unicode="&#xdf;" horiz-adv-x="646" 
d="M-62 -212q-58 0 -88 24t-30 61q0 26 19 47.5t51 21.5q27 0 43.5 -16t16.5 -40q0 -20 -12 -33.5t-28 -21.5l8 -9q33 0 55 18t34 65l139 555h-84l16 64h85l6 27q24 96 92 152.5t188 56.5q98 0 142.5 -41t44.5 -107q0 -37 -10 -73l-11 -39h-28q-54 0 -83 -23.5t-29 -68.5
q0 -31 17 -54t39 -49q11 -12 22 -25.5t19.5 -29t14 -34t5.5 -40.5q0 -46 -19.5 -81t-51.5 -59t-74.5 -36t-87.5 -12q-72 0 -101 21t-29 57q0 27 18.5 51t54.5 24q27 0 43 -16t16 -42q0 -14 -6 -30.5t-17 -25.5l9 -11q48 9 76 38t28 67q0 33 -18 57t-41 50q-22 24 -40 53
t-18 72q0 33 13.5 59.5t34.5 46t46.5 32t50.5 16.5l18 74q9 37 9 62q0 32 -18 48.5t-47 16.5q-48 0 -77.5 -36.5t-48.5 -113.5l-146 -580q-12 -50 -35.5 -86t-54 -59t-66.5 -34t-75 -11z" />
    <glyph glyph-name="agrave" unicode="&#xe0;" horiz-adv-x="592" 
d="M143 -12q-63 0 -89.5 42t-26.5 115q0 42 8 87.5t24 89t39 82.5t52 68.5t64.5 46.5t76.5 17q44 0 75.5 -23.5t41.5 -80.5h12l65 92h71l-112 -448l18 -8l90 114l36 -21l-56 -85q-31 -47 -61.5 -67.5t-62.5 -20.5q-25 0 -41.5 7t-26 18t-13.5 25.5t-4 28.5q0 15 3 31.5
t6 27.5l4 16l-12 2q-14 -31 -31.5 -59.5t-39 -50t-49 -34t-61.5 -12.5zM206 80q24 0 49.5 26t47 64t38 81t24.5 77l7 29q11 48 3 76t-43 28t-69.5 -39t-59.5 -128q-11 -38 -19 -84.5t-8 -78.5q0 -23 6.5 -37t23.5 -14zM228 754l123 48l16 -208l-38 -12z" />
    <glyph glyph-name="aacute" unicode="&#xe1;" horiz-adv-x="592" 
d="M143 -12q-63 0 -89.5 42t-26.5 115q0 42 8 87.5t24 89t39 82.5t52 68.5t64.5 46.5t76.5 17q44 0 75.5 -23.5t41.5 -80.5h12l65 92h71l-112 -448l18 -8l90 114l36 -21l-56 -85q-31 -47 -61.5 -67.5t-62.5 -20.5q-25 0 -41.5 7t-26 18t-13.5 25.5t-4 28.5q0 15 3 31.5
t6 27.5l4 16l-12 2q-14 -31 -31.5 -59.5t-39 -50t-49 -34t-61.5 -12.5zM206 80q24 0 49.5 26t47 64t38 81t24.5 77l7 29q11 48 3 76t-43 28t-69.5 -39t-59.5 -128q-11 -38 -19 -84.5t-8 -78.5q0 -23 6.5 -37t23.5 -14zM299 602l100 200l111 -58l-175 -162z" />
    <glyph glyph-name="acircumflex" unicode="&#xe2;" horiz-adv-x="592" 
d="M143 -12q-63 0 -89.5 42t-26.5 115q0 42 8 87.5t24 89t39 82.5t52 68.5t64.5 46.5t76.5 17q44 0 75.5 -23.5t41.5 -80.5h12l65 92h71l-112 -448l18 -8l90 114l36 -21l-56 -85q-31 -47 -61.5 -67.5t-62.5 -20.5q-25 0 -41.5 7t-26 18t-13.5 25.5t-4 28.5q0 15 3 31.5
t6 27.5l4 16l-12 2q-14 -31 -31.5 -59.5t-39 -50t-49 -34t-61.5 -12.5zM206 80q24 0 49.5 26t47 64t38 81t24.5 77l7 29q11 48 3 76t-43 28t-69.5 -39t-59.5 -128q-11 -38 -19 -84.5t-8 -78.5q0 -23 6.5 -37t23.5 -14zM185 608l151 184h85l77 -191l-35 -19l-99 112
l-150 -112z" />
    <glyph glyph-name="atilde" unicode="&#xe3;" horiz-adv-x="592" 
d="M143 -12q-63 0 -89.5 42t-26.5 115q0 42 8 87.5t24 89t39 82.5t52 68.5t64.5 46.5t76.5 17q44 0 75.5 -23.5t41.5 -80.5h12l65 92h71l-112 -448l18 -8l90 114l36 -21l-56 -85q-31 -47 -61.5 -67.5t-62.5 -20.5q-25 0 -41.5 7t-26 18t-13.5 25.5t-4 28.5q0 15 3 31.5
t6 27.5l4 16l-12 2q-14 -31 -31.5 -59.5t-39 -50t-49 -34t-61.5 -12.5zM206 80q24 0 49.5 26t47 64t38 81t24.5 77l7 29q11 48 3 76t-43 28t-69.5 -39t-59.5 -128q-11 -38 -19 -84.5t-8 -78.5q0 -23 6.5 -37t23.5 -14zM413 602q-23 0 -41.5 9.5t-37.5 20.5q-18 11 -33 20.5
t-32 9.5q-14 0 -27.5 -6t-37.5 -29l-27 29q15 19 28.5 36t28 29.5t30 19.5t34.5 7q23 0 41.5 -9.5t37.5 -20.5q18 -11 33 -20.5t32 -9.5q14 0 27.5 6t37.5 29l27 -29q-30 -39 -57 -65.5t-64 -26.5z" />
    <glyph glyph-name="adieresis" unicode="&#xe4;" horiz-adv-x="592" 
d="M143 -12q-63 0 -89.5 42t-26.5 115q0 42 8 87.5t24 89t39 82.5t52 68.5t64.5 46.5t76.5 17q44 0 75.5 -23.5t41.5 -80.5h12l65 92h71l-112 -448l18 -8l90 114l36 -21l-56 -85q-31 -47 -61.5 -67.5t-62.5 -20.5q-25 0 -41.5 7t-26 18t-13.5 25.5t-4 28.5q0 15 3 31.5
t6 27.5l4 16l-12 2q-14 -31 -31.5 -59.5t-39 -50t-49 -34t-61.5 -12.5zM206 80q24 0 49.5 26t47 64t38 81t24.5 77l7 29q11 48 3 76t-43 28t-69.5 -39t-59.5 -128q-11 -38 -19 -84.5t-8 -78.5q0 -23 6.5 -37t23.5 -14zM244 604q-30 0 -47.5 18t-17.5 42q0 10 3 22
q6 23 27 40t51 17t47.5 -18t17.5 -42q0 -10 -3 -22q-6 -23 -27 -40t-51 -17zM454 604q-30 0 -47.5 18t-17.5 42q0 10 3 22q6 23 27 40t51 17t47.5 -18t17.5 -42q0 -10 -3 -22q-6 -23 -27 -40t-51 -17z" />
    <glyph glyph-name="aring" unicode="&#xe5;" horiz-adv-x="592" 
d="M143 -12q-63 0 -89.5 42t-26.5 115q0 42 8 87.5t24 89t39 82.5t52 68.5t64.5 46.5t76.5 17q44 0 75.5 -23.5t41.5 -80.5h12l65 92h71l-112 -448l18 -8l90 114l36 -21l-56 -85q-31 -47 -61.5 -67.5t-62.5 -20.5q-25 0 -41.5 7t-26 18t-13.5 25.5t-4 28.5q0 15 3 31.5
t6 27.5l4 16l-12 2q-14 -31 -31.5 -59.5t-39 -50t-49 -34t-61.5 -12.5zM206 80q24 0 49.5 26t47 64t38 81t24.5 77l7 29q11 48 3 76t-43 28t-69.5 -39t-59.5 -128q-11 -38 -19 -84.5t-8 -78.5q0 -23 6.5 -37t23.5 -14zM347 608q23 0 37.5 14.5t21.5 40.5q8 37 12.5 59.5
t4.5 31.5q0 16 -8.5 27t-30.5 11q-23 0 -37.5 -14.5t-21.5 -40.5q-8 -37 -12.5 -59.5t-4.5 -31.5q0 -16 8.5 -27t30.5 -11zM344 560q-28 0 -49.5 9.5t-36.5 24.5t-22.5 34.5t-7.5 40.5q0 36 12.5 67t34.5 54t51 36.5t61 13.5q28 0 49.5 -9.5t36.5 -24.5t22.5 -34.5
t7.5 -40.5q0 -36 -13 -67t-34.5 -54t-50.5 -36.5t-61 -13.5z" />
    <glyph glyph-name="ae" unicode="&#xe6;" horiz-adv-x="719" 
d="M97 -12q-48 0 -76.5 28t-28.5 76q0 85 76 134.5t228 57.5q3 11 7 27.5t7.5 34.5t6.5 35t3 28q0 34 -21.5 51.5t-56.5 17.5q-13 0 -27 -1.5t-25 -4.5l-3 -9q10 -8 17.5 -18t7.5 -26q0 -14 -5 -28.5t-14.5 -25.5t-24.5 -18t-34 -7q-27 0 -42.5 14.5t-15.5 44.5
q0 25 16 49.5t44.5 44t67 31.5t84.5 12q43 0 75 -17t44 -50h12q23 30 62 48.5t87 18.5q33 0 61 -6t48.5 -19.5t32.5 -34t12 -49.5q0 -23 -12 -50.5t-44 -52t-88 -43t-145 -23.5q-8 -35 -11 -63t-3 -49q0 -45 16.5 -62t45.5 -17q45 0 82.5 37t72.5 106l39 -17
q-45 -98 -102 -151.5t-143 -53.5q-69 0 -105.5 35.5t-41.5 96.5h-13q-9 -23 -24.5 -46t-37 -42.5t-49.5 -31.5t-62 -12zM163 66q17 0 34.5 11.5t32.5 30.5t26.5 42t17.5 46l13 53q-71 -11 -108 -34t-48 -65q-2 -7 -5 -19t-3 -23q0 -21 11.5 -31.5t28.5 -10.5zM443 299
q47 7 77.5 20.5t48.5 32t25.5 40.5t7.5 46q0 21 -10.5 33t-31.5 12t-36.5 -9.5t-28.5 -31t-25.5 -56.5t-26.5 -87z" />
    <glyph glyph-name="ccedilla" unicode="&#xe7;" horiz-adv-x="458" 
d="M165 -212q-45 0 -71 16t-36 30l30 33q10 -13 26.5 -20.5t37.5 -7.5q26 0 38.5 13.5t12.5 33.5q0 12 -9 21.5t-40 13.5l-23 3l29 65q-67 8 -99 53t-32 120q0 60 17 126t52 121t87 91t123 36q74 0 113.5 -33t39.5 -84q0 -21 -6 -39.5t-17.5 -33t-28 -23t-37.5 -8.5
q-30 0 -45.5 20.5t-15.5 44.5q0 13 5 26.5t15.5 24.5t26 19t36.5 10v10q-12 9 -28.5 13.5t-33.5 4.5q-19 0 -35.5 -7t-31.5 -26t-29 -52.5t-28 -86.5q-15 -55 -22 -98t-7 -72q0 -43 16 -61t45 -18q45 0 81 37t71 106l39 -17q-21 -45 -43 -81t-47.5 -62t-57 -41.5
t-70.5 -19.5l-21 -47l3 -4q11 4 21 5.5t18 1.5q28 0 46 -13.5t18 -39.5q0 -24 -11 -43t-29.5 -32.5t-42.5 -21t-50 -7.5z" />
    <glyph glyph-name="egrave" unicode="&#xe8;" horiz-adv-x="479" 
d="M186 -12q-81 0 -119 46.5t-38 129.5q0 59 17.5 124.5t53.5 120.5t92.5 91t134.5 36q33 0 61.5 -6t49 -19.5t32.5 -34t12 -49.5q0 -23 -12 -50.5t-44 -52t-88 -43t-145 -23.5q-8 -35 -11 -63t-3 -49q0 -43 16 -61t45 -18q46 0 84 37.5t72 105.5l39 -17q-23 -48 -47 -86
t-53.5 -64.5t-66 -40.5t-82.5 -14zM203 299q47 7 77.5 20.5t48.5 32t25.5 40.5t7.5 46q0 21 -10.5 33t-31.5 12t-36.5 -9.5t-28.5 -31t-25.5 -56.5t-26.5 -87zM232 754l123 48l16 -208l-38 -12z" />
    <glyph glyph-name="eacute" unicode="&#xe9;" horiz-adv-x="479" 
d="M186 -12q-81 0 -119 46.5t-38 129.5q0 59 17.5 124.5t53.5 120.5t92.5 91t134.5 36q33 0 61.5 -6t49 -19.5t32.5 -34t12 -49.5q0 -23 -12 -50.5t-44 -52t-88 -43t-145 -23.5q-8 -35 -11 -63t-3 -49q0 -43 16 -61t45 -18q46 0 84 37.5t72 105.5l39 -17q-23 -48 -47 -86
t-53.5 -64.5t-66 -40.5t-82.5 -14zM203 299q47 7 77.5 20.5t48.5 32t25.5 40.5t7.5 46q0 21 -10.5 33t-31.5 12t-36.5 -9.5t-28.5 -31t-25.5 -56.5t-26.5 -87zM303 602l100 200l111 -58l-175 -162z" />
    <glyph glyph-name="ecircumflex" unicode="&#xea;" horiz-adv-x="479" 
d="M186 -12q-81 0 -119 46.5t-38 129.5q0 59 17.5 124.5t53.5 120.5t92.5 91t134.5 36q33 0 61.5 -6t49 -19.5t32.5 -34t12 -49.5q0 -23 -12 -50.5t-44 -52t-88 -43t-145 -23.5q-8 -35 -11 -63t-3 -49q0 -43 16 -61t45 -18q46 0 84 37.5t72 105.5l39 -17q-23 -48 -47 -86
t-53.5 -64.5t-66 -40.5t-82.5 -14zM203 299q47 7 77.5 20.5t48.5 32t25.5 40.5t7.5 46q0 21 -10.5 33t-31.5 12t-36.5 -9.5t-28.5 -31t-25.5 -56.5t-26.5 -87zM189 608l151 184h85l77 -191l-35 -19l-99 112l-150 -112z" />
    <glyph glyph-name="edieresis" unicode="&#xeb;" horiz-adv-x="479" 
d="M186 -12q-81 0 -119 46.5t-38 129.5q0 59 17.5 124.5t53.5 120.5t92.5 91t134.5 36q33 0 61.5 -6t49 -19.5t32.5 -34t12 -49.5q0 -23 -12 -50.5t-44 -52t-88 -43t-145 -23.5q-8 -35 -11 -63t-3 -49q0 -43 16 -61t45 -18q46 0 84 37.5t72 105.5l39 -17q-23 -48 -47 -86
t-53.5 -64.5t-66 -40.5t-82.5 -14zM203 299q47 7 77.5 20.5t48.5 32t25.5 40.5t7.5 46q0 21 -10.5 33t-31.5 12t-36.5 -9.5t-28.5 -31t-25.5 -56.5t-26.5 -87zM248 604q-30 0 -47.5 18t-17.5 42q0 10 3 22q6 23 27 40t51 17t47.5 -18t17.5 -42q0 -10 -3 -22q-6 -23 -27 -40
t-51 -17zM458 604q-30 0 -47.5 18t-17.5 42q0 10 3 22q6 23 27 40t51 17t47.5 -18t17.5 -42q0 -10 -3 -22q-6 -23 -27 -40t-51 -17z" />
    <glyph glyph-name="igrave" unicode="&#xec;" horiz-adv-x="330" 
d="M138 -12q-27 0 -45 7.5t-29.5 19t-16 26t-4.5 29.5q0 12 3 28.5t6 27.5l76 305h-81l15 60l237 45l-115 -460l18 -8l90 114l36 -21l-56 -85q-35 -53 -70 -70.5t-64 -17.5zM119 754l123 48l16 -208l-38 -12z" />
    <glyph glyph-name="iacute" unicode="&#xed;" horiz-adv-x="330" 
d="M138 -12q-27 0 -45 7.5t-29.5 19t-16 26t-4.5 29.5q0 12 3 28.5t6 27.5l76 305h-81l15 60l237 45l-115 -460l18 -8l90 114l36 -21l-56 -85q-35 -53 -70 -70.5t-64 -17.5zM190 602l100 200l111 -58l-175 -162z" />
    <glyph glyph-name="icircumflex" unicode="&#xee;" horiz-adv-x="330" 
d="M138 -12q-27 0 -45 7.5t-29.5 19t-16 26t-4.5 29.5q0 12 3 28.5t6 27.5l76 305h-81l15 60l237 45l-115 -460l18 -8l90 114l36 -21l-56 -85q-35 -53 -70 -70.5t-64 -17.5zM76 608l151 184h85l77 -191l-35 -19l-99 112l-150 -112z" />
    <glyph glyph-name="idieresis" unicode="&#xef;" horiz-adv-x="330" 
d="M138 -12q-27 0 -45 7.5t-29.5 19t-16 26t-4.5 29.5q0 12 3 28.5t6 27.5l76 305h-81l15 60l237 45l-115 -460l18 -8l90 114l36 -21l-56 -85q-35 -53 -70 -70.5t-64 -17.5zM135 604q-30 0 -47.5 18t-17.5 42q0 10 3 22q6 23 27 40t51 17t47.5 -18t17.5 -42q0 -10 -3 -22
q-6 -23 -27 -40t-51 -17zM345 604q-30 0 -47.5 18t-17.5 42q0 10 3 22q6 23 27 40t51 17t47.5 -18t17.5 -42q0 -10 -3 -22q-6 -23 -27 -40t-51 -17z" />
    <glyph glyph-name="eth" unicode="&#xf0;" horiz-adv-x="554" 
d="M215 -12q-89 0 -135.5 52.5t-46.5 143.5q0 63 19 121t52 102.5t78 70.5t96 26q43 0 70.5 -22t34.5 -63l11 3q1 48 -12.5 92.5t-33.5 87.5l-104 -61l-30 53l104 60q-18 26 -39 49t-46 45h82q18 -11 36 -24.5t35 -30.5l110 67l31 -53l-99 -60q39 -50 65.5 -112t26.5 -144
q0 -95 -22 -170t-62 -126.5t-96 -79t-125 -27.5zM222 44q40 0 64 32t38 85q17 64 26.5 101.5t14.5 59t6.5 32t1.5 19.5q0 26 -13.5 44.5t-45.5 18.5q-40 0 -64 -32t-38 -85q-17 -64 -26.5 -101.5t-14.5 -59t-6.5 -32t-1.5 -19.5q0 -26 13.5 -44.5t45.5 -18.5z" />
    <glyph glyph-name="ntilde" unicode="&#xf1;" horiz-adv-x="609" 
d="M410 -12q-27 0 -45 7.5t-29 19t-15.5 26t-4.5 28.5q0 13 3 28.5t6 27.5l76 272q3 12 3 21q0 26 -23 26q-21 0 -46 -23t-50.5 -65t-48.5 -100t-41 -128l-32 -128h-144l108 431h-81l15 60l222 45l-40 -161l12 -4q19 34 38 64.5t41.5 52.5t50 35t62.5 13q54 0 78 -28.5
t24 -76.5q0 -18 -3.5 -38t-9.5 -42l-78 -275l18 -8l90 114l36 -21l-56 -85q-32 -48 -65 -68t-71 -20zM431 602q-23 0 -41.5 9.5t-37.5 20.5q-18 11 -33 20.5t-32 9.5q-14 0 -27.5 -6t-37.5 -29l-27 29q15 19 28.5 36t28 29.5t30 19.5t34.5 7q23 0 41.5 -9.5t37.5 -20.5
q18 -11 33 -20.5t32 -9.5q14 0 27.5 6t37.5 29l27 -29q-30 -39 -57 -65.5t-64 -26.5z" />
    <glyph glyph-name="ograve" unicode="&#xf2;" horiz-adv-x="549" 
d="M223 44q39 0 63.5 32t37.5 84q18 70 30 115.5t18.5 74t9 43.5t2.5 24q0 26 -13.5 44.5t-44.5 18.5q-39 0 -63.5 -32t-37.5 -84q-18 -70 -30 -115.5t-18.5 -74t-9 -43.5t-2.5 -24q0 -26 13.5 -44.5t44.5 -18.5zM216 -12q-91 0 -137.5 52.5t-46.5 143.5q0 58 20 120.5
t58.5 114t94.5 84.5t128 33q91 0 137.5 -52.5t46.5 -143.5q0 -59 -20 -121t-58.5 -113.5t-94.5 -84.5t-128 -33zM240 754l123 48l16 -208l-38 -12z" />
    <glyph glyph-name="oacute" unicode="&#xf3;" horiz-adv-x="549" 
d="M223 44q39 0 63.5 32t37.5 84q18 70 30 115.5t18.5 74t9 43.5t2.5 24q0 26 -13.5 44.5t-44.5 18.5q-39 0 -63.5 -32t-37.5 -84q-18 -70 -30 -115.5t-18.5 -74t-9 -43.5t-2.5 -24q0 -26 13.5 -44.5t44.5 -18.5zM216 -12q-91 0 -137.5 52.5t-46.5 143.5q0 58 20 120.5
t58.5 114t94.5 84.5t128 33q91 0 137.5 -52.5t46.5 -143.5q0 -59 -20 -121t-58.5 -113.5t-94.5 -84.5t-128 -33zM311 602l100 200l111 -58l-175 -162z" />
    <glyph glyph-name="ocircumflex" unicode="&#xf4;" horiz-adv-x="549" 
d="M223 44q39 0 63.5 32t37.5 84q18 70 30 115.5t18.5 74t9 43.5t2.5 24q0 26 -13.5 44.5t-44.5 18.5q-39 0 -63.5 -32t-37.5 -84q-18 -70 -30 -115.5t-18.5 -74t-9 -43.5t-2.5 -24q0 -26 13.5 -44.5t44.5 -18.5zM216 -12q-91 0 -137.5 52.5t-46.5 143.5q0 58 20 120.5
t58.5 114t94.5 84.5t128 33q91 0 137.5 -52.5t46.5 -143.5q0 -59 -20 -121t-58.5 -113.5t-94.5 -84.5t-128 -33zM197 608l151 184h85l77 -191l-35 -19l-99 112l-150 -112z" />
    <glyph glyph-name="otilde" unicode="&#xf5;" horiz-adv-x="549" 
d="M223 44q39 0 63.5 32t37.5 84q18 70 30 115.5t18.5 74t9 43.5t2.5 24q0 26 -13.5 44.5t-44.5 18.5q-39 0 -63.5 -32t-37.5 -84q-18 -70 -30 -115.5t-18.5 -74t-9 -43.5t-2.5 -24q0 -26 13.5 -44.5t44.5 -18.5zM216 -12q-91 0 -137.5 52.5t-46.5 143.5q0 58 20 120.5
t58.5 114t94.5 84.5t128 33q91 0 137.5 -52.5t46.5 -143.5q0 -59 -20 -121t-58.5 -113.5t-94.5 -84.5t-128 -33zM425 602q-23 0 -41.5 9.5t-37.5 20.5q-18 11 -33 20.5t-32 9.5q-14 0 -27.5 -6t-37.5 -29l-27 29q15 19 28.5 36t28 29.5t30 19.5t34.5 7q23 0 41.5 -9.5
t37.5 -20.5q18 -11 33 -20.5t32 -9.5q14 0 27.5 6t37.5 29l27 -29q-30 -39 -57 -65.5t-64 -26.5z" />
    <glyph glyph-name="odieresis" unicode="&#xf6;" horiz-adv-x="549" 
d="M223 44q39 0 63.5 32t37.5 84q18 70 30 115.5t18.5 74t9 43.5t2.5 24q0 26 -13.5 44.5t-44.5 18.5q-39 0 -63.5 -32t-37.5 -84q-18 -70 -30 -115.5t-18.5 -74t-9 -43.5t-2.5 -24q0 -26 13.5 -44.5t44.5 -18.5zM216 -12q-91 0 -137.5 52.5t-46.5 143.5q0 58 20 120.5
t58.5 114t94.5 84.5t128 33q91 0 137.5 -52.5t46.5 -143.5q0 -59 -20 -121t-58.5 -113.5t-94.5 -84.5t-128 -33zM256 604q-30 0 -47.5 18t-17.5 42q0 10 3 22q6 23 27 40t51 17t47.5 -18t17.5 -42q0 -10 -3 -22q-6 -23 -27 -40t-51 -17zM466 604q-30 0 -47.5 18t-17.5 42
q0 10 3 22q6 23 27 40t51 17t47.5 -18t17.5 -42q0 -10 -3 -22q-6 -23 -27 -40t-51 -17z" />
    <glyph glyph-name="divide" unicode="&#xf7;" horiz-adv-x="550" 
d="M227 46q-34 0 -52.5 17t-18.5 42q0 13 3 25q8 32 31 47t58 15q34 0 52.5 -17t18.5 -42q0 -13 -3 -25q-8 -32 -31 -47t-58 -15zM322 417q-34 0 -52.5 17t-18.5 42q0 13 3 25q8 32 31 47t58 15q34 0 52.5 -17t18.5 -42q0 -13 -3 -25q-8 -32 -31 -47t-58 -15zM81 344h428
l-19 -77h-428z" />
    <glyph glyph-name="oslash" unicode="&#xf8;" horiz-adv-x="555" 
d="M-16 -3l75 78q-24 45 -24 109q0 58 20 120.5t58.5 114t94.5 84.5t128 33q78 0 125 -41l70 72l40 -40l-74 -78q23 -46 23 -109q0 -59 -20 -121t-58.5 -113.5t-94.5 -84.5t-128 -33q-40 0 -71 10.5t-54 30.5l-70 -72zM329 480q-39 0 -63.5 -32t-37.5 -84q-14 -52 -23.5 -90
l-16.5 -66l199 209q0 26 -13.5 44.5t-44.5 18.5zM226 44q39 0 63.5 32t37.5 84q14 53 23.5 91t16.5 65l-199 -208q0 -26 13.5 -45t44.5 -19z" />
    <glyph glyph-name="ugrave" unicode="&#xf9;" horiz-adv-x="607" 
d="M143 -12q-54 0 -78 28.5t-24 76.5q0 19 3.5 39t9.5 41l74 258h-82l15 60l242 45l-114 -410q-3 -12 -3 -21q0 -25 23 -25q21 0 46 23t50.5 64.5t48.5 99.5t41 129l32 128h144l-112 -448l18 -8l90 114l36 -21l-56 -85q-18 -28 -35.5 -45.5t-34 -27t-31.5 -12.5t-29 -3
q-25 0 -41.5 7t-26 18.5t-13.5 25.5t-4 28q0 15 3 31.5t6 27.5l6 23l-12 4q-19 -35 -38 -65t-41.5 -52t-50 -35t-62.5 -13zM265 754l123 48l16 -208l-38 -12z" />
    <glyph glyph-name="uacute" unicode="&#xfa;" horiz-adv-x="607" 
d="M143 -12q-54 0 -78 28.5t-24 76.5q0 19 3.5 39t9.5 41l74 258h-82l15 60l242 45l-114 -410q-3 -12 -3 -21q0 -25 23 -25q21 0 46 23t50.5 64.5t48.5 99.5t41 129l32 128h144l-112 -448l18 -8l90 114l36 -21l-56 -85q-18 -28 -35.5 -45.5t-34 -27t-31.5 -12.5t-29 -3
q-25 0 -41.5 7t-26 18.5t-13.5 25.5t-4 28q0 15 3 31.5t6 27.5l6 23l-12 4q-19 -35 -38 -65t-41.5 -52t-50 -35t-62.5 -13zM336 602l100 200l111 -58l-175 -162z" />
    <glyph glyph-name="ucircumflex" unicode="&#xfb;" horiz-adv-x="607" 
d="M143 -12q-54 0 -78 28.5t-24 76.5q0 19 3.5 39t9.5 41l74 258h-82l15 60l242 45l-114 -410q-3 -12 -3 -21q0 -25 23 -25q21 0 46 23t50.5 64.5t48.5 99.5t41 129l32 128h144l-112 -448l18 -8l90 114l36 -21l-56 -85q-18 -28 -35.5 -45.5t-34 -27t-31.5 -12.5t-29 -3
q-25 0 -41.5 7t-26 18.5t-13.5 25.5t-4 28q0 15 3 31.5t6 27.5l6 23l-12 4q-19 -35 -38 -65t-41.5 -52t-50 -35t-62.5 -13zM222 608l151 184h85l77 -191l-35 -19l-99 112l-150 -112z" />
    <glyph glyph-name="udieresis" unicode="&#xfc;" horiz-adv-x="607" 
d="M143 -12q-54 0 -78 28.5t-24 76.5q0 19 3.5 39t9.5 41l74 258h-82l15 60l242 45l-114 -410q-3 -12 -3 -21q0 -25 23 -25q21 0 46 23t50.5 64.5t48.5 99.5t41 129l32 128h144l-112 -448l18 -8l90 114l36 -21l-56 -85q-18 -28 -35.5 -45.5t-34 -27t-31.5 -12.5t-29 -3
q-25 0 -41.5 7t-26 18.5t-13.5 25.5t-4 28q0 15 3 31.5t6 27.5l6 23l-12 4q-19 -35 -38 -65t-41.5 -52t-50 -35t-62.5 -13zM281 604q-30 0 -47.5 18t-17.5 42q0 10 3 22q6 23 27 40t51 17t47.5 -18t17.5 -42q0 -10 -3 -22q-6 -23 -27 -40t-51 -17zM491 604q-30 0 -47.5 18
t-17.5 42q0 10 3 22q6 23 27 40t51 17t47.5 -18t17.5 -42q0 -10 -3 -22q-6 -23 -27 -40t-51 -17z" />
    <glyph glyph-name="yacute" unicode="&#xfd;" horiz-adv-x="512" 
d="M20 -212q-46 0 -74.5 21t-28.5 57q0 29 19 52t55 23q26 0 42.5 -14.5t16.5 -39.5q0 -15 -6 -30t-16 -23l7 -6q32 11 60 41.5t58 90.5l-63 505h-39l14 59h240l-14 -59h-51l19 -319h11l178 319h-46l14 59h158l-15 -59h-35l-317 -525q-26 -43 -51 -72t-48 -47t-45 -25.5
t-43 -7.5zM338 602l100 200l111 -58l-175 -162z" />
    <glyph glyph-name="thorn" unicode="&#xfe;" horiz-adv-x="567" 
d="M-90 -142h63l200 798h-81l15 59l237 45l-114 -377l12 -4q15 31 32 59.5t38.5 50.5t48.5 34.5t62 12.5q63 0 89.5 -42t26.5 -115q0 -64 -18.5 -133t-52.5 -126.5t-82.5 -94.5t-107.5 -37q-86 0 -104 78h-12l-45 -208h86l-14 -58h-293zM234 63q35 0 69.5 39t59.5 128
q11 38 19 84.5t8 78.5q0 23 -6.5 37t-23.5 14q-24 0 -49.5 -26t-47 -64t-38.5 -81t-24 -77l-7 -29q-11 -48 -3 -76t43 -28z" />
    <glyph glyph-name="ydieresis" unicode="&#xff;" horiz-adv-x="512" 
d="M20 -212q-46 0 -74.5 21t-28.5 57q0 29 19 52t55 23q26 0 42.5 -14.5t16.5 -39.5q0 -15 -6 -30t-16 -23l7 -6q32 11 60 41.5t58 90.5l-63 505h-39l14 59h240l-14 -59h-51l19 -319h11l178 319h-46l14 59h158l-15 -59h-35l-317 -525q-26 -43 -51 -72t-48 -47t-45 -25.5
t-43 -7.5zM283 604q-30 0 -47.5 18t-17.5 42q0 10 3 22q6 23 27 40t51 17t47.5 -18t17.5 -42q0 -10 -3 -22q-6 -23 -27 -40t-51 -17zM493 604q-30 0 -47.5 18t-17.5 42q0 10 3 22q6 23 27 40t51 17t47.5 -18t17.5 -42q0 -10 -3 -22q-6 -23 -27 -40t-51 -17z" />
    <glyph glyph-name="Amacron" unicode="&#x100;" horiz-adv-x="663" 
d="M-38 60h47l364 638h131l51 -638h47l-15 -60h-266l14 60h70l-8 158h-217l-86 -158h70l-15 -60h-202zM212 280h183l-11 309h-9zM339 878h288l-20 -80h-288z" />
    <glyph glyph-name="amacron" unicode="&#x101;" horiz-adv-x="592" 
d="M143 -12q-63 0 -89.5 42t-26.5 115q0 42 8 87.5t24 89t39 82.5t52 68.5t64.5 46.5t76.5 17q44 0 75.5 -23.5t41.5 -80.5h12l65 92h71l-112 -448l18 -8l90 114l36 -21l-56 -85q-31 -47 -61.5 -67.5t-62.5 -20.5q-25 0 -41.5 7t-26 18t-13.5 25.5t-4 28.5q0 15 3 31.5
t6 27.5l4 16l-12 2q-14 -31 -31.5 -59.5t-39 -50t-49 -34t-61.5 -12.5zM206 80q24 0 49.5 26t47 64t38 81t24.5 77l7 29q11 48 3 76t-43 28t-69.5 -39t-59.5 -128q-11 -38 -19 -84.5t-8 -78.5q0 -23 6.5 -37t23.5 -14zM224 714h288l-20 -80h-288z" />
    <glyph glyph-name="Abreve" unicode="&#x102;" horiz-adv-x="663" 
d="M-38 60h47l364 638h131l51 -638h47l-15 -60h-266l14 60h70l-8 158h-217l-86 -158h70l-15 -60h-202zM212 280h183l-11 309h-9zM454 750q-38 0 -61 16.5t-36 43t-18.5 58.5t-8.5 62l39 14l10 -34q10 -32 30 -47.5t62 -15.5q41 0 68.5 14.5t52.5 48.5l25 34l35 -20
q-17 -30 -35.5 -61t-42 -56t-53 -41t-67.5 -16z" />
    <glyph glyph-name="abreve" unicode="&#x103;" horiz-adv-x="592" 
d="M143 -12q-63 0 -89.5 42t-26.5 115q0 42 8 87.5t24 89t39 82.5t52 68.5t64.5 46.5t76.5 17q44 0 75.5 -23.5t41.5 -80.5h12l65 92h71l-112 -448l18 -8l90 114l36 -21l-56 -85q-31 -47 -61.5 -67.5t-62.5 -20.5q-25 0 -41.5 7t-26 18t-13.5 25.5t-4 28.5q0 15 3 31.5
t6 27.5l4 16l-12 2q-14 -31 -31.5 -59.5t-39 -50t-49 -34t-61.5 -12.5zM206 80q24 0 49.5 26t47 64t38 81t24.5 77l7 29q11 48 3 76t-43 28t-69.5 -39t-59.5 -128q-11 -38 -19 -84.5t-8 -78.5q0 -23 6.5 -37t23.5 -14zM340 588q-38 0 -61 16.5t-36 43t-18.5 58.5t-8.5 62
l39 14l10 -34q10 -32 30 -47.5t62 -15.5q41 0 68.5 14.5t52.5 48.5l25 34l35 -20q-17 -30 -35.5 -61t-42 -56t-53 -41t-67.5 -16z" />
    <glyph glyph-name="Aogonek" unicode="&#x104;" horiz-adv-x="663" 
d="M477 -212q-38 0 -63.5 15.5t-25.5 53.5q0 51 41 83t108 57v3h-216l14 60h70l-8 158h-217l-86 -158h70l-15 -60h-202l15 60h47l364 638h131l51 -638h47l-15 -60q-57 -36 -82.5 -69t-25.5 -59q0 -14 7.5 -20t19.5 -6q14 0 24 5.5t21 16.5l32 -36q-22 -21 -46.5 -32.5
t-59.5 -11.5zM212 280h183l-11 309h-9z" />
    <glyph glyph-name="aogonek" unicode="&#x105;" horiz-adv-x="592" 
d="M367 -212q-38 0 -63.5 15.5t-25.5 53.5q0 24 10 43t29 34t44.5 27.5t57.5 23.5v4q-5 -1 -7.5 -1h-4.5q-24 0 -40 7t-26 18t-14 25t-4 29t3 31.5t6 27.5l4 16l-12 2q-14 -31 -31.5 -59.5t-39 -50t-49 -34t-61.5 -12.5q-63 0 -89.5 42t-26.5 115q0 42 8 87.5t24 89t39 82.5
t52 68.5t64.5 46.5t76.5 17q44 0 75.5 -23.5t41.5 -80.5h12l65 92h71l-112 -448l18 -8l90 114l36 -21l-71 -107q-22 -33 -47.5 -56.5t-48 -43.5t-37.5 -39t-15 -42q0 -27 27 -27q14 0 24 5.5t21 16.5l32 -36q-22 -21 -46.5 -32.5t-59.5 -11.5zM206 80q24 0 49.5 26t47 64
t38 81t24.5 77l7 29q11 48 3 76t-43 28t-69.5 -39t-59.5 -128q-11 -38 -19 -84.5t-8 -78.5q0 -23 6.5 -37t23.5 -14z" />
    <glyph glyph-name="Cacute" unicode="&#x106;" horiz-adv-x="604" 
d="M271 -12q-45 0 -86 13t-71.5 42.5t-48.5 76.5t-18 115q0 53 11 108.5t33 108.5t54 100t73.5 82t92 55.5t109.5 20.5q53 0 82.5 -21t38.5 -51h11l15 60h110l-55 -222h-110l10 41q5 20 5 36q0 44 -27.5 65t-67.5 21q-65 0 -108 -50t-63 -128q-17 -69 -28 -112.5
t-17.5 -72.5t-9 -47.5t-2.5 -37.5q0 -54 27 -89t84 -35q33 0 60.5 10t51 27.5t43 41.5t37.5 53l43 -28q-22 -36 -51 -69t-64 -58.5t-76.5 -40.5t-87.5 -15zM394 762l100 200l111 -58l-175 -162z" />
    <glyph glyph-name="cacute" unicode="&#x107;" horiz-adv-x="458" 
d="M186 -12q-81 0 -119 46.5t-38 127.5q0 60 17 126t52 121t87 91t123 36q74 0 113.5 -33t39.5 -84q0 -21 -6 -39.5t-17.5 -33t-28 -23t-37.5 -8.5q-30 0 -45.5 20.5t-15.5 44.5q0 13 5 26.5t15.5 24.5t26 19t36.5 10v10q-12 9 -28.5 13.5t-33.5 4.5q-19 0 -35.5 -7
t-31.5 -26t-29 -52.5t-28 -86.5q-15 -55 -22 -98t-7 -72q0 -43 16 -61t45 -18q45 0 81 37t71 106l39 -17q-23 -49 -47 -87t-52.5 -64.5t-64 -40t-81.5 -13.5zM284 602l100 200l111 -58l-175 -162z" />
    <glyph glyph-name="Ccircumflex" unicode="&#x108;" horiz-adv-x="604" 
d="M271 -12q-45 0 -86 13t-71.5 42.5t-48.5 76.5t-18 115q0 53 11 108.5t33 108.5t54 100t73.5 82t92 55.5t109.5 20.5q53 0 82.5 -21t38.5 -51h11l15 60h110l-55 -222h-110l10 41q5 20 5 36q0 44 -27.5 65t-67.5 21q-65 0 -108 -50t-63 -128q-17 -69 -28 -112.5
t-17.5 -72.5t-9 -47.5t-2.5 -37.5q0 -54 27 -89t84 -35q33 0 60.5 10t51 27.5t43 41.5t37.5 53l43 -28q-22 -36 -51 -69t-64 -58.5t-76.5 -40.5t-87.5 -15zM287 771l151 184h85l77 -191l-35 -19l-99 112l-150 -112z" />
    <glyph glyph-name="ccircumflex" unicode="&#x109;" horiz-adv-x="458" 
d="M186 -12q-81 0 -119 46.5t-38 127.5q0 60 17 126t52 121t87 91t123 36q74 0 113.5 -33t39.5 -84q0 -21 -6 -39.5t-17.5 -33t-28 -23t-37.5 -8.5q-30 0 -45.5 20.5t-15.5 44.5q0 13 5 26.5t15.5 24.5t26 19t36.5 10v10q-12 9 -28.5 13.5t-33.5 4.5q-19 0 -35.5 -7
t-31.5 -26t-29 -52.5t-28 -86.5q-15 -55 -22 -98t-7 -72q0 -43 16 -61t45 -18q45 0 81 37t71 106l39 -17q-23 -49 -47 -87t-52.5 -64.5t-64 -40t-81.5 -13.5zM170 608l151 184h85l77 -191l-35 -19l-99 112l-150 -112z" />
    <glyph glyph-name="Cdotaccent" unicode="&#x10a;" horiz-adv-x="604" 
d="M271 -12q-45 0 -86 13t-71.5 42.5t-48.5 76.5t-18 115q0 53 11 108.5t33 108.5t54 100t73.5 82t92 55.5t109.5 20.5q53 0 82.5 -21t38.5 -51h11l15 60h110l-55 -222h-110l10 41q5 20 5 36q0 44 -27.5 65t-67.5 21q-65 0 -108 -50t-63 -128q-17 -69 -28 -112.5
t-17.5 -72.5t-9 -47.5t-2.5 -37.5q0 -54 27 -89t84 -35q33 0 60.5 10t51 27.5t43 41.5t37.5 53l43 -28q-22 -36 -51 -69t-64 -58.5t-76.5 -40.5t-87.5 -15zM445 760q-35 0 -54 19t-19 45v11.5t2 12.5q7 32 30.5 49.5t56.5 17.5q35 0 54 -19t19 -45v-11.5t-2 -12.5
q-7 -32 -30.5 -49.5t-56.5 -17.5z" />
    <glyph glyph-name="cdotaccent" unicode="&#x10b;" horiz-adv-x="458" 
d="M186 -12q-81 0 -119 46.5t-38 127.5q0 60 17 126t52 121t87 91t123 36q74 0 113.5 -33t39.5 -84q0 -21 -6 -39.5t-17.5 -33t-28 -23t-37.5 -8.5q-30 0 -45.5 20.5t-15.5 44.5q0 13 5 26.5t15.5 24.5t26 19t36.5 10v10q-12 9 -28.5 13.5t-33.5 4.5q-19 0 -35.5 -7
t-31.5 -26t-29 -52.5t-28 -86.5q-15 -55 -22 -98t-7 -72q0 -43 16 -61t45 -18q45 0 81 37t71 106l39 -17q-23 -49 -47 -87t-52.5 -64.5t-64 -40t-81.5 -13.5zM334 597q-35 0 -54 19t-19 45v11.5t2 12.5q7 32 30.5 49.5t56.5 17.5q35 0 54 -19t19 -45v-11.5t-2 -12.5
q-7 -32 -30.5 -49.5t-56.5 -17.5z" />
    <glyph glyph-name="Ccaron" unicode="&#x10c;" horiz-adv-x="604" 
d="M271 -12q-45 0 -86 13t-71.5 42.5t-48.5 76.5t-18 115q0 53 11 108.5t33 108.5t54 100t73.5 82t92 55.5t109.5 20.5q53 0 82.5 -21t38.5 -51h11l15 60h110l-55 -222h-110l10 41q5 20 5 36q0 44 -27.5 65t-67.5 21q-65 0 -108 -50t-63 -128q-17 -69 -28 -112.5
t-17.5 -72.5t-9 -47.5t-2.5 -37.5q0 -54 27 -89t84 -35q33 0 60.5 10t51 27.5t43 41.5t37.5 53l43 -28q-22 -36 -51 -69t-64 -58.5t-76.5 -40.5t-87.5 -15zM317 939l35 19l99 -112l150 112l29 -26l-151 -184h-85z" />
    <glyph glyph-name="ccaron" unicode="&#x10d;" horiz-adv-x="458" 
d="M186 -12q-81 0 -119 46.5t-38 127.5q0 60 17 126t52 121t87 91t123 36q74 0 113.5 -33t39.5 -84q0 -21 -6 -39.5t-17.5 -33t-28 -23t-37.5 -8.5q-30 0 -45.5 20.5t-15.5 44.5q0 13 5 26.5t15.5 24.5t26 19t36.5 10v10q-12 9 -28.5 13.5t-33.5 4.5q-19 0 -35.5 -7
t-31.5 -26t-29 -52.5t-28 -86.5q-15 -55 -22 -98t-7 -72q0 -43 16 -61t45 -18q45 0 81 37t71 106l39 -17q-23 -49 -47 -87t-52.5 -64.5t-64 -40t-81.5 -13.5zM211 777l35 19l99 -112l150 112l29 -26l-151 -184h-85z" />
    <glyph glyph-name="Dcaron" unicode="&#x10e;" horiz-adv-x="691" 
d="M-18 60h63l144 578h-63l15 60h292q65 0 112 -19.5t77 -53t44.5 -78t14.5 -94.5q0 -51 -11.5 -104.5t-34 -104t-56.5 -95t-79.5 -77.5t-102 -52.5t-123.5 -19.5h-307zM199 64h53q94 0 147 51.5t81 162.5q18 73 28.5 116.5t15.5 69t6.5 39t1.5 26.5q0 58 -33 82t-96 24h-61
zM299 939l35 19l99 -112l150 112l29 -26l-151 -184h-85z" />
    <glyph glyph-name="dcaron" unicode="&#x10f;" horiz-adv-x="589" 
d="M143 -12q-63 0 -89.5 42t-26.5 115q0 42 8.5 87.5t24 89t38.5 82.5t52 68.5t63.5 46.5t74.5 17q43 0 68 -20t34 -58h12l42 198h-81l15 59l237 45l-171 -684l18 -8l90 114l36 -21l-56 -85q-31 -47 -61.5 -67.5t-62.5 -20.5q-24 0 -40.5 7t-26.5 18t-14 25.5t-4 28.5
q0 15 3 31.5t6 27.5l4 16l-12 2q-14 -31 -31.5 -59.5t-39 -50t-49 -34t-61.5 -12.5zM206 80q24 0 49.5 26t47 64.5t38 81.5t24.5 76l7 29q11 48 3 76t-43 28t-69.5 -39t-59.5 -128q-11 -38 -19 -84.5t-8 -78.5q0 -23 6.5 -37t23.5 -14zM678 748h125l-140 -214h-41z" />
    <glyph glyph-name="Dcroat" unicode="&#x110;" horiz-adv-x="691" 
d="M-18 60h63l64 258h-76l15 64h77l64 256h-63l15 60h292q65 0 112 -19.5t77 -53t44.5 -78t14.5 -94.5q0 -51 -11.5 -104.5t-34 -104t-56.5 -95t-79.5 -77.5t-102 -52.5t-123.5 -19.5h-307zM199 64h53q94 0 147 51.5t81 162.5q18 73 28.5 116.5t15.5 69t6.5 39t1.5 26.5
q0 58 -33 82t-96 24h-61l-63 -253h103l-16 -64h-103z" />
    <glyph glyph-name="dcroat" unicode="&#x111;" horiz-adv-x="590" 
d="M143 -12q-63 0 -89.5 42t-26.5 115q0 42 8.5 87.5t24 89t38.5 82.5t52 68.5t63.5 46.5t74.5 17q43 0 68 -20t34 -58h12l32 146h-117l16 62h114l15 65l154 29l-24 -94h60l-16 -62h-60l-132 -528l18 -8l90 114l36 -21l-56 -85q-19 -29 -36.5 -46t-33.5 -26.5t-30.5 -12.5
t-26.5 -3q-44 0 -63 24.5t-19 54.5q0 15 3 31.5t6 27.5l4 16l-12 2q-14 -31 -31.5 -59.5t-39 -50t-49 -34t-61.5 -12.5zM206 80q24 0 49.5 26t47 64.5t38 81.5t24.5 76l7 29q11 48 3 76t-43 28t-69.5 -39t-59.5 -128q-11 -38 -19 -84.5t-8 -78.5q0 -23 6.5 -37t23.5 -14z
" />
    <glyph glyph-name="Emacron" unicode="&#x112;" horiz-adv-x="604" 
d="M-18 60h63l144 578h-63l15 60h516l-47 -186h-110l30 122h-189l-59 -238h120l16 64h69l-48 -192h-69l16 64h-120l-67 -268h198l35 142h110l-51 -206h-524zM310 878h288l-20 -80h-288z" />
    <glyph glyph-name="emacron" unicode="&#x113;" horiz-adv-x="479" 
d="M186 -12q-81 0 -119 46.5t-38 129.5q0 59 17.5 124.5t53.5 120.5t92.5 91t134.5 36q33 0 61.5 -6t49 -19.5t32.5 -34t12 -49.5q0 -23 -12 -50.5t-44 -52t-88 -43t-145 -23.5q-8 -35 -11 -63t-3 -49q0 -43 16 -61t45 -18q46 0 84 37.5t72 105.5l39 -17q-23 -48 -47 -86
t-53.5 -64.5t-66 -40.5t-82.5 -14zM203 299q47 7 77.5 20.5t48.5 32t25.5 40.5t7.5 46q0 21 -10.5 33t-31.5 12t-36.5 -9.5t-28.5 -31t-25.5 -56.5t-26.5 -87zM228 714h288l-20 -80h-288z" />
    <glyph glyph-name="Ebreve" unicode="&#x114;" horiz-adv-x="604" 
d="M-18 60h63l144 578h-63l15 60h516l-47 -186h-110l30 122h-189l-59 -238h120l16 64h69l-48 -192h-69l16 64h-120l-67 -268h198l35 142h110l-51 -206h-524zM425 750q-38 0 -61 16.5t-36 43t-18.5 58.5t-8.5 62l39 14l10 -34q10 -32 30 -47.5t62 -15.5q41 0 68.5 14.5
t52.5 48.5l25 34l35 -20q-17 -30 -35.5 -61t-42 -56t-53 -41t-67.5 -16z" />
    <glyph glyph-name="ebreve" unicode="&#x115;" horiz-adv-x="479" 
d="M186 -12q-81 0 -119 46.5t-38 129.5q0 59 17.5 124.5t53.5 120.5t92.5 91t134.5 36q33 0 61.5 -6t49 -19.5t32.5 -34t12 -49.5q0 -23 -12 -50.5t-44 -52t-88 -43t-145 -23.5q-8 -35 -11 -63t-3 -49q0 -43 16 -61t45 -18q46 0 84 37.5t72 105.5l39 -17q-23 -48 -47 -86
t-53.5 -64.5t-66 -40.5t-82.5 -14zM203 299q47 7 77.5 20.5t48.5 32t25.5 40.5t7.5 46q0 21 -10.5 33t-31.5 12t-36.5 -9.5t-28.5 -31t-25.5 -56.5t-26.5 -87zM344 588q-38 0 -61 16.5t-36 43t-18.5 58.5t-8.5 62l39 14l10 -34q10 -32 30 -47.5t62 -15.5q41 0 68.5 14.5
t52.5 48.5l25 34l35 -20q-17 -30 -35.5 -61t-42 -56t-53 -41t-67.5 -16z" />
    <glyph glyph-name="Edotaccent" unicode="&#x116;" horiz-adv-x="604" 
d="M-18 60h63l144 578h-63l15 60h516l-47 -186h-110l30 122h-189l-59 -238h120l16 64h69l-48 -192h-69l16 64h-120l-67 -268h198l35 142h110l-51 -206h-524zM434 760q-35 0 -54 19t-19 45v11.5t2 12.5q7 32 30.5 49.5t56.5 17.5q35 0 54 -19t19 -45v-11.5t-2 -12.5
q-7 -32 -30.5 -49.5t-56.5 -17.5z" />
    <glyph glyph-name="edotaccent" unicode="&#x117;" horiz-adv-x="479" 
d="M186 -12q-81 0 -119 46.5t-38 129.5q0 59 17.5 124.5t53.5 120.5t92.5 91t134.5 36q33 0 61.5 -6t49 -19.5t32.5 -34t12 -49.5q0 -23 -12 -50.5t-44 -52t-88 -43t-145 -23.5q-8 -35 -11 -63t-3 -49q0 -43 16 -61t45 -18q46 0 84 37.5t72 105.5l39 -17q-23 -48 -47 -86
t-53.5 -64.5t-66 -40.5t-82.5 -14zM203 299q47 7 77.5 20.5t48.5 32t25.5 40.5t7.5 46q0 21 -10.5 33t-31.5 12t-36.5 -9.5t-28.5 -31t-25.5 -56.5t-26.5 -87zM353 597q-35 0 -54 19t-19 45v11.5t2 12.5q7 32 30.5 49.5t56.5 17.5q35 0 54 -19t19 -45v-11.5t-2 -12.5
q-7 -32 -30.5 -49.5t-56.5 -17.5z" />
    <glyph glyph-name="Eogonek" unicode="&#x118;" horiz-adv-x="604" 
d="M381 -212q-38 0 -63.5 15.5t-25.5 53.5q0 51 41 83t108 57v3h-474l15 60h63l144 578h-63l15 60h516l-47 -186h-110l30 122h-189l-60 -238h122l15 64h69l-48 -192h-69l17 64h-122l-66 -268h198l35 142h110l-51 -206q-57 -36 -82.5 -69t-25.5 -59q0 -14 7.5 -20t19.5 -6
q14 0 24 5.5t21 16.5l32 -36q-22 -21 -46.5 -32.5t-59.5 -11.5z" />
    <glyph glyph-name="eogonek" unicode="&#x119;" horiz-adv-x="479" 
d="M158 -212q-38 0 -63.5 15.5t-25.5 53.5q0 51 39 79.5t107 50.5v4q-11 -3 -26 -3q-83 0 -121.5 46t-38.5 130q0 59 17.5 124.5t53.5 120.5t92.5 91t134.5 36q33 0 61.5 -6t49 -19.5t32.5 -34t12 -49.5q0 -23 -12 -50.5t-44 -52t-88 -43t-145 -23.5q-8 -35 -11 -63t-3 -49
q0 -45 16.5 -62t45.5 -17q45 0 82.5 37t72.5 106l39 -17q-15 -32 -28 -55t-24.5 -39.5t-22.5 -29t-22 -23.5q-19 -19 -49 -37.5t-58.5 -39.5t-49.5 -44.5t-21 -52.5q0 -14 7.5 -20t19.5 -6q14 0 24 5.5t21 16.5l32 -36q-21 -21 -45.5 -32.5t-60.5 -11.5zM203 299
q47 7 77.5 20.5t48.5 32t25.5 40.5t7.5 46q0 21 -10.5 33t-31.5 12t-36.5 -9.5t-28.5 -31t-25.5 -56.5t-26.5 -87z" />
    <glyph glyph-name="Ecaron" unicode="&#x11a;" horiz-adv-x="604" 
d="M-18 60h63l144 578h-63l15 60h516l-47 -186h-110l30 122h-189l-59 -238h120l16 64h69l-48 -192h-69l16 64h-120l-67 -268h198l35 142h110l-51 -206h-524zM306 939l35 19l99 -112l150 112l29 -26l-151 -184h-85z" />
    <glyph glyph-name="ecaron" unicode="&#x11b;" horiz-adv-x="479" 
d="M186 -12q-81 0 -119 46.5t-38 129.5q0 59 17.5 124.5t53.5 120.5t92.5 91t134.5 36q33 0 61.5 -6t49 -19.5t32.5 -34t12 -49.5q0 -23 -12 -50.5t-44 -52t-88 -43t-145 -23.5q-8 -35 -11 -63t-3 -49q0 -43 16 -61t45 -18q46 0 84 37.5t72 105.5l39 -17q-23 -48 -47 -86
t-53.5 -64.5t-66 -40.5t-82.5 -14zM203 299q47 7 77.5 20.5t48.5 32t25.5 40.5t7.5 46q0 21 -10.5 33t-31.5 12t-36.5 -9.5t-28.5 -31t-25.5 -56.5t-26.5 -87zM230 777l35 19l99 -112l150 112l29 -26l-151 -184h-85z" />
    <glyph glyph-name="Gcircumflex" unicode="&#x11c;" horiz-adv-x="708" 
d="M271 -12q-103 0 -163.5 61.5t-60.5 182.5q0 85 27 170t78 153.5t124 111.5t165 43q60 0 94.5 -20t45.5 -52h11l15 60h110l-55 -222h-110l10 40q5 20 5 37q0 43 -30 66.5t-81 23.5q-73 0 -125 -54t-75 -148q-18 -71 -29 -115t-18 -72.5t-9.5 -47.5t-2.5 -38q0 -49 27 -80
t75 -31q25 0 49.5 9.5t45 27t35.5 42.5t23 55l24 97h-92l15 60h292l-15 -60h-47l-71 -288h-52l-28 98h-10q-11 -19 -30 -38.5t-44 -35.5t-56 -26t-67 -10zM305 771l151 184h85l77 -191l-35 -19l-99 112l-150 -112z" />
    <glyph glyph-name="gcircumflex" unicode="&#x11d;" horiz-adv-x="505" 
d="M144 -212q-63 0 -105.5 8.5t-69 22.5t-37.5 32.5t-11 39.5q0 22 12 39.5t32 31t46.5 23.5t56.5 18l2 11q-26 14 -36.5 32t-10.5 41t9 41t24 31.5t35 23t42 15.5l2 11q-29 16 -48 45t-19 72q0 49 20 88t54.5 66t81 41.5t98.5 14.5q41 0 74 -12h160l-15 -63h-31l-41 4
l-3 -5q10 -11 15.5 -28t5.5 -34q0 -49 -20 -87.5t-54.5 -65.5t-80.5 -41.5t-98 -14.5q-14 0 -25.5 2t-22.5 4q-23 -5 -36 -13.5t-13 -23.5q0 -16 12.5 -23.5t32.5 -14.5l84 -27q45 -15 76.5 -29t51.5 -30t29 -36t9 -46q0 -45 -23 -76.5t-62.5 -51t-92 -28t-110.5 -8.5z
M248 238q19 0 32.5 8t23 21.5t16 31t11.5 36.5q11 42 16.5 68t5.5 38q0 21 -11 33.5t-35 12.5q-19 0 -32.5 -8t-23 -21.5t-16 -31t-11.5 -36.5q-11 -42 -16.5 -68t-5.5 -38q0 -21 11 -33.5t35 -12.5zM159 -171q29 0 55 4t45 13t30 22.5t11 32.5q0 26 -17 35.5t-50 20.5
l-121 38q-39 -17 -66 -39t-27 -53q0 -34 31.5 -54t108.5 -20zM179 608l151 184h85l77 -191l-35 -19l-99 112l-150 -112z" />
    <glyph glyph-name="Gbreve" unicode="&#x11e;" horiz-adv-x="708" 
d="M271 -12q-103 0 -163.5 61.5t-60.5 182.5q0 85 27 170t78 153.5t124 111.5t165 43q60 0 94.5 -20t45.5 -52h11l15 60h110l-55 -222h-110l10 40q5 20 5 37q0 43 -30 66.5t-81 23.5q-73 0 -125 -54t-75 -148q-18 -71 -29 -115t-18 -72.5t-9.5 -47.5t-2.5 -38q0 -49 27 -80
t75 -31q25 0 49.5 9.5t45 27t35.5 42.5t23 55l24 97h-92l15 60h292l-15 -60h-47l-71 -288h-52l-28 98h-10q-11 -19 -30 -38.5t-44 -35.5t-56 -26t-67 -10zM454 750q-38 0 -61 16.5t-36 43t-18.5 58.5t-8.5 62l39 14l10 -34q10 -32 30 -47.5t62 -15.5q41 0 68.5 14.5
t52.5 48.5l25 34l35 -20q-17 -30 -35.5 -61t-42 -56t-53 -41t-67.5 -16z" />
    <glyph glyph-name="gbreve" unicode="&#x11f;" horiz-adv-x="505" 
d="M144 -212q-63 0 -105.5 8.5t-69 22.5t-37.5 32.5t-11 39.5q0 22 12 39.5t32 31t46.5 23.5t56.5 18l2 11q-26 14 -36.5 32t-10.5 41t9 41t24 31.5t35 23t42 15.5l2 11q-29 16 -48 45t-19 72q0 49 20 88t54.5 66t81 41.5t98.5 14.5q41 0 74 -12h160l-15 -63h-31l-41 4
l-3 -5q10 -11 15.5 -28t5.5 -34q0 -49 -20 -87.5t-54.5 -65.5t-80.5 -41.5t-98 -14.5q-14 0 -25.5 2t-22.5 4q-23 -5 -36 -13.5t-13 -23.5q0 -16 12.5 -23.5t32.5 -14.5l84 -27q45 -15 76.5 -29t51.5 -30t29 -36t9 -46q0 -45 -23 -76.5t-62.5 -51t-92 -28t-110.5 -8.5z
M248 238q19 0 32.5 8t23 21.5t16 31t11.5 36.5q11 42 16.5 68t5.5 38q0 21 -11 33.5t-35 12.5q-19 0 -32.5 -8t-23 -21.5t-16 -31t-11.5 -36.5q-11 -42 -16.5 -68t-5.5 -38q0 -21 11 -33.5t35 -12.5zM159 -171q29 0 55 4t45 13t30 22.5t11 32.5q0 26 -17 35.5t-50 20.5
l-121 38q-39 -17 -66 -39t-27 -53q0 -34 31.5 -54t108.5 -20zM334 588q-38 0 -61 16.5t-36 43t-18.5 58.5t-8.5 62l39 14l10 -34q10 -32 30 -47.5t62 -15.5q41 0 68.5 14.5t52.5 48.5l25 34l35 -20q-17 -30 -35.5 -61t-42 -56t-53 -41t-67.5 -16z" />
    <glyph glyph-name="Gdotaccent" unicode="&#x120;" horiz-adv-x="708" 
d="M271 -12q-103 0 -163.5 61.5t-60.5 182.5q0 85 27 170t78 153.5t124 111.5t165 43q60 0 94.5 -20t45.5 -52h11l15 60h110l-55 -222h-110l10 40q5 20 5 37q0 43 -30 66.5t-81 23.5q-73 0 -125 -54t-75 -148q-18 -71 -29 -115t-18 -72.5t-9.5 -47.5t-2.5 -38q0 -49 27 -80
t75 -31q25 0 49.5 9.5t45 27t35.5 42.5t23 55l24 97h-92l15 60h292l-15 -60h-47l-71 -288h-52l-28 98h-10q-11 -19 -30 -38.5t-44 -35.5t-56 -26t-67 -10zM463 760q-35 0 -54 19t-19 45v11.5t2 12.5q7 32 30.5 49.5t56.5 17.5q35 0 54 -19t19 -45v-11.5t-2 -12.5
q-7 -32 -30.5 -49.5t-56.5 -17.5z" />
    <glyph glyph-name="gdotaccent" unicode="&#x121;" horiz-adv-x="505" 
d="M144 -212q-63 0 -105.5 8.5t-69 22.5t-37.5 32.5t-11 39.5q0 22 12 39.5t32 31t46.5 23.5t56.5 18l2 11q-26 14 -36.5 32t-10.5 41t9 41t24 31.5t35 23t42 15.5l2 11q-29 16 -48 45t-19 72q0 49 20 88t54.5 66t81 41.5t98.5 14.5q41 0 74 -12h160l-15 -63h-31l-41 4
l-3 -5q10 -11 15.5 -28t5.5 -34q0 -49 -20 -87.5t-54.5 -65.5t-80.5 -41.5t-98 -14.5q-14 0 -25.5 2t-22.5 4q-23 -5 -36 -13.5t-13 -23.5q0 -16 12.5 -23.5t32.5 -14.5l84 -27q45 -15 76.5 -29t51.5 -30t29 -36t9 -46q0 -45 -23 -76.5t-62.5 -51t-92 -28t-110.5 -8.5z
M248 238q19 0 32.5 8t23 21.5t16 31t11.5 36.5q11 42 16.5 68t5.5 38q0 21 -11 33.5t-35 12.5q-19 0 -32.5 -8t-23 -21.5t-16 -31t-11.5 -36.5q-11 -42 -16.5 -68t-5.5 -38q0 -21 11 -33.5t35 -12.5zM159 -171q29 0 55 4t45 13t30 22.5t11 32.5q0 26 -17 35.5t-50 20.5
l-121 38q-39 -17 -66 -39t-27 -53q0 -34 31.5 -54t108.5 -20zM343 597q-35 0 -54 19t-19 45v11.5t2 12.5q7 32 30.5 49.5t56.5 17.5q35 0 54 -19t19 -45v-11.5t-2 -12.5q-7 -32 -30.5 -49.5t-56.5 -17.5z" />
    <glyph glyph-name="Gcommaaccent" unicode="&#x122;" horiz-adv-x="708" 
d="M271 -12q-103 0 -163.5 61.5t-60.5 182.5q0 85 27 170t78 153.5t124 111.5t165 43q60 0 94.5 -20t45.5 -52h11l15 60h110l-55 -222h-110l10 40q5 20 5 37q0 43 -30 66.5t-81 23.5q-73 0 -125 -54t-75 -148q-18 -71 -29 -115t-18 -72.5t-9.5 -47.5t-2.5 -38q0 -49 27 -80
t75 -31q25 0 49.5 9.5t45 27t35.5 42.5t23 55l24 97h-92l15 60h292l-15 -60h-47l-71 -288h-52l-28 98h-10q-11 -19 -30 -38.5t-44 -35.5t-56 -26t-67 -10zM138 -281q30 23 55 53t36 54q-22 7 -34 21.5t-12 34.5v9.5t2 11.5q7 27 27 42t49 15t45.5 -16t16.5 -42q0 -12 -3 -24
q-10 -38 -41.5 -81t-78.5 -78h-62v0z" />
    <glyph glyph-name="gcommaaccent" unicode="&#x123;" horiz-adv-x="505" 
d="M144 -212q-63 0 -105.5 8.5t-69 22.5t-37.5 32.5t-11 39.5q0 22 12 39.5t32 31t46.5 23.5t56.5 18l2 11q-26 14 -36.5 32t-10.5 41t9 41t24 31.5t35 23t42 15.5l2 11q-29 16 -48 45t-19 72q0 49 20 88t54.5 66t81 41.5t98.5 14.5q41 0 74 -12h160l-15 -63h-31l-41 4
l-3 -5q10 -11 15.5 -28t5.5 -34q0 -49 -20 -87.5t-54.5 -65.5t-80.5 -41.5t-98 -14.5q-14 0 -25.5 2t-22.5 4q-23 -5 -36 -13.5t-13 -23.5q0 -16 12.5 -23.5t32.5 -14.5l84 -27q45 -15 76.5 -29t51.5 -30t29 -36t9 -46q0 -45 -23 -76.5t-62.5 -51t-92 -28t-110.5 -8.5z
M248 238q19 0 32.5 8t23 21.5t16 31t11.5 36.5q11 42 16.5 68t5.5 38q0 21 -11 33.5t-35 12.5q-19 0 -32.5 -8t-23 -21.5t-16 -31t-11.5 -36.5q-11 -42 -16.5 -68t-5.5 -38q0 -21 11 -33.5t35 -12.5zM159 -171q29 0 55 4t45 13t30 22.5t11 32.5q0 26 -17 35.5t-50 20.5
l-121 38q-39 -17 -66 -39t-27 -53q0 -34 31.5 -54t108.5 -20zM329 571q-29 0 -45.5 16t-16.5 42q0 12 3 24q10 38 41.5 81t78.5 78h62q-30 -23 -55 -53t-36 -54q22 -7 34 -21.5t12 -34.5v-9.5t-2 -11.5q-7 -27 -27 -42t-49 -15z" />
    <glyph glyph-name="Hcircumflex" unicode="&#x124;" horiz-adv-x="730" 
d="M-18 60h63l144 578h-63l15 60h279l-15 -60h-63l-62 -247h234l62 247h-63l15 60h279l-15 -60h-63l-144 -578h63l-15 -60h-279l15 60h63l66 265h-234l-66 -265h63l-15 -60h-279zM341 771l151 184h85l77 -191l-35 -19l-99 112l-150 -112z" />
    <glyph glyph-name="hcircumflex" unicode="&#x125;" horiz-adv-x="599" 
d="M400 -12q-27 0 -45 7.5t-29 19t-15.5 26t-4.5 28.5q0 13 3 28.5t6 27.5l76 272q3 12 3 21q0 26 -23 26q-21 0 -46 -23t-50.5 -64.5t-48.5 -100t-41 -128.5l-32 -128h-144l164 656h-81l15 59l237 45l-111 -385l12 -4q19 34 38 64.5t41.5 52.5t50 35t62.5 13q54 0 78 -28.5
t24 -76.5q0 -18 -3.5 -38t-9.5 -42l-78 -275l18 -8l90 114l36 -21l-56 -85q-32 -48 -65 -68t-71 -20zM101 786l151 184h85l77 -191l-35 -19l-99 112l-150 -112z" />
    <glyph glyph-name="Hbar" unicode="&#x126;" horiz-adv-x="730" 
d="M280 391h234l24 96h-234zM-18 60h63l106 427h-77l15 60h77l23 91h-63l15 60h279l-15 -60h-63l-23 -91h234l23 91h-63l15 60h279l-15 -60h-63l-23 -91h77l-15 -60h-77l-106 -427h63l-15 -60h-279l15 60h63l66 265h-234l-66 -265h63l-15 -60h-279z" />
    <glyph glyph-name="hbar" unicode="&#x127;" horiz-adv-x="599" 
d="M400 -12q-27 0 -45 7.5t-29 19t-15.5 26t-4.5 28.5q0 13 3 28.5t6 27.5l76 272q3 12 3 21q0 26 -23 26q-21 0 -46 -23t-50.5 -64.5t-48.5 -100t-41 -128.5l-32 -128h-144l151 604h-60l16 62h60l16 65l152 29l-27 -94h114l-16 -62h-116l-66 -229l12 -4q19 34 38 64.5
t41.5 52.5t50 35t62.5 13q54 0 78 -28.5t24 -76.5q0 -18 -3.5 -38t-9.5 -42l-78 -275l18 -8l90 114l36 -21l-56 -85q-32 -48 -65 -68t-71 -20z" />
    <glyph glyph-name="Itilde" unicode="&#x128;" horiz-adv-x="343" 
d="M-18 60h63l144 578h-63l15 60h279l-15 -60h-63l-144 -578h63l-15 -60h-279zM369 767q-23 0 -41.5 9.5t-37.5 20.5q-18 11 -33 20.5t-32 9.5q-14 0 -27.5 -6t-37.5 -29l-27 29q15 19 28.5 36t28 29.5t30 19.5t34.5 7q23 0 41.5 -9.5t37.5 -20.5q18 -11 33 -20.5t32 -9.5
q14 0 27.5 6t37.5 29l27 -29q-30 -39 -57 -65.5t-64 -26.5z" />
    <glyph glyph-name="itilde" unicode="&#x129;" horiz-adv-x="330" 
d="M138 -12q-27 0 -45 7.5t-29.5 19t-16 26t-4.5 29.5q0 12 3 28.5t6 27.5l76 305h-81l15 60l237 45l-115 -460l18 -8l90 114l36 -21l-56 -85q-35 -53 -70 -70.5t-64 -17.5zM304 602q-23 0 -41.5 9.5t-37.5 20.5q-18 11 -33 20.5t-32 9.5q-14 0 -27.5 -6t-37.5 -29l-27 29
q15 19 28.5 36t28 29.5t30 19.5t34.5 7q23 0 41.5 -9.5t37.5 -20.5q18 -11 33 -20.5t32 -9.5q14 0 27.5 6t37.5 29l27 -29q-30 -39 -57 -65.5t-64 -26.5z" />
    <glyph glyph-name="Imacron" unicode="&#x12a;" horiz-adv-x="343" 
d="M-18 60h63l144 578h-63l15 60h279l-15 -60h-63l-144 -578h63l-15 -60h-279zM181 878h288l-20 -80h-288z" />
    <glyph glyph-name="imacron" unicode="&#x12b;" horiz-adv-x="330" 
d="M138 -12q-27 0 -45 7.5t-29.5 19t-16 26t-4.5 29.5q0 12 3 28.5t6 27.5l76 305h-81l15 60l237 45l-115 -460l18 -8l90 114l36 -21l-56 -85q-35 -53 -70 -70.5t-64 -17.5zM115 714h288l-20 -80h-288z" />
    <glyph glyph-name="Ibreve" unicode="&#x12c;" horiz-adv-x="343" 
d="M-18 60h63l144 578h-63l15 60h279l-15 -60h-63l-144 -578h63l-15 -60h-279zM296 750q-38 0 -61 16.5t-36 43t-18.5 58.5t-8.5 62l39 14l10 -34q10 -32 30 -47.5t62 -15.5q41 0 68.5 14.5t52.5 48.5l25 34l35 -20q-17 -30 -35.5 -61t-42 -56t-53 -41t-67.5 -16z" />
    <glyph glyph-name="ibreve" unicode="&#x12d;" horiz-adv-x="330" 
d="M138 -12q-27 0 -45 7.5t-29.5 19t-16 26t-4.5 29.5q0 12 3 28.5t6 27.5l76 305h-81l15 60l237 45l-115 -460l18 -8l90 114l36 -21l-56 -85q-35 -53 -70 -70.5t-64 -17.5zM231 588q-38 0 -61 16.5t-36 43t-18.5 58.5t-8.5 62l39 14l10 -34q10 -32 30 -47.5t62 -15.5
q41 0 68.5 14.5t52.5 48.5l25 34l35 -20q-17 -30 -35.5 -61t-42 -56t-53 -41t-67.5 -16z" />
    <glyph glyph-name="Iogonek" unicode="&#x12e;" horiz-adv-x="343" 
d="M136 -212q-38 0 -63.5 15.5t-25.5 53.5q0 51 41 83t108 57v3h-229l15 60h63l144 578h-63l15 60h279l-15 -60h-63l-144 -578h63l-15 -60q-57 -36 -82.5 -69t-25.5 -59q0 -14 7.5 -20t19.5 -6q14 0 24 5.5t21 16.5l32 -36q-22 -21 -46.5 -32.5t-59.5 -11.5z" />
    <glyph glyph-name="iogonek" unicode="&#x12f;" horiz-adv-x="330" 
d="M140 -212q-38 0 -63.5 16.5t-25.5 54.5q0 24 10.5 43t27.5 34.5t38.5 27.5t43.5 21l-1 5q-6 -1 -17 -1.5t-16 -0.5q-27 0 -45 7.5t-29 19t-15.5 26t-4.5 29.5q0 12 3 28.5t6 27.5l76 305h-81l15 60l237 45l-115 -460l18 -8l90 114l36 -21l-72 -108q-15 -23 -35 -46.5
t-37.5 -46t-29.5 -44t-12 -40.5q0 -17 7.5 -23.5t19.5 -6.5q14 0 24 5.5t21 16.5l32 -36q-22 -21 -46 -32.5t-60 -11.5zM251 608q-37 0 -56.5 19t-19.5 45q0 14 3 26q8 32 33 50t60 18q37 0 56.5 -19t19.5 -45q0 -14 -3 -26q-8 -32 -33 -50t-60 -18z" />
    <glyph glyph-name="Idotaccent" unicode="&#x130;" horiz-adv-x="343" 
d="M-18 60h63l144 578h-63l15 60h279l-15 -60h-63l-144 -578h63l-15 -60h-279zM305 760q-35 0 -54 19t-19 45v11.5t2 12.5q7 32 30.5 49.5t56.5 17.5q35 0 54 -19t19 -45v-11.5t-2 -12.5q-7 -32 -30.5 -49.5t-56.5 -17.5z" />
    <glyph glyph-name="dotlessi" unicode="&#x131;" horiz-adv-x="330" 
d="M138 -12q-27 0 -45 7.5t-29.5 19t-16 26t-4.5 29.5q0 12 3 28.5t6 27.5l76 305h-81l15 60l237 45l-115 -460l18 -8l90 114l36 -21l-56 -85q-35 -53 -70 -70.5t-64 -17.5z" />
    <glyph glyph-name="IJ" unicode="&#x132;" horiz-adv-x="808" 
d="M-18 60h63l144 578h-63l15 60h279l-15 -60h-63l-144 -578h63l-15 -60h-279zM450 -12q-63 0 -102.5 29t-39.5 74q0 15 5.5 30t15.5 27t25 19t34 7q30 0 47 -14.5t17 -41.5q0 -26 -15 -42t-35 -21v-4q7 -3 16.5 -4.5t19.5 -1.5q38 0 63.5 28t38.5 82l120 483h-90l15 60h306
l-15 -60h-63l-111 -448q-23 -94 -81.5 -148t-170.5 -54z" />
    <glyph glyph-name="ij" unicode="&#x133;" horiz-adv-x="633" 
d="M138 -12q-27 0 -45 7.5t-29.5 19t-16 26t-4.5 29.5q0 12 3 28.5t6 27.5l76 305h-81l15 60l237 45l-115 -460l18 -8l90 114l36 -21l-56 -85q-35 -53 -70 -70.5t-64 -17.5zM271 766q37 0 56.5 -19t19.5 -45q0 -14 -3 -26q-8 -32 -33 -50t-60 -18q-37 0 -56.5 19t-19.5 45
q0 14 3 26q8 32 33 50t60 18zM266 -212q-60 0 -88.5 19.5t-28.5 54.5q0 29 18 52t53 23q26 0 42 -14.5t16 -39.5q0 -16 -9.5 -31t-27.5 -25l9 -10q30 3 47 28t30 73l129 513h-81l15 60l237 45l-144 -569q-12 -46 -33 -80t-49 -56t-62.5 -32.5t-72.5 -10.5zM579 608
q-37 0 -56.5 19t-19.5 45q0 14 3 26q8 32 33 50t60 18q37 0 56.5 -19t19.5 -45q0 -14 -3 -26q-8 -32 -33 -50t-60 -18z" />
    <glyph glyph-name="Jcircumflex" unicode="&#x134;" horiz-adv-x="465" 
d="M107 -12q-63 0 -102.5 29t-39.5 74q0 15 5.5 30t15.5 27t25 19t34 7q30 0 47 -14.5t17 -41.5q0 -26 -15 -42t-35 -21v-4q7 -3 16.5 -4.5t19.5 -1.5q38 0 63.5 28t38.5 82l120 483h-90l15 60h306l-15 -60h-63l-111 -448q-23 -94 -81.5 -148t-170.5 -54zM258 771l151 184
h85l77 -191l-35 -19l-99 112l-150 -112z" />
    <glyph glyph-name="jcircumflex" unicode="&#x135;" horiz-adv-x="303" 
d="M-64 -212q-60 0 -88.5 19.5t-28.5 54.5q0 29 18 52t53 23q26 0 42 -14.5t16 -39.5q0 -16 -9.5 -31t-27.5 -25l9 -10q30 3 47 28t30 73l129 513h-81l15 60l237 45l-144 -569q-12 -46 -33 -80t-49 -56t-62.5 -32.5t-72.5 -10.5zM74 608l151 184h85l77 -191l-35 -19l-99 112
l-150 -112z" />
    <glyph glyph-name="Kcommaaccent" unicode="&#x136;" horiz-adv-x="708" 
d="M-18 60h63l144 578h-63l15 60h279l-15 -60h-63l-73 -293h8l118 111l193 182h-73l15 60h239l-15 -60h-63l-222 -204l118 -374h63l-14 -60h-292l15 60h63l-76 280l-102 -95l-46 -185h63l-15 -60h-279zM154 -281q30 23 55 53t36 54q-22 7 -34 21.5t-12 34.5v9.5t2 11.5
q7 27 27 42t49 15t45.5 -16t16.5 -42q0 -12 -3 -24q-10 -38 -41.5 -81t-78.5 -78h-62v0z" />
    <glyph glyph-name="kcommaaccent" unicode="&#x137;" horiz-adv-x="588" 
d="M401 -12q-37 0 -63 14t-40 55l-50 161q43 25 72 52.5t46 53t24.5 48t7.5 38.5q0 34 -30 34q-23 0 -47.5 -23t-49 -65t-46.5 -100t-40 -128l-32 -128h-144l164 656h-81l15 59l237 45l-111 -385l12 -4q19 35 38.5 65t42.5 52.5t50 35t62 12.5q53 0 77 -29t24 -70
q0 -32 -12.5 -59.5t-33.5 -51t-48 -43t-57 -34.5l56 -176h18l86 109l36 -21l-56 -85q-18 -27 -33.5 -44t-30.5 -27t-30 -13.5t-33 -3.5zM93 -281q30 23 55 53t36 54q-22 7 -34 21.5t-12 34.5v9.5t2 11.5q7 27 27 42t49 15t45.5 -16t16.5 -42q0 -12 -3 -24q-10 -38 -41.5 -81
t-78.5 -78h-62v0z" />
    <glyph glyph-name="kgreenlandic" unicode="&#x138;" horiz-adv-x="612" 
d="M422 -12q-38 0 -63.5 16.5t-38.5 58.5l-54 178l-57 -56l-46 -185h-144l108 431h-81l15 60l236 43l-70 -280h2l64 67l156 143h-55l15 60h196l-15 -60h-53l-152 -139l83 -252h18l86 109l36 -21l-60 -91q-15 -23 -29.5 -39t-29.5 -25.5t-31.5 -13.5t-35.5 -4z" />
    <glyph glyph-name="Lacute" unicode="&#x139;" horiz-adv-x="553" 
d="M-18 60h63l144 578h-63l15 60h279l-15 -60h-63l-143 -574h167l35 142h110l-51 -206h-493zM254 762l100 200l111 -58l-175 -162z" />
    <glyph glyph-name="lacute" unicode="&#x13a;" horiz-adv-x="315" 
d="M125 -12q-27 0 -45.5 7t-29.5 19t-16 26.5t-5 29.5q0 12 3 28.5t6 27.5l133 530h-81l15 59l236 45l-171 -684l18 -8l90 114l36 -21l-56 -85q-35 -53 -69.5 -70.5t-63.5 -17.5zM226 802l100 200l111 -58l-175 -162z" />
    <glyph glyph-name="Lcommaaccent" unicode="&#x13b;" horiz-adv-x="553" 
d="M-18 60h63l144 578h-63l15 60h279l-15 -60h-63l-143 -574h167l35 142h110l-51 -206h-493zM81 -281q30 23 55 53t36 54q-22 7 -34 21.5t-12 34.5v9.5t2 11.5q7 27 27 42t49 15t45.5 -16t16.5 -42q0 -12 -3 -24q-10 -38 -41.5 -81t-78.5 -78h-62v0z" />
    <glyph glyph-name="lcommaaccent" unicode="&#x13c;" horiz-adv-x="315" 
d="M125 -12q-27 0 -45.5 7t-29.5 19t-16 26.5t-5 29.5q0 12 3 28.5t6 27.5l133 530h-81l15 59l236 45l-171 -684l18 -8l90 114l36 -21l-56 -85q-35 -53 -69.5 -70.5t-63.5 -17.5zM-27 -281q30 23 55 53t36 54q-22 7 -34 21.5t-12 34.5v9.5t2 11.5q7 27 27 42t49 15t45.5 -16
t16.5 -42q0 -12 -3 -24q-10 -38 -41.5 -81t-78.5 -78h-62v0z" />
    <glyph glyph-name="Lcaron" unicode="&#x13d;" horiz-adv-x="553" 
d="M-18 60h63l144 578h-63l15 60h279l-15 -60h-63l-143 -574h167l35 142h110l-51 -206h-493zM489 731h125l-140 -214h-41z" />
    <glyph glyph-name="lcaron" unicode="&#x13e;" horiz-adv-x="315" 
d="M125 -12q-27 0 -45.5 7t-29.5 19t-16 26.5t-5 29.5q0 12 3 28.5t6 27.5l133 530h-81l15 59l236 45l-171 -684l18 -8l90 114l36 -21l-56 -85q-35 -53 -69.5 -70.5t-63.5 -17.5zM404 748h125l-140 -214h-41z" />
    <glyph glyph-name="Ldot" unicode="&#x13f;" horiz-adv-x="553" 
d="M-18 60h63l144 578h-63l15 60h279l-15 -60h-63l-143 -574h167l35 142h110l-51 -206h-493zM436 257q-35 0 -54 19t-19 45v11.5t2 12.5q7 32 30.5 49.5t56.5 17.5q35 0 54 -19t19 -45v-11.5t-2 -12.5q-7 -32 -30.5 -49.5t-56.5 -17.5z" />
    <glyph glyph-name="ldot" unicode="&#x140;" horiz-adv-x="443" 
d="M125 -12q-27 0 -45.5 7t-29.5 19t-16 26.5t-5 29.5q0 12 3 28.5t6 27.5l133 530h-81l15 59l236 45l-171 -684l18 -8l90 114l36 -21l-56 -85q-35 -53 -69.5 -70.5t-63.5 -17.5zM378 268q-35 0 -54 19t-19 45v11.5t2 12.5q7 32 30.5 49.5t56.5 17.5q35 0 54 -19t19 -45
v-11.5t-2 -12.5q-7 -32 -30.5 -49.5t-56.5 -17.5z" />
    <glyph glyph-name="Lslash" unicode="&#x141;" horiz-adv-x="553" 
d="M-18 60h63l50 201l-76 -26l18 69l75 26l77 308h-63l15 60h279l-15 -60h-63l-63 -252l129 44l-17 -69l-129 -44l-63 -253h167l35 141h110l-51 -205h-493z" />
    <glyph glyph-name="lslash" unicode="&#x142;" horiz-adv-x="325" 
d="M128 -12q-27 0 -45.5 7t-29.5 19t-16 26.5t-5 29.5q0 12 3 28.5t6 27.5l48 192l-66 -20l16 59l65 20l70 279h-81l15 59l236 45l-83 -334l92 29l-14 -60l-93 -28l-73 -291l18 -8l90 114l36 -21l-56 -85q-35 -53 -69.5 -70.5t-63.5 -17.5z" />
    <glyph glyph-name="Nacute" unicode="&#x143;" horiz-adv-x="710" 
d="M-18 60h62l145 578h-63l15 60h244l128 -512h10l113 452h-63l15 60h199l-15 -60h-63l-159 -638h-134l-158 586h-10l-131 -526h63l-15 -60h-198zM459 762l100 200l111 -58l-175 -162z" />
    <glyph glyph-name="nacute" unicode="&#x144;" horiz-adv-x="609" 
d="M410 -12q-27 0 -45 7.5t-29 19t-15.5 26t-4.5 28.5q0 13 3 28.5t6 27.5l76 272q3 12 3 21q0 26 -23 26q-21 0 -46 -23t-50.5 -65t-48.5 -100t-41 -128l-32 -128h-144l108 431h-81l15 60l222 45l-40 -161l12 -4q19 34 38 64.5t41.5 52.5t50 35t62.5 13q54 0 78 -28.5
t24 -76.5q0 -18 -3.5 -38t-9.5 -42l-78 -275l18 -8l90 114l36 -21l-56 -85q-32 -48 -65 -68t-71 -20zM317 602l100 200l111 -58l-175 -162z" />
    <glyph glyph-name="Ncommaaccent" unicode="&#x145;" horiz-adv-x="710" 
d="M-18 60h62l145 578h-63l15 60h244l128 -512h10l113 452h-63l15 60h199l-15 -60h-63l-159 -638h-134l-158 586h-10l-131 -526h63l-15 -60h-198zM143 -281q30 23 55 53t36 54q-22 7 -34 21.5t-12 34.5v9.5t2 11.5q7 27 27 42t49 15t45.5 -16t16.5 -42q0 -12 -3 -24
q-10 -38 -41.5 -81t-78.5 -78h-62v0z" />
    <glyph glyph-name="ncommaaccent" unicode="&#x146;" horiz-adv-x="609" 
d="M410 -12q-27 0 -45 7.5t-29 19t-15.5 26t-4.5 28.5q0 13 3 28.5t6 27.5l76 272q3 12 3 21q0 26 -23 26q-21 0 -46 -23t-50.5 -65t-48.5 -100t-41 -128l-32 -128h-144l108 431h-81l15 60l222 45l-40 -161l12 -4q19 34 38 64.5t41.5 52.5t50 35t62.5 13q54 0 78 -28.5
t24 -76.5q0 -18 -3.5 -38t-9.5 -42l-78 -275l18 -8l90 114l36 -21l-56 -85q-32 -48 -65 -68t-71 -20zM100 -281q30 23 55 53t36 54q-22 7 -34 21.5t-12 34.5v9.5t2 11.5q7 27 27 42t49 15t45.5 -16t16.5 -42q0 -12 -3 -24q-10 -38 -41.5 -81t-78.5 -78h-62v0z" />
    <glyph glyph-name="Ncaron" unicode="&#x147;" horiz-adv-x="710" 
d="M-18 60h62l145 578h-63l15 60h244l128 -512h10l113 452h-63l15 60h199l-15 -60h-63l-159 -638h-134l-158 586h-10l-131 -526h63l-15 -60h-198zM382 939l35 19l99 -112l150 112l29 -26l-151 -184h-85z" />
    <glyph glyph-name="ncaron" unicode="&#x148;" horiz-adv-x="609" 
d="M410 -12q-27 0 -45 7.5t-29 19t-15.5 26t-4.5 28.5q0 13 3 28.5t6 27.5l76 272q3 12 3 21q0 26 -23 26q-21 0 -46 -23t-50.5 -65t-48.5 -100t-41 -128l-32 -128h-144l108 431h-81l15 60l222 45l-40 -161l12 -4q19 34 38 64.5t41.5 52.5t50 35t62.5 13q54 0 78 -28.5
t24 -76.5q0 -18 -3.5 -38t-9.5 -42l-78 -275l18 -8l90 114l36 -21l-56 -85q-32 -48 -65 -68t-71 -20zM244 777l35 19l99 -112l150 112l29 -26l-151 -184h-85z" />
    <glyph glyph-name="napostrophe" unicode="&#x149;" horiz-adv-x="924" 
d="M91 455q45 32 72 61t49 64q-30 5 -47 23.5t-17 42.5q0 7 1 15t3 14q9 34 34 53.5t63 19.5t58.5 -23t20.5 -55q0 -14 -3 -29q-7 -28 -22.5 -54.5t-36 -50.5t-44.5 -44.5t-47 -36.5h-84v0zM716 -12q-27 0 -45 7.5t-29 19t-15.5 26t-4.5 28.5q0 13 3 28.5t6 27.5l76 272
q3 12 3 21q0 26 -23 26q-21 0 -46 -23t-50.5 -65t-48.5 -100t-41 -128l-32 -128h-144l108 431h-81l15 60l222 45l-40 -161l12 -4q19 34 38 64.5t41.5 52.5t50 35t62.5 13q54 0 78 -28.5t24 -76.5q0 -18 -3.5 -38t-9.5 -42l-78 -275l18 -8l90 114l36 -21l-56 -85
q-32 -48 -65 -68t-71 -20z" />
    <glyph glyph-name="Eng" unicode="&#x14a;" horiz-adv-x="705" 
d="M368 -212q-49 0 -76 20t-27 55q0 28 18 51t53 23q26 0 42 -15t16 -38q0 -15 -8 -29.5t-22 -23.5l6 -8q26 0 48.5 22.5t34.5 72.5l21 82h-58l-158 586h-10l-131 -526h63l-15 -60h-198l15 60h62l145 578h-63l15 60h244l128 -512h10l113 452h-63l15 60h199l-15 -60h-63
l-166 -671q-23 -93 -63.5 -136t-111.5 -43z" />
    <glyph glyph-name="eng" unicode="&#x14b;" horiz-adv-x="586" 
d="M202 -212q-116 0 -116 76q0 27 18 50t54 23q25 0 41 -14.5t16 -39.5q0 -16 -9.5 -31t-27.5 -25l9 -10q26 2 49 26t37 75l128 479q3 12 3 21q0 26 -22 26q-21 0 -46.5 -23t-51 -64.5t-48.5 -100t-41 -128.5l-32 -128h-144l108 431h-81l15 60l222 45l-40 -161l12 -4
q19 34 38 64.5t41.5 52.5t50 35t62.5 13q54 0 78 -28.5t24 -76.5q0 -19 -3.5 -38.5t-9.5 -41.5l-107 -385q-26 -91 -86.5 -134.5t-140.5 -43.5z" />
    <glyph glyph-name="Omacron" unicode="&#x14c;" horiz-adv-x="701" 
d="M306 53q63 0 105.5 44.5t59.5 114.5q22 87 35.5 140.5t21 87t10.5 53.5t3 40q0 48 -27.5 80t-81.5 32q-63 0 -105.5 -44.5t-59.5 -114.5q-22 -87 -35.5 -140.5t-21 -87t-10.5 -53.5t-3 -40q0 -48 27.5 -80t81.5 -32zM292 -12q-59 0 -104.5 18t-76.5 51.5t-47 81.5
t-16 107q0 50 11.5 104t34 105.5t56 97.5t77.5 81t99 55.5t120 20.5q59 0 104.5 -18t76.5 -51.5t47 -81.5t16 -107q0 -50 -11.5 -104t-34 -105.5t-56 -97.5t-77.5 -81t-99 -55.5t-120 -20.5zM344 878h288l-20 -80h-288z" />
    <glyph glyph-name="omacron" unicode="&#x14d;" horiz-adv-x="549" 
d="M223 44q39 0 63.5 32t37.5 84q18 70 30 115.5t18.5 74t9 43.5t2.5 24q0 26 -13.5 44.5t-44.5 18.5q-39 0 -63.5 -32t-37.5 -84q-18 -70 -30 -115.5t-18.5 -74t-9 -43.5t-2.5 -24q0 -26 13.5 -44.5t44.5 -18.5zM216 -12q-91 0 -137.5 52.5t-46.5 143.5q0 58 20 120.5
t58.5 114t94.5 84.5t128 33q91 0 137.5 -52.5t46.5 -143.5q0 -59 -20 -121t-58.5 -113.5t-94.5 -84.5t-128 -33zM236 714h288l-20 -80h-288z" />
    <glyph glyph-name="Obreve" unicode="&#x14e;" horiz-adv-x="701" 
d="M306 53q63 0 105.5 44.5t59.5 114.5q22 87 35.5 140.5t21 87t10.5 53.5t3 40q0 48 -27.5 80t-81.5 32q-63 0 -105.5 -44.5t-59.5 -114.5q-22 -87 -35.5 -140.5t-21 -87t-10.5 -53.5t-3 -40q0 -48 27.5 -80t81.5 -32zM292 -12q-59 0 -104.5 18t-76.5 51.5t-47 81.5
t-16 107q0 50 11.5 104t34 105.5t56 97.5t77.5 81t99 55.5t120 20.5q59 0 104.5 -18t76.5 -51.5t47 -81.5t16 -107q0 -50 -11.5 -104t-34 -105.5t-56 -97.5t-77.5 -81t-99 -55.5t-120 -20.5zM459 750q-38 0 -61 16.5t-36 43t-18.5 58.5t-8.5 62l39 14l10 -34
q10 -32 30 -47.5t62 -15.5q41 0 68.5 14.5t52.5 48.5l25 34l35 -20q-17 -30 -35.5 -61t-42 -56t-53 -41t-67.5 -16z" />
    <glyph glyph-name="obreve" unicode="&#x14f;" horiz-adv-x="549" 
d="M223 44q39 0 63.5 32t37.5 84q18 70 30 115.5t18.5 74t9 43.5t2.5 24q0 26 -13.5 44.5t-44.5 18.5q-39 0 -63.5 -32t-37.5 -84q-18 -70 -30 -115.5t-18.5 -74t-9 -43.5t-2.5 -24q0 -26 13.5 -44.5t44.5 -18.5zM216 -12q-91 0 -137.5 52.5t-46.5 143.5q0 58 20 120.5
t58.5 114t94.5 84.5t128 33q91 0 137.5 -52.5t46.5 -143.5q0 -59 -20 -121t-58.5 -113.5t-94.5 -84.5t-128 -33zM352 588q-38 0 -61 16.5t-36 43t-18.5 58.5t-8.5 62l39 14l10 -34q10 -32 30 -47.5t62 -15.5q41 0 68.5 14.5t52.5 48.5l25 34l35 -20q-17 -30 -35.5 -61
t-42 -56t-53 -41t-67.5 -16z" />
    <glyph glyph-name="Ohungarumlaut" unicode="&#x150;" horiz-adv-x="701" 
d="M306 53q63 0 105.5 44.5t59.5 114.5q22 87 35.5 140.5t21 87t10.5 53.5t3 40q0 48 -27.5 80t-81.5 32q-63 0 -105.5 -44.5t-59.5 -114.5q-22 -87 -35.5 -140.5t-21 -87t-10.5 -53.5t-3 -40q0 -48 27.5 -80t81.5 -32zM292 -12q-59 0 -104.5 18t-76.5 51.5t-47 81.5
t-16 107q0 50 11.5 104t34 105.5t56 97.5t77.5 81t99 55.5t120 20.5q59 0 104.5 -18t76.5 -51.5t47 -81.5t16 -107q0 -50 -11.5 -104t-34 -105.5t-56 -97.5t-77.5 -81t-99 -55.5t-120 -20.5zM330 761l108 200l97 -55l-172 -164zM508 761l108 200l97 -55l-172 -164z" />
    <glyph glyph-name="ohungarumlaut" unicode="&#x151;" horiz-adv-x="549" 
d="M223 44q39 0 63.5 32t37.5 84q18 70 30 115.5t18.5 74t9 43.5t2.5 24q0 26 -13.5 44.5t-44.5 18.5q-39 0 -63.5 -32t-37.5 -84q-18 -70 -30 -115.5t-18.5 -74t-9 -43.5t-2.5 -24q0 -26 13.5 -44.5t44.5 -18.5zM216 -12q-91 0 -137.5 52.5t-46.5 143.5q0 58 20 120.5
t58.5 114t94.5 84.5t128 33q91 0 137.5 -52.5t46.5 -143.5q0 -59 -20 -121t-58.5 -113.5t-94.5 -84.5t-128 -33zM231 601l108 200l97 -55l-172 -164zM409 601l108 200l97 -55l-172 -164z" />
    <glyph glyph-name="OE" unicode="&#x152;" horiz-adv-x="965" 
d="M290 -12q-59 0 -104 18t-76 51.5t-46.5 81.5t-15.5 107q0 50 11 104t32.5 105.5t54 97.5t75.5 81t97 55.5t118 20.5q55 0 96 -12h486l-47 -186h-110l31 122h-190l-59 -238h120l16 64h69l-48 -192h-69l16 64h-120l-67 -268h198l35 142h110l-51 -206h-469q-47 -12 -93 -12z
M303 53q32 0 60.5 12t52.5 35l123 494q-15 24 -45.5 37.5t-62.5 13.5q-63 0 -105 -44.5t-59 -114.5q-22 -87 -35.5 -140.5t-21 -87t-10.5 -53.5t-3 -40q0 -48 27 -80t79 -32z" />
    <glyph glyph-name="oe" unicode="&#x153;" horiz-adv-x="790" 
d="M215 -12q-90 0 -136 52.5t-46 143.5q0 58 19 120.5t56.5 114t92 84.5t126.5 33q21 0 42.5 -5t40 -14.5t33 -24.5t21.5 -35h12q29 37 72.5 58t95.5 21q31 0 58.5 -6.5t47.5 -19.5t32 -34t12 -49q0 -24 -12.5 -51.5t-44.5 -52t-88 -42.5t-144 -23q-8 -35 -11 -63t-3 -49
q0 -43 16 -61t45 -18q46 0 84 37.5t72 105.5l39 -17q-22 -48 -46.5 -86t-53.5 -64.5t-64.5 -40.5t-78.5 -14q-41 0 -74 18t-47 60h-12q-34 -42 -76 -60t-80 -18zM224 44q39 0 63.5 32t37.5 84q18 70 30 115.5t18.5 74t9 43.5t2.5 24q0 26 -13.5 44.5t-44.5 18.5
q-39 0 -63.5 -32t-37.5 -84q-18 -70 -30 -115.5t-18.5 -74t-9 -43.5t-2.5 -24q0 -26 13.5 -44.5t44.5 -18.5zM515 299q47 7 77.5 20.5t48.5 32t25.5 40.5t7.5 46q0 21 -10.5 33t-31.5 12t-36.5 -9.5t-28.5 -31t-25.5 -56.5t-26.5 -87z" />
    <glyph glyph-name="Racute" unicode="&#x154;" horiz-adv-x="673" 
d="M-18 60h63l144 578h-63l15 60h351q38 0 70 -7.5t54.5 -23t35 -40.5t12.5 -61q0 -93 -51.5 -156.5t-141.5 -82.5l60 -206q9 -33 28.5 -47t49.5 -14h6l-14 -60h-93q-65 0 -93.5 22t-39.5 75l-45 219h-68l-64 -256h63l-15 -60h-279zM277 376h90q99 0 126 108l5 20t5.5 24.5
t4.5 23.5t2 18q0 29 -19.5 46.5t-59.5 17.5h-90zM380 762l100 200l111 -58l-175 -162z" />
    <glyph glyph-name="racute" unicode="&#x155;" horiz-adv-x="480" 
d="M127 431h-81l15 60l216 45l-41 -165l12 -4q34 86 70.5 127.5t93.5 41.5q45 0 68.5 -23t23.5 -61q0 -18 -5.5 -34t-16.5 -29t-26.5 -20.5t-34.5 -7.5q-28 0 -47 15.5t-19 41.5q0 15 6.5 31t16.5 26l-7 7q-19 -5 -44.5 -41t-54.5 -96q-26 -53 -47 -115t-38 -132l-24 -98
h-144zM270 602l100 200l111 -58l-175 -162z" />
    <glyph glyph-name="Rcommaaccent" unicode="&#x156;" horiz-adv-x="673" 
d="M-18 60h63l144 578h-63l15 60h351q38 0 70 -7.5t54.5 -23t35 -40.5t12.5 -61q0 -93 -51.5 -156.5t-141.5 -82.5l60 -206q9 -33 28.5 -47t49.5 -14h6l-14 -60h-93q-65 0 -93.5 22t-39.5 75l-45 219h-68l-64 -256h63l-15 -60h-279zM277 376h90q99 0 126 108l5 20t5.5 24.5
t4.5 23.5t2 18q0 29 -19.5 46.5t-59.5 17.5h-90zM173 -281q30 23 55 53t36 54q-22 7 -34 21.5t-12 34.5v9.5t2 11.5q7 27 27 42t49 15t45.5 -16t16.5 -42q0 -12 -3 -24q-10 -38 -41.5 -81t-78.5 -78h-62v0z" />
    <glyph glyph-name="rcommaaccent" unicode="&#x157;" horiz-adv-x="480" 
d="M127 431h-81l15 60l216 45l-41 -165l12 -4q34 86 70.5 127.5t93.5 41.5q45 0 68.5 -23t23.5 -61q0 -18 -5.5 -34t-16.5 -29t-26.5 -20.5t-34.5 -7.5q-28 0 -47 15.5t-19 41.5q0 15 6.5 31t16.5 26l-7 7q-19 -5 -44.5 -41t-54.5 -96q-26 -53 -47 -115t-38 -132l-24 -98
h-144zM-49 -281q30 23 55 53t36 54q-22 7 -34 21.5t-12 34.5v9.5t2 11.5q7 27 27 42t49 15t45.5 -16t16.5 -42q0 -12 -3 -24q-10 -38 -41.5 -81t-78.5 -78h-62v0z" />
    <glyph glyph-name="Rcaron" unicode="&#x158;" horiz-adv-x="673" 
d="M-18 60h63l144 578h-63l15 60h351q38 0 70 -7.5t54.5 -23t35 -40.5t12.5 -61q0 -93 -51.5 -156.5t-141.5 -82.5l60 -206q9 -33 28.5 -47t49.5 -14h6l-14 -60h-93q-65 0 -93.5 22t-39.5 75l-45 219h-68l-64 -256h63l-15 -60h-279zM277 376h90q99 0 126 108l5 20t5.5 24.5
t4.5 23.5t2 18q0 29 -19.5 46.5t-59.5 17.5h-90zM303 939l35 19l99 -112l150 112l29 -26l-151 -184h-85z" />
    <glyph glyph-name="rcaron" unicode="&#x159;" horiz-adv-x="480" 
d="M127 431h-81l15 60l216 45l-41 -165l12 -4q34 86 70.5 127.5t93.5 41.5q45 0 68.5 -23t23.5 -61q0 -18 -5.5 -34t-16.5 -29t-26.5 -20.5t-34.5 -7.5q-28 0 -47 15.5t-19 41.5q0 15 6.5 31t16.5 26l-7 7q-19 -5 -44.5 -41t-54.5 -96q-26 -53 -47 -115t-38 -132l-24 -98
h-144zM197 777l35 19l99 -112l150 112l29 -26l-151 -184h-85z" />
    <glyph glyph-name="Sacute" unicode="&#x15a;" horiz-adv-x="575" 
d="M243 -12q-58 0 -90.5 19.5t-39.5 49.5h-12l-14 -57h-110l51 204h110l-12 -47q-4 -17 -4 -28q0 -36 30 -55t84 -19q38 0 67.5 11t49.5 29.5t30.5 42.5t10.5 50q0 32 -19 52t-70 34l-39 11q-82 23 -121.5 66.5t-39.5 112.5q0 51 19 96t53.5 78.5t84 52.5t110.5 19
q58 0 88 -21.5t33 -47.5h11l14 57h110l-51 -204h-110l12 47q4 17 4 28q0 38 -30 56t-82 18q-34 0 -60.5 -10t-44.5 -26.5t-27.5 -38t-9.5 -43.5q0 -16 4 -29.5t14.5 -25.5t30 -22t50.5 -19l38 -11q85 -24 121.5 -66t36.5 -106q0 -54 -19.5 -101.5t-55.5 -82t-88 -54.5
t-118 -20zM339 762l100 200l111 -58l-175 -162z" />
    <glyph glyph-name="sacute" unicode="&#x15b;" horiz-adv-x="422" 
d="M110 -12q-72 0 -101 21t-29 57q0 28 18.5 51.5t54.5 23.5q26 0 42.5 -16t16.5 -41q0 -15 -6 -31.5t-17 -25.5l9 -11q48 9 80 35t32 67q0 20 -8.5 36.5t-21 31.5t-28 30t-29.5 31q-19 22 -35 47t-16 61q0 46 19.5 80t51.5 56.5t73.5 33.5t85.5 11q70 0 99 -21t29 -57
q0 -28 -18.5 -51.5t-54.5 -23.5q-26 0 -42.5 16t-16.5 41q0 15 6 31.5t17 25.5l-9 11q-45 -10 -72 -37.5t-27 -64.5q0 -20 8.5 -36.5t21.5 -31.5t29 -30t31 -32q17 -19 32.5 -44.5t15.5 -63.5q0 -46 -20.5 -79.5t-54.5 -56t-77.5 -33.5t-88.5 -11zM265 602l100 200l111 -58
l-175 -162z" />
    <glyph glyph-name="Scircumflex" unicode="&#x15c;" horiz-adv-x="575" 
d="M243 -12q-58 0 -90.5 19.5t-39.5 49.5h-12l-14 -57h-110l51 204h110l-12 -47q-4 -17 -4 -28q0 -36 30 -55t84 -19q38 0 67.5 11t49.5 29.5t30.5 42.5t10.5 50q0 32 -19 52t-70 34l-39 11q-82 23 -121.5 66.5t-39.5 112.5q0 51 19 96t53.5 78.5t84 52.5t110.5 19
q58 0 88 -21.5t33 -47.5h11l14 57h110l-51 -204h-110l12 47q4 17 4 28q0 38 -30 56t-82 18q-34 0 -60.5 -10t-44.5 -26.5t-27.5 -38t-9.5 -43.5q0 -16 4 -29.5t14.5 -25.5t30 -22t50.5 -19l38 -11q85 -24 121.5 -66t36.5 -106q0 -54 -19.5 -101.5t-55.5 -82t-88 -54.5
t-118 -20zM232 771l151 184h85l77 -191l-35 -19l-99 112l-150 -112z" />
    <glyph glyph-name="scircumflex" unicode="&#x15d;" horiz-adv-x="422" 
d="M110 -12q-72 0 -101 21t-29 57q0 28 18.5 51.5t54.5 23.5q26 0 42.5 -16t16.5 -41q0 -15 -6 -31.5t-17 -25.5l9 -11q48 9 80 35t32 67q0 20 -8.5 36.5t-21 31.5t-28 30t-29.5 31q-19 22 -35 47t-16 61q0 46 19.5 80t51.5 56.5t73.5 33.5t85.5 11q70 0 99 -21t29 -57
q0 -28 -18.5 -51.5t-54.5 -23.5q-26 0 -42.5 16t-16.5 41q0 15 6 31.5t17 25.5l-9 11q-45 -10 -72 -37.5t-27 -64.5q0 -20 8.5 -36.5t21.5 -31.5t29 -30t31 -32q17 -19 32.5 -44.5t15.5 -63.5q0 -46 -20.5 -79.5t-54.5 -56t-77.5 -33.5t-88.5 -11zM151 608l151 184h85
l77 -191l-35 -19l-99 112l-150 -112z" />
    <glyph glyph-name="Scedilla" unicode="&#x15e;" horiz-adv-x="575" 
d="M214 -212q-45 0 -71 16t-36 30l30 33q10 -13 26.5 -20.5t37.5 -7.5q26 0 38.5 13.5t12.5 33.5q0 12 -9 21.5t-40 13.5l-23 3l29 66q-42 5 -66 23t-30 44h-12l-14 -57h-110l51 204h110l-12 -47q-4 -17 -4 -28q0 -36 30 -55t84 -19q38 0 67.5 11t49.5 29.5t30.5 42.5
t10.5 50q0 32 -19 52t-70 34l-39 11q-82 23 -121.5 66.5t-39.5 112.5q0 51 19 96t53.5 78.5t84 52.5t110.5 19q58 0 87.5 -21.5t32.5 -47.5h12l14 57h110l-51 -204h-110l12 47q4 17 4 28q0 38 -30 56t-82 18q-34 0 -60.5 -10t-44.5 -26.5t-27.5 -38t-9.5 -43.5
q0 -16 4 -29.5t14.5 -25.5t30 -22t50.5 -19l38 -11q85 -24 121.5 -66t36.5 -106q0 -53 -18 -98.5t-52 -80t-82.5 -55.5t-109.5 -24l-21 -46l3 -4q11 4 21 5.5t18 1.5q28 0 46 -13.5t18 -39.5q0 -24 -11 -43t-29.5 -32.5t-42.5 -21t-50 -7.5z" />
    <glyph glyph-name="scedilla" unicode="&#x15f;" horiz-adv-x="422" 
d="M99 -212q-45 0 -71 16t-36 30l30 33q10 -13 26.5 -20.5t37.5 -7.5q26 0 38.5 13.5t12.5 33.5q0 12 -9 21.5t-40 13.5l-23 3l28 64q-62 3 -87.5 23.5t-25.5 54.5q0 28 18.5 51.5t54.5 23.5q26 0 42.5 -16t16.5 -41q0 -15 -6 -31.5t-17 -25.5l9 -11q48 9 80 35t32 67
q0 20 -8.5 36.5t-21 31.5t-28 30t-29.5 31q-19 22 -35 47t-16 61q0 46 19.5 80t51.5 56.5t73.5 33.5t85.5 11q70 0 99 -21t29 -57q0 -28 -18.5 -51.5t-54.5 -23.5q-26 0 -42.5 16t-16.5 41q0 15 6 31.5t17 25.5l-9 11q-45 -10 -72 -37.5t-27 -64.5q0 -20 8.5 -36.5
t21.5 -31.5t29 -30t31 -32q17 -19 32.5 -44.5t15.5 -63.5q0 -41 -17 -72.5t-45 -53.5t-65 -35t-77 -17l-21 -48l3 -4q11 4 21 5.5t18 1.5q28 0 46 -13.5t18 -39.5q0 -24 -11 -43t-29.5 -32.5t-42.5 -21t-50 -7.5z" />
    <glyph glyph-name="Scaron" unicode="&#x160;" horiz-adv-x="575" 
d="M243 -12q-58 0 -90.5 19.5t-39.5 49.5h-12l-14 -57h-110l51 204h110l-12 -47q-4 -17 -4 -28q0 -36 30 -55t84 -19q38 0 67.5 11t49.5 29.5t30.5 42.5t10.5 50q0 32 -19 52t-70 34l-39 11q-82 23 -121.5 66.5t-39.5 112.5q0 51 19 96t53.5 78.5t84 52.5t110.5 19
q58 0 88 -21.5t33 -47.5h11l14 57h110l-51 -204h-110l12 47q4 17 4 28q0 38 -30 56t-82 18q-34 0 -60.5 -10t-44.5 -26.5t-27.5 -38t-9.5 -43.5q0 -16 4 -29.5t14.5 -25.5t30 -22t50.5 -19l38 -11q85 -24 121.5 -66t36.5 -106q0 -54 -19.5 -101.5t-55.5 -82t-88 -54.5
t-118 -20zM262 939l35 19l99 -112l150 112l29 -26l-151 -184h-85z" />
    <glyph glyph-name="scaron" unicode="&#x161;" horiz-adv-x="422" 
d="M110 -12q-72 0 -101 21t-29 57q0 28 18.5 51.5t54.5 23.5q26 0 42.5 -16t16.5 -41q0 -15 -6 -31.5t-17 -25.5l9 -11q48 9 80 35t32 67q0 20 -8.5 36.5t-21 31.5t-28 30t-29.5 31q-19 22 -35 47t-16 61q0 46 19.5 80t51.5 56.5t73.5 33.5t85.5 11q70 0 99 -21t29 -57
q0 -28 -18.5 -51.5t-54.5 -23.5q-26 0 -42.5 16t-16.5 41q0 15 6 31.5t17 25.5l-9 11q-45 -10 -72 -37.5t-27 -64.5q0 -20 8.5 -36.5t21.5 -31.5t29 -30t31 -32q17 -19 32.5 -44.5t15.5 -63.5q0 -46 -20.5 -79.5t-54.5 -56t-77.5 -33.5t-88.5 -11zM192 777l35 19l99 -112
l150 112l29 -26l-151 -184h-85z" />
    <glyph glyph-name="uni0162" unicode="&#x162;" horiz-adv-x="673" 
d="M120 60h90l143 574h-127l-31 -122h-110l46 186h629l-47 -186h-110l30 122h-127l-143 -574h90l-14 -60h-334zM130 -281q30 23 55 53t36 54q-22 7 -34 21.5t-12 34.5v9.5t2 11.5q7 27 27 42t49 15t45.5 -16t16.5 -42q0 -12 -3 -24q-10 -38 -41.5 -81t-78.5 -78h-62v0z" />
    <glyph glyph-name="uni0163" unicode="&#x163;" horiz-adv-x="385" 
d="M147 -12q-26 0 -43.5 7t-28.5 18.5t-15.5 25.5t-4.5 29q0 14 3 30.5t6 27.5l83 335h-84l16 63h35q18 0 31.5 3t24 9t19.5 15.5t19 23.5l62 92h73l-36 -143h113l-16 -63h-112l-95 -378l20 -11l115 109l33 -26l-84 -91q-22 -24 -40 -39t-33.5 -23t-30.5 -11t-30 -3z
M10 -281q30 23 55 53t36 54q-22 7 -34 21.5t-12 34.5v9.5t2 11.5q7 27 27 42t49 15t45.5 -16t16.5 -42q0 -12 -3 -24q-10 -38 -41.5 -81t-78.5 -78h-62v0z" />
    <glyph glyph-name="Tcaron" unicode="&#x164;" horiz-adv-x="673" 
d="M120 60h90l143 574h-127l-31 -122h-110l46 186h629l-47 -186h-110l30 122h-127l-143 -574h90l-14 -60h-334zM342 939l35 19l99 -112l150 112l29 -26l-151 -184h-85z" />
    <glyph glyph-name="tcaron" unicode="&#x165;" horiz-adv-x="385" 
d="M147 -12q-26 0 -43.5 7t-28.5 18.5t-15.5 25.5t-4.5 29q0 14 3 30.5t6 27.5l83 335h-84l16 63h35q18 0 31.5 3t24 9t19.5 15.5t19 23.5l62 92h73l-36 -143h113l-16 -63h-112l-95 -378l20 -11l115 109l33 -26l-84 -91q-22 -24 -40 -39t-33.5 -23t-30.5 -11t-30 -3z
M441 790h125l-140 -214h-41z" />
    <glyph glyph-name="Tbar" unicode="&#x166;" horiz-adv-x="673" 
d="M120 60h90l65 260h-106l16 64h106l62 250h-127l-31 -121h-110l46 185h629l-47 -185h-110l30 121h-127l-62 -250h105l-16 -64h-105l-65 -260h90l-14 -60h-334z" />
    <glyph glyph-name="tbar" unicode="&#x167;" horiz-adv-x="385" 
d="M147 -12q-26 0 -43.5 7t-28.5 18.5t-15.5 25.5t-4.5 29q0 14 3 30.5t6 27.5l33 131h-59l15 62h59l35 142h-84l16 63h35q18 0 31.5 3t24 9t19.5 15.5t19 23.5l62 92h73l-36 -143h113l-16 -63h-112l-36 -142h86l-15 -62h-86l-44 -174l20 -11l115 109l33 -26l-84 -91
q-22 -24 -40 -39t-33.5 -23t-30.5 -11t-30 -3z" />
    <glyph glyph-name="Utilde" unicode="&#x168;" horiz-adv-x="701" 
d="M315 -12q-112 0 -173 41t-61 137q0 21 5.5 53t14.5 69l87 350h-63l15 60h279l-15 -60h-63l-97 -389q-14 -53 -14 -92q0 -48 27 -72.5t84 -24.5q78 0 123.5 49.5t73.5 159.5l93 369h-63l15 60h200l-15 -60h-64l-95 -380q-33 -134 -103 -202t-191 -68zM587 767
q-23 0 -41.5 9.5t-37.5 20.5q-18 11 -33 20.5t-32 9.5q-14 0 -27.5 -6t-37.5 -29l-27 29q15 19 28.5 36t28 29.5t30 19.5t34.5 7q23 0 41.5 -9.5t37.5 -20.5q18 -11 33 -20.5t32 -9.5q14 0 27.5 6t37.5 29l27 -29q-30 -39 -57 -65.5t-64 -26.5z" />
    <glyph glyph-name="utilde" unicode="&#x169;" horiz-adv-x="607" 
d="M143 -12q-54 0 -78 28.5t-24 76.5q0 19 3.5 39t9.5 41l74 258h-82l15 60l242 45l-114 -410q-3 -12 -3 -21q0 -25 23 -25q21 0 46 23t50.5 64.5t48.5 99.5t41 129l32 128h144l-112 -448l18 -8l90 114l36 -21l-56 -85q-18 -28 -35.5 -45.5t-34 -27t-31.5 -12.5t-29 -3
q-25 0 -41.5 7t-26 18.5t-13.5 25.5t-4 28q0 15 3 31.5t6 27.5l6 23l-12 4q-19 -35 -38 -65t-41.5 -52t-50 -35t-62.5 -13zM450 602q-23 0 -41.5 9.5t-37.5 20.5q-18 11 -33 20.5t-32 9.5q-14 0 -27.5 -6t-37.5 -29l-27 29q15 19 28.5 36t28 29.5t30 19.5t34.5 7
q23 0 41.5 -9.5t37.5 -20.5q18 -11 33 -20.5t32 -9.5q14 0 27.5 6t37.5 29l27 -29q-30 -39 -57 -65.5t-64 -26.5z" />
    <glyph glyph-name="Umacron" unicode="&#x16a;" horiz-adv-x="701" 
d="M315 -12q-112 0 -173 41t-61 137q0 21 5.5 53t14.5 69l87 350h-63l15 60h279l-15 -60h-63l-97 -389q-14 -53 -14 -92q0 -48 27 -72.5t84 -24.5q78 0 123.5 49.5t73.5 159.5l93 369h-63l15 60h200l-15 -60h-64l-95 -380q-33 -134 -103 -202t-191 -68zM399 878h288l-20 -80
h-288z" />
    <glyph glyph-name="umacron" unicode="&#x16b;" horiz-adv-x="607" 
d="M143 -12q-54 0 -78 28.5t-24 76.5q0 19 3.5 39t9.5 41l74 258h-82l15 60l242 45l-114 -410q-3 -12 -3 -21q0 -25 23 -25q21 0 46 23t50.5 64.5t48.5 99.5t41 129l32 128h144l-112 -448l18 -8l90 114l36 -21l-56 -85q-18 -28 -35.5 -45.5t-34 -27t-31.5 -12.5t-29 -3
q-25 0 -41.5 7t-26 18.5t-13.5 25.5t-4 28q0 15 3 31.5t6 27.5l6 23l-12 4q-19 -35 -38 -65t-41.5 -52t-50 -35t-62.5 -13zM261 714h288l-20 -80h-288z" />
    <glyph glyph-name="Ubreve" unicode="&#x16c;" horiz-adv-x="701" 
d="M315 -12q-112 0 -173 41t-61 137q0 21 5.5 53t14.5 69l87 350h-63l15 60h279l-15 -60h-63l-97 -389q-14 -53 -14 -92q0 -48 27 -72.5t84 -24.5q78 0 123.5 49.5t73.5 159.5l93 369h-63l15 60h200l-15 -60h-64l-95 -380q-33 -134 -103 -202t-191 -68zM514 750
q-38 0 -61 16.5t-36 43t-18.5 58.5t-8.5 62l39 14l10 -34q10 -32 30 -47.5t62 -15.5q41 0 68.5 14.5t52.5 48.5l25 34l35 -20q-17 -30 -35.5 -61t-42 -56t-53 -41t-67.5 -16z" />
    <glyph glyph-name="ubreve" unicode="&#x16d;" horiz-adv-x="607" 
d="M143 -12q-54 0 -78 28.5t-24 76.5q0 19 3.5 39t9.5 41l74 258h-82l15 60l242 45l-114 -410q-3 -12 -3 -21q0 -25 23 -25q21 0 46 23t50.5 64.5t48.5 99.5t41 129l32 128h144l-112 -448l18 -8l90 114l36 -21l-56 -85q-18 -28 -35.5 -45.5t-34 -27t-31.5 -12.5t-29 -3
q-25 0 -41.5 7t-26 18.5t-13.5 25.5t-4 28q0 15 3 31.5t6 27.5l6 23l-12 4q-19 -35 -38 -65t-41.5 -52t-50 -35t-62.5 -13zM377 588q-38 0 -61 16.5t-36 43t-18.5 58.5t-8.5 62l39 14l10 -34q10 -32 30 -47.5t62 -15.5q41 0 68.5 14.5t52.5 48.5l25 34l35 -20
q-17 -30 -35.5 -61t-42 -56t-53 -41t-67.5 -16z" />
    <glyph glyph-name="Uring" unicode="&#x16e;" horiz-adv-x="701" 
d="M315 -12q-112 0 -173 41t-61 137q0 21 5.5 53t14.5 69l87 350h-63l15 60h279l-15 -60h-63l-97 -389q-14 -53 -14 -92q0 -48 27 -72.5t84 -24.5q78 0 123.5 49.5t73.5 159.5l93 369h-63l15 60h200l-15 -60h-64l-95 -380q-33 -134 -103 -202t-191 -68zM520 770
q23 0 37.5 14.5t21.5 40.5q8 37 12.5 59.5t4.5 31.5q0 16 -8.5 27t-30.5 11q-23 0 -37.5 -14.5t-21.5 -40.5q-8 -37 -12.5 -59.5t-4.5 -31.5q0 -16 8.5 -27t30.5 -11zM517 722q-28 0 -49.5 9.5t-36.5 24.5t-22.5 34.5t-7.5 40.5q0 36 12.5 67t34.5 54t51 36.5t61 13.5
q28 0 49.5 -9.5t36.5 -24.5t22.5 -34.5t7.5 -40.5q0 -36 -13 -67t-34.5 -54t-50.5 -36.5t-61 -13.5z" />
    <glyph glyph-name="uring" unicode="&#x16f;" horiz-adv-x="607" 
d="M143 -12q-54 0 -78 28.5t-24 76.5q0 19 3.5 39t9.5 41l74 258h-82l15 60l242 45l-114 -410q-3 -12 -3 -21q0 -25 23 -25q21 0 46 23t50.5 64.5t48.5 99.5t41 129l32 128h144l-112 -448l18 -8l90 114l36 -21l-56 -85q-18 -28 -35.5 -45.5t-34 -27t-31.5 -12.5t-29 -3
q-25 0 -41.5 7t-26 18.5t-13.5 25.5t-4 28q0 15 3 31.5t6 27.5l6 23l-12 4q-19 -35 -38 -65t-41.5 -52t-50 -35t-62.5 -13zM384 608q23 0 37.5 14.5t21.5 40.5q8 37 12.5 59.5t4.5 31.5q0 16 -8.5 27t-30.5 11q-23 0 -37.5 -14.5t-21.5 -40.5q-8 -37 -12.5 -59.5t-4.5 -31.5
q0 -16 8.5 -27t30.5 -11zM381 560q-28 0 -49.5 9.5t-36.5 24.5t-22.5 34.5t-7.5 40.5q0 36 12.5 67t34.5 54t51 36.5t61 13.5q28 0 49.5 -9.5t36.5 -24.5t22.5 -34.5t7.5 -40.5q0 -36 -13 -67t-34.5 -54t-50.5 -36.5t-61 -13.5z" />
    <glyph glyph-name="Uhungarumlaut" unicode="&#x170;" horiz-adv-x="701" 
d="M315 -12q-112 0 -173 41t-61 137q0 21 5.5 53t14.5 69l87 350h-63l15 60h279l-15 -60h-63l-97 -389q-14 -53 -14 -92q0 -48 27 -72.5t84 -24.5q78 0 123.5 49.5t73.5 159.5l93 369h-63l15 60h200l-15 -60h-64l-95 -380q-33 -134 -103 -202t-191 -68zM385 761l108 200
l97 -55l-172 -164zM563 761l108 200l97 -55l-172 -164z" />
    <glyph glyph-name="uhungarumlaut" unicode="&#x171;" horiz-adv-x="607" 
d="M143 -12q-54 0 -78 28.5t-24 76.5q0 19 3.5 39t9.5 41l74 258h-82l15 60l242 45l-114 -410q-3 -12 -3 -21q0 -25 23 -25q21 0 46 23t50.5 64.5t48.5 99.5t41 129l32 128h144l-112 -448l18 -8l90 114l36 -21l-56 -85q-18 -28 -35.5 -45.5t-34 -27t-31.5 -12.5t-29 -3
q-25 0 -41.5 7t-26 18.5t-13.5 25.5t-4 28q0 15 3 31.5t6 27.5l6 23l-12 4q-19 -35 -38 -65t-41.5 -52t-50 -35t-62.5 -13zM256 601l108 200l97 -55l-172 -164zM434 601l108 200l97 -55l-172 -164z" />
    <glyph glyph-name="Uogonek" unicode="&#x172;" horiz-adv-x="701" 
d="M297 -212q-38 0 -63.5 15.5t-25.5 53.5q0 42 35.5 75t98.5 53v5q-6 -1 -13.5 -1.5t-14.5 -0.5q-111 0 -172 41t-61 137q0 21 5.5 53t14.5 69l87 350h-63l15 60h279l-15 -60h-63l-97 -389q-14 -53 -14 -92q0 -48 27 -72.5t84 -24.5q78 0 123.5 49.5t73.5 159.5l93 369h-63
l15 60h200l-15 -60h-64l-95 -380q-11 -45 -24.5 -78t-27 -56.5t-26.5 -39.5t-23 -26q-21 -21 -42 -32.5t-42 -21.5t-43 -23t-45 -37q-37 -39 -37 -72q0 -14 7.5 -20t19.5 -6q14 0 23.5 5.5t21.5 16.5l32 -36q-22 -21 -46.5 -32.5t-59.5 -11.5z" />
    <glyph glyph-name="uogonek" unicode="&#x173;" horiz-adv-x="607" 
d="M415 -212q-38 0 -63.5 16.5t-25.5 54.5q0 24 10.5 43t27.5 34.5t38.5 27.5t43.5 21l-1 5q-6 -1 -16 -1.5t-15 -0.5q-24 0 -39.5 7t-25 19t-13.5 26.5t-4 29.5q0 14 3 29.5t6 26.5l6 23l-12 4q-19 -35 -38 -65t-41.5 -52t-50 -35t-62.5 -13q-54 0 -78 28.5t-24 76.5
q0 19 3.5 39t9.5 41l74 258h-82l15 60l242 45l-114 -410q-3 -12 -3 -21q0 -25 23 -25q21 0 46 23t50.5 64.5t48.5 99.5t41 129l32 128h144l-112 -448l18 -8l90 114l36 -21l-72 -108q-15 -23 -35 -46.5t-37.5 -46t-29.5 -44t-12 -40.5q0 -17 7.5 -23.5t19.5 -6.5q14 0 24 5.5
t21 16.5l32 -36q-22 -21 -46 -32.5t-60 -11.5z" />
    <glyph glyph-name="Wcircumflex" unicode="&#x174;" horiz-adv-x="961" 
d="M154 638h-47l15 60h268l-15 -60h-69l-16 -481h8l260 541h129l-1 -541h8l216 481h-69l15 60h202l-15 -60h-47l-306 -638h-142l2 519h-8l-251 -519h-152zM489 771l151 184h85l77 -191l-35 -19l-99 112l-150 -112z" />
    <glyph glyph-name="wcircumflex" unicode="&#x175;" horiz-adv-x="787" 
d="M94 465h-35l14 59h241l-14 -59h-55l-11 -326h11l198 385h106l-5 -385h11l161 326h-55l14 59h167l-14 -59h-35l-261 -465h-113l2 340h-10l-184 -340h-119zM357 608l151 184h85l77 -191l-35 -19l-99 112l-150 -112z" />
    <glyph glyph-name="Ycircumflex" unicode="&#x176;" horiz-adv-x="645" 
d="M115 60h80l55 220l-95 358h-47l15 60h273l-15 -60h-69l65 -267h9l196 267h-69l15 60h207l-15 -60h-47l-264 -335l-61 -243h80l-15 -60h-313zM328 771l151 184h85l77 -191l-35 -19l-99 112l-150 -112z" />
    <glyph glyph-name="ycircumflex" unicode="&#x177;" horiz-adv-x="512" 
d="M20 -212q-46 0 -74.5 21t-28.5 57q0 29 19 52t55 23q26 0 42.5 -14.5t16.5 -39.5q0 -15 -6 -30t-16 -23l7 -6q32 11 60 41.5t58 90.5l-63 505h-39l14 59h240l-14 -59h-51l19 -319h11l178 319h-46l14 59h158l-15 -59h-35l-317 -525q-26 -43 -51 -72t-48 -47t-45 -25.5
t-43 -7.5zM224 608l151 184h85l77 -191l-35 -19l-99 112l-150 -112z" />
    <glyph glyph-name="Ydieresis" unicode="&#x178;" horiz-adv-x="645" 
d="M115 60h80l55 220l-95 358h-47l15 60h273l-15 -60h-69l65 -267h9l196 267h-69l15 60h207l-15 -60h-47l-264 -335l-61 -243h80l-15 -60h-313zM381 769q-30 0 -47.5 18t-17.5 42q0 10 3 22q6 23 27 40t51 17t47.5 -18t17.5 -42q0 -10 -3 -22q-6 -23 -27 -40t-51 -17z
M591 769q-30 0 -47.5 18t-17.5 42q0 10 3 22q6 23 27 40t51 17t47.5 -18t17.5 -42q0 -10 -3 -22q-6 -23 -27 -40t-51 -17z" />
    <glyph glyph-name="Zacute" unicode="&#x179;" horiz-adv-x="584" 
d="M-19 64l481 570h-214l-31 -122h-110l46 186h500l-16 -64l-477 -570h235l35 142h110l-51 -206h-523zM370 762l100 200l111 -58l-175 -162z" />
    <glyph glyph-name="zacute" unicode="&#x17a;" horiz-adv-x="486" 
d="M329 -12q-23 0 -47.5 3.5t-55 11t-70 18.5t-93.5 27l-12 -48h-66l9 34q3 12 6 20.5t7.5 16t11 15t16.5 17.5l277 276l-174 27l-20 -13l-30 -81l-41 6l36 148q10 41 31 55.5t58 14.5q23 0 44.5 -3.5t47.5 -10.5t60.5 -18.5t83.5 -27.5l12 48h66l-9 -35q-6 -23 -14 -36.5
t-27 -32.5l-276 -275l204 -27l20 13l30 81l41 -6l-36 -148q-10 -42 -31 -56t-59 -14zM264 602l100 200l111 -58l-175 -162z" />
    <glyph glyph-name="Zdotaccent" unicode="&#x17b;" horiz-adv-x="584" 
d="M-19 64l481 570h-214l-31 -122h-110l46 186h500l-16 -64l-477 -570h235l35 142h110l-51 -206h-523zM421 760q-35 0 -54 19t-19 45v11.5t2 12.5q7 32 30.5 49.5t56.5 17.5q35 0 54 -19t19 -45v-11.5t-2 -12.5q-7 -32 -30.5 -49.5t-56.5 -17.5z" />
    <glyph glyph-name="zdotaccent" unicode="&#x17c;" horiz-adv-x="486" 
d="M329 -12q-23 0 -47.5 3.5t-55 11t-70 18.5t-93.5 27l-12 -48h-66l9 34q3 12 6 20.5t7.5 16t11 15t16.5 17.5l277 276l-174 27l-20 -13l-30 -81l-41 6l36 148q10 41 31 55.5t58 14.5q23 0 44.5 -3.5t47.5 -10.5t60.5 -18.5t83.5 -27.5l12 48h66l-9 -35q-6 -23 -14 -36.5
t-27 -32.5l-276 -275l204 -27l20 13l30 81l41 -6l-36 -148q-10 -42 -31 -56t-59 -14zM314 597q-35 0 -54 19t-19 45v11.5t2 12.5q7 32 30.5 49.5t56.5 17.5q35 0 54 -19t19 -45v-11.5t-2 -12.5q-7 -32 -30.5 -49.5t-56.5 -17.5z" />
    <glyph glyph-name="Zcaron" unicode="&#x17d;" horiz-adv-x="584" 
d="M-19 64l481 570h-214l-31 -122h-110l46 186h500l-16 -64l-477 -570h235l35 142h110l-51 -206h-523zM293 939l35 19l99 -112l150 112l29 -26l-151 -184h-85z" />
    <glyph glyph-name="zcaron" unicode="&#x17e;" horiz-adv-x="486" 
d="M329 -12q-23 0 -47.5 3.5t-55 11t-70 18.5t-93.5 27l-12 -48h-66l9 34q3 12 6 20.5t7.5 16t11 15t16.5 17.5l277 276l-174 27l-20 -13l-30 -81l-41 6l36 148q10 41 31 55.5t58 14.5q23 0 44.5 -3.5t47.5 -10.5t60.5 -18.5t83.5 -27.5l12 48h66l-9 -35q-6 -23 -14 -36.5
t-27 -32.5l-276 -275l204 -27l20 13l30 81l41 -6l-36 -148q-10 -42 -31 -56t-59 -14zM191 777l35 19l99 -112l150 112l29 -26l-151 -184h-85z" />
    <glyph glyph-name="uni018F" unicode="&#x18f;" horiz-adv-x="676" 
d="M271 -12q-109 0 -167 60t-58 171q0 27 4.5 61.5t12.5 66.5h417l14 55q6 25 10.5 43t7 31.5t3.5 24.5t1 22q0 52 -32.5 80t-91.5 28q-70 0 -128.5 -36.5t-94.5 -96.5l-43 28q48 85 126.5 134.5t171.5 49.5q58 0 103 -18t76 -51.5t46.5 -81.5t15.5 -107q0 -50 -11.5 -104
t-33.5 -105.5t-55 -97.5t-77 -81t-98.5 -55.5t-118.5 -20.5zM272 53q74 0 120 56t70 168h-269l-13 -52q-9 -35 -9 -62q0 -56 28 -83t73 -27z" />
    <glyph glyph-name="florin" unicode="&#x192;" horiz-adv-x="508" 
d="M-50 -146q-59 0 -88 22.5t-29 58.5q0 29 19 52t55 23q26 0 42.5 -14.5t16.5 -37.5q0 -25 -13.5 -39.5t-28.5 -19.5l6 -9q5 -1 7.5 -1h7.5q40 0 66 37.5t47 98.5l89 261h-162l20 61h163l59 169q32 92 96 143t155 51q59 0 88 -22.5t29 -58.5q0 -29 -19 -52t-55 -23
q-26 0 -42.5 14.5t-16.5 37.5q0 25 13.5 39.5t28.5 19.5l-6 9q-5 1 -7.5 1h-7.5q-40 0 -65.5 -37.5t-47.5 -98.5l-66 -192h185l-21 -61h-185l-82 -238q-32 -92 -96 -143t-155 -51z" />
    <glyph glyph-name="Ohorn" unicode="&#x1a0;" horiz-adv-x="701" 
d="M292 -12q-59 0 -104.5 18t-76.5 51.5t-47 81.5t-16 107q0 50 11.5 104t34 105.5t56 97.5t77.5 81t99 55.5t120 20.5q47 0 85 -12h101l27 111h112l-19 -74q-10 -38 -30.5 -59.5t-57.5 -21.5h-51q77 -68 77 -202q0 -50 -11.5 -104t-34 -105.5t-56 -97.5t-77.5 -81
t-99 -55.5t-120 -20.5zM306 53q63 0 105.5 44.5t59.5 114.5q22 87 35.5 140.5t21 87t10.5 53.5t3 40q0 48 -27.5 80t-81.5 32q-63 0 -105.5 -44.5t-59.5 -114.5q-22 -87 -35.5 -140.5t-21 -87t-10.5 -53.5t-3 -40q0 -48 27.5 -80t81.5 -32z" />
    <glyph glyph-name="ohorn" unicode="&#x1a1;" horiz-adv-x="549" 
d="M216 -12q-91 0 -137.5 52.5t-46.5 143.5q0 58 20 120.5t58.5 114t94.5 84.5t128 33q42 0 75 -12h79l26 106h112l-18 -71q-9 -38 -30 -59t-58 -21h-46q44 -52 44 -139q0 -59 -20 -121t-58.5 -113.5t-94.5 -84.5t-128 -33zM223 44q39 0 63.5 32t37.5 84q18 70 30 115.5
t18.5 74t9 43.5t2.5 24q0 26 -13.5 44.5t-44.5 18.5q-39 0 -63.5 -32t-37.5 -84q-18 -70 -30 -115.5t-18.5 -74t-9 -43.5t-2.5 -24q0 -26 13.5 -44.5t44.5 -18.5z" />
    <glyph glyph-name="Uhorn" unicode="&#x1af;" horiz-adv-x="727" 
d="M316 -12q-112 0 -173 41t-61 137q0 21 5.5 53t14.5 69l87 350h-63l15 60h279l-15 -60h-63l-97 -389q-14 -53 -14 -92q0 -48 27 -72.5t84 -24.5q78 0 123.5 49.5t73.5 159.5l93 369h-63l15 60h136l27 111h112l-19 -74q-10 -38 -33.5 -62.5t-65.5 -24.5h-34l-97 -390
q-33 -134 -103 -202t-191 -68z" />
    <glyph glyph-name="uhorn" unicode="&#x1b0;" horiz-adv-x="607" 
d="M143 -12q-54 0 -78 28.5t-24 76.5q0 19 3.5 39t9.5 41l74 258h-82l15 60l242 45l-114 -410q-3 -12 -3 -21q0 -25 23 -25q21 0 46.5 23t50.5 64.5t48 99.5t41 129l32 128h110l26 106h112l-18 -71q-10 -38 -30.5 -59t-57.5 -21h-10l-100 -403l18 -8l90 114l36 -21l-56 -85
q-35 -54 -67.5 -71t-64.5 -17q-24 0 -40 7t-25.5 18.5t-13.5 25.5t-4 28q0 15 3 31.5t6 27.5l6 23l-12 4q-19 -35 -38 -65t-41.5 -52t-50 -35t-62.5 -13z" />
    <glyph glyph-name="Aringacute" unicode="&#x1fa;" horiz-adv-x="663" 
d="M-38 60h47l364 638h131l51 -638h47l-15 -60h-266l14 60h70l-8 158h-217l-86 -158h70l-15 -60h-202zM212 280h183l-11 309h-9zM460 771q25 0 38 13.5t19 39.5q3 11 8 30t5 30q0 14 -9 25.5t-34 11.5t-38 -13.5t-19 -39.5q-3 -11 -8 -30t-5 -30q0 -14 9 -25.5t34 -11.5z
M454 728q-58 0 -89.5 27.5t-31.5 69.5q0 24 9.5 49t29 45t50 32.5t71.5 12.5q58 0 89.5 -27.5t31.5 -69.5q0 -24 -9.5 -49t-29 -45t-50 -32.5t-71.5 -12.5zM471 1014l134 126l55 -69l-163 -86z" />
    <glyph glyph-name="aringacute" unicode="&#x1fb;" horiz-adv-x="592" 
d="M143 -12q-63 0 -89.5 42t-26.5 115q0 42 8 87.5t24 89t39 82.5t52 68.5t64.5 46.5t76.5 17q44 0 75.5 -23.5t41.5 -80.5h12l65 92h71l-112 -448l18 -8l90 114l36 -21l-56 -85q-31 -47 -61.5 -67.5t-62.5 -20.5q-25 0 -41.5 7t-26 18t-13.5 25.5t-4 28.5q0 15 3 31.5
t6 27.5l4 16l-12 2q-14 -31 -31.5 -59.5t-39 -50t-49 -34t-61.5 -12.5zM206 80q24 0 49.5 26t47 64t38 81t24.5 77l7 29q11 48 3 76t-43 28t-69.5 -39t-59.5 -128q-11 -38 -19 -84.5t-8 -78.5q0 -23 6.5 -37t23.5 -14zM347 608q25 0 38 13.5t19 39.5q3 11 8 30t5 30
q0 14 -9 25.5t-34 11.5t-38 -13.5t-19 -39.5q-3 -11 -8 -30t-5 -30q0 -14 9 -25.5t34 -11.5zM341 565q-58 0 -89.5 27.5t-31.5 69.5q0 24 9.5 49t29 45t50 32.5t71.5 12.5q58 0 89.5 -27.5t31.5 -69.5q0 -24 -9.5 -49t-29 -45t-50 -32.5t-71.5 -12.5zM358 851l134 126
l55 -69l-163 -86z" />
    <glyph glyph-name="AEacute" unicode="&#x1fc;" horiz-adv-x="945" 
d="M-37 60h56l418 578h-64l15 60h610l-47 -186h-110l30 122h-189l-59 -238h120l16 64h69l-48 -192h-69l16 64h-120l-67 -268h198l35 142h110l-51 -206h-524l15 60h63l39 158h-209l-114 -158h64l-15 -60h-203zM260 280h181l89 358h-10zM634 762l100 200l111 -58l-175 -162z
" />
    <glyph glyph-name="aeacute" unicode="&#x1fd;" horiz-adv-x="719" 
d="M97 -12q-48 0 -76.5 28t-28.5 76q0 85 76 134.5t228 57.5q3 11 7 27.5t7.5 34.5t6.5 35t3 28q0 34 -21.5 51.5t-56.5 17.5q-13 0 -27 -1.5t-25 -4.5l-3 -9q10 -8 17.5 -18t7.5 -26q0 -14 -5 -28.5t-14.5 -25.5t-24.5 -18t-34 -7q-27 0 -42.5 14.5t-15.5 44.5
q0 25 16 49.5t44.5 44t67 31.5t84.5 12q43 0 75 -17t44 -50h12q23 30 62 48.5t87 18.5q33 0 61 -6t48.5 -19.5t32.5 -34t12 -49.5q0 -23 -12 -50.5t-44 -52t-88 -43t-145 -23.5q-8 -35 -11 -63t-3 -49q0 -45 16.5 -62t45.5 -17q45 0 82.5 37t72.5 106l39 -17
q-45 -98 -102 -151.5t-143 -53.5q-69 0 -105.5 35.5t-41.5 96.5h-13q-9 -23 -24.5 -46t-37 -42.5t-49.5 -31.5t-62 -12zM163 66q17 0 34.5 11.5t32.5 30.5t26.5 42t17.5 46l13 53q-71 -11 -108 -34t-48 -65q-2 -7 -5 -19t-3 -23q0 -21 11.5 -31.5t28.5 -10.5zM443 299
q47 7 77.5 20.5t48.5 32t25.5 40.5t7.5 46q0 21 -10.5 33t-31.5 12t-36.5 -9.5t-28.5 -31t-25.5 -56.5t-26.5 -87zM407 602l100 200l111 -58l-175 -162z" />
    <glyph glyph-name="Oslashacute" unicode="&#x1fe;" horiz-adv-x="701" 
d="M13 -3l77 87q-42 63 -42 162q0 50 11.5 104t34 105.5t56 97.5t77.5 81t99 55.5t120 20.5q96 0 158 -48l73 81l48 -42l-77 -87q42 -63 42 -162q0 -50 -11.5 -104t-34 -105.5t-56 -97.5t-77.5 -81t-99 -55.5t-120 -20.5q-96 0 -158 48l-73 -81zM432 645q-63 0 -108 -44.5
t-62 -114.5q-17 -69 -29 -116.5t-20 -80.5t-12.5 -54.5t-6.5 -37.5l342 386q-13 28 -39.5 45t-64.5 17zM306 53q63 0 108 44.5t62 114.5q17 69 29 116.5t20 80.5t12.5 54t6.5 38l-342 -386q13 -28 39.5 -45t64.5 -17zM418 762l100 200l111 -58l-175 -162z" />
    <glyph glyph-name="oslashacute" unicode="&#x1ff;" horiz-adv-x="555" 
d="M-16 -3l75 78q-24 45 -24 109q0 58 20 120.5t58.5 114t94.5 84.5t128 33q78 0 125 -41l70 72l40 -40l-74 -78q23 -46 23 -109q0 -59 -20 -121t-58.5 -113.5t-94.5 -84.5t-128 -33q-40 0 -71 10.5t-54 30.5l-70 -72zM329 480q-39 0 -63.5 -32t-37.5 -84q-14 -52 -23.5 -90
l-16.5 -66l199 209q0 26 -13.5 44.5t-44.5 18.5zM226 44q39 0 63.5 32t37.5 84q14 53 23.5 91t16.5 65l-199 -208q0 -26 13.5 -45t44.5 -19zM314 602l100 200l111 -58l-175 -162z" />
    <glyph glyph-name="Scommaaccent" unicode="&#x218;" horiz-adv-x="575" 
d="M243 -12q-58 0 -90.5 19.5t-39.5 49.5h-12l-14 -57h-110l51 204h110l-12 -47q-4 -17 -4 -28q0 -36 30 -55t84 -19q38 0 67.5 11t49.5 29.5t30.5 42.5t10.5 50q0 32 -19 52t-70 34l-39 11q-82 23 -121.5 66.5t-39.5 112.5q0 51 19 96t53.5 78.5t84 52.5t110.5 19
q58 0 88 -21.5t33 -47.5h11l14 57h110l-51 -204h-110l12 47q4 17 4 28q0 38 -30 56t-82 18q-34 0 -60.5 -10t-44.5 -26.5t-27.5 -38t-9.5 -43.5q0 -16 4 -29.5t14.5 -25.5t30 -22t50.5 -19l38 -11q85 -24 121.5 -66t36.5 -106q0 -54 -19.5 -101.5t-55.5 -82t-88 -54.5
t-118 -20zM103 -281q30 23 55 53t36 54q-22 7 -34 21.5t-12 34.5v9.5t2 11.5q7 27 27 42t49 15t45.5 -16t16.5 -42q0 -12 -3 -24q-10 -38 -41.5 -81t-78.5 -78h-62v0z" />
    <glyph glyph-name="scommaaccent" unicode="&#x219;" horiz-adv-x="422" 
d="M110 -12q-72 0 -101 21t-29 57q0 28 18.5 51.5t54.5 23.5q26 0 42.5 -16t16.5 -41q0 -15 -6 -31.5t-17 -25.5l9 -11q48 9 80 35t32 67q0 20 -8.5 36.5t-21 31.5t-28 30t-29.5 31q-19 22 -35 47t-16 61q0 46 19.5 80t51.5 56.5t73.5 33.5t85.5 11q70 0 99 -21t29 -57
q0 -28 -18.5 -51.5t-54.5 -23.5q-26 0 -42.5 16t-16.5 41q0 15 6 31.5t17 25.5l-9 11q-45 -10 -72 -37.5t-27 -64.5q0 -20 8.5 -36.5t21.5 -31.5t29 -30t31 -32q17 -19 32.5 -44.5t15.5 -63.5q0 -46 -20.5 -79.5t-54.5 -56t-77.5 -33.5t-88.5 -11zM-13 -281q30 23 55 53
t36 54q-22 7 -34 21.5t-12 34.5v9.5t2 11.5q7 27 27 42t49 15t45.5 -16t16.5 -42q0 -12 -3 -24q-10 -38 -41.5 -81t-78.5 -78h-62v0z" />
    <glyph glyph-name="uni021A" unicode="&#x21a;" horiz-adv-x="673" 
d="M120 60h90l143 574h-127l-31 -122h-110l46 186h629l-47 -186h-110l30 122h-127l-143 -574h90l-14 -60h-334zM130 -281q30 23 55 53t36 54q-22 7 -34 21.5t-12 34.5v9.5t2 11.5q7 27 27 42t49 15t45.5 -16t16.5 -42q0 -12 -3 -24q-10 -38 -41.5 -81t-78.5 -78h-62v0z" />
    <glyph glyph-name="uni021B" unicode="&#x21b;" horiz-adv-x="385" 
d="M147 -12q-26 0 -43.5 7t-28.5 18.5t-15.5 25.5t-4.5 29q0 14 3 30.5t6 27.5l83 335h-84l16 63h35q18 0 31.5 3t24 9t19.5 15.5t19 23.5l62 92h73l-36 -143h113l-16 -63h-112l-95 -378l20 -11l115 109l33 -26l-84 -91q-22 -24 -40 -39t-33.5 -23t-30.5 -11t-30 -3z
M10 -281q30 23 55 53t36 54q-22 7 -34 21.5t-12 34.5v9.5t2 11.5q7 27 27 42t49 15t45.5 -16t16.5 -42q0 -12 -3 -24q-10 -38 -41.5 -81t-78.5 -78h-62v0z" />
    <glyph glyph-name="uni0237" unicode="&#x237;" horiz-adv-x="303" 
d="M-64 -212q-60 0 -88.5 19.5t-28.5 54.5q0 29 18 52t53 23q26 0 42 -14.5t16 -39.5q0 -16 -9.5 -31t-27.5 -25l9 -10q30 3 47 28t30 73l129 513h-81l15 60l237 45l-144 -569q-12 -46 -33 -80t-49 -56t-62.5 -32.5t-72.5 -10.5z" />
    <glyph glyph-name="uni0259" unicode="&#x259;" horiz-adv-x="479" 
d="M151 -12q-33 0 -61.5 6t-49 19.5t-32.5 34t-12 49.5q0 23 12 50.5t44 52t88 43t145 23.5q8 35 11 63t3 49q0 43 -16 61t-45 18q-46 0 -84 -37.5t-72 -105.5l-39 17q22 48 46.5 86t54 64.5t65.5 40.5t83 14q81 0 119 -46.5t38 -129.5q0 -59 -17.5 -124.5t-53.5 -120.5
t-92.5 -91t-134.5 -36zM158 41q21 0 36.5 9.5t28.5 31t25.5 56.5t26.5 87q-47 -7 -77.5 -20.5t-48.5 -32t-25.5 -40.5t-7.5 -46q0 -21 10.5 -33t31.5 -12z" />
    <glyph glyph-name="uni02BB" unicode="&#x2bb;" horiz-adv-x="600" 
d="M310 571q-29 0 -45.5 16t-16.5 42q0 12 3 24q10 38 41.5 81t78.5 78h62q-30 -23 -55 -53t-36 -54q22 -7 34 -21.5t12 -34.5v-9.5t-2 -11.5q-7 -27 -27 -42t-49 -15z" />
    <glyph glyph-name="uni02BC" unicode="&#x2bc;" horiz-adv-x="600" 
d="M353 748h125l-140 -214h-41z" />
    <glyph glyph-name="circumflex" unicode="&#x2c6;" horiz-adv-x="600" 
d="M160 608l151 184h85l77 -191l-35 -19l-99 112l-150 -112z" />
    <glyph glyph-name="caron" unicode="&#x2c7;" horiz-adv-x="600" 
d="M201 777l35 19l99 -112l150 112l29 -26l-151 -184h-85z" />
    <glyph glyph-name="breve" unicode="&#x2d8;" horiz-adv-x="600" 
d="M315 588q-38 0 -61 16.5t-36 43t-18.5 58.5t-8.5 62l39 14l10 -34q10 -32 30 -47.5t62 -15.5q41 0 68.5 14.5t52.5 48.5l25 34l35 -20q-17 -30 -35.5 -61t-42 -56t-53 -41t-67.5 -16z" />
    <glyph glyph-name="dotaccent" unicode="&#x2d9;" horiz-adv-x="600" 
d="M324 597q-35 0 -54 19t-19 45v11.5t2 12.5q7 32 30.5 49.5t56.5 17.5q35 0 54 -19t19 -45v-11.5t-2 -12.5q-7 -32 -30.5 -49.5t-56.5 -17.5z" />
    <glyph glyph-name="ring" unicode="&#x2da;" horiz-adv-x="600" 
d="M322 608q23 0 37.5 14.5t21.5 40.5q8 37 12.5 59.5t4.5 31.5q0 16 -8.5 27t-30.5 11q-23 0 -37.5 -14.5t-21.5 -40.5q-8 -37 -12.5 -59.5t-4.5 -31.5q0 -16 8.5 -27t30.5 -11zM319 560q-28 0 -49.5 9.5t-36.5 24.5t-22.5 34.5t-7.5 40.5q0 36 12.5 67t34.5 54t51 36.5
t61 13.5q28 0 49.5 -9.5t36.5 -24.5t22.5 -34.5t7.5 -40.5q0 -36 -13 -67t-34.5 -54t-50.5 -36.5t-61 -13.5z" />
    <glyph glyph-name="ogonek" unicode="&#x2db;" horiz-adv-x="600" 
d="M190 -212q-38 0 -63.5 15.5t-25.5 53.5q0 51 41 83t108 57l-3 25h50l3 -22q-57 -36 -82.5 -69t-25.5 -59q0 -14 7.5 -20t19.5 -6q14 0 24 5.5t21 16.5l32 -36q-22 -21 -46.5 -32.5t-59.5 -11.5z" />
    <glyph glyph-name="tilde" unicode="&#x2dc;" horiz-adv-x="600" 
d="M388 602q-23 0 -41.5 9.5t-37.5 20.5q-18 11 -33 20.5t-32 9.5q-14 0 -27.5 -6t-37.5 -29l-27 29q15 19 28.5 36t28 29.5t30 19.5t34.5 7q23 0 41.5 -9.5t37.5 -20.5q18 -11 33 -20.5t32 -9.5q14 0 27.5 6t37.5 29l27 -29q-30 -39 -57 -65.5t-64 -26.5z" />
    <glyph glyph-name="hungarumlaut" unicode="&#x2dd;" horiz-adv-x="600" 
d="M194 601l108 200l97 -55l-172 -164zM372 601l108 200l97 -55l-172 -164z" />
    <glyph glyph-name="uni0300" unicode="&#x300;" 
d="M-96 754l123 48l16 -208l-38 -12z" />
    <glyph glyph-name="uni0301" unicode="&#x301;" 
d="M-25 602l100 200l111 -58l-175 -162z" />
    <glyph glyph-name="uni0302" unicode="&#x302;" 
d="M-139 608l151 184h85l77 -191l-35 -19l-99 112l-150 -112z" />
    <glyph glyph-name="uni0303" unicode="&#x303;" 
d="M89 602q-23 0 -41.5 9.5t-37.5 20.5q-18 11 -33 20.5t-32 9.5q-14 0 -27.5 -6t-37.5 -29l-27 29q15 19 28.5 36t28 29.5t30 19.5t34.5 7q23 0 41.5 -9.5t37.5 -20.5q18 -11 33 -20.5t32 -9.5q14 0 27.5 6t37.5 29l27 -29q-30 -39 -57 -65.5t-64 -26.5z" />
    <glyph glyph-name="uni0304" unicode="&#x304;" 
d="M-100 714h288l-20 -80h-288z" />
    <glyph glyph-name="uni0306" unicode="&#x306;" 
d="M16 588q-38 0 -61 16.5t-36 43t-18.5 58.5t-8.5 62l39 14l10 -34q10 -32 30 -47.5t62 -15.5q41 0 68.5 14.5t52.5 48.5l25 34l35 -20q-17 -30 -35.5 -61t-42 -56t-53 -41t-67.5 -16z" />
    <glyph glyph-name="uni0307" unicode="&#x307;" 
d="M25 597q-35 0 -54 19t-19 45v11.5t2 12.5q7 32 30.5 49.5t56.5 17.5q35 0 54 -19t19 -45v-11.5t-2 -12.5q-7 -32 -30.5 -49.5t-56.5 -17.5z" />
    <glyph glyph-name="uni0308" unicode="&#x308;" 
d="M-80 604q-30 0 -47.5 18t-17.5 42q0 10 3 22q6 23 27 40t51 17t47.5 -18t17.5 -42q0 -10 -3 -22q-6 -23 -27 -40t-51 -17zM130 604q-30 0 -47.5 18t-17.5 42q0 10 3 22q6 23 27 40t51 17t47.5 -18t17.5 -42q0 -10 -3 -22q-6 -23 -27 -40t-51 -17z" />
    <glyph glyph-name="uni0309" unicode="&#x309;" 
d="M-21 589l72 116h-132l22 86h114q34 0 54.5 -13.5t20.5 -42.5q0 -30 -24.5 -65.5t-58.5 -67.5l-30 -30z" />
    <glyph glyph-name="uni030A" unicode="&#x30a;" 
d="M23 608q23 0 37.5 14.5t21.5 40.5q8 37 12.5 59.5t4.5 31.5q0 16 -8.5 27t-30.5 11q-23 0 -37.5 -14.5t-21.5 -40.5q-8 -37 -12.5 -59.5t-4.5 -31.5q0 -16 8.5 -27t30.5 -11zM20 560q-28 0 -49.5 9.5t-36.5 24.5t-22.5 34.5t-7.5 40.5q0 36 12.5 67t34.5 54t51 36.5
t61 13.5q28 0 49.5 -9.5t36.5 -24.5t22.5 -34.5t7.5 -40.5q0 -36 -13 -67t-34.5 -54t-50.5 -36.5t-61 -13.5z" />
    <glyph glyph-name="uni030B" unicode="&#x30b;" 
d="M-105 601l108 200l97 -55l-172 -164zM73 601l108 200l97 -55l-172 -164z" />
    <glyph glyph-name="uni030C" unicode="&#x30c;" 
d="M-98 777l35 19l99 -112l150 112l29 -26l-151 -184h-85z" />
    <glyph glyph-name="uni0312" unicode="&#x312;" 
d="M11 571q-29 0 -45.5 16t-16.5 42q0 12 3 24q10 38 41.5 81t78.5 78h62q-30 -23 -55 -53t-36 -54q22 -7 34 -21.5t12 -34.5v-9.5t-2 -11.5q-7 -27 -27 -42t-49 -15z" />
    <glyph glyph-name="uni0315" unicode="&#x315;" 
d="M54 748h125l-140 -214h-41z" />
    <glyph glyph-name="uni031B" unicode="&#x31b;" 
d="M-62 524h93l26 106h112l-18 -71q-9 -38 -30 -59t-58 -21h-136z" />
    <glyph glyph-name="uni0323" unicode="&#x323;" 
d="M-31 -196q-30 0 -47 18t-17 41q0 10 3 22q5 24 26 40.5t52 16.5q30 0 47 -18t17 -41q0 -10 -3 -22q-5 -24 -26 -40.5t-52 -16.5z" />
    <glyph glyph-name="uni0326" unicode="&#x326;" 
d="M-141 -281q30 23 55 53t36 54q-22 7 -34 21.5t-12 34.5v9.5t2 11.5q7 27 27 42t49 15t45.5 -16t16.5 -42q0 -12 -3 -24q-10 -38 -41.5 -81t-78.5 -78h-62v0z" />
    <glyph glyph-name="uni0327" unicode="&#x327;" 
d="M-26 -212q-45 0 -71 16t-36 30l30 33q10 -13 26.5 -20.5t37.5 -7.5q26 0 38.5 13.5t12.5 33.5q0 12 -9 21.5t-40 13.5l-23 3l40 90h53l-32 -72l3 -4q11 4 21 5.5t18 1.5q28 0 46 -13.5t18 -39.5q0 -24 -11 -43t-29.5 -32.5t-42.5 -21t-50 -7.5z" />
    <glyph glyph-name="uni0328" unicode="&#x328;" 
d="M-109 -212q-38 0 -63.5 15.5t-25.5 53.5q0 51 41 83t108 57l-3 25h50l3 -22q-57 -36 -82.5 -69t-25.5 -59q0 -14 7.5 -20t19.5 -6q14 0 24 5.5t21 16.5l32 -36q-22 -21 -46.5 -32.5t-59.5 -11.5z" />
    <glyph glyph-name="pi" unicode="&#x3c0;" horiz-adv-x="611" 
d="M405 -12q-27 0 -45 7.5t-29.5 19t-16 26t-4.5 29.5q0 12 3 28.5t6 27.5l84 335h-126l-115 -461h-144l115 461h-81l16 63h575l-15 -63h-81l-97 -385l18 -8l90 114l36 -21l-56 -85q-35 -53 -69.5 -70.5t-63.5 -17.5z" />
    <glyph glyph-name="uni0400" unicode="&#x400;" horiz-adv-x="604" 
d="M-18 60h63l144 578h-63l15 60h516l-47 -186h-110l30 122h-189l-59 -238h120l16 64h69l-48 -192h-69l16 64h-120l-67 -268h198l35 142h110l-51 -206h-524zM320 914l123 48l16 -208l-38 -12z" />
    <glyph glyph-name="uni0401" unicode="&#x401;" horiz-adv-x="604" 
d="M-18 60h63l144 578h-63l15 60h516l-47 -186h-110l30 122h-189l-59 -238h120l16 64h69l-48 -192h-69l16 64h-120l-67 -268h198l35 142h110l-51 -206h-524zM329 769q-30 0 -47.5 18t-17.5 42q0 10 3 22q6 23 27 40t51 17t47.5 -18t17.5 -42q0 -10 -3 -22q-6 -23 -27 -40
t-51 -17zM539 769q-30 0 -47.5 18t-17.5 42q0 10 3 22q6 23 27 40t51 17t47.5 -18t17.5 -42q0 -10 -3 -22q-6 -23 -27 -40t-51 -17z" />
    <glyph glyph-name="uni0402" unicode="&#x402;" horiz-adv-x="802" 
d="M147 60h63l143 574h-127l-31 -122h-110l46 186h629l-47 -186h-110l30 122h-127l-60 -241h7q25 12 54 19t65 7q91 0 138 -35t47 -105q0 -21 -4 -44t-13 -61l-35 -141q-26 -103 -88 -150t-162 -47h-76l15 60h80q22 14 40.5 38t31.5 75l44 173q9 37 14 61t5 42
q0 35 -22 52.5t-63 17.5q-55 0 -94 -27l-67 -268h63l-15 -60h-279z" />
    <glyph glyph-name="uni0403" unicode="&#x403;" horiz-adv-x="548" 
d="M-18 60h63l144 578h-63l15 60h494l-47 -186h-110l30 122h-167l-143 -574h90l-15 -60h-306zM375 762l100 200l111 -58l-175 -162z" />
    <glyph glyph-name="uni0404" unicode="&#x404;" horiz-adv-x="624" 
d="M308 -12q-127 0 -194 64t-67 183q0 53 11 108.5t33 108.5t54 100t73.5 82t92 55.5t109.5 20.5q54 0 83 -21t38 -51h11l15 60h110l-51 -206h-110l6 25q5 18 5 36q0 44 -27 65.5t-68 21.5q-61 0 -108 -47.5t-73 -152.5l-11 -46h209l-17 -71h-210q-10 -45 -16 -81t-6 -62
q0 -134 143 -134q35 0 61 6.5t48 18.5v8q-26 3 -41.5 19t-15.5 40q0 29 23.5 51.5t62.5 22.5q33 0 52 -19t19 -49q0 -26 -15 -54t-45 -50.5t-76 -37t-108 -14.5z" />
    <glyph glyph-name="uni0405" unicode="&#x405;" horiz-adv-x="575" 
d="M243 -12q-58 0 -90.5 19.5t-39.5 49.5h-12l-14 -57h-110l51 204h110l-12 -47q-4 -17 -4 -28q0 -36 30 -55t84 -19q38 0 67.5 11t49.5 29.5t30.5 42.5t10.5 50q0 32 -19 52t-70 34l-39 11q-82 23 -121.5 66.5t-39.5 112.5q0 51 19 96t53.5 78.5t84 52.5t110.5 19
q58 0 88 -21.5t33 -47.5h11l14 57h110l-51 -204h-110l12 47q4 17 4 28q0 38 -30 56t-82 18q-34 0 -60.5 -10t-44.5 -26.5t-27.5 -38t-9.5 -43.5q0 -16 4 -29.5t14.5 -25.5t30 -22t50.5 -19l38 -11q85 -24 121.5 -66t36.5 -106q0 -54 -19.5 -101.5t-55.5 -82t-88 -54.5
t-118 -20z" />
    <glyph glyph-name="uni0406" unicode="&#x406;" horiz-adv-x="343" 
d="M-18 60h63l144 578h-63l15 60h279l-15 -60h-63l-144 -578h63l-15 -60h-279z" />
    <glyph glyph-name="uni0407" unicode="&#x407;" horiz-adv-x="343" 
d="M-18 60h63l144 578h-63l15 60h279l-15 -60h-63l-144 -578h63l-15 -60h-279zM200 769q-30 0 -47.5 18t-17.5 42q0 10 3 22q6 23 27 40t51 17t47.5 -18t17.5 -42q0 -10 -3 -22q-6 -23 -27 -40t-51 -17zM410 769q-30 0 -47.5 18t-17.5 42q0 10 3 22q6 23 27 40t51 17
t47.5 -18t17.5 -42q0 -10 -3 -22q-6 -23 -27 -40t-51 -17z" />
    <glyph glyph-name="uni0408" unicode="&#x408;" horiz-adv-x="465" 
d="M107 -12q-63 0 -102.5 29t-39.5 74q0 15 5.5 30t15.5 27t25 19t34 7q30 0 47 -14.5t17 -41.5q0 -26 -15 -42t-35 -21v-4q7 -3 16.5 -4.5t19.5 -1.5q38 0 63.5 28t38.5 82l120 483h-90l15 60h306l-15 -60h-63l-111 -448q-23 -94 -81.5 -148t-170.5 -54z" />
    <glyph glyph-name="uni0409" unicode="&#x409;" horiz-adv-x="934" 
d="M88 -12q-54 0 -86 27t-32 72q0 36 24 60t61 24q30 0 47 -15.5t17 -42.5q0 -22 -12.5 -39t-33.5 -22v-4q7 -3 19 -3q29 0 51 22q15 15 30.5 43t32.5 77t37.5 122.5t46.5 180.5l36 148h-78l15 60h510l-15 -60h-63l-53 -211h94q84 0 129 -34.5t45 -106.5q0 -54 -16.5 -105.5
t-50 -91.5t-84 -64.5t-117.5 -24.5h-323l15 60h63l142 572h-135l-36 -141q-28 -113 -50 -190.5t-41.5 -130t-38 -84.5t-40.5 -54q-44 -44 -110 -44zM603 64q24 0 45 5.5t38 20.5t31 40.5t24 64.5q7 29 11 54t4 45q0 33 -19.5 51t-60.5 18h-50l-74 -299h51z" />
    <glyph glyph-name="uni040A" unicode="&#x40a;" horiz-adv-x="946" 
d="M-18 60h63l144 578h-63l15 60h279l-15 -60h-63l-62 -247h213l61 247h-63l15 60h280l-15 -60h-64l-53 -211h96q83 0 127.5 -34.5t44.5 -106.5q0 -54 -16.5 -105.5t-49.5 -91.5t-83.5 -64.5t-117.5 -24.5h-323l15 60h63l66 265h-212l-66 -265h63l-15 -60h-279zM617 64
q24 0 44.5 5.5t37.5 20.5t30.5 40.5t23.5 64.5q15 58 15 99q0 33 -19 51t-60 18h-51l-74 -299h53z" />
    <glyph glyph-name="uni040B" unicode="&#x40b;" horiz-adv-x="848" 
d="M147 60h63l143 574h-127l-31 -122h-110l46 186h629l-47 -186h-110l30 122h-127l-60 -241h7q26 12 55 19t65 7q91 0 137.5 -35t46.5 -105q0 -21 -3.5 -44t-12.5 -61l-28 -114h63l-15 -60h-275l15 60h59l30 122q9 37 14 61t5 42q0 35 -21.5 52.5t-62.5 17.5
q-26 0 -50.5 -6.5t-44.5 -20.5l-67 -268h63l-15 -60h-279z" />
    <glyph glyph-name="uni040C" unicode="&#x40c;" horiz-adv-x="697" 
d="M-18 60h63l144 578h-63l15 60h279l-15 -60h-63l-62 -247h75l114 178q25 39 47 66t43.5 43.5t44 24t48.5 7.5q50 0 77.5 -27t27.5 -66q0 -33 -20 -58.5t-60 -25.5q-27 0 -47 16t-20 48q0 15 9 31.5t25 24.5l-3 8q-11 0 -20.5 -5t-21.5 -17.5t-28 -34.5t-38 -58l-108 -170
q31 -6 49 -25t29 -62l64 -229h63l-15 -60h-188l-88 321l-5 4h-70l-66 -265h63l-15 -60h-279zM451 762l100 200l111 -58l-175 -162z" />
    <glyph glyph-name="uni040D" unicode="&#x40d;" horiz-adv-x="738" 
d="M-18 60h63l145 578h-63l15 60h275l-15 -60h-63l-58 -236l-62 -186h4l354 382l10 40h-63l15 60h276l-15 -60h-63l-144 -578h63l-15 -60h-276l15 60h63l59 236l61 186h-4l-354 -382l-10 -40h63l-15 -60h-276zM389 914l123 48l16 -208l-38 -12z" />
    <glyph glyph-name="uni040E" unicode="&#x40e;" horiz-adv-x="661" 
d="M184 -12q-54 0 -86.5 27t-32.5 72q0 36 24 60t61 24q30 0 47 -15.5t17 -42.5q0 -26 -14.5 -42t-35.5 -20v-4q3 -1 8 -1.5t13 -0.5q14 0 27.5 3.5t27 13t28 27t32.5 45.5l14 22l-143 482h-47l15 60h268l-15 -60h-68l60 -212l23 -108h4l64 106l135 214h-69l15 60h202
l-15 -60h-47l-336 -524q-23 -36 -44.5 -60t-42.5 -39t-43 -21t-46 -6zM496 751q-57 0 -87 26t-30 67q0 34 20.5 58t56.5 24q29 0 47 -16.5t18 -43.5q0 -19 -8.5 -33.5t-21.5 -22.5v-6q5 -4 21 -4q37 0 77.5 27.5t75.5 92.5l35 -22q-24 -41 -48.5 -69.5t-49.5 -45.5
t-51.5 -24.5t-54.5 -7.5z" />
    <glyph glyph-name="uni040F" unicode="&#x40f;" horiz-adv-x="718" 
d="M234 0h-267l15 60h63l144 578h-63l15 60h279l-15 -60h-63l-143 -572h222l143 572h-63l15 60h279l-15 -60h-63l-144 -578h63l-15 -60h-267l-40 -160h-120z" />
    <glyph glyph-name="uni0410" unicode="&#x410;" horiz-adv-x="663" 
d="M-38 60h47l364 638h131l51 -638h47l-15 -60h-266l14 60h70l-8 158h-217l-86 -158h70l-15 -60h-202zM212 280h183l-11 309h-9z" />
    <glyph glyph-name="uni0411" unicode="&#x411;" horiz-adv-x="613" 
d="M-18 60h63l144 578h-63l15 60h486l-47 -186h-110l30 122h-159l-55 -218h111q83 0 128 -34.5t45 -106.5q0 -51 -16 -100t-49 -88t-83 -63t-117 -24h-338zM267 64q24 0 44.5 5.5t37.5 20t30.5 39.5t23.5 63q14 48 14 91q0 33 -19.5 51t-61.5 18h-65l-72 -288h68z" />
    <glyph glyph-name="uni0412" unicode="&#x412;" horiz-adv-x="647" 
d="M-18 60h63l144 578h-63l15 60h320q53 0 89.5 -9t59.5 -26.5t33.5 -42t10.5 -55.5q0 -80 -50 -129t-134 -66l-2 -8q25 -6 48.5 -17t41.5 -28t28.5 -40.5t10.5 -54.5q0 -41 -16.5 -81t-49.5 -71.5t-83.5 -50.5t-118.5 -19h-362zM199 64h96q50 0 87 28.5t51 85.5
q10 39 12.5 53.5t2.5 23.5q0 32 -19 52t-61 20h-103zM281 391h76q48 0 82 28.5t48 82.5q9 36 12 50.5t3 22.5q0 27 -17.5 43t-56.5 16h-87z" />
    <glyph glyph-name="uni0413" unicode="&#x413;" horiz-adv-x="548" 
d="M-18 60h63l144 578h-63l15 60h494l-47 -186h-110l30 122h-167l-143 -574h90l-15 -60h-306z" />
    <glyph glyph-name="uni0414" unicode="&#x414;" horiz-adv-x="703" 
d="M-34 64h74q76 78 137 196t104 293l21 85h-78l15 60h519l-15 -60h-63l-142 -574h101l-56 -224h-120l39 160h-432l-40 -160h-120zM383 64l142 570h-146l-20 -85q-38 -163 -99.5 -285t-130.5 -200h254z" />
    <glyph glyph-name="uni0415" unicode="&#x415;" horiz-adv-x="604" 
d="M-18 60h63l144 578h-63l15 60h516l-47 -186h-110l30 122h-189l-59 -238h120l16 64h69l-48 -192h-69l16 64h-120l-67 -268h198l35 142h110l-51 -206h-524z" />
    <glyph glyph-name="uni0416" unicode="&#x416;" horiz-adv-x="1008" 
d="M-29 60h61l163 239q32 46 60.5 61.5t66.5 15.5l-10 154q-3 44 -8 71t-13.5 42t-20 20.5t-26.5 6.5l-4 -8q14 -8 20 -23.5t6 -34.5q0 -27 -19 -49t-59 -22q-32 0 -50.5 20t-18.5 52q0 21 8.5 40t24 33.5t38.5 23t52 8.5q33 0 58 -9t42.5 -30t27 -56t12.5 -86l9 -138h70
l62 247h-63l15 60h277l-16 -60h-63l-62 -247h70l97 176q44 80 88 111.5t97 31.5q50 0 77.5 -27t27.5 -66q0 -33 -20 -58.5t-61 -25.5q-26 0 -46 16t-20 48q0 15 9 31.5t25 24.5l-3 8q-11 0 -21.5 -5t-23 -17.5t-28 -34.5t-34.5 -58l-94 -170q28 -6 45 -24.5t27 -61.5
l55 -230h61l-14 -60h-187l-76 321l-5 4h-62l-66 -265h63l-14 -60h-277l15 60h63l66 265h-62l-6 -4l-222 -321h-199z" />
    <glyph glyph-name="uni0417" unicode="&#x417;" horiz-adv-x="605" 
d="M232 -12q-54 0 -92.5 11.5t-62.5 30t-35.5 41.5t-11.5 47q0 23 8 40.5t20.5 29.5t28.5 18t32 6q35 0 51.5 -17t16.5 -42q0 -32 -20.5 -51t-54.5 -23l-3 -8q15 -11 37.5 -18t60.5 -7q75 0 119.5 30.5t61.5 96.5q5 23 9.5 45.5t4.5 35.5q0 32 -21 50.5t-76 18.5h-87l18 71
h78q48 0 85.5 29t51.5 88q5 18 7 32t2 23q0 34 -23.5 53.5t-65.5 19.5q-51 0 -87 -30t-47 -78l-10 -39h-104l52 206h104l-15 -60h6q26 32 64 52t98 20q88 0 134 -39t46 -105q0 -81 -49.5 -129.5t-136.5 -68.5l-2 -8q64 -13 98.5 -46t34.5 -85t-22.5 -96t-64.5 -76.5
t-102.5 -50.5t-135.5 -18z" />
    <glyph glyph-name="uni0418" unicode="&#x418;" horiz-adv-x="738" 
d="M-18 60h63l145 578h-63l15 60h275l-15 -60h-63l-58 -236l-62 -186h4l354 382l10 40h-63l15 60h276l-15 -60h-63l-144 -578h63l-15 -60h-276l15 60h63l59 236l61 186h-4l-354 -382l-10 -40h63l-15 -60h-276z" />
    <glyph glyph-name="uni0419" unicode="&#x419;" horiz-adv-x="738" 
d="M-18 60h63l145 578h-63l15 60h275l-15 -60h-63l-58 -236l-62 -186h4l354 382l10 40h-63l15 60h276l-15 -60h-63l-144 -578h63l-15 -60h-276l15 60h63l59 236l61 186h-4l-354 -382l-10 -40h63l-15 -60h-276zM492 751q-57 0 -87 26t-30 67q0 34 20.5 58t56.5 24
q29 0 47 -16.5t18 -43.5q0 -19 -8.5 -33.5t-21.5 -22.5v-6q5 -4 21 -4q37 0 77.5 27.5t75.5 92.5l35 -22q-24 -41 -48.5 -69.5t-49.5 -45.5t-51.5 -24.5t-54.5 -7.5z" />
    <glyph glyph-name="uni041A" unicode="&#x41a;" horiz-adv-x="697" 
d="M-18 60h63l144 578h-63l15 60h279l-15 -60h-63l-62 -247h75l114 178q25 39 47 66t43.5 43.5t44 24t48.5 7.5q50 0 77.5 -27t27.5 -66q0 -33 -20 -58.5t-60 -25.5q-27 0 -47 16t-20 48q0 15 9 31.5t25 24.5l-3 8q-11 0 -20.5 -5t-21.5 -17.5t-28 -34.5t-38 -58l-108 -170
q31 -6 49 -25t29 -62l64 -229h63l-15 -60h-188l-88 321l-5 4h-70l-66 -265h63l-15 -60h-279z" />
    <glyph glyph-name="uni041B" unicode="&#x41b;" horiz-adv-x="705" 
d="M88 -12q-54 0 -86 27t-32 72q0 36 24 60t61 24q30 0 47 -15.5t17 -42.5q0 -22 -12.5 -39t-33.5 -22v-4q7 -3 19 -3q29 0 51 22q15 15 30.5 43t32.5 77t37.5 122.5t46.5 180.5l36 148h-78l15 60h519l-15 -60h-63l-144 -578h63l-15 -60h-279l15 60h63l142 572h-145
l-36 -141q-28 -113 -50 -190.5t-41.5 -130t-38 -84.5t-40.5 -54q-44 -44 -110 -44z" />
    <glyph glyph-name="uni041C" unicode="&#x41c;" horiz-adv-x="824" 
d="M-18 60h63l144 578h-63l15 60h240l50 -326h9l211 326h250l-15 -60h-63l-144 -578h63l-15 -60h-279l15 60h63l131 523h-10l-88 -134l-220 -333l-62 335l-19 130h-10l-130 -521h63l-15 -60h-199z" />
    <glyph glyph-name="uni041D" unicode="&#x41d;" horiz-adv-x="730" 
d="M-18 60h63l144 578h-63l15 60h279l-15 -60h-63l-62 -247h234l62 247h-63l15 60h279l-15 -60h-63l-144 -578h63l-15 -60h-279l15 60h63l66 265h-234l-66 -265h63l-15 -60h-279z" />
    <glyph glyph-name="uni041E" unicode="&#x41e;" horiz-adv-x="701" 
d="M306 53q63 0 105.5 44.5t59.5 114.5q22 87 35.5 140.5t21 87t10.5 53.5t3 40q0 48 -27.5 80t-81.5 32q-63 0 -105.5 -44.5t-59.5 -114.5q-22 -87 -35.5 -140.5t-21 -87t-10.5 -53.5t-3 -40q0 -48 27.5 -80t81.5 -32zM292 -12q-59 0 -104.5 18t-76.5 51.5t-47 81.5
t-16 107q0 50 11.5 104t34 105.5t56 97.5t77.5 81t99 55.5t120 20.5q59 0 104.5 -18t76.5 -51.5t47 -81.5t16 -107q0 -50 -11.5 -104t-34 -105.5t-56 -97.5t-77.5 -81t-99 -55.5t-120 -20.5z" />
    <glyph glyph-name="uni041F" unicode="&#x41f;" horiz-adv-x="730" 
d="M-18 60h63l144 578h-63l15 60h666l-15 -60h-63l-144 -578h63l-15 -60h-279l15 60h63l143 572h-234l-143 -572h63l-15 -60h-279z" />
    <glyph glyph-name="uni0420" unicode="&#x420;" horiz-adv-x="617" 
d="M-18 60h63l144 578h-63l15 60h351q38 0 70 -7.5t54.5 -23t35 -40.5t12.5 -61q0 -43 -14 -88t-44.5 -82t-80 -60.5t-120.5 -23.5h-144l-63 -252h90l-15 -60h-306zM277 376h91q98 0 125 108q2 7 5 19t5.5 24.5t4.5 24t2 18.5q0 29 -19.5 46.5t-59.5 17.5h-90z" />
    <glyph glyph-name="uni0421" unicode="&#x421;" horiz-adv-x="604" 
d="M271 -12q-45 0 -86 13t-71.5 42.5t-48.5 76.5t-18 115q0 53 11 108.5t33 108.5t54 100t73.5 82t92 55.5t109.5 20.5q53 0 82.5 -21t38.5 -51h11l15 60h110l-55 -222h-110l10 41q5 20 5 36q0 44 -27.5 65t-67.5 21q-65 0 -108 -50t-63 -128q-17 -69 -28 -112.5
t-17.5 -72.5t-9 -47.5t-2.5 -37.5q0 -54 27 -89t84 -35q33 0 60.5 10t51 27.5t43 41.5t37.5 53l43 -28q-22 -36 -51 -69t-64 -58.5t-76.5 -40.5t-87.5 -15z" />
    <glyph glyph-name="uni0422" unicode="&#x422;" horiz-adv-x="673" 
d="M120 60h90l143 574h-127l-31 -122h-110l46 186h629l-47 -186h-110l30 122h-127l-143 -574h90l-14 -60h-334z" />
    <glyph glyph-name="uni0423" unicode="&#x423;" horiz-adv-x="661" 
d="M184 -12q-54 0 -86.5 27t-32.5 72q0 36 24 60t61 24q30 0 47 -15.5t17 -42.5q0 -26 -14.5 -42t-35.5 -20v-4q3 -1 8 -1.5t13 -0.5q14 0 27.5 3.5t27 13t28 27t32.5 45.5l14 22l-143 482h-47l15 60h268l-15 -60h-68l60 -212l23 -108h4l64 106l135 214h-69l15 60h202
l-15 -60h-47l-336 -524q-23 -36 -44.5 -60t-42.5 -39t-43 -21t-46 -6z" />
    <glyph glyph-name="uni0424" unicode="&#x424;" horiz-adv-x="888" 
d="M252 48h63l20 81h-49q-108 0 -167.5 49.5t-59.5 133.5q0 58 19 108.5t59.5 87.5t104.5 58t153 21h54l16 63h-63l15 60h276l-15 -60h-63l-16 -63h49q108 0 167.5 -49.5t59.5 -133.5q0 -58 -19 -108.5t-59.5 -87.5t-104.5 -58t-153 -21h-54l-20 -81h63l-15 -60h-276z
M434 526h-41q-69 0 -110.5 -35t-59.5 -111q-5 -18 -8 -31.5t-5 -24t-2.5 -20t-0.5 -19.5q0 -45 26.5 -70t75.5 -25h41zM541 190q69 0 110.5 35t59.5 111q5 18 8 31.5t5 24t2.5 20t0.5 19.5q0 45 -26.5 70t-75.5 25h-41l-84 -336h41z" />
    <glyph glyph-name="uni0425" unicode="&#x425;" horiz-adv-x="669" 
d="M-23 60h53l253 279l-101 299h-53l15 60h267l-15 -60h-57l63 -198h10l161 198h-57l15 60h204l-15 -60h-53l-239 -264l109 -314h53l-15 -60h-267l15 60h57l-70 214h-10l-177 -214h57l-15 -60h-203z" />
    <glyph glyph-name="uni0426" unicode="&#x426;" horiz-adv-x="750" 
d="M171 -210q8 53 18.5 81.5t27.5 45.5q14 14 30 19.5t38 5.5q19 0 43.5 -4.5t71.5 -14.5q29 -7 49 -11.5t34.5 -7.5t26.5 -4t25 -1q39 0 57.5 15t18.5 42q0 23 -16 33.5t-54 10.5h-574l15 60h63l144 578h-63l15 60h279l-15 -60h-63l-143 -572h222l143 572h-63l15 60h279
l-15 -60h-63l-143 -574h6q52 0 80.5 -26.5t28.5 -74.5q0 -72 -58.5 -113t-162.5 -41q-27 0 -52.5 1.5t-52.5 4.5t-56.5 7.5t-64.5 11.5l-18 -44h-53v0z" />
    <glyph glyph-name="uni0427" unicode="&#x427;" horiz-adv-x="683" 
d="M295 60h90l56 224h-6q-26 -12 -56 -19t-66 -7q-91 0 -137.5 35t-46.5 105q0 21 3 44t13 61l34 135h-63l15 60h275l-15 -60h-59l-36 -143q-9 -37 -14 -61t-5 -42q0 -35 21.5 -52.5t62.5 -17.5q55 0 96 27l72 289h-63l15 60h279l-15 -60h-63l-144 -578h63l-15 -60h-306z
" />
    <glyph glyph-name="uni0428" unicode="&#x428;" horiz-adv-x="944" 
d="M-18 60h63l144 578h-63l15 60h267l-15 -60h-51l-143 -572h148l142 572h-51l15 60h255l-15 -60h-51l-142 -572h147l143 572h-51l15 60h267l-15 -60h-63l-144 -578h63l-15 -60h-880z" />
    <glyph glyph-name="uni0429" unicode="&#x429;" horiz-adv-x="976" 
d="M328 -210q8 53 18.5 81.5t27.5 45.5q14 14 30 19.5t38 5.5t52.5 -4.5t89.5 -16.5q58 -12 95.5 -17.5t72.5 -5.5q45 0 64 15.5t19 42.5q0 23 -15.5 33.5t-53.5 10.5h-799l15 60h63l144 578h-63l15 60h267l-15 -60h-51l-143 -572h148l142 572h-51l15 60h255l-15 -60h-51
l-142 -572h147l143 572h-51l15 60h267l-15 -60h-63l-143 -574h5q52 0 80.5 -26.5t28.5 -74.5q0 -72 -59.5 -113t-174.5 -41q-38 0 -72 1.5t-68 4.5t-68.5 7.5t-72.5 11.5l-18 -44h-53v0z" />
    <glyph glyph-name="uni042A" unicode="&#x42a;" horiz-adv-x="745" 
d="M121 60h63l143 574h-103l-31 -122h-110l46 186h431l-15 -60h-63l-53 -211h118q83 0 128.5 -34.5t45.5 -106.5q0 -54 -16.5 -105.5t-50.5 -91.5t-84.5 -64.5t-117.5 -24.5h-346zM414 64q24 0 45 5.5t38 20.5t31 40.5t24 64.5q15 58 15 99q0 33 -20 51t-61 18h-73l-74 -299
h75z" />
    <glyph glyph-name="uni042B" unicode="&#x42b;" horiz-adv-x="897" 
d="M-18 60h63l144 578h-63l15 60h279l-15 -60h-63l-53 -211h94q84 0 129 -34.5t45 -106.5q0 -55 -16.5 -106.5t-50 -91.5t-84 -64t-117.5 -24h-322zM536 60h63l144 578h-63l15 60h279l-15 -60h-63l-144 -578h63l-15 -60h-279zM250 64q24 0 45 5.5t38 20.5t31 40.5t24 64.5
q15 58 15 99q0 33 -19.5 51t-60.5 18h-50l-74 -299h51z" />
    <glyph glyph-name="uni042C" unicode="&#x42c;" horiz-adv-x="605" 
d="M-18 60h63l144 578h-63l15 60h279l-15 -60h-63l-53 -211h118q84 0 129 -34.5t45 -106.5q0 -54 -16.5 -105.5t-50 -91.5t-84 -64.5t-117.5 -24.5h-346zM274 64q24 0 45 5.5t38 20.5t31 40.5t24 64.5q7 29 11 54t4 45q0 33 -19.5 51t-60.5 18h-74l-74 -299h75z" />
    <glyph glyph-name="uni042D" unicode="&#x42d;" horiz-adv-x="645" 
d="M232 -12q-54 0 -92.5 11.5t-62.5 30t-35.5 41.5t-11.5 47q0 23 7.5 40.5t20.5 29.5t28.5 18t32.5 6q35 0 51.5 -17.5t16.5 -41.5q0 -35 -21.5 -52.5t-53.5 -21.5l-3 -8q15 -11 37.5 -18t60.5 -7q45 0 79.5 11t61 34.5t45 61t32.5 91.5l20 79h-227l17 71h228
q13 58 17.5 89.5t4.5 51.5q0 50 -27 77.5t-77 27.5q-59 0 -95.5 -30t-48.5 -79l-10 -39h-104l52 206h104l-15 -60h6q26 32 62.5 52t93.5 20q96 0 152 -59t56 -171q0 -90 -25.5 -178t-76 -158t-126 -113t-174.5 -43z" />
    <glyph glyph-name="uni042E" unicode="&#x42e;" horiz-adv-x="962" 
d="M571 -12q-112 0 -169.5 69t-57.5 189q0 20 1.5 39.5t5.5 39.5h-87l-66 -265h63l-15 -60h-279l15 60h63l144 578h-63l15 60h279l-15 -60h-63l-61 -247h84q17 61 48.5 118.5t76.5 102t103.5 71.5t130.5 27q112 0 169.5 -69t57.5 -189q0 -50 -11 -104t-32 -105.5t-53 -97.5
t-74.5 -81t-95 -55.5t-114.5 -20.5zM584 53q57 0 95 44.5t55 114.5q23 93 36.5 148.5t20.5 89t9 52.5t2 38q0 47 -22.5 76t-68.5 29q-57 0 -95 -44.5t-55 -114.5q-23 -93 -36.5 -148.5t-20.5 -89t-9 -52.5t-2 -38q0 -47 22.5 -76t68.5 -29z" />
    <glyph glyph-name="uni042F" unicode="&#x42f;" horiz-adv-x="675" 
d="M-37 60h62l133 176q31 42 59 60t63 22l2 9q-81 2 -115 37t-34 92q0 43 17 86.5t50.5 78t82.5 56t113 21.5h356l-15 -60h-63l-144 -578h63l-15 -60h-304l15 60h88l64 257h-50l-7 -4l-234 -313h-202zM520 634h-89q-48 0 -82.5 -24.5t-51.5 -93.5q-5 -21 -7.5 -38t-2.5 -29
q0 -38 21 -54.5t63 -16.5h85z" />
    <glyph glyph-name="uni0430" unicode="&#x430;" horiz-adv-x="592" 
d="M143 -12q-63 0 -89.5 42t-26.5 115q0 42 8 87.5t24 89t39 82.5t52 68.5t64.5 46.5t76.5 17q44 0 75.5 -23.5t41.5 -80.5h12l65 92h71l-112 -448l18 -8l90 114l36 -21l-56 -85q-31 -47 -61.5 -67.5t-62.5 -20.5q-25 0 -41.5 7t-26 18t-13.5 25.5t-4 28.5q0 15 3 31.5
t6 27.5l4 16l-12 2q-14 -31 -31.5 -59.5t-39 -50t-49 -34t-61.5 -12.5zM206 80q24 0 49.5 26t47 64t38 81t24.5 77l7 29q11 48 3 76t-43 28t-69.5 -39t-59.5 -128q-11 -38 -19 -84.5t-8 -78.5q0 -23 6.5 -37t23.5 -14z" />
    <glyph glyph-name="uni0431" unicode="&#x431;" horiz-adv-x="551" 
d="M216 -12q-90 0 -137 53t-47 137q0 23 4 55.5t13 69.5q31 123 69.5 196t80.5 116q24 24 47 40t49 27t56 17.5t68 11.5q33 4 52.5 6t31 3.5t17 2.5t10.5 3l15 34h53q-11 -57 -25.5 -86t-34.5 -49q-19 -19 -57 -32.5t-113 -23.5q-33 -4 -56.5 -8t-39.5 -9t-27.5 -12
t-20.5 -16q-43 -43 -81 -162l11 -2q38 66 82 100t109 34q77 0 120 -46t43 -128q0 -58 -18.5 -117t-55.5 -107t-91.5 -78t-126.5 -30zM223 44q39 0 64 33.5t40 90.5q17 64 26.5 101t14 58t5.5 31t1 20q0 24 -13 42.5t-45 18.5q-39 0 -64 -33.5t-40 -90.5q-17 -64 -26.5 -101
t-14 -58t-5.5 -31t-1 -20q0 -24 13 -42.5t45 -18.5z" />
    <glyph glyph-name="uni0432" unicode="&#x432;" horiz-adv-x="520" 
d="M228 -12q-199 0 -199 176q0 59 17.5 124.5t53.5 120.5t92.5 91t134.5 36q92 0 135 -29.5t43 -80.5q0 -93 -130 -128v-11q45 -5 70 -29.5t25 -66.5q0 -45 -19.5 -82t-52.5 -64t-77 -42t-93 -15zM230 40q30 0 54 18.5t35 59.5q4 13 7 31.5t3 41.5q0 38 -18.5 52t-54.5 14
q-16 0 -35.5 -2t-35.5 -7q-8 -30 -12.5 -66t-4.5 -69q0 -38 16.5 -55.5t45.5 -17.5zM321 483q-21 0 -37 -7.5t-30 -28t-27.5 -56.5t-29.5 -92q78 14 116.5 37t49.5 64q2 10 3.5 19t1.5 20q0 23 -13 33.5t-34 10.5z" />
    <glyph glyph-name="uni0433" unicode="&#x433;" horiz-adv-x="464" 
d="M184 -12q-72 0 -117 36t-45 102q0 51 29.5 92t98.5 78l68 36q49 25 65.5 46.5t16.5 47.5q0 46 -57 46q-29 0 -57 -16.5t-59 -54.5l-36 24q37 54 80 82.5t108 28.5q35 0 65 -9.5t51.5 -26.5t33.5 -42t12 -55q0 -51 -30.5 -91t-99.5 -75l-68 -36q-48 -25 -64 -47.5
t-16 -49.5q0 -52 56 -52q30 0 61 17.5t73 67.5l36 -24q-42 -63 -90.5 -94t-114.5 -31z" />
    <glyph glyph-name="uni0434" unicode="&#x434;" horiz-adv-x="565" 
d="M217 -12q-92 0 -138.5 52.5t-46.5 142.5q0 59 18 117t51 103.5t79 74t102 28.5q80 0 103 -61l10 4q8 37 12.5 79.5t4.5 76.5q0 98 -78 98q-36 0 -68.5 -21.5t-68.5 -67.5l-36 22q43 66 91 95t108 29q41 0 74.5 -13.5t57 -42.5t36.5 -75t13 -111q0 -73 -10.5 -142
t-29.5 -128t-45 -106.5t-56 -77.5q-42 -42 -87.5 -59t-95.5 -17zM223 44q40 0 64 32t38 84q15 59 25.5 98.5t17 65t9 40t2.5 24.5q0 25 -13.5 43.5t-44.5 18.5q-40 0 -64 -32t-38 -84q-15 -59 -25.5 -98.5t-17 -65t-9 -40t-2.5 -24.5q0 -25 13.5 -43.5t44.5 -18.5z" />
    <glyph glyph-name="uni0435" unicode="&#x435;" horiz-adv-x="479" 
d="M186 -12q-81 0 -119 46.5t-38 129.5q0 59 17.5 124.5t53.5 120.5t92.5 91t134.5 36q33 0 61.5 -6t49 -19.5t32.5 -34t12 -49.5q0 -23 -12 -50.5t-44 -52t-88 -43t-145 -23.5q-8 -35 -11 -63t-3 -49q0 -43 16 -61t45 -18q46 0 84 37.5t72 105.5l39 -17q-23 -48 -47 -86
t-53.5 -64.5t-66 -40.5t-82.5 -14zM203 299q47 7 77.5 20.5t48.5 32t25.5 40.5t7.5 46q0 21 -10.5 33t-31.5 12t-36.5 -9.5t-28.5 -31t-25.5 -56.5t-26.5 -87z" />
    <glyph glyph-name="uni0436" unicode="&#x436;" horiz-adv-x="926" 
d="M91 -12q-51 0 -78 20t-27 54q0 26 17.5 48.5t51.5 22.5q26 0 41.5 -15.5t15.5 -39.5q0 -33 -20 -50l8 -10q13 6 25.5 18t24.5 33.5t24 55t24 82.5q18 71 26 125.5t8 92.5q0 28 -8 38.5t-21 10.5q-8 0 -16.5 -4t-19.5 -15.5t-24.5 -31.5t-31.5 -51l-38 19q37 75 72.5 110
t85.5 35q54 0 86.5 -35t32.5 -110q0 -51 -6 -94h62l56 227h132l-56 -227h59q14 53 37 97t53 75.5t66 49t77 17.5q51 0 77.5 -19.5t26.5 -54.5q0 -26 -17.5 -48.5t-51.5 -22.5q-26 0 -41.5 15.5t-15.5 39.5q0 16 5.5 29t14.5 21l-8 10q-12 -7 -23.5 -19t-22.5 -33.5
t-23 -54.5t-24 -82q-17 -71 -25 -126t-8 -92q0 -29 8.5 -39.5t23.5 -10.5q9 0 18 4.5t20 16t25 31.5t32 51l38 -19q-37 -75 -73 -110t-88 -35q-57 0 -89.5 35t-32.5 110q0 28 2 55.5t6 53.5h-61l-60 -242h-132l60 242h-58q-14 -57 -37.5 -104t-54.5 -80.5t-69 -51.5t-81 -18
z" />
    <glyph glyph-name="uni0437" unicode="&#x437;" horiz-adv-x="472" 
d="M165 -12q-44 0 -75.5 9t-52 24.5t-30 35.5t-9.5 42q0 38 22.5 64.5t59.5 26.5q28 0 44.5 -16.5t16.5 -44.5q0 -29 -19 -48t-43 -24l-1 -8q9 -6 25 -9.5t44 -3.5q50 0 81 19t43 65q4 15 5.5 27t1.5 29q0 35 -23.5 49.5t-69.5 14.5h-49l15 63h46q43 0 76 23.5t42 60.5
q2 9 3.5 15.5t1.5 14.5q0 25 -17.5 40t-53.5 15t-66.5 -19t-60.5 -61l-38 22q20 30 41.5 52.5t46.5 38t54.5 23.5t66.5 8q79 0 121.5 -31.5t42.5 -82.5q0 -48 -34 -81t-96 -47l-2 -11q44 -5 69 -28.5t25 -64.5q0 -44 -19 -81t-53 -64t-80.5 -42t-101.5 -15z" />
    <glyph glyph-name="uni0438" unicode="&#x438;" horiz-adv-x="607" 
d="M143 -12q-54 0 -78 28.5t-24 76.5q0 19 3.5 39t9.5 41l74 258h-82l15 60l242 45l-114 -410q-3 -12 -3 -21q0 -25 23 -25q21 0 46 23t50.5 64.5t48.5 99.5t41 129l32 128h144l-112 -448l18 -8l90 114l36 -21l-56 -85q-18 -28 -35.5 -45.5t-34 -27t-31.5 -12.5t-29 -3
q-25 0 -41.5 7t-26 18.5t-13.5 25.5t-4 28q0 15 3 31.5t6 27.5l6 23l-12 4q-19 -35 -38 -65t-41.5 -52t-50 -35t-62.5 -13z" />
    <glyph glyph-name="uni0439" unicode="&#x439;" horiz-adv-x="607" 
d="M143 -12q-54 0 -78 28.5t-24 76.5q0 19 3.5 39t9.5 41l74 258h-82l15 60l242 45l-114 -410q-3 -12 -3 -21q0 -25 23 -25q21 0 46 23t50.5 64.5t48.5 99.5t41 129l32 128h144l-112 -448l18 -8l90 114l36 -21l-56 -85q-18 -28 -35.5 -45.5t-34 -27t-31.5 -12.5t-29 -3
q-25 0 -41.5 7t-26 18.5t-13.5 25.5t-4 28q0 15 3 31.5t6 27.5l6 23l-12 4q-19 -35 -38 -65t-41.5 -52t-50 -35t-62.5 -13zM375 589q-57 0 -87 26t-30 67q0 34 20.5 58t56.5 24q29 0 47 -16.5t18 -43.5q0 -19 -8.5 -33.5t-21.5 -22.5v-6q5 -4 21 -4q37 0 77.5 27.5
t75.5 92.5l35 -22q-24 -41 -48.5 -69.5t-49.5 -45.5t-51.5 -24.5t-54.5 -7.5z" />
    <glyph glyph-name="uni043A" unicode="&#x43a;" horiz-adv-x="593" 
d="M386 -12q-48 0 -72 23t-29 74l-15 156l-5 4h-41l-61 -245h-144l108 431h-81l15 60l237 45l-59 -235h19q13 0 25 4t24 16t25.5 34t30.5 58q16 33 31.5 56.5t32.5 38.5t38 21.5t47 6.5q43 0 67 -21.5t24 -59.5q0 -17 -5.5 -33.5t-16 -29t-26 -20t-34.5 -7.5
q-28 0 -47.5 15.5t-19.5 41.5q0 15 6.5 31t16.5 25l-7 7q-16 -8 -32.5 -30.5t-40.5 -75.5q-21 -43 -37 -61.5t-33 -28.5v-5q41 -3 62 -23.5t26 -70.5l11 -117h18l75 95l37 -23l-46 -69q-18 -27 -33.5 -44t-30 -26.5t-29.5 -13.5t-31 -4z" />
    <glyph glyph-name="uni043B" unicode="&#x43b;" horiz-adv-x="623" 
d="M63 -12q-42 0 -67.5 22t-25.5 57q0 29 18.5 52.5t55.5 23.5q26 0 42.5 -14.5t16.5 -39.5q0 -14 -6 -26t-16 -19l8 -6q8 1 24 17q10 10 20 26.5t22 48t27 82t34 128.5l32 125h-81l14 59h405l-111 -448l18 -8l90 114l36 -21l-56 -85q-35 -53 -70 -70.5t-64 -17.5
q-27 0 -45 7t-29 19t-16 26.5t-5 29.5q0 12 3 28.5t6 27.5l83 335h-115l-28 -115q-20 -83 -36 -137.5t-30.5 -90t-27.5 -55.5t-28 -35q-22 -22 -46 -31t-52 -9z" />
    <glyph glyph-name="uni043C" unicode="&#x43c;" horiz-adv-x="828" 
d="M64 -12q-42 0 -68 22t-26 57q0 29 19 52.5t55 23.5q27 0 43 -14.5t16 -39.5q0 -14 -6 -26t-16 -19l8 -6q5 1 9.5 4t9.5 8q7 7 14 19t16 38.5t22.5 74t33.5 127.5l40 156h-81l14 59h246l35 -251h5l162 251h177l-112 -448l18 -8l90 114l36 -21l-56 -85q-35 -54 -70.5 -71
t-64.5 -17q-26 0 -44 7t-29 19t-16 26.5t-5 29.5q0 12 3 27t6 29l73 291h-5l-46 -75l-223 -347l-49 346l-7 76h-5l-25 -100q-21 -83 -35.5 -134.5t-26 -83t-21.5 -48t-22 -28.5q-35 -35 -92 -35z" />
    <glyph glyph-name="uni043D" unicode="&#x43d;" horiz-adv-x="611" 
d="M418 -12q-27 0 -45.5 7t-29.5 19t-16 26.5t-5 29.5q0 12 3 28.5t6 27.5l28 113h-135l-61 -239h-144l108 431h-81l15 60l237 45l-59 -234h136l56 222h144l-112 -448l18 -8l90 114l36 -21l-56 -85q-36 -53 -70 -70.5t-63 -17.5z" />
    <glyph glyph-name="uni043E" unicode="&#x43e;" horiz-adv-x="549" 
d="M223 44q39 0 63.5 32t37.5 84q18 70 30 115.5t18.5 74t9 43.5t2.5 24q0 26 -13.5 44.5t-44.5 18.5q-39 0 -63.5 -32t-37.5 -84q-18 -70 -30 -115.5t-18.5 -74t-9 -43.5t-2.5 -24q0 -26 13.5 -44.5t44.5 -18.5zM216 -12q-91 0 -137.5 52.5t-46.5 143.5q0 58 20 120.5
t58.5 114t94.5 84.5t128 33q91 0 137.5 -52.5t46.5 -143.5q0 -59 -20 -121t-58.5 -113.5t-94.5 -84.5t-128 -33z" />
    <glyph glyph-name="uni043F" unicode="&#x43f;" horiz-adv-x="609" 
d="M410 -12q-27 0 -45 7.5t-29 19t-15.5 26t-4.5 28.5q0 13 3 28.5t6 27.5l76 272q3 12 3 21q0 26 -23 26q-21 0 -46 -23t-50.5 -65t-48.5 -100t-41 -128l-32 -128h-144l108 431h-81l15 60l222 45l-40 -161l12 -4q19 34 38 64.5t41.5 52.5t50 35t62.5 13q54 0 78 -28.5
t24 -76.5q0 -18 -3.5 -38t-9.5 -42l-78 -275l18 -8l90 114l36 -21l-56 -85q-32 -48 -65 -68t-71 -20z" />
    <glyph glyph-name="uni0440" unicode="&#x440;" horiz-adv-x="577" 
d="M-78 -141h62l143 572h-81l15 60l216 45l-37 -153l12 -4q14 31 31 59t38.5 50t48.5 35t62 13q63 0 90 -42t27 -115q0 -64 -18.5 -133t-52.5 -126.5t-83 -94.5t-109 -37q-84 0 -102 78h-12l-44 -207h88l-14 -59h-294zM244 63q35 0 69.5 39t59.5 128q11 38 19 84.5t8 78.5
q0 23 -6.5 37t-23.5 14q-24 0 -49.5 -26t-47 -64t-38.5 -81t-24 -77l-7 -29q-11 -48 -3 -76t43 -28z" />
    <glyph glyph-name="uni0441" unicode="&#x441;" horiz-adv-x="458" 
d="M186 -12q-81 0 -119 46.5t-38 127.5q0 60 17 126t52 121t87 91t123 36q74 0 113.5 -33t39.5 -84q0 -21 -6 -39.5t-17.5 -33t-28 -23t-37.5 -8.5q-30 0 -45.5 20.5t-15.5 44.5q0 13 5 26.5t15.5 24.5t26 19t36.5 10v10q-12 9 -28.5 13.5t-33.5 4.5q-19 0 -35.5 -7
t-31.5 -26t-29 -52.5t-28 -86.5q-15 -55 -22 -98t-7 -72q0 -43 16 -61t45 -18q45 0 81 37t71 106l39 -17q-23 -49 -47 -87t-52.5 -64.5t-64 -40t-81.5 -13.5z" />
    <glyph glyph-name="uni0442" unicode="&#x442;" horiz-adv-x="887" 
d="M689 -12q-27 0 -45 7.5t-29.5 19t-16 26t-4.5 28.5q0 13 3 28.5t6 27.5l76 272q3 12 3 21q0 26 -22 26q-21 0 -46.5 -23t-50.5 -64.5t-48 -100t-41 -128.5l-32 -128h-144l99 397q3 13 3 21q0 26 -22 26q-21 0 -46 -23.5t-49.5 -65.5t-47.5 -100t-40 -127l-32 -128h-144
l108 431h-81l15 60l222 45l-40 -161l12 -4q19 34 38 64.5t41.5 52.5t49 35t59.5 13q44 0 64 -26t20 -75q0 -10 -1 -21t-3 -23l-3 -16l12 -4q19 34 38.5 64.5t42.5 52.5t50.5 35t62.5 13q54 0 77.5 -29t23.5 -77q0 -18 -3.5 -37.5t-9.5 -41.5l-78 -275l18 -8l90 114l36 -21
l-56 -85q-32 -48 -65 -68t-70 -20z" />
    <glyph glyph-name="uni0443" unicode="&#x443;" horiz-adv-x="512" 
d="M20 -212q-46 0 -74.5 21t-28.5 57q0 29 19 52t55 23q26 0 42.5 -14.5t16.5 -39.5q0 -15 -6 -30t-16 -23l7 -6q32 11 60 41.5t58 90.5l-63 505h-39l14 59h240l-14 -59h-51l19 -319h11l178 319h-46l14 59h158l-15 -59h-35l-317 -525q-26 -43 -51 -72t-48 -47t-45 -25.5
t-43 -7.5z" />
    <glyph glyph-name="uni0444" unicode="&#x444;" horiz-adv-x="784" 
d="M163 -212q-58 0 -88 23.5t-30 61.5q0 26 19 47.5t51 21.5q27 0 43.5 -16t16.5 -40q0 -20 -12 -33.5t-28 -22.5l8 -8q33 0 55 17.5t34 64.5l46 182l-9 2q-29 -51 -57.5 -72t-70.5 -21q-47 0 -74 34t-27 108q0 79 18.5 150.5t50.5 124.5t74.5 84.5t90.5 31.5q35 0 57 -16
t34 -48h7l21 90q12 50 34.5 86t53 59t66.5 34t75 11q58 0 88 -23.5t30 -61.5q0 -26 -19 -47.5t-51 -21.5q-27 0 -43.5 16t-16.5 40q0 20 12 33.5t28 22.5l-8 8q-33 0 -55.5 -18t-33.5 -65l-46 -189l8 -3q29 51 57.5 72t70.5 21q47 0 74 -34t27 -108q0 -80 -18.5 -151
t-50.5 -124t-74.5 -84.5t-90.5 -31.5q-35 0 -57 16t-34 48h-7l-20 -82q-12 -50 -35 -86t-53 -59t-66 -33.5t-75 -10.5zM199 75q29 0 64.5 49t60.5 147l23 92q15 58 4.5 80t-36.5 22q-34 0 -65.5 -41t-55.5 -137q-14 -59 -20 -94.5t-6 -61.5q0 -56 31 -56zM469 58
q34 0 65.5 41t55.5 137q14 59 20 94.5t6 61.5q0 56 -31 56q-29 0 -64.5 -49t-60.5 -147l-23 -92q-15 -58 -4.5 -80t36.5 -22z" />
    <glyph glyph-name="uni0445" unicode="&#x445;" horiz-adv-x="618" 
d="M77 -12q-45 0 -69 21.5t-24 56.5q0 37 22 65t61 28q28 0 47 -15.5t19 -41.5q0 -15 -6.5 -31t-16.5 -26l8 -6q12 3 27.5 21t31.5 46.5t33 65.5t32 79l-52 198h-16l-77 -88l-33 24l44 62q20 28 39 45.5t37 27.5t35 13t32 3q44 0 63.5 -23.5t25.5 -70.5l15 -110h6
q14 48 27.5 80t28.5 55q14 21 30.5 34.5t33 21t32.5 10.5t28 3q45 0 69 -21.5t24 -56.5q0 -37 -22 -65t-61 -28q-28 0 -47 15.5t-19 41.5q0 15 6.5 31t16.5 26l-8 6q-12 -3 -27.5 -21t-31.5 -46.5t-33 -65.5t-32 -79l52 -198h16l77 88l33 -24l-44 -62q-20 -29 -39 -46
t-37 -27t-35 -13t-32 -3q-44 0 -63.5 23.5t-25.5 70.5l-15 110h-6q-14 -48 -27.5 -80t-28.5 -55q-14 -21 -30.5 -34.5t-33 -21t-32.5 -10.5t-28 -3z" />
    <glyph glyph-name="uni0446" unicode="&#x446;" horiz-adv-x="609" 
d="M340 -192q-20 0 -30 2v37h14q22 0 37.5 11.5t35.5 33.5l124 134l-7 8q-27 -29 -51 -37.5t-46 -8.5q-25 0 -41.5 7t-26 18.5t-13.5 25.5t-4 28q0 15 3 31.5t6 27.5l6 23l-12 4q-19 -35 -38 -65t-41.5 -52t-50 -35t-62.5 -13q-54 0 -78 28.5t-24 76.5q0 19 3.5 39t9.5 41
l74 258h-82l15 60l242 45l-114 -410q-3 -12 -3 -21q0 -25 23 -25q21 0 46 23t50.5 64.5t48.5 99.5t41 129l32 128h144l-112 -448l18 -8l90 114l36 -21q-14 -22 -23 -38.5t-15.5 -32t-11 -32t-8.5 -38.5q-6 -32 -12 -55.5t-13 -42t-15.5 -32.5t-20.5 -26q-26 -26 -62 -41
t-82 -15z" />
    <glyph glyph-name="uni0447" unicode="&#x447;" horiz-adv-x="579" 
d="M386 -12q-27 0 -45.5 7t-29.5 19t-16 26.5t-5 29.5q0 12 3 28.5t6 27.5l31 121l-12 4q-31 -51 -64 -72t-75 -21q-55 0 -83 29t-28 77q0 35 13 84l21 83h-82l15 60l237 45l-51 -202q-5 -20 -6.5 -31.5t-1.5 -20.5q0 -33 34 -33q36 0 69 39.5t53 117.5l30 118h144
l-112 -448l18 -8l90 114l36 -21l-56 -85q-36 -53 -70 -70.5t-63 -17.5z" />
    <glyph glyph-name="uni0448" unicode="&#x448;" horiz-adv-x="885" 
d="M142 -12q-54 0 -77.5 29t-23.5 76q0 18 3.5 38.5t9.5 41.5l74 258h-82l15 60l242 45l-114 -410q-3 -12 -3 -21q0 -25 23 -25q21 0 46 23t50.5 64.5t48.5 99.5t41 129l32 128h144l-99 -398q-3 -12 -3 -21q0 -25 22 -25q21 0 46 23t49.5 65t47 100t39.5 128l32 128h144
l-112 -448l18 -8l90 114l36 -21l-56 -85q-18 -28 -35.5 -45.5t-34 -27t-31.5 -12.5t-29 -3q-25 0 -41.5 7t-26 18.5t-13.5 25.5t-4 28q0 15 3 31.5t6 27.5l6 23l-11 4q-19 -35 -38.5 -65t-42 -52t-49.5 -35t-60 -13q-44 0 -64 26t-20 74q0 11 1 22t3 22l3 17l-12 4
q-19 -35 -38 -65t-42 -52t-50.5 -35t-62.5 -13z" />
    <glyph glyph-name="uni0449" unicode="&#x449;" horiz-adv-x="887" 
d="M618 -192q-20 0 -30 2v37h14q22 0 37.5 11.5t35.5 33.5l124 134l-7 8q-27 -29 -51 -37.5t-46 -8.5q-25 0 -41.5 7t-26 18.5t-13.5 25.5t-4 28q0 15 3 31.5t6 27.5l6 23l-11 4q-19 -35 -38.5 -65t-42 -52t-49.5 -35t-60 -13q-44 0 -64 26t-20 74q0 11 1 22t3 22l3 17
l-12 4q-19 -35 -38 -65t-42 -52t-50.5 -35t-62.5 -13q-54 0 -77.5 29t-23.5 76q0 18 3.5 38.5t9.5 41.5l74 258h-82l15 60l242 45l-114 -410q-3 -12 -3 -21q0 -25 23 -25q21 0 46 23t50.5 64.5t48.5 99.5t41 129l32 128h144l-99 -398q-3 -12 -3 -21q0 -25 22 -25q21 0 46 23
t49.5 65t47 100t39.5 128l32 128h144l-112 -448l18 -8l90 114l36 -21q-14 -22 -23 -38.5t-15.5 -32t-11 -32t-8.5 -38.5q-6 -32 -12 -55.5t-13 -42t-15.5 -32.5t-20.5 -26q-26 -26 -62 -41t-82 -15z" />
    <glyph glyph-name="uni044A" unicode="&#x44a;" horiz-adv-x="569" 
d="M279 -12q-98 0 -146 45t-48 115q0 65 38.5 130t130.5 135l-121 22l-17 -10l-30 -96l-41 6l32 132q10 41 29.5 54t44.5 13q15 0 30.5 -2.5t35.5 -8.5t46 -15.5t61 -22.5l10 39h66l-9 -34q-5 -17 -10 -27.5t-18 -25.5q-20 -23 -35.5 -41.5t-27 -34t-21 -30t-17.5 -29.5
l11 -4q26 25 52.5 35.5t62.5 10.5q63 0 100 -31t37 -88q0 -51 -19 -94.5t-52 -75t-78 -49.5t-97 -18zM281 40q28 0 52 24t38 81q13 52 13 90q0 30 -12 41t-35 11q-16 0 -32.5 -7.5t-31 -20.5t-26 -31.5t-16.5 -39.5q-10 -40 -10 -76q0 -38 15.5 -55t44.5 -17z" />
    <glyph glyph-name="uni044B" unicode="&#x44b;" horiz-adv-x="801" 
d="M236 -12q-91 0 -139 44t-48 121q0 25 4.5 51t17.5 71l45 156h-82l15 60l242 45l-65 -234l11 -4q26 25 51.5 35.5t57.5 10.5q61 0 96 -32t35 -87q0 -51 -18.5 -94.5t-50.5 -75t-76.5 -49.5t-95.5 -18zM607 -12q-27 0 -45 7.5t-29.5 19t-16 26t-4.5 29.5q0 12 3 28.5
t6 27.5l100 398h144l-112 -448l18 -8l90 114l36 -21l-56 -85q-36 -54 -70.5 -71t-63.5 -17zM238 40q29 0 50 24t35 81q7 27 10.5 49t3.5 41q0 29 -10 40.5t-30 11.5q-15 0 -31 -8t-30 -21.5t-25 -31.5t-16 -38q-10 -40 -10 -79q0 -35 15 -52t38 -17z" />
    <glyph glyph-name="uni044C" unicode="&#x44c;" horiz-adv-x="533" 
d="M243 -12q-97 0 -145.5 44t-48.5 121q0 25 4.5 51t17.5 71l45 156h-82l15 60l242 45l-65 -234l11 -4q26 25 52.5 35.5t62.5 10.5q63 0 100 -31t37 -88q0 -51 -19 -94.5t-52.5 -75t-78.5 -49.5t-96 -18zM245 40q28 0 52 24t38 81q13 52 13 90q0 30 -12 41t-35 11
q-16 0 -32.5 -7.5t-31 -20.5t-26 -31.5t-16.5 -39.5q-10 -40 -10 -76q0 -38 15.5 -55t44.5 -17z" />
    <glyph glyph-name="uni044D" unicode="&#x44d;" horiz-adv-x="484" 
d="M154 -12q-40 0 -69 9t-48.5 24.5t-29 35.5t-9.5 42q0 37 22.5 64t59.5 27q28 0 44.5 -16.5t16.5 -45.5q0 -28 -19 -47t-43 -24l-1 -8q9 -6 25 -9.5t33 -3.5q23 0 44 7.5t39 27t33.5 53t28.5 84.5l8 32h-152l15 63h151q8 39 11.5 61.5t3.5 38.5q0 69 -70 69q-40 0 -73 -24
t-66 -74l-37 20q24 38 47 65t48.5 44t54.5 25t65 8q86 0 125.5 -46t39.5 -130q0 -65 -18.5 -131t-56 -119.5t-93 -87.5t-130.5 -34z" />
    <glyph glyph-name="uni044E" unicode="&#x44e;" horiz-adv-x="804" 
d="M479 -12q-90 0 -133.5 53t-43.5 143q0 13 1 27t3 28h-82l-61 -239h-144l108 431h-81l15 60l237 45l-59 -234h81q14 46 38.5 88t59 74.5t79.5 52t99 19.5q90 0 133 -53t43 -143q0 -59 -19 -121t-56 -113.5t-91.5 -84.5t-126.5 -33zM486 44q36 0 57 28t37 88
q18 70 29.5 115t18 74t9 45t2.5 27q0 23 -9.5 41t-40.5 18q-37 0 -58 -28t-36 -88q-18 -70 -29.5 -115.5t-18 -74t-9 -44.5t-2.5 -27q0 -23 9.5 -41t40.5 -18z" />
    <glyph glyph-name="uni044F" unicode="&#x44f;" horiz-adv-x="604" 
d="M113 -12q-42 0 -66.5 20t-35.5 68l-14 66l44 15l23 -85h18l44 76q24 42 47 62t58 28v11q-60 8 -95 38t-35 72q0 34 15 66t46 57t79 39.5t114 14.5q56 0 110.5 -9t97.5 -23l-107 -428l18 -8l90 114l36 -21l-56 -85q-18 -28 -35.5 -45.5t-34 -27t-31.5 -12.5t-29 -3
q-28 0 -47 7t-30 19t-16 26.5t-5 29.5q0 12 2.5 28t5.5 28l26 101h-29l-79 -139q-32 -57 -62.5 -78.5t-66.5 -21.5zM411 475q-16 5 -33 7t-40 2q-72 0 -89 -68q-7 -31 -7 -57q0 -44 22 -64.5t71 -20.5h26z" />
    <glyph glyph-name="uni0450" unicode="&#x450;" horiz-adv-x="479" 
d="M186 -12q-81 0 -119 46.5t-38 129.5q0 59 17.5 124.5t53.5 120.5t92.5 91t134.5 36q33 0 61.5 -6t49 -19.5t32.5 -34t12 -49.5q0 -23 -12 -50.5t-44 -52t-88 -43t-145 -23.5q-8 -35 -11 -63t-3 -49q0 -43 16 -61t45 -18q46 0 84 37.5t72 105.5l39 -17q-23 -48 -47 -86
t-53.5 -64.5t-66 -40.5t-82.5 -14zM203 299q47 7 77.5 20.5t48.5 32t25.5 40.5t7.5 46q0 21 -10.5 33t-31.5 12t-36.5 -9.5t-28.5 -31t-25.5 -56.5t-26.5 -87zM232 754l123 48l16 -208l-38 -12z" />
    <glyph glyph-name="uni0451" unicode="&#x451;" horiz-adv-x="479" 
d="M186 -12q-81 0 -119 46.5t-38 129.5q0 59 17.5 124.5t53.5 120.5t92.5 91t134.5 36q33 0 61.5 -6t49 -19.5t32.5 -34t12 -49.5q0 -23 -12 -50.5t-44 -52t-88 -43t-145 -23.5q-8 -35 -11 -63t-3 -49q0 -43 16 -61t45 -18q46 0 84 37.5t72 105.5l39 -17q-23 -48 -47 -86
t-53.5 -64.5t-66 -40.5t-82.5 -14zM203 299q47 7 77.5 20.5t48.5 32t25.5 40.5t7.5 46q0 21 -10.5 33t-31.5 12t-36.5 -9.5t-28.5 -31t-25.5 -56.5t-26.5 -87zM248 604q-30 0 -47.5 18t-17.5 42q0 10 3 22q6 23 27 40t51 17t47.5 -18t17.5 -42q0 -10 -3 -22q-6 -23 -27 -40
t-51 -17zM458 604q-30 0 -47.5 18t-17.5 42q0 10 3 22q6 23 27 40t51 17t47.5 -18t17.5 -42q0 -10 -3 -22q-6 -23 -27 -40t-51 -17z" />
    <glyph glyph-name="uni0452" unicode="&#x452;" horiz-adv-x="577" 
d="M192 -212q-116 0 -116 76q0 27 18 50t54 23q25 0 41 -14.5t16 -39.5q0 -16 -9.5 -31t-27.5 -25l9 -10q26 2 49 26t37 75l129 479q3 12 3 21q0 26 -23 26q-22 0 -47 -23t-50.5 -64.5t-48.5 -100t-41 -128.5l-32 -128h-144l151 604h-60l16 62h60l16 65l152 29l-27 -94h114
l-16 -62h-116l-66 -229l12 -4q19 34 38 64.5t41.5 52.5t50 35t62.5 13q54 0 78 -28.5t24 -76.5q0 -19 -3.5 -38.5t-9.5 -41.5l-107 -385q-26 -91 -86 -134.5t-141 -43.5z" />
    <glyph glyph-name="uni0453" unicode="&#x453;" horiz-adv-x="464" 
d="M184 -12q-72 0 -117 36t-45 102q0 51 29.5 92t98.5 78l68 36q49 25 65.5 46.5t16.5 47.5q0 46 -57 46q-29 0 -57 -16.5t-59 -54.5l-36 24q37 54 80 82.5t108 28.5q35 0 65 -9.5t51.5 -26.5t33.5 -42t12 -55q0 -51 -30.5 -91t-99.5 -75l-68 -36q-48 -25 -64 -47.5
t-16 -49.5q0 -52 56 -52q30 0 61 17.5t73 67.5l36 -24q-42 -63 -90.5 -94t-114.5 -31zM274 602l100 200l111 -58l-175 -162z" />
    <glyph glyph-name="uni0454" unicode="&#x454;" horiz-adv-x="465" 
d="M197 -12q-88 0 -127.5 46t-39.5 129q0 65 18.5 131.5t55.5 120t93 87.5t130 34q38 0 66.5 -9t47 -24.5t28 -35t9.5 -40.5q0 -35 -21.5 -61t-57.5 -26q-27 0 -42.5 16t-15.5 43t18 44.5t41 22.5l1 8q-8 6 -23.5 10t-32.5 4q-23 0 -44 -8t-40 -27.5t-34 -52.5t-26 -84
l-5 -23h151l-15 -63h-151q-10 -45 -13.5 -69t-3.5 -41q0 -68 69 -68q48 0 84.5 26t70.5 85l38 -20q-25 -42 -50 -71.5t-52.5 -48t-58.5 -27t-68 -8.5z" />
    <glyph glyph-name="uni0455" unicode="&#x455;" horiz-adv-x="422" 
d="M110 -12q-72 0 -101 21t-29 57q0 28 18.5 51.5t54.5 23.5q26 0 42.5 -16t16.5 -41q0 -15 -6 -31.5t-17 -25.5l9 -11q48 9 80 35t32 67q0 20 -8.5 36.5t-21 31.5t-28 30t-29.5 31q-19 22 -35 47t-16 61q0 46 19.5 80t51.5 56.5t73.5 33.5t85.5 11q70 0 99 -21t29 -57
q0 -28 -18.5 -51.5t-54.5 -23.5q-26 0 -42.5 16t-16.5 41q0 15 6 31.5t17 25.5l-9 11q-45 -10 -72 -37.5t-27 -64.5q0 -20 8.5 -36.5t21.5 -31.5t29 -30t31 -32q17 -19 32.5 -44.5t15.5 -63.5q0 -46 -20.5 -79.5t-54.5 -56t-77.5 -33.5t-88.5 -11z" />
    <glyph glyph-name="uni0456" unicode="&#x456;" horiz-adv-x="330" 
d="M138 -12q-27 0 -45 7.5t-29.5 19t-16 26t-4.5 29.5q0 12 3 28.5t6 27.5l76 305h-81l15 60l237 45l-115 -460l18 -8l90 114l36 -21l-56 -85q-35 -53 -70 -70.5t-64 -17.5zM271 766q37 0 56.5 -19t19.5 -45q0 -14 -3 -26q-8 -32 -33 -50t-60 -18q-37 0 -56.5 19t-19.5 45
q0 14 3 26q8 32 33 50t60 18z" />
    <glyph glyph-name="uni0457" unicode="&#x457;" horiz-adv-x="330" 
d="M138 -12q-27 0 -45 7.5t-29.5 19t-16 26t-4.5 29.5q0 12 3 28.5t6 27.5l76 305h-81l15 60l237 45l-115 -460l18 -8l90 114l36 -21l-56 -85q-35 -53 -70 -70.5t-64 -17.5zM135 604q-30 0 -47.5 18t-17.5 42q0 10 3 22q6 23 27 40t51 17t47.5 -18t17.5 -42q0 -10 -3 -22
q-6 -23 -27 -40t-51 -17zM345 604q-30 0 -47.5 18t-17.5 42q0 10 3 22q6 23 27 40t51 17t47.5 -18t17.5 -42q0 -10 -3 -22q-6 -23 -27 -40t-51 -17z" />
    <glyph glyph-name="uni0458" unicode="&#x458;" horiz-adv-x="303" 
d="M-64 -212q-60 0 -88.5 19.5t-28.5 54.5q0 29 18 52t53 23q26 0 42 -14.5t16 -39.5q0 -16 -9.5 -31t-27.5 -25l9 -10q30 3 47 28t30 73l129 513h-81l15 60l237 45l-144 -569q-12 -46 -33 -80t-49 -56t-62.5 -32.5t-72.5 -10.5zM249 608q-37 0 -56.5 19t-19.5 45q0 14 3 26
q8 32 33 50t60 18q37 0 56.5 -19t19.5 -45q0 -14 -3 -26q-8 -32 -33 -50t-60 -18z" />
    <glyph glyph-name="uni0459" unicode="&#x459;" horiz-adv-x="819" 
d="M63 -12q-42 0 -67.5 22t-25.5 57q0 29 18.5 52.5t55.5 23.5q26 0 42.5 -14.5t16.5 -39.5q0 -14 -6 -26t-16 -19l8 -6q8 1 24 17q10 10 20 26.5t22 48t27 82t34 128.5l32 125h-81l14 59h398l-56 -222l12 -4q26 25 51.5 35.5t57.5 10.5q61 0 96 -32t35 -87
q0 -51 -18.5 -94.5t-51 -75t-77 -49.5t-95.5 -18q-91 0 -136.5 44t-45.5 121q0 21 5.5 52t16.5 72l46 184h-108l-28 -115q-20 -83 -36 -137.5t-30.5 -90t-27.5 -55.5t-28 -35q-22 -22 -46 -31t-52 -9zM536 40q28 0 49.5 24t35.5 81q13 52 13 90q0 29 -10 40.5t-30 11.5
q-15 0 -31 -8t-30 -21.5t-24.5 -31.5t-15.5 -38q-10 -40 -10 -79q0 -35 15 -52t38 -17z" />
    <glyph glyph-name="uni045A" unicode="&#x45a;" horiz-adv-x="803" 
d="M127 431h-81l15 60l237 45l-59 -234h124l56 222h144l-56 -222l12 -4q25 24 51 35t58 11q61 0 96 -32t35 -87q0 -51 -18.5 -94.5t-51 -75t-77 -49.5t-95.5 -18q-91 0 -136.5 44t-45.5 121q0 31 13 86h-124l-61 -239h-144zM520 40q28 0 49.5 24t35.5 81q13 52 13 90
q0 29 -10 40.5t-30 11.5q-15 0 -31 -8t-30 -21.5t-24.5 -31.5t-15.5 -38q-10 -40 -10 -79q0 -35 15 -52t38 -17z" />
    <glyph glyph-name="uni045B" unicode="&#x45b;" horiz-adv-x="599" 
d="M400 -12q-27 0 -45 7.5t-29 19t-15.5 26t-4.5 28.5q0 13 3 28.5t6 27.5l76 272q3 12 3 21q0 26 -23 26q-21 0 -46 -23t-50.5 -64.5t-48.5 -100t-41 -128.5l-32 -128h-144l151 604h-60l16 62h60l16 65l152 29l-27 -94h114l-16 -62h-116l-66 -229l12 -4q19 34 38 64.5
t41.5 52.5t50 35t62.5 13q54 0 78 -28.5t24 -76.5q0 -18 -3.5 -38t-9.5 -42l-78 -275l18 -8l90 114l36 -21l-56 -85q-32 -48 -65 -68t-71 -20z" />
    <glyph glyph-name="uni045C" unicode="&#x45c;" horiz-adv-x="593" 
d="M386 -12q-48 0 -72 23t-29 74l-15 156l-5 4h-41l-61 -245h-144l108 431h-81l15 60l237 45l-59 -235h19q13 0 25 4t24 16t25.5 34t30.5 58q16 33 31.5 56.5t32.5 38.5t38 21.5t47 6.5q43 0 67 -21.5t24 -59.5q0 -17 -5.5 -33.5t-16 -29t-26 -20t-34.5 -7.5
q-28 0 -47.5 15.5t-19.5 41.5q0 15 6.5 31t16.5 25l-7 7q-16 -8 -32.5 -30.5t-40.5 -75.5q-21 -43 -37 -61.5t-33 -28.5v-5q41 -3 62 -23.5t26 -70.5l11 -117h18l75 95l37 -23l-46 -69q-18 -27 -33.5 -44t-30 -26.5t-29.5 -13.5t-31 -4zM334 602l100 200l111 -58l-175 -162z
" />
    <glyph glyph-name="uni045D" unicode="&#x45d;" horiz-adv-x="607" 
d="M143 -12q-54 0 -78 28.5t-24 76.5q0 19 3.5 39t9.5 41l74 258h-82l15 60l242 45l-114 -410q-3 -12 -3 -21q0 -25 23 -25q21 0 46 23t50.5 64.5t48.5 99.5t41 129l32 128h144l-112 -448l18 -8l90 114l36 -21l-56 -85q-18 -28 -35.5 -45.5t-34 -27t-31.5 -12.5t-29 -3
q-25 0 -41.5 7t-26 18.5t-13.5 25.5t-4 28q0 15 3 31.5t6 27.5l6 23l-12 4q-19 -35 -38 -65t-41.5 -52t-50 -35t-62.5 -13zM265 754l123 48l16 -208l-38 -12z" />
    <glyph glyph-name="uni045E" unicode="&#x45e;" horiz-adv-x="512" 
d="M20 -212q-46 0 -74.5 21t-28.5 57q0 29 19 52t55 23q26 0 42.5 -14.5t16.5 -39.5q0 -15 -6 -30t-16 -23l7 -6q32 11 60 41.5t58 90.5l-63 505h-39l14 59h240l-14 -59h-51l19 -319h11l178 319h-46l14 59h158l-15 -59h-35l-317 -525q-26 -43 -51 -72t-48 -47t-45 -25.5
t-43 -7.5zM377 589q-57 0 -87 26t-30 67q0 34 20.5 58t56.5 24q29 0 47 -16.5t18 -43.5q0 -19 -8.5 -33.5t-21.5 -22.5v-6q5 -4 21 -4q37 0 77.5 27.5t75.5 92.5l35 -22q-24 -41 -48.5 -69.5t-49.5 -45.5t-51.5 -24.5t-54.5 -7.5z" />
    <glyph glyph-name="uni045F" unicode="&#x45f;" horiz-adv-x="607" 
d="M143 -12q-54 0 -78 28.5t-24 76.5q0 19 3.5 39t9.5 41l74 258h-82l15 60l242 45l-114 -410q-3 -12 -3 -21q0 -25 23 -25q21 0 46 23t50.5 64.5t48.5 99.5t41 129l32 128h144l-112 -448l18 -8l90 114l36 -21l-56 -85q-18 -28 -35.5 -45.5t-34 -27t-31.5 -12.5t-29 -3
q-25 0 -41.5 7t-26 18.5t-13.5 25.5t-4 28q0 15 3 31.5t6 27.5l6 23l-12 4q-19 -35 -38 -65t-41.5 -52t-50 -35t-62.5 -13zM106 -180q13 0 23.5 8.5t27.5 33.5l56 82q11 17 21 28.5t18 19.5l30 -17q-5 -10 -9.5 -20.5t-6.5 -23.5q-5 -27 -10 -45.5t-10.5 -31.5t-12.5 -22
t-15 -18q-14 -14 -39 -23.5t-57 -9.5q-19 0 -29 2v37h13z" />
    <glyph glyph-name="uni0472" unicode="&#x472;" horiz-adv-x="701" 
d="M292 -12q-59 0 -104.5 18t-76.5 51.5t-47 81.5t-16 107q0 50 11.5 104t34 105.5t56 97.5t77.5 81t99 55.5t120 20.5q59 0 104.5 -18t76.5 -51.5t47 -81.5t16 -107q0 -50 -11.5 -104t-34 -105.5t-56 -97.5t-77.5 -81t-99 -55.5t-120 -20.5zM264 486q-7 -28 -13 -51.5
t-11 -44.5h279q7 30 12 51t8 37t4 29t1 26q0 48 -29 80t-83 32q-63 0 -107 -44.5t-61 -114.5zM306 53q63 0 107 44.5t61 114.5q8 34 15.5 62t13.5 52h-279q-9 -35 -15 -59.5t-9 -42.5t-4.5 -31.5t-1.5 -27.5q0 -48 29 -80t83 -32z" />
    <glyph glyph-name="uni0473" unicode="&#x473;" horiz-adv-x="549" 
d="M216 -12q-91 0 -137.5 52.5t-46.5 143.5q0 58 20 120.5t58.5 114t94.5 84.5t128 33q91 0 137.5 -52.5t46.5 -143.5q0 -59 -20 -121t-58.5 -113.5t-94.5 -84.5t-128 -33zM326 480q-39 0 -64.5 -32t-38.5 -84q-5 -20 -9.5 -36.5t-8.5 -32.5h156q7 29 12 49.5t8 34.5t4 23
t1 15q0 26 -14.5 44.5t-45.5 18.5zM223 44q39 0 64.5 32t38.5 84q6 22 10.5 41t9.5 36h-156q-8 -32 -13 -53.5t-8 -36.5t-4.5 -24t-1.5 -16q0 -26 14.5 -44.5t45.5 -18.5z" />
    <glyph glyph-name="uni0490" unicode="&#x490;" horiz-adv-x="549" 
d="M-18 60h63l144 578h-63l15 60h374l40 160h120l-56 -224h-278l-143 -574h90l-15 -60h-306z" />
    <glyph glyph-name="uni0491" unicode="&#x491;" horiz-adv-x="490" 
d="M135 465h-61l15 59h328l37 150h106l-53 -213h-229l-115 -461h-144z" />
    <glyph glyph-name="uni0492" unicode="&#x492;" horiz-adv-x="549" 
d="M-18 60h63l64 260h-73l16 64h73l64 254h-63l15 60h494l-47 -186h-110l30 122h-167l-63 -250h168l-15 -64h-168l-65 -260h90l-15 -60h-306z" />
    <glyph glyph-name="uni0493" unicode="&#x493;" horiz-adv-x="490" 
d="M76 230h-71l15 62h71l43 173h-61l15 59h434l-39 -156h-88l23 93h-141l-42 -169h128l-15 -62h-128l-58 -230h-144z" />
    <glyph glyph-name="uni0494" unicode="&#x494;" horiz-adv-x="642" 
d="M-18 60h63l144 578h-63l15 60h496l-47 -186h-110l30 122h-169l-63 -255h7q25 12 54 19t65 7q91 0 137.5 -35t46.5 -105q0 -41 -16 -105l-32 -127q-26 -102 -87.5 -149.5t-161.5 -47.5h-77l15 60h80q22 14 40.5 38.5t31.5 74.5l41 158q10 38 13.5 62t3.5 42
q0 35 -21.5 52.5t-61.5 17.5q-55 0 -94 -27l-64 -254h63l-15 -60h-279z" />
    <glyph glyph-name="uni0495" unicode="&#x495;" horiz-adv-x="538" 
d="M139 -141h76q22 14 39.5 38.5t30.5 74.5l39 152q5 20 6.5 32t1.5 21q0 32 -35 32t-65.5 -29.5t-47.5 -96.5l-21 -83h-144l116 465h-61l15 59h434l-39 -156h-88l23 93h-141l-59 -238l11 -4q28 44 61 63t75 19q55 0 83 -29t28 -79q0 -16 -3.5 -36.5t-9.5 -46.5l-29 -113
q-26 -103 -84 -150t-153 -47h-74z" />
    <glyph glyph-name="uni0496" unicode="&#x496;" horiz-adv-x="1023" 
d="M836 0h-98l-76 321l-5 4h-62l-66 -265h63l-14 -60h-277l15 60h63l66 265h-62l-6 -4l-222 -321h-199l15 60h61l163 239q32 46 60.5 61.5t66.5 15.5l-10 154q-3 44 -8 71t-13.5 42t-20 20.5t-26.5 6.5l-4 -8q14 -8 20 -23.5t6 -34.5q0 -27 -19 -49t-59 -22q-32 0 -50.5 20
t-18.5 52q0 21 8.5 40t24 33.5t38.5 23t52 8.5q33 0 58 -9t42.5 -30t27 -56t12.5 -86l9 -138h70l62 247h-63l15 60h277l-16 -60h-63l-62 -247h70l97 176q44 80 88 111.5t97 31.5q50 0 77.5 -27t27.5 -66q0 -33 -20 -58.5t-61 -25.5q-26 0 -46 16t-20 48q0 15 9 31.5t25 24.5
l-3 8q-11 0 -21.5 -5t-23 -17.5t-28 -34.5t-34.5 -58l-94 -170q28 -6 45 -24.5t27 -61.5l54 -226h94l-56 -224h-119z" />
    <glyph glyph-name="uni0497" unicode="&#x497;" horiz-adv-x="926" 
d="M91 -12q-51 0 -78 19.5t-27 53.5q0 13 4.5 26t13 23t21.5 16.5t30 6.5q26 0 41.5 -15.5t15.5 -39.5q0 -33 -20 -50l8 -10q13 6 25.5 18t24.5 33.5t24 55t24 82.5q18 71 26 125.5t8 92.5q0 28 -8 38.5t-21 10.5q-8 0 -16.5 -4t-19.5 -15.5t-24.5 -31.5t-31.5 -51l-38 19
q37 75 72.5 110t85.5 35q54 0 86.5 -35t32.5 -110q0 -51 -6 -94h62l56 227h132l-56 -227h59q14 53 37 97t53 75.5t66 49t77 17.5q51 0 77.5 -19.5t26.5 -54.5q0 -26 -17.5 -48.5t-51.5 -22.5q-26 0 -41.5 15.5t-15.5 39.5q0 16 5.5 29t14.5 21l-8 10q-12 -7 -23.5 -19
t-22.5 -33.5t-23 -54.5t-24 -82q-17 -71 -25 -126t-8 -92q0 -29 8.5 -39.5t23.5 -10.5q9 0 18 4.5t20 16t25 31.5t32 51l38 -19q-13 -28 -20.5 -54t-14.5 -59q-12 -63 -24.5 -98t-35.5 -58q-26 -26 -62.5 -41t-81.5 -15q-20 0 -30 2v37h13q23 0 38.5 11.5t34.5 33.5l124 132
l-8 9q-24 -24 -47 -34.5t-48 -10.5q-55 0 -88 35t-33 110q0 28 2 55.5t6 53.5h-61l-60 -242h-132l60 242h-58q-14 -57 -37.5 -104t-54.5 -80.5t-69 -51.5t-81 -18z" />
    <glyph glyph-name="uni0498" unicode="&#x498;" horiz-adv-x="605" 
d="M203 -11q-46 3 -79 15t-54 30t-30.5 40t-9.5 44q0 23 8 40.5t20.5 29.5t28.5 18t32 6q35 0 51.5 -17t16.5 -42q0 -32 -20.5 -51t-54.5 -23l-3 -8q15 -11 37.5 -18t60.5 -7q75 0 119.5 30.5t61.5 96.5q5 23 9.5 45.5t4.5 35.5q0 32 -21 50.5t-76 18.5h-87l18 71h78
q48 0 85.5 29t51.5 88q5 18 7 32t2 23q0 34 -23.5 53.5t-65.5 19.5q-51 0 -87 -30t-47 -78l-10 -39h-104l52 206h104l-15 -60h6q26 32 64 52t98 20q88 0 134 -39t46 -105q0 -81 -49.5 -129.5t-136.5 -68.5l-2 -8q64 -13 98.5 -46t34.5 -85q0 -44 -16 -82t-46 -68t-73 -51.5
t-97 -31.5l-39 -156h-120z" />
    <glyph glyph-name="uni0499" unicode="&#x499;" horiz-adv-x="472" 
d="M118 -9q-63 9 -91.5 39.5t-28.5 68.5t22.5 64.5t59.5 26.5q28 0 44.5 -16.5t16.5 -44.5q0 -29 -19 -48t-43 -24l-1 -8q9 -6 25 -9.5t44 -3.5q50 0 81 19t43 65q4 15 5.5 27t1.5 29q0 35 -23.5 49.5t-69.5 14.5h-49l15 63h46q43 0 76 23.5t42 60.5q2 9 3.5 15.5t1.5 14.5
q0 25 -17.5 40t-53.5 15t-66.5 -19t-60.5 -61l-38 22q20 30 41.5 52.5t46.5 38t54.5 23.5t66.5 8q79 0 121.5 -31.5t42.5 -82.5q0 -48 -34 -81t-96 -47l-2 -11q44 -5 69 -28.5t25 -64.5q0 -38 -14 -70.5t-39.5 -58t-61.5 -43.5t-79 -25l-36 -143h-106z" />
    <glyph glyph-name="uni049A" unicode="&#x49a;" horiz-adv-x="712" 
d="M525 0h-98l-88 321l-5 4h-70l-66 -265h63l-15 -60h-279l15 60h63l144 578h-63l15 60h279l-15 -60h-63l-62 -247h75l114 178q25 39 47 66t43.5 43.5t44 24t48.5 7.5q50 0 77.5 -27t27.5 -66q0 -33 -20 -58.5t-60 -25.5q-27 0 -47 16t-20 48q0 15 9 31.5t25 24.5l-3 8
q-11 0 -20.5 -5t-21.5 -17.5t-28 -34.5t-38 -58l-108 -170q31 -6 49 -25t29 -62l63 -225h95l-56 -224h-120z" />
    </font>
</defs>
</svg>
